<svg width="214" height="215" viewBox="0 0 214 215" fill="none" xmlns="http://www.w3.org/2000/svg">
<path fill-rule="evenodd" clip-rule="evenodd" d="M1.67188 3.37033C2.59523 3.37033 3.34375 2.61968 3.34375 1.69371C3.34375 0.767738 2.59523 0.0170898 1.67188 0.0170898C0.748524 0.0170898 0 0.767738 0 1.69371C0 2.61968 0.748524 3.37033 1.67188 3.37033ZM1.67188 144.206C2.59523 144.206 3.34375 143.456 3.34375 142.53C3.34375 141.604 2.59523 140.853 1.67188 140.853C0.748524 140.853 0 141.604 0 142.53C0 143.456 0.748524 144.206 1.67188 144.206ZM143.781 1.69371C143.781 2.61968 143.033 3.37033 142.109 3.37033C141.186 3.37033 140.438 2.61968 140.438 1.69371C140.438 0.767738 141.186 0.0170898 142.109 0.0170898C143.033 0.0170898 143.781 0.767738 143.781 1.69371ZM142.109 144.206C143.033 144.206 143.781 143.456 143.781 142.53C143.781 141.604 143.033 140.853 142.109 140.853C141.186 140.853 140.438 141.604 140.438 142.53C140.438 143.456 141.186 144.206 142.109 144.206ZM3.34375 72.1118C3.34375 73.0377 2.59523 73.7884 1.67188 73.7884C0.748524 73.7884 0 73.0377 0 72.1118C0 71.1858 0.748524 70.4351 1.67188 70.4351C2.59523 70.4351 3.34375 71.1858 3.34375 72.1118ZM1.67188 214.624C2.59523 214.624 3.34375 213.874 3.34375 212.948C3.34375 212.022 2.59523 211.271 1.67188 211.271C0.748524 211.271 0 212.022 0 212.948C0 213.874 0.748524 214.624 1.67188 214.624ZM143.781 72.1118C143.781 73.0377 143.033 73.7884 142.109 73.7884C141.186 73.7884 140.438 73.0377 140.438 72.1118C140.438 71.1858 141.186 70.4351 142.109 70.4351C143.033 70.4351 143.781 71.1858 143.781 72.1118ZM142.109 214.624C143.033 214.624 143.781 213.874 143.781 212.948C143.781 212.022 143.033 211.271 142.109 211.271C141.186 211.271 140.438 212.022 140.438 212.948C140.438 213.874 141.186 214.624 142.109 214.624ZM73.5625 1.69371C73.5625 2.61968 72.814 3.37033 71.8906 3.37033C70.9673 3.37033 70.2188 2.61968 70.2188 1.69371C70.2188 0.767738 70.9673 0.0170898 71.8906 0.0170898C72.814 0.0170898 73.5625 0.767738 73.5625 1.69371ZM71.8906 144.206C72.814 144.206 73.5625 143.456 73.5625 142.53C73.5625 141.604 72.814 140.853 71.8906 140.853C70.9673 140.853 70.2188 141.604 70.2188 142.53C70.2188 143.456 70.9673 144.206 71.8906 144.206ZM214 1.69371C214 2.61968 213.251 3.37033 212.328 3.37033C211.405 3.37033 210.656 2.61968 210.656 1.69371C210.656 0.767738 211.405 0.0170898 212.328 0.0170898C213.251 0.0170898 214 0.767738 214 1.69371ZM212.328 144.206C213.251 144.206 214 143.456 214 142.53C214 141.604 213.251 140.853 212.328 140.853C211.405 140.853 210.656 141.604 210.656 142.53C210.656 143.456 211.405 144.206 212.328 144.206ZM73.5625 72.1118C73.5625 73.0377 72.814 73.7884 71.8906 73.7884C70.9673 73.7884 70.2188 73.0377 70.2188 72.1118C70.2188 71.1858 70.9673 70.4351 71.8906 70.4351C72.814 70.4351 73.5625 71.1858 73.5625 72.1118ZM71.8906 214.624C72.814 214.624 73.5625 213.874 73.5625 212.948C73.5625 212.022 72.814 211.271 71.8906 211.271C70.9673 211.271 70.2188 212.022 70.2188 212.948C70.2188 213.874 70.9673 214.624 71.8906 214.624ZM214 72.1118C214 73.0377 213.251 73.7884 212.328 73.7884C211.405 73.7884 210.656 73.0377 210.656 72.1118C210.656 71.1858 211.405 70.4351 212.328 70.4351C213.251 70.4351 214 71.1858 214 72.1118ZM212.328 214.624C213.251 214.624 214 213.874 214 212.948C214 212.022 213.251 211.271 212.328 211.271C211.405 211.271 210.656 212.022 210.656 212.948C210.656 213.874 211.405 214.624 212.328 214.624Z" fill="#5635DE"/>
</svg>
