<svg width="14" height="14" viewBox="0 0 14 14" fill="none" xmlns="http://www.w3.org/2000/svg">
<path fill-rule="evenodd" clip-rule="evenodd" d="M8.90909 0C6.4905 0 4.46661 1.68607 3.94731 3.94714C1.68635 4.4661 0 6.49066 0 8.90909C0 11.7207 2.27928 14 5.09091 14C7.50935 14 9.53391 12.3136 10.0529 10.0527C12.3139 9.53338 14 7.50949 14 5.09091C14 2.27928 11.7207 0 8.90909 0ZM5.30642 3.82266C7.94662 3.93261 10.0674 6.05336 10.1773 8.69355C11.6625 8.17077 12.7273 6.75479 12.7273 5.09091C12.7273 2.98219 11.0178 1.27273 8.90909 1.27273C7.2452 1.27273 5.82921 2.33749 5.30642 3.82266Z" fill="white"/>
</svg>
