<svg width="11" height="10" viewBox="0 0 11 10" fill="none" xmlns="http://www.w3.org/2000/svg">
<path d="M9.9078 0.592198C9.30355 -0.0120486 8.32477 -0.0149446 7.71696 0.585716L5.5 2.7766L3.28304 0.585716C2.67523 -0.0149445 1.69645 -0.0120486 1.0922 0.592198C0.487951 1.19645 0.485055 2.17523 1.08572 2.78304L3.2766 5L1.08572 7.21696C0.485056 7.82477 0.487951 8.80355 1.0922 9.4078C1.69645 10.012 2.67523 10.0149 3.28304 9.41428L5.5 7.2234L7.71696 9.41428C8.32477 10.0149 9.30355 10.012 9.9078 9.4078C10.512 8.80355 10.5149 7.82477 9.91428 7.21696L7.7234 5L9.91428 2.78304C10.5149 2.17523 10.512 1.19645 9.9078 0.592198Z" fill="#5634DE"/>
</svg>
