<svg width="18" height="18" viewBox="0 0 18 18" fill="none" xmlns="http://www.w3.org/2000/svg">
<path fill-rule="evenodd" clip-rule="evenodd" d="M8.20002 9.04643C8.19989 9.04338 8.19989 9.04034 8.19989 9.03742V3.43738C8.19989 2.99558 8.55804 2.63733 8.99994 2.63733C9.44174 2.63733 9.79986 2.99558 9.79986 3.43738V8.25547H13.5832C14.025 8.25547 14.3831 8.61372 14.3831 9.05552C14.3831 9.49732 14.0249 9.85543 13.5832 9.85543H9.00004C8.5581 9.85543 8.19999 9.49729 8.19999 9.05552C8.19999 9.05247 8.19999 9.04943 8.20012 9.0465L8.20002 9.04643ZM18 8.99984C18 4.02932 13.9707 0 9.00016 0C4.02965 0 0 4.02932 0 8.99984C0 13.9704 4.02932 18 9.00016 18C13.9707 18 18 13.9707 18 8.99984ZM1.60029 8.99984C1.60029 4.91299 4.91332 1.59996 9.00016 1.59996C13.087 1.59996 16.4 4.91299 16.4 8.99984C16.4 13.0867 13.087 16.3997 9.00016 16.3997C4.91332 16.3997 1.60029 13.0867 1.60029 8.99984Z" fill="#5634DE"/>
</svg>
