<svg width="18" height="17" viewBox="0 0 18 17" fill="none" xmlns="http://www.w3.org/2000/svg">
<path d="M8.43861 13.1001C8.43861 13.9168 6.5332 14.5973 4.2193 14.5973C1.90565 14.5973 0 13.9169 0 13.1001V11.5348C0 12.3515 1.9054 13.032 4.2193 13.032C6.56717 13.032 8.43861 12.3516 8.43861 11.5348V13.1001ZM8.43861 10.378C8.43861 11.1947 6.5332 11.8752 4.2193 11.8752C1.90565 11.8752 0 11.1947 0 10.378V8.81265C0 9.62934 1.9054 10.3099 4.2193 10.3099C6.56717 10.3099 8.43861 9.6294 8.43861 8.81265V10.378ZM8.43861 7.62192C8.43861 8.4386 6.5332 9.11913 4.2193 9.11913C1.90565 9.11913 0 8.43867 0 7.62192V6.05659C0 6.87328 1.9054 7.5538 4.2193 7.5538C6.56717 7.5538 8.43861 6.87334 8.43861 6.05659V7.62192ZM4.2193 6.49905C1.90565 6.49905 0 5.81859 0 5.00184C0 4.18515 1.9054 3.50463 4.2193 3.50463C6.56717 3.50463 8.43861 4.18509 8.43861 5.00184C8.43861 5.81853 6.56711 6.49905 4.2193 6.49905ZM5.34217 1.49721C5.34217 0.680523 7.24757 0 9.56147 0C11.9093 0 13.7808 0.680462 13.7808 1.49721C13.7808 2.31396 11.8754 2.99442 9.56147 2.99442C7.2136 2.99442 5.34217 2.31396 5.34217 1.49721ZM9.56147 4.04917C11.9093 4.04917 13.7808 3.36871 13.7808 2.55196V4.11728C13.7808 4.93397 11.8754 5.6145 9.56147 5.6145H9.42547V4.49163C9.39153 4.32145 9.32341 4.18545 9.15323 4.04922L9.56147 4.04917ZM9.42523 8.37055V6.80523H9.56123C11.9091 6.80523 13.7805 6.12477 13.7805 5.30802V6.87334C13.7805 7.04352 13.7124 7.17952 13.5764 7.34969C11.5008 7.41781 9.45938 8.37055 9.42523 8.37055ZM17.9998 15.2779C17.9998 16.0945 16.0944 16.7751 13.7805 16.7751C11.4669 16.7751 9.56121 16.0946 9.56121 15.2779V13.7125C9.56121 14.5292 11.4666 15.2097 13.7805 15.2097C16.1284 15.2097 17.9998 14.5293 17.9998 13.7125V15.2779ZM17.9998 12.5218C17.9998 13.3385 16.0944 14.019 13.7805 14.019C11.4669 14.019 9.56121 13.3386 9.56121 12.5218V10.9565C9.56121 11.7732 11.4666 12.4537 13.7805 12.4537C16.1284 12.4537 17.9998 11.7732 17.9998 10.9565V12.5218ZM13.7807 11.3989C11.467 11.3989 9.5614 10.7185 9.5614 9.90173C9.5614 9.08504 11.4668 8.40452 13.7807 8.40452C16.1286 8.40452 18 9.08498 18 9.90173C17.9998 10.7184 16.0944 11.3989 13.7807 11.3989Z" fill="#5634DE"/>
</svg>
