<svg width="42" height="42" viewBox="0 0 42 42" fill="none" xmlns="http://www.w3.org/2000/svg">
<rect width="42" height="42" rx="9.1875" fill="#5634DE"/>
<path d="M20.5578 26.8376C20.5578 27.7626 18.3997 28.5334 15.7789 28.5334C13.1584 28.5334 11 27.7627 11 26.8376V25.0647C11 25.9897 13.1581 26.7605 15.7789 26.7605C18.4382 26.7605 20.5578 25.9898 20.5578 25.0647V26.8376ZM20.5578 23.7544C20.5578 24.6794 18.3997 25.4502 15.7789 25.4502C13.1584 25.4502 11 24.6795 11 23.7544V21.9815C11 22.9065 13.1581 23.6773 15.7789 23.6773C18.4382 23.6773 20.5578 22.9066 20.5578 21.9815V23.7544ZM20.5578 20.6328C20.5578 21.5578 18.3997 22.3286 15.7789 22.3286C13.1584 22.3286 11 21.5579 11 20.6328V18.8599C11 19.7849 13.1581 20.5557 15.7789 20.5557C18.4382 20.5557 20.5578 19.785 20.5578 18.8599V20.6328ZM15.7789 19.361C13.1584 19.361 11 18.5903 11 17.6652C11 16.7402 13.1581 15.9695 15.7789 15.9695C18.4382 15.9695 20.5578 16.7402 20.5578 17.6652C20.5578 18.5903 18.4381 19.361 15.7789 19.361ZM17.0507 13.6958C17.0507 12.7708 19.2088 12 21.8296 12C24.4889 12 26.6085 12.7707 26.6085 13.6958C26.6085 14.6209 24.4504 15.3916 21.8296 15.3916C19.1704 15.3916 17.0507 14.6209 17.0507 13.6958ZM21.8296 16.5862C24.4889 16.5862 26.6085 15.8155 26.6085 14.8904V16.6634C26.6085 17.5884 24.4504 18.3592 21.8296 18.3592H21.6756V17.0874C21.6371 16.8946 21.56 16.7406 21.3672 16.5863L21.8296 16.5862ZM21.6753 21.4808V19.7078H21.8294C24.4886 19.7078 26.6083 18.9371 26.6083 18.012V19.785C26.6083 19.9777 26.5311 20.1318 26.3771 20.3245C24.0262 20.4017 21.714 21.4808 21.6753 21.4808ZM31.3872 29.3042C31.3872 30.2292 29.2291 31 26.6083 31C23.9877 31 21.8293 30.2293 21.8293 29.3042V27.5313C21.8293 28.4563 23.9875 29.227 26.6083 29.227C29.2675 29.227 31.3872 28.4563 31.3872 27.5313V29.3042ZM31.3872 26.1826C31.3872 27.1076 29.2291 27.8784 26.6083 27.8784C23.9877 27.8784 21.8293 27.1077 21.8293 26.1826V24.4097C21.8293 25.3347 23.9875 26.1055 26.6083 26.1055C29.2675 26.1055 31.3872 25.3347 31.3872 24.4097V26.1826ZM26.6085 24.9108C23.9879 24.9108 21.8295 24.1401 21.8295 23.215C21.8295 22.29 23.9877 21.5192 26.6085 21.5192C29.2677 21.5192 31.3874 22.2899 31.3874 23.215C31.3871 24.14 29.229 24.9108 26.6085 24.9108Z" fill="white"/>
</svg>
