<svg width="38" height="34" viewBox="0 0 38 34" fill="none" xmlns="http://www.w3.org/2000/svg">
<path d="M12.8041 0C9.45012 0 6.40393 0.663819 4.09185 1.82004C1.96439 2.78376 0.264495 4.58138 0 6.63442V26.8735C0 29.1407 1.75949 30.9034 4.07887 32.0625C6.39818 33.2216 9.44415 33.8955 12.8044 33.8955C15.5487 33.8955 18.0844 33.4397 20.1875 32.6434C21.8255 33.4438 23.6674 33.8955 25.6087 33.8955C32.4376 33.8955 38 28.3332 38 21.5043C38 14.6753 32.4376 9.11298 25.6087 9.11298C25.6277 7.95247 25.5958 7.45313 25.5958 6.63457C25.28 4.26046 23.218 2.68942 21.5169 1.82019C19.2044 0.663671 16.1582 0.000147434 12.8046 0.000147434L12.8041 0ZM12.8041 2.504C15.8374 2.504 18.5722 3.14217 20.4454 4.07887C22.0845 4.89854 22.9327 5.86808 23.1174 6.69896C23.2814 8.18016 21.6823 9.38676 20.4454 10.0034C18.5721 10.94 15.8375 11.5782 12.8041 11.5782C9.77082 11.5782 7.03603 10.9401 5.16281 10.0034C3.88297 9.20385 2.46837 8.46656 2.47818 6.81506C2.6064 5.9591 3.44566 4.93711 5.16281 4.0785C7.03611 3.14185 9.77067 2.50363 12.8041 2.50363V2.504ZM2.47803 11.2812C2.96841 11.6442 3.51322 11.9732 4.09148 12.2622C6.40393 13.4184 9.45012 14.0822 12.8037 14.0822C13.8614 14.0822 14.881 14.0053 15.863 13.8757C15.2346 14.6763 14.7065 15.5551 14.2881 16.4958C13.8052 16.5309 13.3062 16.5473 12.8037 16.5473C9.77768 16.5473 7.04289 15.9192 5.17498 14.9854C3.30773 14.052 2.47737 12.9311 2.47737 12.004L2.47803 11.2812ZM25.6084 11.5909C31.0979 11.5909 35.5215 16.0143 35.5215 21.5039C35.5215 26.9934 31.098 31.4169 25.6084 31.4169C20.1189 31.4169 15.6954 26.9935 15.6954 21.5039C15.6954 16.0144 20.1189 11.5909 25.6084 11.5909ZM2.47803 16.2246C2.96207 16.5816 3.49508 16.9075 4.06552 17.1927C6.38402 18.3518 9.44289 19.0257 12.8043 19.0257C13.0322 19.0257 13.2521 19.0208 13.4756 19.013C13.3103 19.8186 13.2175 20.6507 13.2175 21.5041C13.0803 21.5081 12.9429 21.5041 12.8043 21.5041C9.77797 21.5041 7.04348 20.876 5.17557 19.9422C3.30832 19.0084 2.47796 17.8876 2.47796 16.9604L2.47803 16.2246ZM2.47803 21.1811C2.96524 21.5406 3.50459 21.8622 4.0785 22.1491C6.397 23.3082 9.44289 23.9822 12.804 23.9822C13.0302 23.9822 13.2535 23.9755 13.4753 23.9695C13.6473 24.8165 13.9009 25.6336 14.2368 26.4089C13.7701 26.4415 13.2892 26.4605 12.804 26.4605C9.77794 26.4605 7.04316 25.8324 5.17525 24.8986C3.308 23.9649 2.47764 22.8441 2.47764 21.9169L2.47803 21.1811ZM2.47803 26.1375C2.96207 26.4945 3.49508 26.8203 4.06552 27.1056C6.38402 28.2647 9.44289 28.9386 12.8043 28.9386C13.7586 28.9386 14.6863 28.8775 15.5795 28.7709C16.1442 29.5477 16.8028 30.2484 17.5286 30.8747C16.1142 31.2147 14.5028 31.4169 12.8043 31.4169C9.77908 31.4169 7.05757 30.7759 5.18885 29.8421C3.32013 28.9083 2.47826 27.7999 2.47826 26.8733L2.47803 26.1375Z" fill="#5634DE"/>
</svg>
