<svg width="21" height="19" viewBox="0 0 21 19" fill="none" xmlns="http://www.w3.org/2000/svg">
<path d="M9.55784 14.8376C9.55784 15.7626 7.39972 16.5334 4.77892 16.5334C2.1584 16.5334 0 15.7627 0 14.8376V13.0647C0 13.9897 2.15812 14.7605 4.77892 14.7605C7.43819 14.7605 9.55784 13.9898 9.55784 13.0647V14.8376ZM9.55784 11.7544C9.55784 12.6794 7.39972 13.4502 4.77892 13.4502C2.1584 13.4502 0 12.6795 0 11.7544V9.98149C0 10.9065 2.15812 11.6773 4.77892 11.6773C7.43819 11.6773 9.55784 10.9066 9.55784 9.98149V11.7544ZM9.55784 8.63283C9.55784 9.55784 7.39972 10.3286 4.77892 10.3286C2.1584 10.3286 0 9.55791 0 8.63283V6.85989C0 7.7849 2.15812 8.55568 4.77892 8.55568C7.43819 8.55568 9.55784 7.78497 9.55784 6.85989V8.63283ZM4.77892 7.36104C2.1584 7.36104 0 6.59032 0 5.66525C0 4.74024 2.15812 3.96946 4.77892 3.96946C7.43819 3.96946 9.55784 4.74017 9.55784 5.66525C9.55784 6.59026 7.43812 7.36104 4.77892 7.36104ZM6.05071 1.69579C6.05071 0.770783 8.20883 0 10.8296 0C13.4889 0 15.6085 0.770714 15.6085 1.69579C15.6085 2.62087 13.4504 3.39158 10.8296 3.39158C8.17036 3.39158 6.05071 2.62087 6.05071 1.69579ZM10.8296 4.58622C13.4889 4.58622 15.6085 3.81551 15.6085 2.89043V4.66337C15.6085 5.58838 13.4504 6.35916 10.8296 6.35916H10.6756V5.08737C10.6371 4.89462 10.56 4.74058 10.3672 4.58628L10.8296 4.58622ZM10.6753 9.48076V7.70782H10.8294C13.4886 7.70782 15.6083 6.93711 15.6083 6.01203V7.78497C15.6083 7.97772 15.5311 8.13176 15.3771 8.3245C13.0262 8.40166 10.714 9.48076 10.6753 9.48076ZM20.3872 17.3042C20.3872 18.2292 18.2291 19 15.6083 19C12.9877 19 10.8293 18.2293 10.8293 17.3042V15.5313C10.8293 16.4563 12.9875 17.227 15.6083 17.227C18.2675 17.227 20.3872 16.4563 20.3872 15.5313V17.3042ZM20.3872 14.1826C20.3872 15.1076 18.2291 15.8784 15.6083 15.8784C12.9877 15.8784 10.8293 15.1077 10.8293 14.1826V12.4097C10.8293 13.3347 12.9875 14.1055 15.6083 14.1055C18.2675 14.1055 20.3872 13.3347 20.3872 12.4097V14.1826ZM15.6085 12.9108C12.9879 12.9108 10.8295 12.1401 10.8295 11.215C10.8295 10.29 12.9877 9.51923 15.6085 9.51923C18.2677 9.51923 20.3874 10.2899 20.3874 11.215C20.3871 12.14 18.229 12.9108 15.6085 12.9108Z" fill="white"/>
</svg>
