<svg width="809" height="515" viewBox="0 0 809 515" fill="none" xmlns="http://www.w3.org/2000/svg">
<g opacity="0.7" filter="url(#filter0_f_1146_12526)">
<path opacity="0.281499" d="M471.392 372.455C471.476 371.161 472.528 369.904 474.39 368.958C476.234 368.022 478.767 367.455 481.546 367.509C484.326 367.563 486.779 368.226 488.497 369.23C490.232 370.245 491.118 371.54 491.034 372.834C490.95 374.128 489.898 375.385 488.036 376.331C486.192 377.267 483.659 377.834 480.879 377.78C478.1 377.727 475.647 377.064 473.929 376.059C472.194 375.044 471.308 373.749 471.392 372.455Z" stroke="white" stroke-width="0.953704"/>
<path opacity="0.74025" d="M198.926 117.48C196.149 117.393 193.724 116.7 192.048 115.675C190.355 114.64 189.52 113.335 189.657 112.041C189.794 110.747 190.897 109.502 192.797 108.58C194.679 107.666 197.234 107.13 200.01 107.217C202.787 107.304 205.212 107.996 206.888 109.022C208.581 110.057 209.416 111.362 209.279 112.656C209.142 113.95 208.038 115.195 206.139 116.117C204.257 117.031 201.702 117.567 198.926 117.48Z" stroke="white" stroke-width="0.953704"/>
<path opacity="0.249658" d="M652.008 239.211L652.082 241.891C652.099 242.527 652.64 242.958 653.363 242.912L673.273 241.638C674.318 241.571 675.196 240.576 674.967 239.718L674.726 238.812C674.603 238.349 674.177 238.048 673.625 238.034L653.883 237.534C652.917 237.51 651.985 238.344 652.008 239.211Z" fill="white"/>
<path opacity="0.663745" d="M441.619 286.334L435.367 285.283C434.378 285.117 433.165 285.641 432.907 286.345L429.153 296.578C428.957 297.112 429.393 297.561 430.178 297.634L433.607 297.956C434.447 298.034 435.406 297.658 435.793 297.098L442.37 287.595C442.763 287.027 442.432 286.471 441.619 286.334Z" fill="white"/>
<path opacity="0.968683" d="M795.176 36.15L786.27 40.8509C785.848 41.0732 785.842 41.4588 786.255 41.7363L789.712 44.0585C790.206 44.3908 791.074 44.4233 791.52 44.1263L799.512 38.8105C799.856 38.5811 799.83 38.2283 799.448 37.9717L796.906 36.2644C796.445 35.9542 795.647 35.9015 795.176 36.15Z" fill="white"/>
<path opacity="0.363199" d="M11.4217 174.743C8.64523 174.83 6.09027 174.294 4.20892 173.381C2.30895 172.458 1.20523 171.214 1.06844 169.92C0.931655 168.625 1.76585 167.32 3.45887 166.285C5.13531 165.26 7.56041 164.567 10.3369 164.48C13.1134 164.393 15.6683 164.929 17.5497 165.843C19.4496 166.765 20.5534 168.01 20.6901 169.304C20.8269 170.598 19.9927 171.903 18.2997 172.938C16.6233 173.964 14.1982 174.656 11.4217 174.743Z" stroke="white" stroke-width="0.953704"/>
<path opacity="0.0152601" d="M251.92 481.788L250.176 479.33C249.752 478.733 248.981 478.429 248.341 478.606L230.478 483.561C229.537 483.822 229.356 484.952 230.13 485.729L230.894 486.494C231.303 486.904 231.886 487.106 232.404 487.016L251.248 483.755C252.17 483.595 252.506 482.613 251.92 481.788Z" fill="white"/>
<path opacity="0.261507" d="M622.328 330.736C621.351 329.471 621.373 328.065 622.32 326.799C623.266 325.536 625.113 324.45 627.656 323.867C630.2 323.284 632.916 323.323 635.235 323.839C637.558 324.355 639.418 325.329 640.394 326.594C641.371 327.859 641.349 329.265 640.402 330.531C639.457 331.795 637.609 332.88 635.066 333.463C632.523 334.046 629.807 334.007 627.488 333.492C625.164 332.976 623.305 332.001 622.328 330.736Z" stroke="white" stroke-width="0.953704"/>
<path opacity="0.0918476" d="M162.895 414.158C162.416 414.709 161.541 415.139 160.425 415.356C159.31 415.573 158.01 415.563 156.807 415.253C155.604 414.942 154.767 414.4 154.369 413.793C153.97 413.185 154.027 412.544 154.506 411.993C154.985 411.442 155.859 411.012 156.976 410.795C158.09 410.578 159.39 410.588 160.593 410.898C161.796 411.209 162.634 411.751 163.031 412.358C163.43 412.966 163.373 413.608 162.895 414.158Z" stroke="white" stroke-width="0.953704"/>
<path opacity="0.239262" d="M444.858 184.031C442.079 183.971 439.631 183.302 437.922 182.293C436.195 181.274 435.319 179.977 435.413 178.683C435.508 177.389 436.57 176.134 438.44 175.193C440.292 174.262 442.829 173.701 445.608 173.761C448.387 173.822 450.835 174.491 452.545 175.5C454.271 176.519 455.147 177.815 455.053 179.109C454.958 180.403 453.896 181.658 452.026 182.599C450.174 183.531 447.637 184.092 444.858 184.031Z" stroke="white" stroke-width="0.953704"/>
<path opacity="0.840217" d="M647.6 13.322C645.44 12.9049 643.818 12.0538 642.928 11.0362C642.035 10.0147 641.911 8.87289 642.584 7.83854C643.257 6.80418 644.673 5.95993 646.548 5.47314C648.415 4.98824 650.659 4.88394 652.818 5.30108C654.978 5.71823 656.6 6.56936 657.49 7.58689C658.383 8.6084 658.507 9.75023 657.834 10.7846C657.161 11.8189 655.745 12.6632 653.87 13.15C652.003 13.6349 649.759 13.7392 647.6 13.322Z" stroke="white" stroke-width="0.953704"/>
<path opacity="0.681165" d="M32.7551 143.223C34.7262 143.834 36.0379 144.819 36.5821 145.9C37.1263 146.981 36.8978 148.137 35.8565 149.133C34.8153 150.13 33.1068 150.827 31.1229 151.123C29.1388 151.42 26.9162 151.307 24.9451 150.695C22.974 150.084 21.6623 149.1 21.118 148.018C20.5739 146.937 20.8024 145.781 21.8436 144.785C22.8849 143.789 24.5934 143.091 26.5772 142.795C28.5614 142.498 30.7839 142.611 32.7551 143.223Z" stroke="white" stroke-width="0.953704"/>
<path opacity="0.134216" d="M193.706 151.823C193.74 152.859 192.997 153.909 191.534 154.735C190.089 155.55 188.041 156.081 185.734 156.103C183.427 156.125 181.345 155.635 179.848 154.847C178.333 154.05 177.522 153.015 177.488 151.979C177.455 150.944 178.198 149.894 179.66 149.068C181.105 148.252 183.154 147.722 185.461 147.699C187.767 147.677 189.849 148.168 191.346 148.955C192.862 149.752 193.672 150.787 193.706 151.823Z" stroke="white" stroke-width="0.953704"/>
<path opacity="0.271033" d="M523.719 320.59L530.231 319.949C531.269 319.847 531.904 318.717 531.429 317.819L526.396 308.303C526.12 307.781 525.537 307.502 524.939 307.606L521.397 308.219C520.565 308.363 520.003 309.178 520.178 309.986L522.241 319.53C522.388 320.21 523.015 320.66 523.719 320.59Z" fill="white"/>
<path opacity="0.683745" d="M256.488 170.716C255.222 169.494 254.96 168.082 255.631 166.771C256.302 165.461 257.901 164.273 260.291 163.539C262.681 162.805 265.373 162.674 267.779 163.04C270.184 163.406 272.264 164.259 273.529 165.482C274.794 166.705 275.057 168.117 274.386 169.427C273.715 170.738 272.115 171.925 269.725 172.659C267.336 173.393 264.643 173.524 262.238 173.158C259.833 172.793 257.753 171.939 256.488 170.716Z" stroke="white" stroke-width="0.953704"/>
<path opacity="0.230036" d="M163.418 301.497C161.041 299.575 161.888 296.853 165.664 295.467C169.441 294.08 174.388 294.674 176.766 296.597C179.143 298.52 178.296 301.241 174.52 302.628C170.743 304.014 165.796 303.42 163.418 301.497Z" stroke="white" stroke-width="0.953704"/>
<path opacity="0.786021" d="M388.709 112.641L376.933 115.204C376.447 115.31 376.258 115.74 376.502 116.184L377.892 118.703C378.169 119.205 378.881 119.513 379.408 119.358L390.757 116.019C391.198 115.889 391.355 115.476 391.123 115.055L390.161 113.312C389.897 112.833 389.234 112.527 388.709 112.641Z" fill="white"/>
<path opacity="0.604811" d="M625.135 507.352L606.493 494.652C606.114 494.394 605.604 494.356 605.137 494.552L595.429 498.619C594.332 499.079 594.058 500.489 594.948 501.095L613.88 513.985C614.271 514.251 614.801 514.282 615.278 514.066L624.695 509.81C625.762 509.328 626.009 507.948 625.135 507.352Z" fill="white"/>
<path opacity="0.433385" d="M45.0752 47.0137L48.636 63.5053C48.7378 63.977 49.4438 64.2891 50.3043 64.243L63.0657 63.5597C64.1517 63.5016 65.0223 62.9073 64.8935 62.3122L61.2676 45.5645C61.1627 45.0796 60.4208 44.7656 59.5352 44.8311L46.8389 45.7706C45.7779 45.8491 44.9498 46.4328 45.0752 47.0137Z" fill="white"/>
<path opacity="0.921509" d="M714.485 152.814L708.102 153.766C707.085 153.918 706.635 155.071 707.253 155.941L713.813 165.182C714.172 165.689 714.799 165.938 715.38 165.806L718.808 165.025C719.612 164.841 720.04 164.004 719.736 163.21L716.131 153.798C715.874 153.129 715.176 152.711 714.485 152.814Z" fill="white"/>
<path opacity="0.331365" d="M433.157 392.104C433.14 391.069 433.9 390.022 435.376 389.203C436.835 388.395 438.891 387.874 441.199 387.863C443.506 387.852 445.579 388.352 447.064 389.147C448.566 389.951 449.36 390.99 449.377 392.026C449.394 393.062 448.634 394.108 447.157 394.927C445.699 395.736 443.642 396.256 441.335 396.267C439.028 396.278 436.955 395.778 435.47 394.983C433.968 394.179 433.174 393.14 433.157 392.104Z" stroke="white" stroke-width="0.953704"/>
<path opacity="0.997638" d="M47.2135 321.223C45.8841 321.084 44.808 320.665 44.1366 320.125C43.4548 319.576 43.256 318.966 43.4439 318.435C43.6317 317.903 44.2319 317.377 45.2389 317.006C46.2306 316.64 47.5149 316.469 48.8443 316.609C50.1737 316.748 51.2498 317.167 51.9212 317.707C52.603 318.256 52.8018 318.865 52.614 319.397C52.4261 319.929 51.8259 320.455 50.8189 320.826C49.8273 321.192 48.5429 321.363 47.2135 321.223Z" stroke="white" stroke-width="0.953704"/>
<path opacity="0.335726" d="M411.448 251.361C413.569 250.514 416.409 250.806 417.824 251.858C419.239 252.909 418.897 254.473 416.776 255.32C414.655 256.168 411.815 255.875 410.4 254.824C408.985 253.773 409.327 252.209 411.448 251.361Z" stroke="white" stroke-width="0.953704"/>
<path opacity="0.317962" d="M100.393 465.754L100.349 459.668C100.345 459.207 99.9986 458.853 99.5306 458.831L93.5871 458.559C92.9224 458.528 92.3605 459.163 92.498 459.79L93.8464 465.936C93.9287 466.311 94.2466 466.571 94.6441 466.59L99.2833 466.803C99.8696 466.83 100.397 466.331 100.393 465.754Z" fill="white"/>
</g>
<defs>
<filter id="filter0_f_1146_12526" x="-8.48597" y="-4.42884" width="817.3" height="527.698" filterUnits="userSpaceOnUse" color-interpolation-filters="sRGB">
<feFlood flood-opacity="0" result="BackgroundImageFix"/>
<feBlend mode="normal" in="SourceGraphic" in2="BackgroundImageFix" result="shape"/>
<feGaussianBlur stdDeviation="4.53009" result="effect1_foregroundBlur_1146_12526"/>
</filter>
</defs>
</svg>
