<svg width="156" height="133" viewBox="0 0 156 133" fill="none" xmlns="http://www.w3.org/2000/svg">
<g clip-path="url(#clip0_2882_5108)">
<path d="M117.759 99.0441C117.759 99.0441 119.859 96.7714 122.432 93.498C122.933 92.8552 123.454 92.1772 123.981 91.4706C124.067 91.3611 124.149 91.2482 124.231 91.1353C124.481 90.7965 124.735 90.4505 124.986 90.0995C128.599 85.0542 132.121 78.9569 131.669 74.8463C130.93 68.1291 113.138 51.1733 103.194 47.6741C100.574 46.7501 96.9175 48.2359 93.3189 50.5025C93.2948 50.517 93.2702 50.5349 93.2462 50.5489C90.6078 52.2169 88.0047 54.3013 85.8717 56.1576C85.6822 56.3208 85.4961 56.4846 85.3166 56.6439C84.9527 56.9653 84.6101 57.2761 84.2825 57.5741C84.0293 57.8066 83.7845 58.0302 83.5536 58.2465C81.9013 59.7848 80.8728 60.858 80.8728 60.858L84.4547 64.5668L86.2809 66.4572L89.666 69.9648L90.6906 71.0257L117.758 99.0441H117.759Z" fill="white"/>
<g opacity="0.35">
<path d="M84.4551 64.5668L86.2802 66.4573L111.275 92.3315L117.759 99.0436C117.759 99.0436 117.803 98.9961 117.886 98.905C117.908 98.8787 117.936 98.848 117.967 98.8156C117.99 98.7893 118.016 98.7602 118.042 98.7306C118.063 98.7094 118.082 98.6859 118.104 98.6647C118.111 98.6552 118.121 98.6462 118.128 98.6367C118.165 98.5953 118.207 98.5489 118.249 98.4998C118.26 98.4908 118.268 98.4796 118.279 98.4673C118.314 98.4271 118.351 98.3857 118.391 98.341C118.446 98.2812 118.5 98.2175 118.559 98.1515C118.599 98.1034 118.645 98.0543 118.689 98.0034C118.735 97.9508 118.78 97.8983 118.828 97.8446C118.888 97.777 118.95 97.7043 119.015 97.6317C119.143 97.4819 119.281 97.3248 119.424 97.156C119.552 97.0095 119.685 96.8536 119.822 96.6898C119.981 96.5014 120.149 96.3052 120.32 96.0995C120.955 95.3404 121.672 94.4629 122.431 93.497C122.578 93.3092 122.727 93.1169 122.878 92.9229C122.983 92.7882 123.09 92.6484 123.197 92.5087C123.455 92.1716 123.719 91.824 123.982 91.4707C127.913 86.2007 132.161 79.3399 131.667 74.8486C131.062 69.3164 118.89 56.8418 109.057 50.6552C116.698 57.0498 123.722 65.1582 124.178 69.3276C124.404 71.3891 123.507 74.0666 122.081 76.8799C121.474 78.0783 119.788 78.1241 119.083 76.9799C119.078 76.971 119.072 76.9615 119.067 76.9525C117.768 74.8603 116.044 72.7256 113.689 70.573C108.641 65.9604 100.725 60.0397 89.8425 60.1577C89.5865 60.1588 87.2556 62.1443 84.4546 64.5668H84.4551Z" fill="#371A45"/>
</g>
<path d="M117.775 100.447L79.5347 60.8591L80.1775 60.1901C80.334 60.0274 84.0579 56.1655 88.7393 52.5495C95.2239 47.5411 100.195 45.5936 103.515 46.763C113.895 50.4181 131.852 67.6769 132.627 74.7423C133.561 83.2549 119.084 99.0307 118.467 99.6982L117.775 100.447ZM82.2155 60.8619L117.734 97.6316C120.596 94.3946 131.445 81.6277 130.712 74.9531C130.401 72.1073 126.281 66.5327 120.22 60.7507C114.005 54.8223 107.359 50.1593 102.875 48.5802C97.7052 46.7602 86.7828 56.2733 82.2161 60.8625L82.2155 60.8619Z" fill="#371A45"/>
<path d="M118.014 62.8089L112.399 69.7262C111.898 70.3438 111.875 71.2208 112.347 71.8614C114.075 74.2063 118.346 79.4142 121.864 78.9022C124.784 78.4774 127.208 75.5981 127.364 72.7183C127.54 69.497 122.94 64.8229 120.554 62.6244C119.812 61.9408 118.649 62.0258 118.014 62.8089Z" fill="white"/>
<g opacity="0.35">
<path d="M112.348 71.8614C114.075 74.2063 118.347 79.4143 121.865 78.9011C124.786 78.4763 127.208 75.5982 127.365 72.7167C127.471 70.7357 125.773 68.2046 123.895 66.0392C124.656 67.3086 125.067 68.5602 125.082 69.6496C125.171 75.8922 119.147 74.8005 119.147 74.8005C119.147 74.8005 119.654 76.0772 119.388 76.4618C118.275 78.0699 114.149 73.6239 112.068 71.274C112.121 71.4802 112.214 71.6792 112.348 71.8609V71.8614Z" fill="#371A45"/>
</g>
<path d="M121.379 79.8994C117.653 79.8994 113.676 75.2879 111.572 72.4321C110.841 71.4405 110.873 70.0777 111.652 69.1191L117.266 62.2018C117.736 61.6227 118.432 61.26 119.176 61.2063C119.92 61.1543 120.659 61.4114 121.208 61.9162C124.557 65.0023 128.511 69.3902 128.327 72.7709C128.14 76.1968 125.304 79.3745 122.004 79.8553C121.797 79.8855 121.588 79.9 121.379 79.9V79.8994ZM118.762 63.4154L113.147 70.3326C112.922 70.6104 112.912 71.0034 113.123 71.289C116.42 75.763 119.634 78.2499 121.726 77.9486C124.124 77.5993 126.266 75.18 126.403 72.6658C126.512 70.6719 124.081 67.1828 119.903 63.3326C119.742 63.1845 119.533 63.1096 119.315 63.1275C119.096 63.1431 118.9 63.246 118.762 63.4159L118.762 63.4154Z" fill="#371A45"/>
<path d="M126.062 77.2733C125.871 77.3314 125.759 77.3487 125.616 77.3739C125.482 77.3945 125.349 77.4119 125.218 77.4203C124.956 77.4421 124.696 77.4437 124.44 77.4292C123.929 77.3979 123.426 77.3241 122.947 77.1827C121.983 76.9194 121.097 76.4734 120.311 75.9222C119.923 75.6388 119.542 75.3509 119.195 75.0273C118.832 74.7176 118.517 74.3862 118.189 74.053C117.866 73.7176 117.554 73.3705 117.259 73.0066C116.965 72.6332 116.687 72.28 116.451 71.8188C116.393 71.7064 116.438 71.5695 116.55 71.5119C116.655 71.4583 116.782 71.4935 116.845 71.5902L116.861 71.6159C117.077 71.9507 117.395 72.2995 117.701 72.6131C118.014 72.9312 118.346 73.2347 118.687 73.5265C119.031 73.8121 119.379 74.1128 119.739 74.3627C120.089 74.6315 120.464 74.8596 120.838 75.0815C121.595 75.5091 122.405 75.8155 123.226 75.9535C123.634 76.0335 124.047 76.0485 124.448 76.0346C124.649 76.0267 124.847 76.0049 125.038 75.9697C125.135 75.9541 125.226 75.9323 125.317 75.9094C125.398 75.8887 125.509 75.8523 125.535 75.8389C125.911 75.6399 126.377 75.7841 126.576 76.1603C126.775 76.5365 126.631 77.0027 126.255 77.2017C126.212 77.2246 126.168 77.2425 126.123 77.2565L126.062 77.2749V77.2733Z" fill="#371A45"/>
<path d="M93.0797 56.6674C93.7225 55.7658 94.3815 54.8921 95.0568 54.0218C95.732 53.1532 96.4223 52.2946 97.1395 51.4533C97.8566 50.6121 98.5889 49.7803 99.3731 48.9816C100.158 48.1828 100.97 47.4014 101.907 46.6903C102.331 46.3689 102.935 46.4517 103.257 46.8759C103.579 47.3002 103.496 47.9044 103.072 48.2264C103.054 48.2398 103.036 48.2527 103.017 48.265L103.009 48.27C102.162 48.8211 101.341 49.4997 100.544 50.204C99.7449 50.9095 98.9757 51.6663 98.2189 52.436C97.4615 53.2057 96.7236 54.0006 95.9986 54.8072C95.2753 55.6138 94.5582 56.4366 93.8712 57.2672L93.8678 57.2717C93.6929 57.483 93.3799 57.5126 93.1686 57.3382C92.9668 57.1716 92.9316 56.877 93.0808 56.6669L93.0797 56.6674Z" fill="#371A45"/>
<path d="M79.1365 62.0498L73.7625 69.8866L64.7664 83.0006L64.2634 83.734C62.2712 84.1851 60.3092 84.5294 58.374 84.772C41.7441 86.8653 27.2002 81.4098 13.5166 69.7329C8.27119 68.3555 4.33435 66.673 2.36454 64.0565C0.52608 61.6138 0.40702 58.3528 2.54788 53.767C5.47633 47.4936 11.9928 48.4623 16.3757 49.7558C18.7368 50.4523 24.284 52.1543 27.5473 53.876C28.9895 54.6367 30.5305 55.3276 32.1482 55.952C44.4696 60.734 61.1862 61.8514 71.0023 62.0643C75.9453 62.1711 79.1365 62.0492 79.1365 62.0492V62.0498Z" fill="white"/>
<g opacity="0.25">
<path d="M19.5803 56.9665C19.6093 57.0363 19.6261 57.1833 19.6283 57.3902C19.5585 57.0509 19.5512 56.8944 19.5803 56.9665Z" fill="#371A45"/>
</g>
<g opacity="0.25">
<path d="M73.7625 69.8866L64.7664 83.0006L64.2633 83.734C62.2711 84.1851 60.3092 84.5294 58.374 84.772C41.744 86.8654 27.2002 81.4098 13.5165 69.7329C8.27115 68.3556 4.33432 66.6731 2.3645 64.0565C5.52828 65.5579 9.65852 66.8017 13.0777 65.4193C16.9229 63.8659 17.914 58.2712 17.8994 56.5814C18.4517 59.2947 22.8598 73.3651 43.1588 76.5238C55.5294 78.4489 69.1543 72.2427 73.7625 69.8861V69.8866Z" fill="#371A45"/>
</g>
<path d="M51.5662 86.1626C38.0117 86.1626 25.3175 81.0167 13.0587 70.6092C5.97205 68.7221 2.28396 66.5092 0.745112 63.2286C-0.494687 60.5857 -0.190047 57.3571 1.6758 53.3588C4.11068 48.1414 9.14869 46.6187 16.6484 48.8317C20.171 49.8714 24.9994 51.4426 27.9972 53.024C45.4947 62.2543 78.7647 61.1006 79.0984 61.0877C79.6344 61.0681 80.0771 61.4823 80.0973 62.0134C80.1174 62.5449 79.7032 62.9921 79.1716 63.0122C77.7865 63.0648 45.0542 64.1995 27.0978 54.7272C24.8681 53.5511 20.9637 52.1129 16.1029 50.6785C9.5668 48.7501 5.41811 49.8926 3.42091 54.1727C1.81163 57.6215 1.50643 60.3158 2.48854 62.4097C3.75741 65.1145 7.23365 67.086 13.7608 68.8015L13.9737 68.8574L14.1414 69.0005C29.7691 82.3348 46.0945 86.8457 64.0514 82.7931C64.5707 82.6763 65.0861 83.0022 65.2029 83.5203C65.3197 84.0391 64.9944 84.555 64.4757 84.6718C60.081 85.6634 55.7814 86.1615 51.5662 86.1615V86.1626Z" fill="#371A45"/>
<path d="M34.1186 83.1246C33.7312 83.1246 33.3656 82.8888 33.2192 82.5053C33.0291 82.0089 33.2773 81.4533 33.7726 81.2622C33.8134 81.2465 36.772 80.0659 39.3791 76.8211C42.881 72.4623 44.1348 66.6227 43.1052 59.4651C43.0297 58.9385 43.3947 58.4505 43.9213 58.3745C44.4484 58.299 44.9358 58.6641 45.0118 59.1906C46.4014 68.8535 43.4931 74.8161 40.8089 78.1163C37.871 81.7278 34.601 83.0073 34.4635 83.0604C34.35 83.1034 34.2337 83.1241 34.1197 83.1241L34.1186 83.1246Z" fill="#371A45"/>
<path d="M30.7682 55.3941C29.7084 55.1247 28.3602 53.9033 28.0203 53.417C27.3205 52.4148 26.3406 51.2068 25.197 49.6328C23.2367 46.9357 18.6509 43.5165 16.5217 45.204C13.1243 47.8972 18.8046 51.507 18.8761 52.3712C18.9477 53.2353 17.1573 57.5143 19.7213 61.6093L30.7682 55.3941Z" fill="white"/>
<path d="M30.5311 56.327C29.999 56.1816 29.5926 55.9603 29.2136 55.7266C28.8391 55.4891 28.4993 55.2303 28.1745 54.9513C28.0124 54.811 27.8542 54.6663 27.6977 54.5075C27.5429 54.3493 27.3825 54.1827 27.2164 53.9474C27.0057 53.6473 26.7832 53.346 26.5557 53.043L25.1628 51.2057L24.4691 50.2683C24.2539 49.9726 24.042 49.7071 23.8039 49.4354C22.857 48.365 21.7296 47.3957 20.5233 46.6584C19.9213 46.294 19.2891 45.9888 18.681 45.8295C18.07 45.6657 17.5194 45.6858 17.2086 45.8977C17.1399 45.9368 17.0208 46.048 16.9118 46.1425C16.8201 46.2431 16.7206 46.3404 16.6575 46.4416C16.5166 46.6433 16.4445 46.8334 16.4249 47.0397C16.3763 47.4455 16.5926 48.0089 16.9649 48.5506C17.3327 49.0972 17.819 49.6249 18.34 50.157C18.6016 50.4265 18.8721 50.6909 19.1605 50.9994C19.3048 51.1593 19.449 51.3096 19.6318 51.583C19.6703 51.6355 19.7341 51.754 19.7816 51.8574C19.8011 51.8904 19.8431 52.0167 19.8632 52.1106C19.8749 52.161 19.8839 52.2113 19.8906 52.2616C19.8967 52.3113 19.8934 52.3158 19.8945 52.3454C19.895 52.4393 19.8928 52.5338 19.8872 52.6277C19.885 52.6819 19.8799 52.7065 19.876 52.7367L19.8626 52.8261C19.7916 53.2985 19.6988 53.64 19.6278 54.0106C19.5518 54.375 19.4903 54.73 19.4344 55.0849C19.3243 55.7943 19.2813 56.4991 19.2874 57.2001C19.293 58.6065 19.5988 59.9698 20.1287 61.3532L20.1415 61.3868C20.2371 61.6366 20.1125 61.9167 19.8626 62.0123C19.6619 62.0894 19.4412 62.0229 19.3126 61.8641C19.1846 61.7059 19.0549 61.5461 18.9319 61.3801L18.7452 61.1313C18.6899 61.0447 18.639 60.9547 18.5854 60.8658C18.4786 60.6881 18.3752 60.5064 18.2751 60.3231C18.1907 60.1336 18.1013 59.9435 18.0214 59.7501C17.715 58.9731 17.4976 58.1459 17.4255 57.3124C17.3444 56.479 17.3746 55.6428 17.463 54.8289C17.5049 54.422 17.5714 54.0184 17.6429 53.6288C17.7117 53.2437 17.7967 52.8367 17.8403 52.5494L17.8486 52.4963C17.8514 52.4784 17.8553 52.4561 17.8526 52.4622C17.8503 52.46 17.8514 52.4589 17.8553 52.4566C17.8565 52.4622 17.8581 52.4421 17.8587 52.4684C17.8598 52.4952 17.8626 52.5226 17.8682 52.55C17.8749 52.5975 17.9118 52.6752 17.9057 52.6668C17.9085 52.6853 17.9342 52.7155 17.9146 52.6903C17.885 52.6433 17.7715 52.5064 17.6558 52.384C17.4221 52.1285 17.1477 51.8513 16.8771 51.5668C16.3333 50.9933 15.7821 50.3762 15.3042 49.6378C15.0666 49.2672 14.8486 48.8619 14.686 48.398C14.5244 47.9374 14.4249 47.3996 14.4859 46.8395C14.5418 46.28 14.7732 45.7378 15.0806 45.318C15.231 45.0989 15.4054 44.9234 15.5787 44.7473C15.7603 44.5902 15.9207 44.4365 16.179 44.2705C16.6636 43.9547 17.2304 43.8217 17.7396 43.7987C18.2545 43.7758 18.7285 43.8524 19.1684 43.9664C20.0482 44.2006 20.809 44.583 21.5205 45.0106C22.9353 45.8792 24.1628 46.9385 25.2533 48.1665C25.5216 48.4723 25.7888 48.8082 26.0258 49.1341L26.7033 50.0497L28.0951 51.8859C28.3294 52.1973 28.563 52.5137 28.7939 52.8429C28.8475 52.9234 28.9515 53.0374 29.0661 53.1526C29.179 53.2677 29.3048 53.3829 29.4328 53.4935C29.6905 53.7149 29.9643 53.9223 30.2388 54.0961C30.5105 54.2677 30.7944 54.403 31.0052 54.46L31.0365 54.4684C31.5496 54.6076 31.8531 55.1364 31.7139 55.6501C31.5747 56.1632 31.046 56.4667 30.5323 56.3275H30.53L30.5311 56.327Z" fill="#371A45"/>
<path d="M130.555 128.313C127.767 131.304 122.682 132.76 118.351 131.304C112.144 129.216 109.572 119.665 109.572 119.665C88.4882 119.207 83.5139 109.23 83.5139 109.23L90.1305 99.8256L97.2959 89.6361C100.402 93.4835 104.163 95.9178 107.967 97.6657C114.792 100.8 121.765 101.715 125.369 104.574C127.743 106.454 129.467 109.172 130.644 112.319C131.86 115.575 132.488 119.29 132.642 123.017C132.727 125.039 131.913 126.857 130.555 128.314V128.313Z" fill="white"/>
<g opacity="0.25">
<path d="M130.644 112.319C128.328 110.72 125.27 110.508 121.377 110.753C113.068 111.281 107.694 106.947 107.694 106.947L107.966 97.6652C114.792 100.8 121.764 101.715 125.369 104.573C127.742 106.453 129.466 109.172 130.644 112.319H130.644Z" fill="#371A45"/>
</g>
<g opacity="0.25">
<path d="M130.555 128.313C127.767 131.303 122.682 132.76 118.351 131.303C112.144 129.216 109.572 119.665 109.572 119.665C88.4882 119.207 83.5139 109.23 83.5139 109.23L90.1305 99.8256C93.5519 102.992 101.75 110.518 101.75 110.518C101.75 110.518 101.449 114.031 105.104 115.971C109.934 118.538 119.593 115.343 119.807 115.273C119.562 115.444 110.403 121.865 117.977 127.246C122.834 130.694 128.867 128.917 130.555 128.313Z" fill="#371A45"/>
</g>
<path d="M121.929 132.836C120.599 132.836 119.281 132.633 118.044 132.217C112.37 130.309 109.597 122.935 108.851 120.609C88.0169 119.943 82.8627 110.084 82.6514 109.661C82.4138 109.184 82.6072 108.606 83.0834 108.369C83.558 108.132 84.1349 108.324 84.3736 108.798C84.4434 108.931 89.4921 118.267 109.595 118.702C110.023 118.712 110.393 119.002 110.504 119.415C110.528 119.505 113.019 128.495 118.658 130.392C121.919 131.489 125.851 130.829 128.675 128.71C130.701 127.189 131.769 125.182 131.681 123.058C131.349 115.008 128.831 108.546 124.771 105.329C122.853 103.809 119.805 102.843 116.275 101.726C110.018 99.744 102.231 97.2772 96.5468 90.2437C96.2126 89.8301 96.2769 89.2236 96.6905 88.8893C97.1041 88.5545 97.7106 88.6193 98.0449 89.033C103.365 95.616 110.846 97.9855 116.857 99.8893C120.568 101.065 123.773 102.079 125.968 103.819C132.128 108.701 133.398 117.919 133.606 122.979C133.721 125.756 132.38 128.339 129.831 130.251C127.583 131.939 124.731 132.837 121.929 132.837L121.929 132.836Z" fill="#371A45"/>
<path d="M98.7038 119.352C98.1717 119.352 97.7407 118.921 97.7407 118.389C97.7407 117.857 98.1717 117.426 98.7038 117.426C102.937 117.426 109.279 115.919 113.221 111.674C115.796 108.901 116.945 105.378 116.635 101.205C116.596 100.674 116.994 100.212 117.524 100.173C118.056 100.136 118.517 100.532 118.556 101.062C118.907 105.791 117.587 109.803 114.632 112.985C110.268 117.685 103.324 119.352 98.7033 119.352H98.7038Z" fill="#371A45"/>
<path d="M120.201 115.554C120.101 115.693 120.025 115.779 119.936 115.88C119.85 115.978 119.761 116.068 119.673 116.161C119.492 116.338 119.306 116.509 119.114 116.669C118.925 116.833 118.724 116.977 118.528 117.131C118.324 117.271 118.123 117.418 117.916 117.551C117.088 118.092 116.209 118.536 115.31 118.921C114.414 119.319 113.488 119.624 112.556 119.916L111.147 120.297L109.725 120.615C109.205 120.732 108.689 120.405 108.573 119.885C108.456 119.365 108.783 118.849 109.303 118.733C109.329 118.727 109.356 118.722 109.382 118.719L109.422 118.713L110.789 118.527L112.143 118.281C113.036 118.083 113.931 117.87 114.792 117.572C115.658 117.286 116.505 116.944 117.301 116.516C117.502 116.41 117.693 116.293 117.889 116.182C118.076 116.06 118.271 115.944 118.45 115.813C118.633 115.685 118.807 115.549 118.977 115.41C119.058 115.339 119.142 115.267 119.219 115.195C119.292 115.125 119.377 115.037 119.421 114.989L119.453 114.953C119.63 114.756 119.934 114.739 120.132 114.916C120.315 115.081 120.341 115.358 120.201 115.554Z" fill="#371A45"/>
<path d="M111.619 105.618C90.583 120.615 68.7429 104.92 58.9603 84.7848C58.5221 83.8843 58.1079 82.9743 57.7227 82.0571C56.1576 78.3684 55.0067 74.5763 54.3398 70.8301L71.232 62.7189L83.1716 56.9861L87.0766 55.1107C90.1056 58.4601 93.057 61.0336 95.8887 63.1839C100.268 66.5115 104.362 68.8323 108.018 71.4713C111.799 74.199 115.111 77.2639 117.789 82.1275C122.587 90.8458 119.657 99.8888 111.618 105.619L111.619 105.618Z" fill="white"/>
<g opacity="0.25">
<path d="M111.619 105.618C97.8229 115.453 83.6826 112.088 72.824 102.929C83.1627 110.084 95.8748 111.941 108.306 103.078C116.345 97.3482 119.275 88.3046 114.477 79.5863C112.479 75.9558 110.126 73.3286 107.49 71.0922C107.668 71.2174 107.844 71.3426 108.02 71.47C111.8 74.1978 115.112 77.2627 117.79 82.1263C122.589 90.8445 119.658 99.8876 111.619 105.618Z" fill="#371A45"/>
</g>
<path d="M111.621 106.581C111.32 106.581 111.024 106.441 110.835 106.177C110.527 105.744 110.627 105.142 111.061 104.834C119.092 99.1084 121.347 90.5858 116.945 82.5908C113.287 75.9452 108.346 72.7249 102.623 68.9955C97.7263 65.8038 92.1752 62.1855 86.3619 55.7568C86.0052 55.3622 86.0354 54.7535 86.4301 54.3968C86.8247 54.0402 87.4334 54.071 87.79 54.465C93.4362 60.7082 98.8756 64.2537 103.675 67.3817C109.613 71.2521 114.741 74.5947 118.632 81.6618C123.47 90.4483 120.936 100.159 112.179 106.402C112.009 106.523 111.814 106.581 111.62 106.581H111.621Z" fill="#371A45"/>
<path d="M58.3395 82.2762C60.2014 85.5942 62.0896 88.8458 64.2534 91.9218C65.3367 93.4562 66.4932 94.9369 67.7213 96.3528C68.9454 97.772 70.2383 99.1292 71.6061 100.403C72.9784 101.67 74.3959 102.889 75.9001 103.989C77.4032 105.088 78.9728 106.093 80.6016 106.985C81.4216 107.419 82.2489 107.842 83.1002 108.208C83.5206 108.401 83.956 108.57 84.3887 108.745C84.8135 108.92 85.2377 109.064 85.6816 109.21C86.5631 109.493 87.4507 109.774 88.344 110.047C89.2377 110.321 90.1343 110.591 91.0404 110.902L91.0516 110.906C91.3071 110.994 91.4429 111.272 91.3551 111.528C91.2881 111.723 91.1092 111.848 90.9152 111.858C86.9504 112.039 83.1327 110.542 79.643 108.802C77.8934 107.907 76.2294 106.858 74.6424 105.711C73.0538 104.566 71.5497 103.31 70.1371 101.962C67.2964 99.2807 64.8113 96.2538 62.638 93.0341C60.4641 89.8178 58.6436 86.3466 57.4552 82.6585C57.373 82.4042 57.5128 82.1314 57.7671 82.0498C57.9901 81.9783 58.2271 82.0766 58.3372 82.2734L58.3389 82.2762H58.3395Z" fill="#371A45"/>
<path d="M153.958 113.465C151.718 117.601 146.352 119.691 141.252 118.545C134.665 117.062 131.012 107.539 131.012 107.539C118.928 110.289 111.012 106.044 111.012 106.044C111.012 106.044 108.12 109.035 101.266 110.636L103.199 106.124L115.23 78.0475C123.927 87.1604 137.297 84.2884 144.717 88.4824C148.423 90.5746 154.688 101.86 155.027 108.594C155.121 110.421 154.719 112.061 153.958 113.464L153.958 113.465Z" fill="white"/>
<g opacity="0.25">
<path d="M153.958 113.465C151.718 117.601 146.352 119.691 141.252 118.545C134.665 117.062 131.012 107.539 131.012 107.539C118.928 110.289 111.012 106.044 111.012 106.044C111.012 106.044 108.12 109.035 101.266 110.635L103.199 106.123C109.938 102.692 112.177 97.5449 112.739 97.5449C113.3 97.5449 114.481 101.609 120.718 103.381C136.079 107.744 141.263 97.745 142.281 97.8674C143.302 97.9904 132.935 109.215 138.939 113.862C142.936 116.954 149.617 115.627 153.958 113.464L153.958 113.465Z" fill="#371A45"/>
</g>
<path d="M115.927 77.384C117.169 78.6735 118.584 79.7876 120.126 80.702C121.682 81.5981 123.345 82.3214 125.086 82.8586C128.566 83.9659 132.262 84.4248 135.995 85.01C136.929 85.157 137.868 85.3147 138.809 85.5042C139.75 85.6909 140.693 85.9066 141.632 86.1878C142.57 86.4673 143.504 86.8021 144.412 87.2364L145.084 87.5869C145.192 87.6383 145.318 87.7227 145.436 87.7959C145.559 87.8697 145.673 87.948 145.778 88.0296C146.221 88.3477 146.592 88.6987 146.954 89.0542C148.36 90.4941 149.46 92.0833 150.48 93.716C151.494 95.3516 152.387 97.0497 153.187 98.7943C153.982 100.541 154.675 102.34 155.209 104.207C155.474 105.142 155.692 106.097 155.839 107.079C155.875 107.325 155.902 107.573 155.933 107.821L155.99 108.575C155.993 108.832 156.004 109.089 155.999 109.347C155.983 109.604 155.982 109.862 155.953 110.12C155.854 111.15 155.597 112.172 155.186 113.13C154.781 114.091 154.204 114.973 153.526 115.752C152.168 117.322 150.367 118.427 148.456 119.092C146.535 119.745 144.48 119.954 142.473 119.725C142.223 119.694 141.973 119.655 141.723 119.618C141.474 119.568 141.229 119.524 140.978 119.467C140.468 119.34 139.965 119.186 139.488 118.982C138.527 118.582 137.647 118.041 136.849 117.423C135.251 116.18 133.976 114.648 132.874 113.041C132.329 112.232 131.827 111.399 131.368 110.543C131.138 110.116 130.92 109.683 130.711 109.244C130.5 108.8 130.306 108.372 130.114 107.886L130.112 107.884L131.225 108.478L129.943 108.731L129.301 108.857C129.087 108.902 128.873 108.941 128.656 108.966L127.36 109.144C127.143 109.171 126.927 109.207 126.711 109.227L126.058 109.279L124.751 109.382L123.441 109.414L122.785 109.428L122.13 109.408C121.693 109.391 121.255 109.388 120.818 109.36C119.071 109.249 117.331 109.002 115.618 108.613L114.976 108.465L114.338 108.291C113.912 108.182 113.493 108.042 113.072 107.909C112.652 107.767 112.235 107.623 111.82 107.454C111.613 107.372 111.405 107.29 111.199 107.196C110.987 107.103 110.795 107.015 110.556 106.893H110.555L111.702 106.713C111.575 106.833 111.49 106.901 111.387 106.985C111.289 107.069 111.19 107.139 111.092 107.216C110.894 107.362 110.697 107.506 110.495 107.637C110.095 107.908 109.684 108.15 109.27 108.382C108.439 108.841 107.584 109.232 106.716 109.581C105.847 109.925 104.963 110.218 104.072 110.471C103.627 110.603 103.175 110.701 102.728 110.818L101.375 111.103C101.115 111.158 100.86 110.992 100.804 110.732C100.752 110.486 100.898 110.245 101.133 110.173L101.156 110.165L102.437 109.774C102.856 109.624 103.282 109.491 103.695 109.327C104.525 109.01 105.339 108.658 106.125 108.262C106.91 107.862 107.673 107.429 108.391 106.943C108.748 106.699 109.1 106.448 109.429 106.179C109.597 106.048 109.754 105.909 109.91 105.772C109.984 105.702 110.065 105.633 110.133 105.563C110.201 105.498 110.284 105.414 110.318 105.374C110.584 105.056 111.028 104.975 111.384 105.153L111.465 105.194C111.605 105.265 111.798 105.358 111.977 105.434C112.157 105.516 112.344 105.59 112.532 105.665C112.906 105.817 113.292 105.95 113.678 106.081C114.068 106.204 114.456 106.334 114.854 106.435L115.447 106.598L116.048 106.737C117.651 107.1 119.289 107.333 120.937 107.438C121.349 107.465 121.762 107.467 122.175 107.483L122.794 107.503L123.414 107.489L124.654 107.459L125.891 107.361L126.509 107.312C126.715 107.292 126.92 107.258 127.125 107.232L128.356 107.064C128.562 107.04 128.766 107.003 128.969 106.96L129.579 106.84L130.799 106.6L130.82 106.596C131.288 106.504 131.744 106.766 131.912 107.195V107.197C132.066 107.584 132.258 108.014 132.451 108.418C132.646 108.827 132.85 109.234 133.066 109.633C133.495 110.434 133.964 111.212 134.469 111.961C135.485 113.449 136.654 114.836 138.029 115.903C138.716 116.434 139.452 116.881 140.226 117.205C140.613 117.371 141.011 117.491 141.413 117.592C141.619 117.639 141.837 117.677 142.049 117.722L142.694 117.814C144.42 118.011 146.192 117.829 147.831 117.272C149.46 116.704 150.969 115.77 152.073 114.489C153.195 113.222 153.876 111.619 154.034 109.94C154.119 109.102 154.064 108.245 153.933 107.363C153.802 106.486 153.602 105.605 153.354 104.733C152.855 102.987 152.195 101.268 151.434 99.5953C150.668 97.924 149.808 96.2901 148.842 94.7317C147.876 93.1811 146.812 91.6663 145.588 90.4158C145.281 90.1134 144.965 89.8172 144.643 89.5891C144.563 89.5254 144.483 89.4717 144.404 89.4253C144.322 89.3756 144.254 89.3247 144.15 89.275L143.573 88.9737C142.785 88.5964 141.946 88.294 141.084 88.0374C140.223 87.7786 139.333 87.574 138.431 87.3957C137.529 87.2146 136.615 87.0603 135.693 86.9156C132.011 86.3348 128.206 85.8725 124.506 84.6981C122.657 84.1274 120.851 83.3477 119.15 82.3661C117.46 81.3661 115.897 80.1352 114.532 78.7166C114.163 78.3331 114.176 77.7233 114.559 77.3549C114.942 76.986 115.551 76.9983 115.92 77.3812L115.925 77.3868L115.927 77.384Z" fill="#371A45"/>
<path d="M142.741 98.01C142.568 98.6993 142.335 99.3152 142.069 99.943C141.806 100.567 141.487 101.167 141.143 101.753C140.452 102.926 139.602 104.02 138.6 104.981C138.096 105.456 137.561 105.907 136.989 106.309C136.412 106.703 135.809 107.068 135.172 107.366C133.904 107.971 132.528 108.346 131.146 108.494C130.617 108.55 130.142 108.167 130.086 107.638C130.032 107.137 130.373 106.685 130.858 106.59L130.879 106.586C132.072 106.357 133.229 106.021 134.324 105.532C134.872 105.288 135.4 105.001 135.917 104.69C136.427 104.368 136.922 104.017 137.392 103.629C138.329 102.851 139.177 101.944 139.926 100.947C140.301 100.449 140.637 99.9201 140.963 99.3829C141.284 98.8496 141.579 98.2716 141.821 97.7261L141.834 97.6976C141.941 97.4544 142.226 97.3443 142.469 97.4522C142.687 97.5483 142.798 97.7865 142.741 98.01H142.741Z" fill="#371A45"/>
<path d="M154.34 43.4064C153.797 47.3746 149.737 50.1157 143.608 52.6691C132.355 65.3343 118.806 70.1784 108.399 71.2147C107.402 71.3175 106.434 71.3824 105.5 71.4148C104.984 71.4349 104.481 71.4422 103.988 71.4422L94.6305 64.7653L82.564 56.1532L79.5947 54.0353C79.5947 54.0353 88.6998 53.1241 99.6378 50.5629C109.356 48.2896 120.521 44.7122 128.027 39.3147C130.931 37.227 136.028 34.8558 138.204 33.872C142.24 32.0448 148.366 30.2471 152.011 35.8799C153.926 38.8391 154.632 41.2946 154.341 43.4053L154.34 43.4064Z" fill="white"/>
<g opacity="0.25">
<path d="M154.341 43.4063C153.797 47.3745 149.737 50.1157 143.608 52.6691C131.276 66.5483 116.188 71.0346 105.5 71.4153C111.859 69.4052 126.91 63.9648 131.957 56.1341C136.191 49.5724 137.25 46.2705 136.671 38.3622C136.481 35.7412 138.778 49.9966 147.559 47.0441C150.734 45.9765 152.961 44.8938 154.341 43.4063Z" fill="#371A45"/>
</g>
<path d="M79.4988 53.0782C81.5541 52.8579 83.638 52.5701 85.7017 52.2576C87.7688 51.9435 89.8314 51.5935 91.8867 51.2079C95.9968 50.4342 100.082 49.5321 104.114 48.4454C106.132 47.9094 108.132 47.3129 110.115 46.6724C112.1 46.0374 114.057 45.3269 115.988 44.56C117.922 43.7992 119.815 42.9451 121.658 42.01C122.585 41.5516 123.479 41.0385 124.378 40.5343L125.691 39.7255C126.132 39.4605 126.542 39.1548 126.97 38.8714L127.614 38.4303C127.84 38.2744 128.066 38.114 128.294 37.9692C128.749 37.6696 129.209 37.3867 129.672 37.1145C130.598 36.5678 131.535 36.0581 132.479 35.5667C134.372 34.5852 136.271 33.6807 138.223 32.8093C140.209 31.9519 142.336 31.2431 144.629 31.129C145.769 31.0793 146.953 31.1894 148.082 31.5634C149.214 31.9222 150.263 32.555 151.133 33.3465C151.56 33.7489 151.966 34.1743 152.308 34.6383C152.492 34.863 152.64 35.1067 152.807 35.3409L153.241 36.039C153.804 36.9804 154.313 37.9709 154.702 39.0351C155.091 40.0961 155.361 41.2425 155.36 42.4387C155.374 43.034 155.294 43.6371 155.163 44.2252C155.029 44.8149 154.808 45.3795 154.548 45.9177C153.999 46.9792 153.251 47.8971 152.421 48.6645C151.589 49.4354 150.686 50.0871 149.759 50.669C147.9 51.8283 145.947 52.7294 143.982 53.5567L143.979 53.5578L144.328 53.3085L142.391 55.4214L141.903 55.9474C141.736 56.1173 141.56 56.28 141.389 56.4465L140.353 57.4404L139.317 58.4337L138.225 59.3666C137.49 59.9809 136.777 60.6215 135.995 61.1771C132.958 63.5103 129.697 65.5734 126.224 67.2039C122.762 68.8535 119.124 70.1352 115.39 70.9977L113.983 71.2878C113.513 71.3811 113.046 71.4857 112.57 71.5483C111.621 71.6785 110.677 71.8412 109.719 71.8982L108.288 72.0083L106.852 72.0346L106.135 72.0396C105.896 72.0329 105.657 72.0223 105.418 72.01C104.94 71.9865 104.464 71.9574 103.988 71.9228C103.722 71.9032 103.522 71.6724 103.542 71.4063C103.559 71.1726 103.74 70.9904 103.963 70.9625L103.988 70.9597C104.453 70.9015 104.916 70.8501 105.378 70.8037L106.071 70.7355L106.761 70.6383L108.139 70.4599L109.509 70.2347C111.336 69.9463 113.14 69.5438 114.935 69.1145C118.519 68.2229 121.992 66.9166 125.312 65.3113L127.767 64.0374L130.159 62.6461C130.939 62.1536 131.702 61.6349 132.475 61.1313C132.867 60.8876 133.229 60.6003 133.601 60.3269L134.711 59.5008C135.468 58.9708 136.151 58.3465 136.868 57.7646L137.937 56.8837L138.953 55.9412L139.97 54.9982C140.138 54.8401 140.312 54.6863 140.476 54.5242L140.957 54.0234L142.889 52.0295L143.059 51.8535L143.238 51.7802L143.241 51.7791C145.149 50.977 147.025 50.1061 148.736 49.0379C149.589 48.503 150.396 47.9155 151.107 47.257C151.82 46.6003 152.41 45.8557 152.83 45.0497C153.668 43.432 153.583 41.5103 152.893 39.693C152.561 38.7819 152.107 37.8932 151.592 37.0312L151.193 36.3901C151.053 36.1972 150.93 35.9893 150.779 35.8082C150.498 35.4242 150.172 35.0888 149.836 34.7696C149.151 34.1492 148.36 33.6718 147.486 33.3946C146.616 33.1056 145.672 33.0117 144.716 33.053C142.793 33.1441 140.853 33.7668 138.993 34.5745C137.106 35.4169 135.207 36.3208 133.368 37.2749C132.447 37.754 131.537 38.2498 130.653 38.7719C130.209 39.0318 129.774 39.3006 129.351 39.579C129.136 39.7154 128.933 39.8607 128.726 40.0027L128.069 40.4521C127.621 40.7495 127.186 41.072 126.726 41.3487L125.354 42.1933C124.42 42.7182 123.49 43.2515 122.532 43.7249C120.627 44.6919 118.682 45.569 116.703 46.3476C114.726 47.1324 112.729 47.8568 110.71 48.503C108.692 49.1553 106.661 49.7607 104.615 50.304C100.527 51.4063 96.3954 52.318 92.2416 53.1C90.1645 53.4896 88.0812 53.8434 85.9918 54.1609C83.8984 54.4773 81.8163 54.7663 79.6911 54.9938C79.1623 55.0502 78.6877 54.6673 78.6313 54.1385C78.5748 53.6098 78.9577 53.1352 79.4865 53.0787L79.4999 53.0776L79.4988 53.0782Z" fill="#371A45"/>
<g opacity="0.25">
<path d="M99.5927 51.6094C99.0074 55.2595 97.9169 58.8827 96.2847 62.3668C96.1572 62.6412 96.0247 62.9135 95.89 63.1829C95.5384 63.8956 95.1678 64.5915 94.7777 65.2678C88.6117 76.0375 78.1433 82.4199 67.2025 83.0197C66.5524 83.0532 65.9023 83.0677 65.25 83.0655C65.2237 83.0655 65.1997 83.0655 65.1729 83.0633C63.4082 83.0443 61.6363 82.8732 59.8761 82.5406C59.1561 82.4059 58.439 82.2444 57.7235 82.0566C56.1584 78.3679 55.0074 74.5758 54.3406 70.8296L71.2327 62.7184L83.1723 56.9856L80.3171 54.9487C80.3171 54.9487 89.0739 54.0722 99.5932 51.6094H99.5927Z" fill="#371A45"/>
</g>
<path d="M23.7451 55.1644C26.384 61.0359 30.5232 66.2773 35.9704 70.2835C37.0816 71.0996 38.2426 71.8648 39.4573 72.5719C40.047 72.9179 40.6546 73.2488 41.2728 73.5708C43.1403 74.5317 45.0498 75.3271 46.9877 75.9632C48.6568 76.5154 50.3483 76.9464 52.0453 77.2645C54.0945 77.6496 56.1565 77.8648 58.2113 77.9207C58.9609 77.9386 59.7082 77.9369 60.4545 77.9157C74.1057 77.4987 87.1565 70.023 93.9559 57.2332C103.975 38.3947 96.63 15.1661 77.5562 5.34888C73.881 3.46067 70.0369 2.20075 66.156 1.54563C65.7032 1.46458 65.246 1.39695 64.7882 1.33826C63.5646 1.17336 62.3404 1.0666 61.1174 1.01852C58.2901 0.907289 55.4718 1.10405 52.7166 1.58979C49.9614 2.07219 47.2633 2.84692 44.678 3.89443C43.8558 4.22702 43.0447 4.58644 42.2443 4.97548C41.0453 5.55905 39.8754 6.20019 38.7356 6.90785C33.0542 10.4148 28.2091 15.4104 24.8726 21.6865C19.1085 32.5227 19.0917 44.81 23.7446 55.1639L23.7451 55.1644Z" fill="white"/>
<path d="M59.2398 78.0325C58.8955 78.0325 58.5518 78.0286 58.2091 78.0202C56.1264 77.9632 54.0464 77.7418 52.0269 77.3623C50.2991 77.0381 48.5931 76.5993 46.9564 76.0577C45.0006 75.416 43.0727 74.6094 41.227 73.6591C40.5501 73.3064 39.9553 72.9788 39.407 72.6574C38.2136 71.9621 37.0375 71.1901 35.9112 70.3634C30.5903 66.4506 26.3522 61.2086 23.6541 55.2047C18.7871 44.374 19.199 32.1404 24.7848 21.6396C28.0135 15.5652 32.8195 10.4417 38.6831 6.82234C39.7932 6.13312 40.9771 5.48136 42.2002 4.8855C42.985 4.50372 43.8061 4.13927 44.6401 3.80165C47.232 2.75135 49.943 1.97382 52.6988 1.49143C55.4802 1.00121 58.3131 0.808362 61.1208 0.91848C62.341 0.966551 63.5791 1.07443 64.8005 1.23877C65.289 1.30137 65.7384 1.36957 66.1728 1.44727C70.132 2.11524 73.9777 3.39808 77.6009 5.26001C86.8871 10.0392 93.7032 18.1091 96.7932 27.9816C99.8586 37.7765 98.8821 48.1812 94.0431 57.279C87.4741 69.6367 74.6043 77.582 60.4567 78.0141C60.0531 78.0258 59.6462 78.0314 59.2393 78.0314L59.2398 78.0325ZM23.8357 55.1231C26.5199 61.0957 30.7362 66.3103 36.0291 70.203C37.1499 71.0264 38.3198 71.7944 39.507 72.4858C40.0526 72.8056 40.6445 73.1314 41.3181 73.4825C43.1543 74.4271 45.0722 75.2298 47.0185 75.8687C48.6473 76.4076 50.3444 76.8441 52.0632 77.1667C54.0722 77.5445 56.1415 77.7648 58.2136 77.8207C58.957 77.8385 59.7099 77.8369 60.4506 77.8156C74.5266 77.3858 87.331 69.4808 93.867 57.1862C98.6809 48.1354 99.6524 37.7849 96.6032 28.0415C93.5288 18.2198 86.7485 10.1918 77.5098 5.4372C73.9045 3.58477 70.0789 2.30864 66.1387 1.64347C65.7066 1.56633 65.2605 1.49869 64.7748 1.43665C63.5585 1.27287 62.327 1.16554 61.113 1.11747C58.3203 1.00736 55.5009 1.19964 52.7334 1.68762C49.9917 2.16778 47.2941 2.9414 44.715 3.98611C43.8849 4.32206 43.0682 4.68483 42.2874 5.06437C41.0699 5.65744 39.8927 6.30529 38.7876 6.9917C32.9537 10.5926 28.1722 15.6899 24.9604 21.7329C19.4036 32.179 18.9939 44.3489 23.8352 55.1231H23.8357Z" fill="#371A45"/>
<g opacity="0.25">
<path d="M93.9556 57.2325C87.1579 70.024 74.1048 77.4997 60.4536 77.915C59.7079 77.9374 58.9606 77.9391 58.2121 77.9206C56.1568 77.8658 54.0953 77.649 52.0461 77.2655C50.3491 76.9458 48.6565 76.5159 46.9886 75.9642C45.0489 75.3287 43.1406 74.5332 41.2714 73.5718C40.6548 73.2476 40.0478 72.9184 39.4564 72.5735C38.2418 71.8653 37.0819 71.0984 35.9701 70.2828C30.5229 66.2767 26.3821 61.0369 23.7437 55.1632C22.2937 51.9379 21.2965 48.5221 20.7856 45.0229C23.4335 50.5696 27.4408 55.5137 32.6375 59.3359C33.7476 60.1543 34.9092 60.9184 36.1238 61.6266C36.7124 61.972 37.32 62.3018 37.9388 62.6249C39.8074 63.5858 41.7163 64.3812 43.6532 65.0179C45.3234 65.5685 47.0137 65.9994 48.7107 66.3192C50.7599 66.7026 52.8237 66.9184 54.8768 66.9743C55.6275 66.9922 56.3748 66.9899 57.1205 66.9681C70.7717 66.5534 83.822 59.0777 90.6224 46.2856C94.5917 38.8245 95.8332 30.6747 94.7035 22.9441C99.7325 33.4639 99.8695 46.114 93.9545 57.2325H93.9556Z" fill="#371A45"/>
</g>
<path d="M59.2393 78.6999C58.89 78.6999 58.5406 78.6954 58.1929 78.6876C56.0727 78.6294 53.9576 78.4047 51.9034 78.0185C50.1465 77.6892 48.4115 77.2426 46.7469 76.6915C44.7597 76.0392 42.7988 75.2191 40.9218 74.2532C40.232 73.8938 39.6272 73.5612 39.0699 73.2342C37.8581 72.5283 36.6619 71.7435 35.5171 70.9022C30.1035 66.9212 25.7916 61.5881 23.0465 55.4796C18.0945 44.4595 18.5138 32.0118 24.1968 21.3281C27.4808 15.1498 32.3696 9.93854 38.3338 6.25716C39.4618 5.55677 40.6653 4.89383 41.9095 4.28846C42.7083 3.89997 43.5434 3.52882 44.3914 3.18617C47.0263 2.11853 49.7832 1.32815 52.5853 0.83737C55.4132 0.338767 58.2941 0.143686 61.1488 0.254922C62.3897 0.304111 63.649 0.413669 64.8916 0.580802C65.3869 0.643966 65.8469 0.713837 66.2919 0.79377C70.3125 1.4718 74.2231 2.77644 77.9078 4.66968C87.3545 9.53161 94.2879 17.7407 97.4316 27.7854C100.551 37.7518 99.5574 48.3388 94.6339 57.5953C87.9526 70.1638 74.8654 78.2443 60.4791 78.6836C60.0683 78.6954 59.6546 78.7015 59.241 78.7015L59.2393 78.6999ZM24.4439 54.8502C27.0811 60.7183 31.2237 65.8418 36.4243 69.6658C37.5255 70.4751 38.6759 71.2298 39.843 71.9095C40.3802 72.2247 40.9632 72.5456 41.6267 72.891C43.4282 73.8184 45.3137 74.6071 47.2265 75.2348C48.8285 75.7653 50.4964 76.194 52.1862 76.5115C54.1611 76.8826 56.1952 77.099 58.232 77.1549C58.9621 77.1722 59.7033 77.1705 60.4322 77.1498C74.2684 76.7272 86.8547 68.9575 93.2784 56.8737C98.0079 47.9816 98.9626 37.8133 95.9671 28.2415C92.9464 18.5914 86.2835 10.7038 77.2052 6.03077C73.6613 4.2102 69.9006 2.95531 66.028 2.30187C65.6004 2.2253 65.1655 2.15934 64.6904 2.09897C63.4909 1.93743 62.2801 1.83178 61.0867 1.78483C58.3422 1.6775 55.5702 1.86532 52.8491 2.34492C50.1532 2.81725 47.5009 3.57745 44.9654 4.60484C44.1493 4.93519 43.3466 5.29181 42.5792 5.66465C41.3824 6.2471 40.2253 6.88488 39.1398 7.55844C33.4048 11.0984 28.7061 16.1074 25.5495 22.0459C20.0906 32.3086 19.6876 44.265 24.4439 54.8497V54.8502Z" fill="#371A45"/>
<path d="M59.2391 78.9217C58.8881 78.9217 58.5365 78.9178 58.1871 78.9094C56.0546 78.8513 53.9272 78.6249 51.8618 78.2365C50.0955 77.905 48.3509 77.4561 46.6762 76.9022C44.6785 76.2465 42.707 75.4215 40.8193 74.4505C40.1251 74.0889 39.5175 73.7541 38.9563 73.4254C37.7383 72.7155 36.5354 71.9262 35.3839 71.0805C29.9395 67.0766 25.603 61.7133 22.8417 55.5696C17.8612 44.4863 18.2827 31.9676 23.9988 21.2225C27.3012 15.0095 32.2173 9.7686 38.2151 6.06653C39.3492 5.36222 40.5594 4.69593 41.8104 4.08665C42.6136 3.69593 43.4532 3.3231 44.3062 2.97821C46.9557 1.90443 49.7277 1.11013 52.5449 0.616557C55.3878 0.11516 58.2855 -0.0810392 61.1553 0.0313141C62.4034 0.0805035 63.6695 0.19118 64.9188 0.35943C65.4163 0.423153 65.8797 0.493024 66.3285 0.573516C70.3699 1.2549 74.3017 2.56681 78.0071 4.47067C87.5069 9.35999 94.48 17.616 97.6416 27.7177C100.779 37.7412 99.7796 48.3885 94.8277 57.6987C88.1089 70.3371 74.949 78.4628 60.4834 78.905C60.0703 78.9167 59.6544 78.9229 59.2386 78.9229L59.2391 78.9217ZM24.6466 54.7585C27.2682 60.592 31.3861 65.6847 36.5561 69.4863C37.6511 70.2907 38.7947 71.0414 39.9552 71.7172C40.4901 72.0307 41.0697 72.3494 41.7299 72.6937C43.5203 73.6149 45.3945 74.3991 47.2961 75.0229C48.8892 75.55 50.5477 75.9771 52.2279 76.2923C54.1916 76.6618 56.2134 76.8765 58.2386 76.9318C58.9641 76.9491 59.7008 76.9475 60.4264 76.9268C74.1827 76.507 86.6964 68.7826 93.0832 56.7686C97.7847 47.9296 98.7338 37.8217 95.7556 28.3069C92.7534 18.7138 86.129 10.8731 77.1038 6.22751C73.5807 4.417 69.8417 3.16994 65.9915 2.52041C65.5656 2.44439 65.134 2.37899 64.6628 2.31862C63.4683 2.15764 62.2648 2.05311 61.0787 2.00616C58.3492 1.89828 55.5941 2.08609 52.8886 2.56345C50.2078 3.03299 47.5706 3.78928 45.0496 4.81052C44.238 5.13864 43.4398 5.49302 42.6773 5.86418C41.4873 6.44383 40.3369 7.07715 39.2581 7.74736C33.5561 11.2666 28.8847 16.2465 25.7467 22.1504C20.3202 32.3522 19.9194 44.237 24.6477 54.7585H24.6466Z" fill="#371A45"/>
<path d="M28.9292 63.5757C50.439 81.0011 82.3423 72.1559 86.1779 45.1805C88.7872 26.8278 72.5827 10.1973 54.5502 8.91222C41.4261 7.9765 28.1796 12.725 21.0729 32.4131C21.0729 32.4131 19.2909 41.6037 21.3373 47.967C23.3842 54.3309 26.4653 60.1755 26.4653 60.1755L28.9292 63.5757Z" fill="#371A45"/>
<path d="M86.1762 45.1805C82.3416 72.1554 50.4378 81.0006 28.9285 63.5769L28.4299 62.8871C53.1421 69.1984 79.326 56.2895 83.7184 29.085C85.9973 34.0173 86.9811 39.517 86.1767 45.1805H86.1762Z" fill="#220F2D"/>
<path d="M53.7364 77.498C51.4463 77.498 49.1366 77.3141 46.8297 76.939L46.6799 76.9027C44.6794 76.2465 42.7084 75.4214 40.8208 74.4499C40.1266 74.0883 39.5189 73.7535 38.9577 73.4248C37.7397 72.7149 36.5368 71.9256 35.3854 71.0799C29.941 67.076 25.6045 61.7127 22.8432 55.569C17.8627 44.4857 18.2842 31.967 24.0002 21.2219C27.3026 15.0089 32.2188 9.768 38.2165 6.06593L38.3032 6.01283L38.3988 5.97817C43.2367 4.22132 48.7442 3.54888 54.7649 3.97761C65.6022 4.75011 76.3004 10.4483 83.3826 19.2208C89.7593 27.1196 92.5441 36.5841 91.2232 45.8703C89.785 55.9793 84.8935 64.3616 77.0768 70.1112C70.5251 74.9306 62.2819 77.4975 53.7369 77.4975L53.7364 77.498ZM47.2227 74.9994C57.5911 76.6629 68.041 74.3029 75.9041 68.5181C83.2825 63.0905 87.9024 55.1626 89.2641 45.5914C90.5067 36.8541 87.8711 27.9301 81.8426 20.4628C75.0992 12.1095 64.9236 6.68471 54.6235 5.95022C48.9208 5.54385 43.7213 6.16654 39.1685 7.80209C33.5083 11.3169 28.8683 16.2761 25.7459 22.1498C20.3194 32.3516 19.9186 44.2364 24.647 54.7579C27.2685 60.5914 31.3865 65.6841 36.5564 69.4857C37.6514 70.2901 38.7951 71.0408 39.9555 71.7166C40.4904 72.0301 41.0701 72.3493 41.7302 72.6931C43.4977 73.602 45.3468 74.3784 47.2232 74.9988L47.2227 74.9994Z" fill="#371A45"/>
<path d="M53.753 73.5679C44.8218 73.5679 35.776 70.3952 28.3064 64.3444L28.2047 64.2622L25.5904 60.6373C25.4629 60.3958 22.4456 54.6428 20.3959 48.27C18.2952 41.7395 20.0275 32.6104 20.1018 32.2247L20.1426 32.0772C26.3562 14.8636 37.9532 6.73676 54.6206 7.92569C64.2919 8.6149 73.8386 13.6993 80.1577 21.5266C85.8503 28.5774 88.336 37.0274 87.1566 45.3198C85.4478 57.3382 78.1097 66.7295 67.0241 71.0844C62.7771 72.753 58.2796 73.5679 53.753 73.5679ZM29.6524 62.8894C40.3428 71.493 54.3741 73.9296 66.3008 69.2437C76.705 65.1565 83.5926 56.3349 85.1985 45.0414C86.2997 37.298 83.9626 29.3885 78.6189 22.7692C72.6384 15.3611 63.6144 10.5495 54.4797 9.89886C38.8285 8.78148 27.9129 16.445 22.0303 32.6736C21.8727 33.5389 20.4283 41.9112 22.2785 47.6646C24.1661 53.5333 26.9794 59.0207 27.3087 59.6546L29.653 62.8899L29.6524 62.8894Z" fill="#371A45"/>
<path d="M103.561 44.7994C103.417 52.3858 98.7536 58.6765 93.1432 58.8486C87.5328 59.0208 83.1019 53.0102 83.2461 45.4238C83.2461 45.3763 83.2483 45.326 83.2511 45.2779C83.4501 37.7569 88.0929 31.5451 93.6636 31.3746C97.9979 31.241 101.628 34.7983 102.99 39.9196C103.39 41.4277 103.594 43.0739 103.561 44.7989L103.561 44.7994Z" fill="white"/>
<g opacity="0.25">
<path d="M103.561 44.7994C103.417 52.3857 98.7536 58.6764 93.1432 58.8486C87.5328 59.0207 83.1019 53.0101 83.2461 45.4237C83.2461 45.3762 83.2483 45.3259 83.2511 45.2779C83.8531 46.0375 84.7984 46.7748 86.1041 46.4763C88.3909 45.9525 92.5714 40.9486 92.5714 40.9486C92.5714 40.9486 97.0868 40.4729 102.99 39.9196C103.39 41.4277 103.594 43.0738 103.561 44.7988L103.561 44.7994Z" fill="#371A45"/>
</g>
<path d="M92.9035 59.8401C90.5357 59.8401 88.3149 58.8792 86.4642 57.0503C83.7017 54.3202 82.1685 50.0749 82.2568 45.4041C82.4105 37.3107 87.5139 30.574 93.6341 30.3862C96.1003 30.3119 98.4228 31.2739 100.343 33.1716C103.105 35.9016 104.639 40.1464 104.55 44.8177C104.397 52.9111 99.2931 59.6478 93.1729 59.8356C93.083 59.8384 92.9924 59.8395 92.903 59.8395L92.9035 59.8401ZM93.899 32.3599C93.8309 32.3599 93.7627 32.3611 93.6945 32.3633C88.6117 32.5192 84.368 38.3862 84.2344 45.4421C84.1573 49.5137 85.5106 53.3275 87.8543 55.6439C89.3803 57.152 91.1992 57.9211 93.1126 57.8591C98.1953 57.7031 102.439 51.8362 102.573 44.7808C102.65 40.7093 101.296 36.8954 98.9527 34.5785C97.4815 33.124 95.7381 32.3599 93.899 32.3599Z" fill="#371A45"/>
<path d="M104.856 47.2588C105.549 41.2665 102.438 35.9845 97.908 35.4612C93.3781 34.9378 89.1447 39.3714 88.4525 45.3637C87.7602 51.3561 90.8711 56.6381 95.401 57.1614C99.9308 57.6847 104.164 53.2512 104.856 47.2588Z" fill="white"/>
<path d="M96.108 57.3097C95.0554 57.3097 94.0197 57.0447 93.0375 56.5159C88.8626 54.2694 87.0772 47.8653 89.0577 42.2403C90.1616 39.1051 92.2365 36.749 94.7502 35.7758C96.6189 35.0525 98.5239 35.1643 100.26 36.0984C104.435 38.3449 106.22 44.749 104.239 50.3739C103.135 53.5092 101.06 55.8653 98.5468 56.8379C97.7351 57.152 96.9157 57.3091 96.1069 57.3091L96.108 57.3097ZM97.1896 35.5126C96.4059 35.5126 95.6122 35.664 94.8251 35.9687C92.3679 36.9195 90.3366 39.2308 89.2527 42.3091C87.3047 47.8418 89.0465 54.133 93.1354 56.3337C94.8167 57.2387 96.6625 57.3465 98.473 56.6456C100.93 55.6948 102.961 53.384 104.045 50.3052C105.993 44.7725 104.252 38.4807 100.162 36.2806C99.2119 35.7691 98.2086 35.512 97.189 35.512L97.1896 35.5126Z" fill="#371A45"/>
<g opacity="0.25">
<path d="M88.7592 50.8123C88.2858 48.7989 88.3713 46.6485 88.9023 44.6357C90.3741 49.1359 94.4691 51.0253 98.402 48.8537C100.944 47.4518 102.832 44.6737 103.652 41.5591C103.746 41.8425 103.828 42.1399 103.9 42.4451C105.103 47.5731 102.689 53.6027 98.5071 55.9129C94.3254 58.2231 89.9621 55.9369 88.7592 50.8117V50.8123Z" fill="#371A45"/>
</g>
<path d="M96.2315 58.2151C94.4886 58.2151 92.8441 57.5008 91.4618 56.1397C89.2276 53.9401 87.9481 50.2604 88.0392 46.2962C88.1924 39.6086 92.1751 34.0189 96.9162 33.8367C98.7525 33.7668 100.485 34.4823 101.933 35.9071C104.167 38.1067 105.447 41.7864 105.356 45.7506C105.202 52.4382 101.22 58.0279 96.4786 58.2101C96.3958 58.2134 96.3137 58.2151 96.2315 58.2151ZM97.1577 35.8099C97.1029 35.8099 97.0476 35.811 96.9923 35.8132C93.2757 35.9563 90.146 40.6796 90.0163 46.342C89.9375 49.7707 90.9967 52.9066 92.8492 54.7305C93.8984 55.7635 95.1287 56.2872 96.4026 56.2341C100.119 56.091 103.249 51.3677 103.379 45.7053C103.457 42.2766 102.398 39.1402 100.546 37.3169C99.5417 36.3286 98.3735 35.8099 97.1577 35.8099Z" fill="#371A45"/>
<g opacity="0.5">
<path d="M63.2965 16.3214C63.2965 16.3214 45.5726 16.1739 35.1036 25.4953C35.0924 25.5053 35.0818 25.5148 35.0706 25.5249C32.8689 27.4886 31.2445 30.0034 30.3479 32.7915C29.1623 36.4791 28.8929 39.1895 28.7492 41.5847C28.3149 48.8687 29.4932 52.3572 29.4932 52.3572C25.5212 48.2784 23.4139 43.7798 23.7146 37.7093C23.7459 37.1112 23.8007 36.4953 23.8767 35.8647C23.894 35.7194 23.9141 35.5758 23.9365 35.431C23.9331 35.4293 23.9348 35.4265 23.9393 35.4226C24.1847 34.156 24.5715 32.5031 25.1651 30.6747C26.9527 25.1576 30.6106 18.0347 37.9315 15.0375C51.6207 9.43266 63.9499 15.5953 63.2959 16.3225L63.2965 16.3214Z" fill="white"/>
</g>
<g opacity="0.5">
<path d="M76.6403 40.8303C79.4548 40.2182 81.1663 37.101 80.4632 33.8678C79.76 30.6346 76.9084 28.5098 74.0939 29.1219C71.2794 29.734 69.5678 32.8512 70.271 36.0844C70.9742 39.3176 73.8258 41.4424 76.6403 40.8303Z" fill="white"/>
</g>
<g opacity="0.5">
<path d="M78.3381 47.9929C79.4713 47.6334 80.0549 46.2859 79.6417 44.9832C79.2285 43.6805 77.9748 42.9159 76.8416 43.2754C75.7084 43.6349 75.1248 44.9823 75.538 46.285C75.9513 47.5877 77.2049 48.3523 78.3381 47.9929Z" fill="white"/>
</g>
<path d="M125.138 41.2023C126.12 40.8026 127.251 39.4505 127.513 38.9379C128.051 37.8825 128.831 36.5924 129.719 34.9289C131.242 32.0787 135.188 28.1855 137.457 29.522C141.077 31.6545 136.105 35.877 136.152 36.716C136.198 37.555 138.487 41.4236 136.571 45.6964L125.139 41.2023H125.138Z" fill="white"/>
<path d="M124.775 40.3102C124.965 40.2292 125.218 40.0631 125.454 39.8636C125.693 39.6612 125.927 39.427 126.144 39.1811C126.252 39.0581 126.357 38.9312 126.449 38.8066C126.543 38.6814 126.627 38.5584 126.666 38.4768C126.844 38.1297 127.027 37.7948 127.21 37.4645L128.302 35.5165L128.83 34.5478C129.015 34.2029 129.227 33.8435 129.445 33.5137C129.884 32.8474 130.367 32.2236 130.895 31.6344C131.419 31.0441 131.983 30.4852 132.608 29.9737C133.235 29.4645 133.915 28.9916 134.733 28.6439C135.143 28.4729 135.592 28.3337 136.096 28.2828C136.594 28.2336 137.168 28.2828 137.688 28.5243C137.965 28.6506 138.141 28.7781 138.339 28.9061C138.533 29.0542 138.726 29.2018 138.904 29.3952C139.262 29.7635 139.564 30.2638 139.696 30.8055C139.834 31.3465 139.808 31.8876 139.711 32.3577C139.614 32.8323 139.452 33.2532 139.269 33.6422C138.9 34.4181 138.445 35.0799 137.995 35.7015L137.346 36.5819C137.251 36.7132 137.159 36.8591 137.137 36.905C137.121 36.9307 137.143 36.8966 137.143 36.877C137.137 36.8854 137.163 36.8038 137.163 36.7557C137.165 36.7283 137.164 36.7009 137.161 36.6741C137.158 36.6478 137.162 36.6668 137.162 36.6612C137.166 36.6612 137.167 36.6618 137.165 36.6635C137.161 36.6579 137.167 36.6786 137.172 36.6953L137.186 36.7451C137.263 37.0145 137.399 37.3946 137.514 37.7557C137.633 38.1207 137.747 38.5003 137.845 38.8848C138.045 39.6534 138.18 40.4544 138.21 41.266C138.282 42.8887 137.871 44.5584 137.009 45.8943C136.863 46.1202 136.563 46.185 136.337 46.0397C136.164 45.9284 136.085 45.7255 136.123 45.5355L136.13 45.5008C136.274 44.796 136.432 44.1263 136.454 43.4388C136.472 43.27 136.474 43.0989 136.475 42.929C136.473 42.7591 136.489 42.5914 136.47 42.4209L136.447 41.9145L136.388 41.4091C136.298 40.7367 136.157 40.0682 135.964 39.4008C135.867 39.0665 135.756 38.7356 135.634 38.3968C135.514 38.0514 135.38 37.7367 135.246 37.2918L135.22 37.2074C135.212 37.1794 135.204 37.1559 135.194 37.1039C135.176 37.0139 135.161 36.9223 135.148 36.8312C135.146 36.8021 135.142 36.7987 135.141 36.7496C135.141 36.6998 135.143 36.6489 135.147 36.5981C135.154 36.5042 135.178 36.375 135.192 36.3404C135.224 36.2331 135.27 36.109 135.3 36.0531C135.439 35.763 135.557 35.5986 135.673 35.4242C135.906 35.0866 136.124 34.7909 136.338 34.498C136.764 33.9167 137.151 33.3415 137.423 32.7708C137.701 32.2034 137.818 31.6473 137.726 31.2901C137.684 31.1067 137.597 30.9446 137.442 30.7758C137.372 30.6903 137.267 30.6121 137.168 30.5299C137.054 30.455 136.927 30.3661 136.863 30.3387C136.564 30.1816 136.045 30.2208 135.485 30.4561C134.928 30.6842 134.361 31.057 133.832 31.4829C132.771 32.3415 131.817 33.4203 131.054 34.5724C130.862 34.8647 130.695 35.1464 130.528 35.4583L129.987 36.4511L128.895 38.4002C128.717 38.721 128.543 39.0397 128.381 39.3555C128.252 39.6065 128.119 39.7887 127.991 39.9614C127.861 40.1352 127.729 40.2957 127.591 40.4527C127.315 40.7652 127.023 41.0592 126.694 41.3387C126.359 41.6148 125.997 41.8832 125.501 42.0956C125.012 42.3052 124.446 42.0788 124.237 41.5897C124.027 41.1006 124.253 40.5349 124.742 40.3253L124.745 40.3242L124.775 40.3113V40.3102Z" fill="#371A45"/>
<path d="M59.0515 95.4914L75.8676 109.085L88.9951 107.177L95.9369 106.169C95.9369 106.169 100.668 102.879 101.806 102.063C103.351 100.959 102.145 99.0554 101.064 98.1012C99.2153 96.4668 97.6563 94.7686 96.3081 93.1079C94.1331 90.4265 92.5037 87.8351 91.0705 85.7412C89.8944 84.0224 87.7066 83.3052 85.7474 84.0162C74.0554 88.2644 62.2248 91.1185 62.2248 91.1185L59.0515 95.4908V95.4914Z" fill="white"/>
<path d="M75.867 109.935C75.6741 109.935 75.4852 109.869 75.3332 109.746L58.5171 96.1504C58.166 95.8664 58.0984 95.3572 58.3639 94.991L61.5372 90.621C61.6557 90.4578 61.8284 90.3421 62.0252 90.2946C62.1431 90.2661 73.9475 87.4002 85.4578 83.2185C87.7759 82.3767 90.3723 83.2169 91.772 85.2621C92.0872 85.7233 92.412 86.2079 92.7502 86.7127C94.8787 89.8893 97.5277 93.8424 101.627 97.4651C102.521 98.2549 103.452 99.559 103.386 100.852C103.347 101.616 102.97 102.274 102.299 102.755C101.17 103.562 96.6149 106.732 96.4215 106.866C96.313 106.941 96.1889 106.99 96.0587 107.009L75.9883 109.926C75.9475 109.932 75.9067 109.935 75.8659 109.935H75.867ZM60.2119 95.337L76.1124 108.193L95.6171 105.358C96.4623 104.77 100.311 102.089 101.311 101.374C101.632 101.145 101.683 100.928 101.69 100.765C101.722 100.15 101.117 99.28 100.503 98.7378C96.2393 94.9704 93.5227 90.9156 91.3399 87.6579C91.005 87.1582 90.6831 86.678 90.3706 86.2213C89.4086 84.8155 87.6266 84.237 86.0375 84.815C75.4718 88.6534 64.6652 91.3907 62.7289 91.8709L60.2119 95.3376V95.337Z" fill="#371A45"/>
<g opacity="0.3">
<path d="M88.995 107.177L95.9369 106.169C95.9369 106.169 100.668 102.879 101.806 102.063C102.985 101.221 102.561 99.9088 101.814 98.9122C101.583 98.6036 101.32 98.3275 101.065 98.1011C99.2158 96.4667 97.6568 94.7685 96.3086 93.1078C96.246 94.034 94.8039 95.1112 92.6227 94.8496C91.6317 94.7305 88.4159 91.185 86.8044 91.0441C82.1029 90.631 86.7083 102.606 88.9956 107.177H88.995Z" fill="#371A45"/>
</g>
<path d="M114.405 73.2749C115.605 74.1922 116.281 75.7204 116.093 77.0843C113.724 94.2716 98.1783 101.269 94.5238 98.0541C91.1733 95.1067 93.1632 91.9888 93.1632 91.9888C93.1632 91.9888 105.22 88.7132 109.432 73.9776C109.978 72.0692 112.159 71.5589 113.942 72.9211L114.405 73.2744L114.405 73.2749Z" fill="white"/>
<g opacity="0.3">
<path d="M94.5227 98.0543C98.1784 101.27 113.724 94.2717 116.092 77.0839C116.28 75.72 115.606 74.1929 114.404 73.2745L113.943 72.9212C113.295 72.426 112.595 72.1778 111.94 72.156C112.434 72.9565 112.665 73.8922 112.546 74.7625C110.518 89.4903 98.8139 96.7362 93.2041 96.4864C93.5015 97.0034 93.9285 97.5322 94.5222 98.0543H94.5227Z" fill="#371A45"/>
</g>
<path d="M97.037 99.7804C95.729 99.7804 94.6468 99.4456 93.8877 98.7776C90.7469 96.0152 91.5093 92.7905 92.3511 91.4713L92.5512 91.1572L92.9106 91.0599C93.0247 91.0286 104.503 87.7161 108.506 73.7133C108.83 72.5797 109.631 71.7256 110.702 71.3707C111.923 70.9666 113.353 71.2595 114.527 72.1566L114.989 72.5099C116.454 73.6284 117.281 75.5199 117.046 77.2164C115.462 88.7173 107.884 96.4204 101.077 98.9537C99.5926 99.506 98.222 99.781 97.0364 99.781L97.037 99.7804ZM93.8273 92.7927C93.5037 93.5166 92.9811 95.4149 95.1599 97.3316C96.018 98.0862 98.0772 98.0141 100.405 97.1482C106.675 94.8151 113.663 87.6664 115.139 76.9531C115.278 75.938 114.737 74.7402 113.821 74.0403L113.358 73.6871C112.69 73.1773 111.924 72.9945 111.308 73.1991C110.837 73.355 110.509 73.7161 110.358 74.2427C106.437 87.9593 96.0632 92.0571 93.8273 92.7927Z" fill="#371A45"/>
<path d="M73.4036 106.93C74.5261 108.28 75.7636 110.069 75.7636 110.069C75.7636 110.069 78.715 108.059 78.9369 107.874C79.6708 107.264 78.9615 105.201 77.3528 103.268C75.7441 101.334 73.8452 100.262 73.1113 100.872C72.5741 101.319 70.1868 102.909 70.1868 102.909C70.1868 102.909 72.9721 106.412 73.4036 106.931V106.93Z" fill="white"/>
<path d="M75.9273 109.956C76.9041 109.143 76.3917 106.917 74.783 104.983C73.1742 103.049 71.0782 102.141 70.1014 102.953C69.1246 103.766 69.6369 105.992 71.2457 107.926C72.8545 109.86 74.9505 110.768 75.9273 109.956Z" fill="white"/>
<path d="M59.5823 96.327C60.8965 97.7356 62.977 99.9804 65.228 102.263C68.4499 105.529 72.0172 108.87 74.1687 109.931C77.9127 111.776 89.0496 108.872 95.9384 106.168C97.7461 105.458 98.3369 103.231 96.9021 101.92C94.5549 99.7741 92.4515 97.5874 90.7053 95.6473C89.0519 93.811 87.7187 92.1973 86.8026 91.0441C85.9624 89.9865 84.5231 89.6193 83.2743 90.1336C72.4236 94.612 63.9837 94.9988 60.2324 94.8831C59.4694 94.8597 59.0603 95.7674 59.5818 96.327H59.5823Z" fill="white"/>
<g opacity="0.3">
<path d="M70.1323 106.361C71.5907 107.688 72.9635 108.823 74.0792 109.523C74.3431 109.691 74.5929 109.834 74.826 109.949C78.4515 111.736 89.2357 108.923 95.9065 106.304C97.6572 105.617 98.229 103.461 96.8394 102.191C94.5666 100.114 92.5298 97.9961 90.8394 96.1174C90.9702 98.1594 90.447 102.762 83.8881 105.935C82.1893 106.755 80.2586 106.982 78.2525 106.818C78.3123 105.914 77.7846 104.449 76.8053 103.005C75.4403 100.988 73.7103 99.7748 72.9462 100.293C72.4783 100.611 70.6913 101.572 70.1144 101.883C70.02 101.916 69.9305 101.959 69.8461 102.016C69.3056 102.381 69.1329 103.174 69.2922 104.136C69.4073 104.823 69.6907 105.595 70.1323 106.361V106.361Z" fill="#371A45"/>
</g>
<g opacity="0.3">
<path d="M73.1346 108.796C72.6036 108.053 72.2341 107.288 72.0463 106.594C70.8585 106.173 69.7193 105.713 68.6724 105.253C70.1458 106.48 71.6824 107.714 73.1346 108.796Z" fill="#371A45"/>
</g>
<path d="M77.6282 111.362C76.0698 111.362 74.7456 111.16 73.7942 110.691C70.1179 108.879 62.797 101.023 59.2789 97.2471L58.9608 96.9055C58.4885 96.3991 58.3683 95.6652 58.6539 95.0346C58.939 94.4058 59.5729 94.0117 60.2604 94.0335C64.2023 94.1559 72.389 93.7071 82.9513 89.3488C84.5427 88.6925 86.3996 89.1727 87.4684 90.5159C89.2425 92.7473 92.9021 97.114 97.4756 101.293C98.3342 102.077 98.707 103.172 98.4991 104.295C98.2766 105.497 97.4354 106.492 96.2492 106.958C91.048 108.999 82.967 111.361 77.6282 111.361V111.362ZM60.2084 95.7311L60.5215 96.0894C63.7015 99.5019 71.1481 107.494 74.5449 109.168C77.6741 110.71 87.925 108.401 95.6288 105.377C96.2655 105.127 96.7143 104.608 96.8295 103.986C96.8876 103.672 96.8999 103.067 96.3303 102.547C91.6701 98.289 87.9452 93.844 86.1397 91.5729C85.5394 90.8183 84.4946 90.5483 83.5992 90.9189C72.7439 95.3974 64.2833 95.8535 60.2084 95.7306V95.7311Z" fill="#371A45"/>
<path d="M73.4034 106.93C74.5258 108.28 75.7634 110.069 75.7634 110.069C75.7634 110.069 78.7148 108.059 78.9367 107.874C79.6706 107.264 78.9613 105.201 77.3525 103.268C75.7438 101.334 73.845 100.262 73.1111 100.872C72.5739 101.319 70.1865 102.909 70.1865 102.909C70.1865 102.909 72.9719 106.412 73.4034 106.931V106.93Z" fill="#22A7F0"/>
<g opacity="0.8">
<path d="M70.1877 102.908C70.1877 102.908 72.972 106.41 73.4029 106.931C74.5259 108.278 75.7629 110.07 75.7629 110.07C75.7629 110.07 75.8216 110.03 75.9217 109.963C75.4941 109.387 74.9731 108.698 74.4745 108.1C74.0418 107.58 71.2559 104.077 71.2559 104.077C71.2559 104.077 73.645 102.487 74.1827 102.041C74.7763 101.545 76.1436 102.159 77.4991 103.445C77.4493 103.386 77.4029 103.328 77.3538 103.268C75.7445 101.335 73.8462 100.262 73.1112 100.873C72.5734 101.318 70.1877 102.909 70.1877 102.909V102.908Z" fill="white"/>
</g>
<g opacity="0.3">
<path d="M73.9255 107.583C74.8797 108.792 75.7629 110.071 75.7629 110.071C75.7629 110.071 78.7137 108.058 78.9367 107.873C79.6695 107.264 78.9613 105.202 77.3537 103.268C76.8109 102.615 76.2352 102.06 75.6813 101.636C76.9356 103.367 77.4269 105.067 76.7752 105.61C76.598 105.755 74.7003 107.054 73.9255 107.583Z" fill="#371A45"/>
</g>
<path d="M75.764 110.777C75.5393 110.777 75.3185 110.671 75.1815 110.472C75.1692 110.454 73.9485 108.691 72.8596 107.383C72.428 106.864 69.7467 103.493 69.6326 103.349C69.5097 103.194 69.4566 102.995 69.4873 102.799C69.518 102.603 69.6293 102.429 69.7942 102.32C70.4499 101.883 72.2419 100.675 72.6583 100.329C73.9445 99.2583 76.2749 100.868 77.8959 102.816C78.7277 103.815 79.3654 104.888 79.6919 105.837C80.2335 107.413 79.7349 108.131 79.3889 108.418C79.1592 108.609 76.8607 110.178 76.1614 110.654C76.0396 110.737 75.9009 110.777 75.764 110.777ZM71.2179 103.069C72.0329 104.093 73.6338 106.102 73.9468 106.478C74.6936 107.375 75.4784 108.447 75.9395 109.093C77.1558 108.262 78.3436 107.442 78.4867 107.328C78.6684 107.082 78.328 105.548 76.8081 103.721C75.2883 101.894 73.8406 101.28 73.5583 101.42C73.1754 101.739 71.9798 102.556 71.2179 103.069V103.069Z" fill="#371A45"/>
<path d="M75.927 109.956C76.9038 109.143 76.3915 106.917 74.7827 104.983C73.174 103.049 71.0779 102.141 70.1012 102.953C69.1244 103.766 69.6367 105.992 71.2455 107.926C72.8542 109.86 74.9502 110.768 75.927 109.956Z" fill="#22A7F0"/>
<g opacity="0.8">
<path d="M71.2459 107.927C71.3521 108.054 71.4578 108.174 71.5668 108.29C70.5612 106.653 70.3527 105.015 71.1576 104.344C72.0704 103.584 73.9642 104.33 75.5215 106.012C75.3085 105.667 75.062 105.322 74.7836 104.986C73.1744 103.053 71.0777 102.143 70.1023 102.956C69.1257 103.768 69.6366 105.994 71.2459 107.928V107.927Z" fill="white"/>
</g>
<g opacity="0.3">
<path d="M71.3862 108.091C72.9732 109.913 74.9771 110.746 75.9273 109.957C76.9038 109.145 76.3907 106.92 74.7837 104.986C73.9418 103.975 72.9692 103.244 72.0917 102.892C72.1375 102.945 72.1839 102.998 72.2275 103.052C73.8345 104.987 74.3482 107.212 73.3689 108.025C72.9055 108.413 72.1856 108.407 71.3862 108.09V108.091Z" fill="#371A45"/>
</g>
<path d="M75.0139 110.964C73.7098 110.964 72.072 110.028 70.7014 108.381C68.783 106.075 68.3303 103.509 69.6483 102.411C70.9669 101.315 73.408 102.227 75.3264 104.533C77.2447 106.838 77.6975 109.405 76.3795 110.502C76.0033 110.815 75.5354 110.964 75.0139 110.964ZM71.0089 103.368C70.8138 103.368 70.6578 103.412 70.5533 103.499C70.0541 103.914 70.2872 105.67 71.7892 107.475C73.2911 109.28 74.9742 109.829 75.4745 109.414C75.9736 108.998 75.7406 107.243 74.2386 105.438C73.0508 104.009 71.7484 103.368 71.0089 103.368Z" fill="#371A45"/>
<path d="M87.7932 109.466C87.6255 109.466 87.4578 109.4 87.3326 109.269L82.3349 104.039C81.4159 103.078 81.2935 101.582 82.0437 100.484C82.4226 99.929 82.4047 99.1968 81.9984 98.6618L77.3254 92.5064C77.1124 92.2264 77.1672 91.8267 77.4478 91.6143C77.7273 91.4019 78.1275 91.4567 78.3399 91.7362L83.0129 97.8916C83.7513 98.8636 83.7843 100.195 83.0956 101.202C82.6826 101.807 82.7502 102.63 83.2561 103.159L88.2538 108.389C88.497 108.643 88.4875 109.046 88.2337 109.29C88.1102 109.407 87.952 109.466 87.7938 109.466H87.7932Z" fill="#371A45"/>
<path d="M121.027 109.375C120.548 109.375 120.132 109.017 120.072 108.529C120.007 108.002 120.382 107.52 120.91 107.456C122.477 107.262 125.769 105.622 127.93 102.047C129.771 98.9995 131.3 93.6004 128.126 85.1839C127.938 84.6865 128.189 84.1308 128.687 83.943C129.185 83.7563 129.74 84.0067 129.928 84.5042C133.375 93.644 131.64 99.6306 129.578 103.043C127.047 107.231 123.149 109.119 121.146 109.367C121.106 109.372 121.067 109.374 121.027 109.374V109.375Z" fill="#371A45"/>
<path d="M123.502 68.2554C123.383 68.2554 123.262 68.2331 123.145 68.1867C117.724 66.0274 114.195 61.5422 112.94 55.2152C112.009 50.5187 112.65 46.5036 112.678 46.3348C112.765 45.8099 113.261 45.4555 113.785 45.541C114.309 45.6277 114.665 46.1229 114.579 46.6473C114.571 46.6964 113.965 50.5394 114.84 54.8949C115.987 60.6009 119.021 64.4706 123.859 66.3974C124.353 66.5942 124.594 67.1542 124.397 67.6484C124.247 68.0257 123.884 68.2554 123.502 68.2554H123.502Z" fill="#371A45"/>
<path d="M86.8362 86.223C86.7037 86.0615 85.0642 88.4108 83.6394 89.2823C82.8999 89.7345 86.2135 91.152 85.9167 90.1291C85.5623 88.9066 86.9681 86.3851 86.8356 86.223H86.8362Z" fill="#371A45"/>
</g>
<defs>
<clipPath id="clip0_2882_5108">
<rect width="156" height="132.836" fill="white"/>
</clipPath>
</defs>
</svg>
