<svg width="32" height="32" viewBox="0 0 32 32" fill="none" xmlns="http://www.w3.org/2000/svg">
<rect width="32" height="32" rx="7" fill="white"/>
<path d="M9.23071 22.5631C9.23071 22.934 9.53418 23.2375 9.90508 23.2375H22.0774C22.4651 23.2375 22.7517 22.934 22.7517 22.5631V15.3979H9.23071V22.5631Z" fill="#5634DE"/>
<path d="M23.3418 10.9809H21.4367C21.6222 10.5595 21.6559 10.0705 21.5379 9.61534C21.3524 8.8904 20.813 8.31719 20.088 8.09802C19.3799 7.87885 18.6044 8.03058 18.0312 8.5195L16.0081 10.2391L13.985 8.5195C13.4118 8.03058 12.6363 7.87885 11.9282 8.09802C11.2201 8.31719 10.6806 8.8904 10.4783 9.61534C10.3603 10.0874 10.4109 10.5595 10.5794 10.9809H8.67437C8.30346 10.9809 8 11.2844 8 11.6553V13.4424C8 13.8133 8.30346 14.1167 8.67437 14.1167H23.325C23.6959 14.1167 23.9993 13.8133 23.9993 13.4424V11.6722C24.0162 11.3013 23.7127 10.9809 23.3418 10.9809ZM18.9247 9.54791C19.1439 9.36246 19.4136 9.31188 19.6834 9.39617C19.9531 9.48047 20.1386 9.68278 20.2229 9.95253C20.2903 10.1886 20.2397 10.4414 20.088 10.6438C19.9363 10.8461 19.7002 10.9472 19.4642 10.9472H17.2894L18.9247 9.54791ZM11.8102 9.95253C11.8776 9.68278 12.0799 9.48047 12.3497 9.39617C12.434 9.36246 12.5183 9.36246 12.6025 9.36246C12.788 9.36246 12.9734 9.42989 13.1083 9.54791L14.7605 10.9472H12.5857C12.3328 10.9472 12.1136 10.8292 11.9619 10.6438C11.7933 10.4583 11.7427 10.2054 11.8102 9.95253Z" fill="#5634DE"/>
</svg>
