<svg width="14" height="14" viewBox="0 0 14 14" fill="none" xmlns="http://www.w3.org/2000/svg">
<path d="M1.335 9.87529C1.40341 9.9437 1.48901 9.9437 1.55753 9.89236C2.27637 9.34462 3.30331 9.43022 3.93653 10.0636C4.56976 10.6968 4.63828 11.7237 4.10773 12.4426C4.0564 12.511 4.0564 12.6138 4.12481 12.6651L5.28857 13.8461C5.49392 14.0514 5.81911 14.0514 6.00741 13.8461L11.6896 8.16385L10.3888 6.82887L10.868 6.34965L12.1859 7.66754L13.8461 6.00738C14.0514 5.80203 14.0514 5.47684 13.8461 5.28854L8.71157 0.154009C8.50622 -0.0513362 8.18103 -0.0513362 7.99273 0.154009L6.33256 1.81417L7.65046 3.13207L7.17124 3.61129L5.85334 2.2934L0.154009 7.99273C-0.0513362 8.19808 -0.0513362 8.52327 0.154009 8.71157L1.335 9.87529ZM8.55758 4.03904L9.97813 5.45959L9.49891 5.93881L8.07836 4.51826L8.55758 4.03904Z" fill="#5634DE"/>
</svg>
