<svg width="45" height="45" viewBox="0 0 45 45" fill="none" xmlns="http://www.w3.org/2000/svg">
<circle cx="22.5" cy="22.5" r="21.5" stroke="#5634DE" stroke-width="2"/>
<path d="M29.2379 17.1192C28.0905 16.601 26.8604 16.2196 25.574 16.0008C25.5505 15.9968 25.5271 16.0073 25.515 16.0283C25.3568 16.3052 25.1816 16.6664 25.0589 16.9505C23.6754 16.7467 22.2988 16.7467 20.9438 16.9505C20.8211 16.6602 20.6395 16.3052 20.4806 16.0283C20.4684 16.0081 20.4451 15.9973 20.4215 16.0008C19.1359 16.2189 17.9058 16.6005 16.7579 17.1192C16.7477 17.1234 16.7394 17.1304 16.7338 17.1396C14.4002 20.5699 13.7608 23.9159 14.0744 27.2205C14.0759 27.2367 14.085 27.2521 14.098 27.2621C15.6376 28.3745 17.1288 29.05 18.5926 29.4978C18.6159 29.5048 18.6408 29.4963 18.6557 29.4773C19.002 29.0121 19.3106 28.5214 19.5753 28.0055C19.5907 27.9753 19.576 27.9397 19.5441 27.9277C19.0545 27.7448 18.5883 27.5221 18.1398 27.2691C18.1043 27.2487 18.1015 27.1988 18.1342 27.1748C18.2286 27.1052 18.3229 27.0329 18.4131 26.9598C18.4293 26.9466 18.4522 26.9436 18.4712 26.952C21.4171 28.2754 24.6061 28.2754 27.5173 26.952C27.5365 26.9431 27.5591 26.9458 27.5761 26.959C27.6663 27.0321 27.7607 27.1052 27.8557 27.1748C27.8884 27.1988 27.8862 27.2487 27.8507 27.2691C27.4024 27.527 26.9362 27.7448 26.4459 27.9269C26.414 27.9389 26.3998 27.9753 26.4155 28.0055C26.6857 28.5206 26.9943 29.0113 27.3342 29.4766C27.3484 29.4963 27.374 29.5048 27.3974 29.4978C28.868 29.05 30.3595 28.3745 31.8991 27.2621C31.9126 27.2521 31.9212 27.2374 31.9224 27.2212C32.2979 23.4008 31.294 20.0822 29.2612 17.1401C29.2562 17.1304 29.2478 17.1234 29.2379 17.1192ZM20.0151 25.2083C19.1283 25.2083 18.3974 24.4073 18.3974 23.4232C18.3974 22.4394 19.1141 21.6381 20.0151 21.6381C20.9232 21.6381 21.647 22.4463 21.6328 23.4232C21.6328 24.4073 20.9161 25.2083 20.0151 25.2083ZM25.9962 25.2083C25.1093 25.2083 24.3784 24.4073 24.3784 23.4232C24.3784 22.4394 25.0951 21.6381 25.9962 21.6381C26.9043 21.6381 27.6281 22.4463 27.6139 23.4232C27.6139 24.4073 26.9043 25.2083 25.9962 25.2083Z" fill="#5634DE"/>
</svg>
