<svg width="19" height="15" viewBox="0 0 19 15" fill="none" xmlns="http://www.w3.org/2000/svg">
<path d="M15.7379 1.86916C14.5905 1.35103 13.3604 0.969611 12.074 0.750837C12.0505 0.746845 12.0271 0.757322 12.015 0.778277C11.8568 1.05518 11.6816 1.41639 11.5589 1.70052C10.1754 1.49672 8.79882 1.49672 7.44376 1.70052C7.32105 1.41015 7.13953 1.05518 6.98058 0.778277C6.96841 0.758071 6.94508 0.747344 6.92151 0.750837C5.63591 0.968863 4.40583 1.35053 3.25789 1.86916C3.24775 1.8734 3.23938 1.88038 3.2338 1.88961C0.900153 5.31991 0.260775 8.66589 0.574379 11.9705C0.575901 11.9867 0.585027 12.0021 0.597957 12.0121C2.13758 13.1245 3.62879 13.8 5.09261 14.2478C5.11594 14.2548 5.14078 14.2463 5.15574 14.2273C5.50205 13.7621 5.81058 13.2714 6.07526 12.7555C6.09072 12.7253 6.07602 12.6897 6.04407 12.6777C5.55453 12.4948 5.0883 12.2721 4.63983 12.0191C4.60433 11.9987 4.60155 11.9488 4.63425 11.9248C4.72856 11.8552 4.82287 11.7829 4.91312 11.7098C4.92935 11.6966 4.95216 11.6936 4.97118 11.702C7.91708 13.0254 11.1061 13.0254 14.0173 11.702C14.0365 11.6931 14.0591 11.6958 14.0761 11.709C14.1663 11.7821 14.2607 11.8552 14.3557 11.9248C14.3884 11.9488 14.3862 11.9987 14.3507 12.0191C13.9024 12.277 13.4362 12.4948 12.9459 12.6769C12.914 12.6889 12.8998 12.7253 12.9155 12.7555C13.1857 13.2706 13.4943 13.7613 13.8342 14.2266C13.8484 14.2463 13.874 14.2548 13.8974 14.2478C15.368 13.8 16.8595 13.1245 18.3991 12.0121C18.4126 12.0021 18.4212 11.9874 18.4224 11.9712C18.7979 8.15076 17.794 4.83222 15.7612 1.89011C15.7562 1.88038 15.7478 1.8734 15.7379 1.86916ZM6.51511 9.95833C5.6283 9.95833 4.8974 9.15732 4.8974 8.17321C4.8974 7.18935 5.6141 6.38809 6.51511 6.38809C7.42322 6.38809 8.14702 7.19633 8.13283 8.17321C8.13283 9.15732 7.41612 9.95833 6.51511 9.95833ZM12.4962 9.95833C11.6093 9.95833 10.8784 9.15732 10.8784 8.17321C10.8784 7.18935 11.5951 6.38809 12.4962 6.38809C13.4043 6.38809 14.1281 7.19633 14.1139 8.17321C14.1139 9.15732 13.4043 9.95833 12.4962 9.95833Z" fill="#F8F8F8"/>
</svg>
