<svg width="77" height="77" viewBox="0 0 77 77" fill="none" xmlns="http://www.w3.org/2000/svg">
<circle cx="38.9065" cy="38.0921" r="38.0921" fill="#5634DE"/>
<path d="M50.3151 28.9824C48.3725 28.1052 46.29 27.4594 44.1122 27.0891C44.0723 27.0823 44.0328 27.1 44.0122 27.1355C43.7444 27.6043 43.4478 28.2158 43.2401 28.6969C40.8979 28.3518 38.5673 28.3518 36.2732 28.6969C36.0655 28.2053 35.7582 27.6043 35.4891 27.1355C35.4685 27.1013 35.429 27.0832 35.3891 27.0891C33.2126 27.4582 31.1301 28.1043 29.1866 28.9824C29.1695 28.9895 29.1553 29.0014 29.1459 29.017C25.195 34.8244 24.1126 40.4891 24.6435 46.0837C24.6461 46.1111 24.6615 46.1373 24.6834 46.1542C27.29 48.0374 29.8146 49.181 32.2928 49.9391C32.3323 49.9509 32.3743 49.9366 32.3997 49.9045C32.986 49.1168 33.5083 48.2861 33.9564 47.4127C33.9826 47.3616 33.9577 47.3013 33.9036 47.281C33.0748 46.9714 32.2855 46.5943 31.5262 46.166C31.4661 46.1314 31.4614 46.0469 31.5168 46.0064C31.6764 45.8886 31.8361 45.7661 31.9889 45.6423C32.0164 45.62 32.055 45.6149 32.0872 45.6293C37.0746 47.8697 42.4735 47.8697 47.4021 45.6293C47.4347 45.614 47.4729 45.6187 47.5017 45.6411C47.6544 45.7648 47.8141 45.8886 47.9751 46.0064C48.0304 46.0469 48.0266 46.1314 47.9665 46.166C47.2076 46.6027 46.4183 46.9714 45.5883 47.2797C45.5342 47.3 45.5101 47.3616 45.5368 47.4127C45.9943 48.2849 46.5166 49.1156 47.0922 49.9032C47.1162 49.9366 47.1596 49.9509 47.1991 49.9391C49.6889 49.181 52.2139 48.0374 54.8205 46.1542C54.8432 46.1373 54.8578 46.1124 54.8599 46.0849C55.4956 39.617 53.7959 33.9988 50.3546 29.0178C50.346 29.0014 50.3318 28.9895 50.3151 28.9824ZM34.7011 42.6772C33.1997 42.6772 31.9623 41.3211 31.9623 39.655C31.9623 37.9893 33.1757 36.6328 34.7011 36.6328C36.2385 36.6328 37.4638 38.0012 37.4398 39.655C37.4398 41.3211 36.2264 42.6772 34.7011 42.6772ZM44.8269 42.6772C43.3255 42.6772 42.0881 41.3211 42.0881 39.655C42.0881 37.9893 43.3015 36.6328 44.8269 36.6328C46.3643 36.6328 47.5896 38.0012 47.5656 39.655C47.5656 41.3211 46.3643 42.6772 44.8269 42.6772Z" fill="white"/>
</svg>
