<svg width="14" height="22" viewBox="0 0 14 22" fill="none" xmlns="http://www.w3.org/2000/svg">
<path d="M7.29349 21.8914C6.81521 21.8914 6.42389 21.732 6.11952 21.4132C5.81516 21.0943 5.66298 20.6849 5.66298 20.1848V19.2391C4.19914 19.058 2.92735 18.5761 1.84759 17.7934C1.39829 17.4601 1.04682 17.0796 0.793189 16.6521C0.539554 16.2245 0.412737 15.797 0.412737 15.3694C0.412737 14.9056 0.564918 14.5143 0.86928 14.1954C1.18089 13.8693 1.55772 13.7063 1.99977 13.7063C2.44906 13.7063 2.86575 13.9092 3.24983 14.315C4.48901 15.518 5.87314 16.1194 7.40219 16.1194C8.15585 16.1194 8.73559 15.9817 9.1414 15.7064C9.55447 15.431 9.761 15.0505 9.761 14.565C9.761 14.1375 9.61969 13.8114 9.33707 13.5867C9.06169 13.3548 8.66312 13.1881 8.14136 13.0867L5.14122 12.4671C3.74985 12.1772 2.69545 11.6736 1.97803 10.9561C1.2606 10.2315 0.90189 9.23868 0.90189 7.97775C0.90189 6.67334 1.32582 5.58996 2.17369 4.7276C3.0288 3.85799 4.1919 3.31811 5.66298 3.10796V2.16226C5.66298 1.66224 5.81516 1.2528 6.11952 0.933942C6.42389 0.615086 6.81521 0.455659 7.29349 0.455659C7.77902 0.455659 8.17397 0.615086 8.47833 0.933942C8.78269 1.24555 8.93487 1.65499 8.93487 2.16226V3.22753C9.99289 3.45942 10.9567 3.86524 11.8263 4.44497C12.2901 4.75658 12.6416 5.12617 12.8807 5.55372C13.1271 5.97403 13.2503 6.40159 13.2503 6.83639C13.2503 7.30743 13.1162 7.69875 12.8481 8.01036C12.5872 8.31472 12.2285 8.4669 11.772 8.4669C11.2285 8.4669 10.6741 8.21689 10.1088 7.71687C9.69578 7.28206 9.19575 6.92335 8.60877 6.64073C8.02179 6.35811 7.36958 6.2168 6.65216 6.2168C6.01445 6.2168 5.49993 6.34361 5.10861 6.59725C4.71729 6.84364 4.52162 7.1951 4.52162 7.65165C4.52162 8.10819 4.66656 8.43791 4.95643 8.64082C5.2463 8.83648 5.71371 9.00678 6.35867 9.15172L9.21749 9.80392C9.70302 9.91262 10.1342 10.0394 10.511 10.1844C10.8951 10.3221 11.2683 10.5105 11.6307 10.7496C12.0002 10.9815 12.3046 11.2533 12.5437 11.5649C12.7829 11.8692 12.9749 12.2497 13.1199 12.7062C13.272 13.1628 13.3481 13.6773 13.3481 14.2498C13.3481 15.5324 12.9532 16.605 12.1633 17.4673C11.3806 18.3297 10.3045 18.8949 8.93487 19.1631V20.1848C8.93487 20.6921 8.78269 21.1015 8.47833 21.4132C8.17397 21.732 7.77902 21.8914 7.29349 21.8914Z" fill="white"/>
</svg>
