<svg width="18" height="18" viewBox="0 0 18 18" fill="none" xmlns="http://www.w3.org/2000/svg">
<circle cx="9" cy="9" r="8.2" stroke="#5634DE" stroke-width="1.6"/>
<path d="M8.60619 5.51571C8.60619 5.25161 8.81565 5.04214 9.07976 5.04214C9.34387 5.04214 9.55333 5.25161 9.55333 5.51571V5.64321C10.0451 5.71607 10.4823 5.86179 10.8739 6.08036C11.0469 6.18053 11.2017 6.35357 11.2017 6.62679C11.2017 6.97286 10.9285 7.23696 10.5824 7.23696C10.4732 7.23696 10.3639 7.20964 10.2637 7.155C10.0087 7.01839 9.75369 6.90911 9.50779 6.84536V8.22964C10.8921 8.60304 11.484 9.16768 11.484 10.1877C11.484 11.2077 10.7008 11.8634 9.55333 11.9909V12.4736C9.55333 12.7377 9.34387 12.9471 9.07976 12.9471C8.81565 12.9471 8.60619 12.7377 8.60619 12.4736V11.9818C7.95958 11.8998 7.3494 11.6721 6.81208 11.3443C6.62083 11.2259 6.50244 11.0437 6.50244 10.7979C6.50244 10.4427 6.77565 10.1786 7.13083 10.1786C7.24922 10.1786 7.37672 10.2241 7.48601 10.297C7.86851 10.5429 8.23279 10.7159 8.65172 10.807V9.35893C7.34029 9.00375 6.69369 8.50286 6.69369 7.41911C6.69369 6.41732 7.45869 5.74339 8.60619 5.625V5.51571ZM10.1544 10.2605C10.1544 9.96 9.99958 9.75964 9.50779 9.58661V10.8525C9.93583 10.7887 10.1544 10.5884 10.1544 10.2605ZM8.02333 7.33714C8.02333 7.61946 8.15083 7.81071 8.65172 7.99286V6.76339C8.21458 6.82714 8.02333 7.04571 8.02333 7.33714Z" fill="#5634DE"/>
</svg>
