<svg width="10" height="11" viewBox="0 0 10 11" fill="none" xmlns="http://www.w3.org/2000/svg">
<path fill-rule="evenodd" clip-rule="evenodd" d="M4.08778 1.228L4.08778 7.21025L1.83506 4.95753C1.46089 4.58412 0.855621 4.58412 0.482208 4.95753C0.108796 5.33094 0.108796 5.93621 0.482208 6.31039L4.36784 10.196C4.74125 10.5694 5.34728 10.5694 5.72069 10.196L9.60632 6.31039C9.79303 6.12292 9.88638 5.87882 9.88638 5.63396C9.88638 5.38833 9.79303 5.14424 9.60632 4.95753C9.23291 4.58412 8.62765 4.58412 8.25347 4.95753L6.00075 7.21025L6.00075 1.228C6.00075 0.70002 5.57225 0.271514 5.04427 0.271514C4.51629 0.271514 4.08778 0.700019 4.08778 1.228Z" fill="white"/>
</svg>
