<svg width="12" height="12" viewBox="0 0 12 12" fill="none" xmlns="http://www.w3.org/2000/svg">
<path d="M3.57943 2.93537C3.37851 2.73446 3.37851 2.40874 3.57943 2.20783L5.63657 0.150686C5.83749 -0.0502286 6.1632 -0.0502286 6.36411 0.150686L8.42126 2.20783C8.62217 2.40874 8.62217 2.73446 8.42126 2.93537C8.32114 3.03549 8.18949 3.08623 8.05783 3.08623C7.92617 3.08623 7.79451 3.03617 7.6944 2.93537L6.51497 1.75594V7.37126C6.51497 7.65514 6.28457 7.88554 6.00069 7.88554C5.7168 7.88554 5.4864 7.65514 5.4864 7.37126V1.75663L4.30697 2.93606C4.10606 3.13697 3.78034 3.13697 3.57943 2.93606V2.93537ZM11.4857 6.85766C11.2018 6.85766 10.9714 7.08806 10.9714 7.37194V9.42909C10.9714 9.90154 10.5867 10.2862 10.1143 10.2862H1.88571C1.41326 10.2862 1.02857 9.90154 1.02857 9.42909V7.37194C1.02857 7.08806 0.798171 6.85766 0.514286 6.85766C0.2304 6.85766 0 7.08806 0 7.37194V9.42909C0 10.4693 0.845486 11.3148 1.88571 11.3148H10.1143C11.1545 11.3148 12 10.4693 12 9.42909V7.37194C12 7.08806 11.7696 6.85766 11.4857 6.85766Z" fill="#5634DE"/>
</svg>
