<svg width="30" height="30" viewBox="0 0 30 30" fill="none" xmlns="http://www.w3.org/2000/svg">
<circle cx="15" cy="15" r="15" fill="#34ad09"/>
<path d="M10.166 19.6878C10.166 19.9527 10.3828 20.1695 10.6477 20.1695H19.3422C19.6192 20.1695 19.8239 19.9527 19.8239 19.6878V14.5698H10.166V19.6878Z" fill="white"/>
<path d="M20.2456 11.4149H18.8848C19.0172 11.1138 19.0413 10.7646 18.957 10.4395C18.8246 9.92164 18.4392 9.51221 17.9214 9.35566C17.4156 9.19911 16.8617 9.30749 16.4522 9.65671L15.0072 10.885L13.5621 9.65671C13.1527 9.30749 12.5987 9.19911 12.093 9.35566C11.5872 9.51221 11.2018 9.92164 11.0573 10.4395C10.973 10.7766 11.0092 11.1138 11.1296 11.4149H9.7688C9.50387 11.4149 9.28711 11.6316 9.28711 11.8966V13.173C9.28711 13.438 9.50387 13.6547 9.7688 13.6547H20.2335C20.4984 13.6547 20.7152 13.438 20.7152 13.173V11.9086C20.7272 11.6437 20.5105 11.4149 20.2456 11.4149ZM17.0905 10.3913C17.247 10.2588 17.4397 10.2227 17.6324 10.2829C17.8251 10.3431 17.9575 10.4876 18.0177 10.6803C18.0659 10.8489 18.0298 11.0295 17.9214 11.174C17.813 11.3185 17.6444 11.3908 17.4758 11.3908H15.9224L17.0905 10.3913ZM12.0087 10.6803C12.0568 10.4876 12.2013 10.3431 12.394 10.2829C12.4542 10.2588 12.5144 10.2588 12.5746 10.2588C12.7071 10.2588 12.8396 10.307 12.9359 10.3913L14.1161 11.3908H12.5626C12.382 11.3908 12.2254 11.3065 12.117 11.174C11.9966 11.0416 11.9605 10.8609 12.0087 10.6803Z" fill="white"/>
</svg>
