<svg width="14" height="14" viewBox="0 0 14 14" fill="none" xmlns="http://www.w3.org/2000/svg">
<path d="M7.25217 3.33352C7.78378 3.32936 8.23497 3.77814 8.23264 4.3084C8.23013 4.84445 7.78983 5.27989 7.25035 5.27989C6.70904 5.27989 6.26692 4.8453 6.26546 4.31171C6.26364 3.77251 6.70219 3.33778 7.25217 3.33352ZM8.57815 10.0163C8.23783 10.3862 7.82111 10.6158 7.30597 10.6503C7.02474 10.6691 6.74344 10.6871 6.46585 10.6126C5.95799 10.4762 5.61827 10.0214 5.68359 9.51029C5.74814 9.00481 5.84656 8.50366 5.9326 8.0008C6.00745 7.56341 6.08794 7.12694 6.16115 6.68929C6.17294 6.61848 6.16548 6.54275 6.15578 6.47084C6.13897 6.34629 6.06247 6.26819 5.93659 6.24509C5.86347 6.23167 5.78532 6.23957 5.71429 6.22072C5.61344 6.19398 5.50437 6.1686 5.42128 6.11129C5.28517 6.01731 5.31246 5.82662 5.46624 5.76243C5.5424 5.73068 5.63146 5.71718 5.71489 5.71583C6.03598 5.71056 6.35713 5.71379 6.67831 5.71379V5.71651C7.00658 5.71651 7.33492 5.71532 7.6632 5.71702C7.87797 5.71812 7.97916 5.8076 8.02438 6.01279C8.06363 6.19125 8.01234 6.35867 7.97968 6.53008C7.84227 7.25096 7.70747 7.97233 7.57318 8.69372C7.53168 8.91658 7.49434 9.14012 7.45683 9.36374C7.4505 9.40135 7.45198 9.44057 7.45232 9.47886C7.45743 9.91737 7.74038 9.97687 8.06466 9.84962C8.15633 9.81363 8.23733 9.75199 8.32527 9.70572C8.47732 9.62591 8.55806 9.62354 8.61828 9.69256C8.69131 9.77601 8.68471 9.90048 8.57815 10.0163Z" fill="#5634DE"/>
<circle cx="7" cy="7" r="6.75" stroke="#5634DE" stroke-width="0.5"/>
</svg>
