<svg width="10" height="10" viewBox="0 0 10 10" fill="none" xmlns="http://www.w3.org/2000/svg">
<path d="M5.31361 6.76954L5.3136 6.76952C5.31357 6.76614 5.31353 6.76273 5.31349 6.7593C5.31318 6.73534 5.31285 6.71003 5.31695 6.68562L5.31984 6.66841C5.34567 6.51444 5.3715 6.36044 5.40009 6.20688C5.49602 5.69159 5.59231 5.17631 5.69046 4.66138C5.69457 4.63977 5.69906 4.61838 5.70353 4.59712C5.72464 4.49652 5.74514 4.3989 5.72244 4.29571L5.72244 4.29571C5.70652 4.22347 5.68107 4.17317 5.64206 4.14066C5.6031 4.1082 5.54916 4.09228 5.47368 4.0919C5.30761 4.09104 5.14154 4.09121 4.97543 4.09139C4.90704 4.09146 4.83864 4.09153 4.77024 4.09153V4.08959C4.707 4.08959 4.64379 4.08942 4.5806 4.08924C4.41441 4.08878 4.24833 4.08832 4.08224 4.09105C4.02344 4.092 3.9611 4.10153 3.90814 4.12361C3.85624 4.14526 3.82618 4.18798 3.82019 4.23271C3.81421 4.27735 3.83209 4.32467 3.87775 4.3562L5.31361 6.76954ZM5.31361 6.76954C5.31545 6.92802 5.36768 7.02133 5.45219 7.06195C5.53573 7.10209 5.64732 7.08887 5.76396 7.0431L5.76049 7.03426M5.31361 6.76954L5.76049 7.03426M5.76049 7.03426L5.76396 7.0431C5.79748 7.02994 5.82887 7.01216 5.85946 6.99376M5.76049 7.03426L5.85946 6.99376M5.85946 6.99376C5.86698 6.98923 5.87443 6.98468 5.88185 6.98015M5.85946 6.99376L5.88185 6.98015M5.88185 6.98015C5.90485 6.96611 5.92756 6.95224 5.95106 6.93988L5.88185 6.98015ZM4.48485 3.07858L4.48485 3.07857C4.48357 2.69884 4.79242 2.39241 5.18021 2.3894C5.55466 2.38647 5.87261 2.70275 5.87097 3.0762C5.8692 3.4538 5.55901 3.76066 5.17884 3.76066C4.7973 3.76066 4.48588 3.45435 4.48485 3.07858ZM4.41021 4.77844L4.41021 4.77844L6.15593 6.92207C6.2081 6.98168 6.20338 7.07059 6.12726 7.15331C5.88418 7.41753 5.58652 7.58156 5.21857 7.60618C5.01769 7.61958 4.81676 7.63244 4.61848 7.57926L4.62095 7.57008C4.62094 7.57008 4.62094 7.57008 4.62094 7.57008C4.26222 7.47371 4.02317 7.15289 4.06915 6.79309C4.10286 6.52904 4.14952 6.26675 4.19622 6.00416C4.21333 5.90794 4.23046 5.81168 4.24695 5.71528C4.27027 5.57903 4.29437 5.44279 4.31848 5.30652C4.34961 5.13057 4.38075 4.95457 4.41021 4.77844Z" fill="white" stroke="white" stroke-width="0.0189997"/>
<circle cx="5" cy="5" r="4.82143" stroke="white" stroke-width="0.357143"/>
</svg>
