<svg width="76" height="76" viewBox="0 0 76 76" fill="none" xmlns="http://www.w3.org/2000/svg">
<path d="M0 32.3C0 19.8609 2.26498e-07 13.6415 2.79984 9.07252C4.3665 6.51597 6.51596 4.3665 9.07252 2.79982C13.6414 -4.52995e-07 19.8609 0 32.3 0H43.7C56.1389 0 62.3586 -4.52995e-07 66.9275 2.79982C69.4839 4.3665 71.6334 6.51597 73.2 9.07252C76 13.6415 76 19.8609 76 32.3V43.7C76 56.1391 76 62.3586 73.2 66.9275C71.6334 69.4841 69.4839 71.6336 66.9275 73.2002C62.3586 76 56.1389 76 43.7 76H32.3C19.8609 76 13.6414 76 9.07252 73.2002C6.51596 71.6336 4.3665 69.4841 2.79984 66.9275C2.26498e-07 62.3586 0 56.1391 0 43.7V32.3Z" fill="url(#paint0_linear_331_38)"/>
<path d="M0 32.3C0 19.8609 2.26498e-07 13.6415 2.79984 9.07252C4.3665 6.51597 6.51596 4.3665 9.07252 2.79982C13.6414 -4.52995e-07 19.8609 0 32.3 0H43.7C56.1389 0 62.3586 -4.52995e-07 66.9275 2.79982C69.4839 4.3665 71.6334 6.51597 73.2 9.07252C76 13.6415 76 19.8609 76 32.3V43.7C76 56.1391 76 62.3586 73.2 66.9275C71.6334 69.4841 69.4839 71.6336 66.9275 73.2002C62.3586 76 56.1389 76 43.7 76H32.3C19.8609 76 13.6414 76 9.07252 73.2002C6.51596 71.6336 4.3665 69.4841 2.79984 66.9275C2.26498e-07 62.3586 0 56.1391 0 43.7V32.3Z" fill="url(#paint1_radial_331_38)"/>
<path d="M0 32.3C0 19.8609 2.26498e-07 13.6415 2.79984 9.07252C4.3665 6.51597 6.51596 4.3665 9.07252 2.79982C13.6414 -4.52995e-07 19.8609 0 32.3 0H43.7C56.1389 0 62.3586 -4.52995e-07 66.9275 2.79982C69.4839 4.3665 71.6334 6.51597 73.2 9.07252C76 13.6415 76 19.8609 76 32.3V43.7C76 56.1391 76 62.3586 73.2 66.9275C71.6334 69.4841 69.4839 71.6336 66.9275 73.2002C62.3586 76 56.1389 76 43.7 76H32.3C19.8609 76 13.6414 76 9.07252 73.2002C6.51596 71.6336 4.3665 69.4841 2.79984 66.9275C2.26498e-07 62.3586 0 56.1391 0 43.7V32.3Z" fill="url(#paint2_radial_331_38)"/>
<path d="M0 32.3C0 19.8609 2.26498e-07 13.6415 2.79984 9.07252C4.3665 6.51597 6.51596 4.3665 9.07252 2.79982C13.6414 -4.52995e-07 19.8609 0 32.3 0H43.7C56.1389 0 62.3586 -4.52995e-07 66.9275 2.79982C69.4839 4.3665 71.6334 6.51597 73.2 9.07252C76 13.6415 76 19.8609 76 32.3V43.7C76 56.1391 76 62.3586 73.2 66.9275C71.6334 69.4841 69.4839 71.6336 66.9275 73.2002C62.3586 76 56.1389 76 43.7 76H32.3C19.8609 76 13.6414 76 9.07252 73.2002C6.51596 71.6336 4.3665 69.4841 2.79984 66.9275C2.26498e-07 62.3586 0 56.1391 0 43.7V32.3Z" fill="url(#paint3_radial_331_38)"/>
<path d="M29.0037 58.9007V40.3873L46.9931 58.9007H56.9994V58.4201L36.3099 37.3429L55.4034 17.3408V17.1006H45.3327L29.0037 34.7752V17.1006H20.8994V58.9007H29.0037Z" fill="white"/>
<defs>
<linearGradient id="paint0_linear_331_38" x1="38" y1="0" x2="38" y2="76" gradientUnits="userSpaceOnUse">
<stop stop-color="#1FD1FF"/>
<stop offset="1" stop-color="#1BB8FF"/>
</linearGradient>
<radialGradient id="paint1_radial_331_38" cx="0" cy="0" r="1" gradientUnits="userSpaceOnUse" gradientTransform="translate(3.63032 73.1204) rotate(-45.1556) scale(121.88 123.703)">
<stop stop-color="#232DE3"/>
<stop offset="1" stop-color="#232DE3" stop-opacity="0"/>
</radialGradient>
<radialGradient id="paint2_radial_331_38" cx="0" cy="0" r="1" gradientUnits="userSpaceOnUse" gradientTransform="translate(71.9066 75.566) rotate(-138.45) scale(76.2058 116.192)">
<stop stop-color="#8B4DFF"/>
<stop offset="1" stop-color="#8B4DFF" stop-opacity="0"/>
</radialGradient>
<radialGradient id="paint3_radial_331_38" cx="0" cy="0" r="1" gradientUnits="userSpaceOnUse" gradientTransform="translate(37.3669 0.563662) rotate(90) scale(59.9195 145.381)">
<stop stop-color="#24D5FF"/>
<stop offset="1" stop-color="#1BB8FF" stop-opacity="0"/>
</radialGradient>
</defs>
</svg>
