<svg width="82" height="16" viewBox="0 0 82 16" fill="none" xmlns="http://www.w3.org/2000/svg">
<path d="M1.78906 7.30396C1.23678 7.30396 0.789062 7.75167 0.789062 8.30396C0.789062 8.85624 1.23678 9.30396 1.78906 9.30396V7.30396ZM81.6146 9.01106C82.0051 8.62054 82.0051 7.98737 81.6146 7.59685L75.2506 1.23289C74.8601 0.842363 74.2269 0.842363 73.8364 1.23289C73.4459 1.62341 73.4459 2.25658 73.8364 2.6471L79.4932 8.30396L73.8364 13.9608C73.4459 14.3513 73.4459 14.9845 73.8364 15.375C74.2269 15.7655 74.8601 15.7655 75.2506 15.375L81.6146 9.01106ZM1.78906 9.30396H80.9074V7.30396H1.78906V9.30396Z" fill="#5634DE"/>
</svg>
