<svg width="150" height="220" viewBox="0 0 150 220" fill="none" xmlns="http://www.w3.org/2000/svg">
<path d="M149.675 211.048C150.083 211.438 150.112 212.07 149.738 212.46L143.659 218.816C143.286 219.206 142.653 219.206 142.245 218.816C141.836 218.426 141.808 217.794 142.181 217.404L147.585 211.754L141.672 206.105C141.264 205.715 141.235 205.082 141.608 204.692C141.981 204.302 142.615 204.302 143.023 204.692L149.675 211.048ZM66.7493 109.821L66.7043 108.822L67.7506 108.822L67.7506 109.866L66.7493 109.821ZM66.7493 211.754L66.7943 212.753L65.748 212.753L65.748 211.709L66.7493 211.754ZM0.954284 108.822L66.7043 108.822L66.7943 110.819L1.04429 110.819L0.954284 108.822ZM67.7506 109.866L67.7506 211.799L65.748 211.709L65.748 109.776L67.7506 109.866ZM66.7043 210.755L148.954 210.755L149.044 212.753L66.7943 212.753L66.7043 210.755Z" fill="#5634DE"/>
<path d="M149.675 8.62631C150.083 8.23629 150.112 7.60394 149.738 7.21392L143.659 0.858135C143.286 0.468112 142.653 0.468112 142.245 0.858135C141.836 1.24816 141.808 1.88051 142.181 2.27053L147.585 7.92012L141.672 13.5697C141.264 13.9597 141.235 14.5921 141.608 14.9821C141.981 15.3721 142.615 15.3721 143.023 14.9821L149.675 8.62631ZM66.7493 109.854L66.7043 110.852L67.7506 110.852L67.7506 109.809L66.7493 109.854ZM66.7493 7.92014L66.7943 6.92143L65.748 6.92143L65.748 7.96503L66.7493 7.92014ZM0.954284 110.852L66.7043 110.852L66.7943 108.855L1.04429 108.855L0.954284 110.852ZM67.7506 109.809L67.7506 7.87526L65.748 7.96503L65.748 109.899L67.7506 109.809ZM66.7043 8.91886L148.954 8.91883L149.044 6.9214L66.7943 6.92143L66.7043 8.91886Z" fill="#5634DE"/>
</svg>
