<svg width="76" height="76" viewBox="0 0 76 76" fill="none" xmlns="http://www.w3.org/2000/svg">
<g id="Group 2798">
<path id="Vector" d="M0 32.3C0 19.8609 2.26498e-07 13.6415 2.79984 9.07252C4.3665 6.51597 6.51596 4.3665 9.07252 2.79982C13.6414 -4.52995e-07 19.8609 0 32.3 0H43.7C56.1389 0 62.3586 -4.52995e-07 66.9275 2.79982C69.4839 4.3665 71.6334 6.51597 73.2 9.07252C76 13.6415 76 19.8609 76 32.3V43.7C76 56.1391 76 62.3586 73.2 66.9275C71.6334 69.4841 69.4839 71.6336 66.9275 73.2002C62.3586 76 56.1389 76 43.7 76H32.3C19.8609 76 13.6414 76 9.07252 73.2002C6.51596 71.6336 4.3665 69.4841 2.79984 66.9275C2.26498e-07 62.3586 0 56.1391 0 43.7V32.3Z" fill="white"/>
<g id="Group 2783">
<g id="Clip path group">
<mask id="mask0_2592_3402" style="mask-type:luminance" maskUnits="userSpaceOnUse" x="15" y="23" width="47" height="30">
<g id="SVGID_00000177471387616359904400000016996464189052144548_">
<path id="Vector_2" d="M61.0248 23.002H15.0005V52.902H61.0248V23.002Z" fill="white"/>
</g>
</mask>
<g mask="url(#mask0_2592_3402)">
<path id="Vector_3" d="M56.4646 43.645C56.4646 50.2274 48.4287 52.9025 38.4445 52.9025C28.4603 52.9025 20.3086 50.2274 20.3086 43.645C20.3086 37.0625 28.4076 31.7334 38.3813 31.7334C48.3655 31.7334 56.4646 37.0731 56.4646 43.645Z" fill="#4BAF74"/>
</g>
</g>
<g id="Clip path group_2">
<mask id="mask1_2592_3402" style="mask-type:luminance" maskUnits="userSpaceOnUse" x="15" y="23" width="47" height="30">
<g id="SVGID_00000177471387616359904400000016996464189052144548__2">
<path id="Vector_4" d="M61.0248 23.002H15.0005V52.902H61.0248V23.002Z" fill="white"/>
</g>
</mask>
<g mask="url(#mask1_2592_3402)">
<path id="Vector_5" d="M54.6212 29.2895C54.6212 25.8245 51.7881 23.002 48.302 23.002C46.3326 23.002 44.5843 23.8972 43.4258 25.2979C41.846 24.9504 40.1609 24.7502 38.4231 24.7502C36.6748 24.7502 35.0003 24.9398 33.4205 25.2979C32.2515 23.8972 30.4926 23.002 28.5442 23.002C25.0582 23.002 22.2251 25.814 22.2251 29.2895C22.2251 30.4269 22.5305 31.4907 23.0571 32.4069C22.5516 33.4812 22.2883 34.6186 22.2883 35.8087C22.2883 41.9172 29.5237 46.8672 38.4337 46.8672C47.3436 46.8672 54.5791 41.9172 54.5791 35.8087C54.5791 34.6186 54.3052 33.4812 53.8102 32.4069C54.3158 31.4907 54.6212 30.4269 54.6212 29.2895Z" fill="#32DA6D"/>
</g>
</g>
<g id="Clip path group_3">
<mask id="mask2_2592_3402" style="mask-type:luminance" maskUnits="userSpaceOnUse" x="15" y="23" width="47" height="30">
<g id="SVGID_00000177471387616359904400000016996464189052144548__3">
<path id="Vector_6" d="M61.0248 23.002H15.0005V52.902H61.0248V23.002Z" fill="white"/>
</g>
</mask>
<g mask="url(#mask2_2592_3402)">
<path id="Vector_7" d="M28.0283 32.7752C30.1557 32.7752 31.8935 31.0585 31.8935 28.9311C31.8935 26.8141 30.1663 25.0869 28.0283 25.0869C25.9008 25.0869 24.1631 26.8036 24.1631 28.9311C24.1736 31.0585 25.9008 32.7752 28.0283 32.7752Z" fill="#F1F1E8"/>
</g>
</g>
<g id="Clip path group_4">
<mask id="mask3_2592_3402" style="mask-type:luminance" maskUnits="userSpaceOnUse" x="15" y="23" width="47" height="30">
<g id="SVGID_00000177471387616359904400000016996464189052144548__4">
<path id="Vector_8" d="M61.0248 23.002H15.0005V52.902H61.0248V23.002Z" fill="white"/>
</g>
</mask>
<g mask="url(#mask3_2592_3402)">
<path id="Vector_9" d="M48.6289 32.7752C50.7563 32.7752 52.4941 31.0585 52.4941 28.9311C52.4941 26.8141 50.7668 25.0869 48.6289 25.0869C46.4909 25.0869 44.7637 26.8036 44.7637 28.9311C44.7637 31.0585 46.4909 32.7752 48.6289 32.7752Z" fill="#F1F1E8"/>
</g>
</g>
<g id="Clip path group_5">
<mask id="mask4_2592_3402" style="mask-type:luminance" maskUnits="userSpaceOnUse" x="15" y="23" width="47" height="30">
<g id="SVGID_00000177471387616359904400000016996464189052144548__5">
<path id="Vector_10" d="M61.0248 23.002H15.0005V52.902H61.0248V23.002Z" fill="white"/>
</g>
</mask>
<g mask="url(#mask4_2592_3402)">
<path id="Vector_11" d="M25.9747 52.4496C26.8067 52.4496 27.4596 51.7334 27.3649 50.9119C27.0278 48.0262 25.585 41.7808 19.2553 38.0209C10.8298 33.0183 17.4965 50.2379 17.4965 50.2379L15.7482 51.2384C15.1584 51.5754 15.4112 52.4496 16.0747 52.4496H25.9747Z" fill="#32DA6D"/>
</g>
</g>
<g id="Clip path group_6">
<mask id="mask5_2592_3402" style="mask-type:luminance" maskUnits="userSpaceOnUse" x="15" y="23" width="47" height="30">
<g id="SVGID_00000177471387616359904400000016996464189052144548__6">
<path id="Vector_12" d="M61.0248 23.002H15.0005V52.902H61.0248V23.002Z" fill="white"/>
</g>
</mask>
<g mask="url(#mask5_2592_3402)">
<path id="Vector_13" d="M51.1143 52.4496C50.3666 52.4496 49.7768 51.7334 49.8611 50.9119C50.1559 48.0367 51.4619 41.7808 57.1702 38.0209C64.7847 33.0183 58.7605 50.2379 58.7605 50.2379L60.3403 51.2384C60.8669 51.5754 60.6457 52.4496 60.0454 52.4496H51.1143Z" fill="#32DA6D"/>
</g>
</g>
<g id="Clip path group_7">
<mask id="mask6_2592_3402" style="mask-type:luminance" maskUnits="userSpaceOnUse" x="15" y="23" width="47" height="30">
<g id="SVGID_00000177471387616359904400000016996464189052144548__7">
<path id="Vector_14" d="M61.0248 23.002H15.0005V52.902H61.0248V23.002Z" fill="white"/>
</g>
</mask>
<g mask="url(#mask6_2592_3402)">
<path id="Vector_15" d="M28.0284 29.6363C28.4181 29.6363 28.734 29.3203 28.734 28.9412C28.734 28.5515 28.4181 28.2461 28.0284 28.2461C27.6387 28.2461 27.3228 28.5621 27.3228 28.9412C27.3333 29.3203 27.6492 29.6363 28.0284 29.6363Z" fill="#0D0D0D"/>
</g>
</g>
<g id="Clip path group_8">
<mask id="mask7_2592_3402" style="mask-type:luminance" maskUnits="userSpaceOnUse" x="15" y="23" width="47" height="30">
<g id="SVGID_00000177471387616359904400000016996464189052144548__8">
<path id="Vector_16" d="M61.0248 23.002H15.0005V52.902H61.0248V23.002Z" fill="white"/>
</g>
</mask>
<g mask="url(#mask7_2592_3402)">
<path id="Vector_17" d="M48.6285 29.6363C49.0182 29.6363 49.3341 29.3203 49.3341 28.9412C49.3341 28.5515 49.0182 28.2461 48.6285 28.2461C48.2388 28.2461 47.9229 28.5621 47.9229 28.9412C47.9229 29.3203 48.2388 29.6363 48.6285 29.6363Z" fill="#0D0D0D"/>
</g>
</g>
</g>
</g>
</svg>
