<svg width="13" height="14" viewBox="0 0 13 14" fill="none" xmlns="http://www.w3.org/2000/svg">
<path d="M4.8821 0.86675C5.01666 0.86675 5.14563 0.920248 5.2407 1.01534C5.33579 1.11043 5.3892 1.23939 5.3892 1.37387C5.3892 1.52875 5.47181 1.67182 5.60589 1.74921C5.73997 1.8266 5.9052 1.8266 6.03928 1.74921C6.17336 1.67182 6.25598 1.52874 6.25598 1.37387C6.25598 0.883021 5.99411 0.429495 5.56904 0.184071C5.14397 -0.0613571 4.62031 -0.0613571 4.19524 0.184071C3.77017 0.4295 3.5083 0.883021 3.5083 1.37387V8.43815C3.5083 8.59303 3.59092 8.7361 3.725 8.81349C3.85908 8.89089 4.02431 8.89089 4.15839 8.81349C4.29247 8.7361 4.37508 8.59303 4.37508 8.43815V7.88346H8.2236V8.43815C8.2236 8.59303 8.30622 8.7361 8.4403 8.81349C8.57438 8.89089 8.73961 8.89089 8.87369 8.81349C9.00777 8.7361 9.09038 8.59303 9.09038 8.43815V1.37387C9.09038 1.19268 9.18703 1.02532 9.34393 0.93478C9.50084 0.844134 9.69414 0.844134 9.85105 0.93478C10.0079 1.02533 10.1045 1.19269 10.1045 1.37387C10.1045 1.52875 10.1871 1.67182 10.3212 1.74921C10.4554 1.8266 10.6205 1.8266 10.7546 1.74921C10.8888 1.67182 10.9713 1.52874 10.9713 1.37387C10.9713 0.883021 10.7095 0.429495 10.2844 0.184071C9.85937 -0.0613571 9.33563 -0.0613571 8.91054 0.184071C8.48547 0.4295 8.2236 0.883021 8.2236 1.37387V2.80406H4.37508V1.37387C4.37508 1.2394 4.42848 1.11044 4.52358 1.01534C4.61867 0.920248 4.74762 0.86675 4.8821 0.86675ZM8.22367 7.0167H4.37516V5.86385H8.22367V7.0167ZM8.22367 3.67315V4.99712H4.37516V3.67092L8.22367 3.67315Z" fill="#5634DE"/>
<path d="M2.34028 10.4512C2.0369 10.4512 1.90689 10.3233 1.69019 10.1132V10.1131C1.37453 9.74894 0.91744 9.53814 0.435583 9.53448C0.280704 9.53448 0.137632 9.61709 0.0602408 9.75117C-0.0171506 9.88535 -0.0171506 10.0505 0.0602408 10.1846C0.137632 10.3187 0.280709 10.4013 0.435583 10.4013C0.738957 10.4013 0.868975 10.5269 1.08567 10.7371C1.40103 11.1019 1.85812 11.3134 2.34028 11.3179C2.82233 11.3126 3.27903 11.1012 3.59498 10.7371C3.81168 10.5204 3.94606 10.4013 4.24507 10.4013C4.54409 10.4013 4.67846 10.5269 4.89516 10.7371C5.20762 11.1059 5.66647 11.3184 6.14977 11.3184C6.63308 11.3184 7.09201 11.1059 7.40447 10.7371C7.62117 10.5204 7.75554 10.4013 8.05456 10.4013C8.35358 10.4013 8.48795 10.5269 8.70465 10.7393V10.7394C9.01798 11.1067 9.47653 11.3182 9.95935 11.3182C10.4421 11.3182 10.9006 11.1067 11.214 10.7394C11.4307 10.5227 11.5672 10.4014 11.864 10.4014V10.4013C12.0189 10.4013 12.162 10.3187 12.2394 10.1846C12.3168 10.0505 12.3168 9.88535 12.2394 9.75117C12.162 9.61709 12.0189 9.53448 11.864 9.53448C11.3822 9.53815 10.9251 9.74895 10.6094 10.1131C10.3927 10.3298 10.2562 10.4511 9.95935 10.4511C9.66247 10.4511 9.52596 10.3232 9.30927 10.1131C8.99594 9.74575 8.53738 9.53418 8.05456 9.53418C7.57174 9.53418 7.11318 9.74575 6.79985 10.1131C6.58316 10.3298 6.44878 10.4511 6.14977 10.4511C5.85075 10.4511 5.71637 10.3232 5.49968 10.1131C5.18682 9.74585 4.72856 9.53428 4.24614 9.53428C3.76371 9.53428 3.30545 9.74585 2.99259 10.1131C2.77367 10.3233 2.64152 10.4512 2.34028 10.4512Z" fill="#5634DE"/>
<path d="M0.431256 12.9277C0.73463 12.9277 0.864648 13.0534 1.08134 13.2636C1.39467 13.6309 1.85323 13.8425 2.33595 13.8425C2.81877 13.8425 3.27733 13.6309 3.59066 13.2636C3.80735 13.0469 3.94173 12.9277 4.24074 12.9277C4.53976 12.9277 4.67414 13.0534 4.89083 13.2636C5.20416 13.6309 5.66271 13.8425 6.14554 13.8425C6.62826 13.8425 7.08681 13.6309 7.40014 13.2636C7.61684 13.0469 7.75122 12.9277 8.05023 12.9277C8.34925 12.9277 8.48362 13.0534 8.70032 13.2636C9.01365 13.6309 9.4722 13.8425 9.95503 13.8425C10.4378 13.8425 10.8964 13.6309 11.2096 13.2636C11.4263 13.0469 11.5628 12.9277 11.8597 12.9277C12.0146 12.9277 12.1577 12.8451 12.2351 12.711C12.3125 12.5769 12.3125 12.4117 12.2351 12.2776C12.1577 12.1436 12.0146 12.0609 11.8597 12.0609C11.3779 12.0645 10.9208 12.2753 10.6051 12.6395C10.3884 12.8562 10.2519 12.9754 9.95503 12.9754C9.65814 12.9754 9.52163 12.8497 9.30494 12.6395C8.99161 12.2721 8.53306 12.0605 8.05023 12.0605C7.56741 12.0605 7.10885 12.2721 6.79562 12.6395C6.57893 12.8562 6.44455 12.9754 6.14554 12.9754C5.84652 12.9754 5.71215 12.8497 5.49545 12.6395C5.18249 12.2722 4.72433 12.0606 4.24181 12.0606C3.75938 12.0606 3.30113 12.2722 2.98827 12.6395C2.77157 12.8562 2.63506 12.9754 2.33818 12.9754C2.04129 12.9754 1.90479 12.8497 1.68809 12.6395C1.37243 12.2753 0.915342 12.0645 0.433385 12.0609C0.278603 12.0609 0.135534 12.1436 0.0580435 12.2776C-0.0193478 12.4117 -0.0193478 12.577 0.0580435 12.711C0.135531 12.8451 0.278608 12.9277 0.433385 12.9277H0.431256Z" fill="#5634DE"/>
</svg>
