<svg width="49" height="49" viewBox="0 0 49 49" fill="none" xmlns="http://www.w3.org/2000/svg">
<circle cx="24.5" cy="24.5" r="23.03" stroke="#5634DE" stroke-width="2.94"/>
<path d="M30.3817 25.4833C29.8399 25.4833 29.402 25.9222 29.402 26.4629V30.3817C29.402 30.9215 28.9631 31.3613 28.4222 31.3613H25.4832V16.6662C25.4832 15.8296 24.9503 15.0821 24.149 14.8038L23.8589 14.7068H28.4222C28.9631 14.7068 29.402 15.1466 29.402 15.6866V18.6256C29.402 19.1663 29.8399 19.6052 30.3817 19.6052C30.9234 19.6052 31.3613 19.1663 31.3613 18.6256V15.6866C31.3613 14.0662 30.0426 12.7476 28.4222 12.7476H17.8908C17.8535 12.7476 17.8223 12.7642 17.786 12.7691C17.7389 12.7651 17.6938 12.7476 17.6459 12.7476C16.5653 12.7476 15.6865 13.6262 15.6865 14.7068V32.3409C15.6865 33.1776 16.2195 33.9251 17.0208 34.2033L22.9166 36.1686C23.1164 36.2303 23.3152 36.2598 23.524 36.2598C24.6046 36.2598 25.4832 35.381 25.4832 34.3004V33.3207H28.4222C30.0426 33.3207 31.3613 32.0021 31.3613 30.3817V26.4629C31.3613 25.9222 30.9234 25.4833 30.3817 25.4833Z" fill="#5634DE"/>
<path d="M38.9123 21.8515L34.9935 17.9328C34.7135 17.6526 34.2921 17.5683 33.9258 17.7201C33.5604 17.872 33.3213 18.2295 33.3213 18.6254V21.5644H29.4026C28.8618 21.5644 28.4229 22.0032 28.4229 22.5441C28.4229 23.0849 28.8618 23.5237 29.4026 23.5237H33.3213V26.4627C33.3213 26.8586 33.5604 27.2161 33.9258 27.3681C34.2921 27.5198 34.7135 27.4355 34.9935 27.1555L38.9123 23.2367C39.2953 22.8537 39.2953 22.2344 38.9123 21.8515Z" fill="#5634DE"/>
</svg>
