<svg width="208" height="47" viewBox="0 0 208 47" fill="none" xmlns="http://www.w3.org/2000/svg">
<path d="M22.4329 13.0315C22.2597 14.1864 21.9036 15.2835 21.3647 16.3229C20.8258 17.3622 20.104 18.2669 19.1994 19.0368C18.2947 19.8067 17.2265 20.4226 15.9946 20.8845C14.7628 21.3272 13.3674 21.5486 11.8083 21.5486C10.076 21.5486 8.517 21.2598 7.13119 20.6824C5.76462 20.105 4.60977 19.3255 3.66664 18.3438C2.72352 17.3622 2.00174 16.2266 1.5013 14.937C1.00087 13.6475 0.750651 12.3001 0.750651 10.8951C0.750651 9.49001 0.991245 8.15231 1.47243 6.88198C1.97287 5.5924 2.69465 4.4568 3.63777 3.47518C4.5809 2.49356 5.7165 1.71404 7.04457 1.13661C8.3919 0.53994 9.92207 0.241604 11.6351 0.241604C13.2711 0.241604 14.7243 0.472574 15.9946 0.934513C17.265 1.39645 18.3428 2.03162 19.2282 2.84001C20.1329 3.64841 20.845 4.59153 21.3647 5.66939C21.9036 6.74725 22.2405 7.89247 22.3752 9.10506H16.0813C15.908 8.14269 15.4653 7.3343 14.7532 6.67988C14.041 6.02547 13.0594 5.69826 11.8083 5.69826C10.9999 5.69826 10.2878 5.84262 9.67185 6.13133C9.05593 6.42004 8.54588 6.80499 8.14168 7.28618C7.73748 7.74812 7.42952 8.29667 7.2178 8.93184C7.00608 9.54776 6.90022 10.2022 6.90022 10.8951C6.90022 11.6265 7.0157 12.3098 7.24667 12.9449C7.47764 13.5801 7.80485 14.1287 8.22829 14.5906C8.67099 15.0525 9.20029 15.4182 9.81621 15.6877C10.4321 15.9572 11.1347 16.0919 11.9238 16.0919C13.0402 16.0919 13.964 15.7936 14.6954 15.1969C15.4268 14.6002 15.8888 13.8784 16.0813 13.0315H22.4329ZM34.8124 21.5486C33.0801 21.5486 31.5307 21.2598 30.1641 20.6824C28.8168 20.0857 27.6715 19.2966 26.7284 18.315C25.8045 17.3334 25.0924 16.1978 24.5919 14.9082C24.1108 13.6186 23.8702 12.2809 23.8702 10.8951C23.8702 9.50926 24.1108 8.17156 24.5919 6.88198C25.0924 5.5924 25.8045 4.4568 26.7284 3.47518C27.6715 2.49356 28.8168 1.71404 30.1641 1.13661C31.5307 0.53994 33.0801 0.241604 34.8124 0.241604C36.5446 0.241604 38.094 0.53994 39.4606 1.13661C40.8272 1.71404 41.9724 2.49356 42.8963 3.47518C43.8394 4.4568 44.5516 5.5924 45.0328 6.88198C45.5332 8.17156 45.7834 9.50926 45.7834 10.8951C45.7834 12.2809 45.5332 13.6186 45.0328 14.9082C44.5516 16.1978 43.8394 17.3334 42.8963 18.315C41.9724 19.2966 40.8272 20.0857 39.4606 20.6824C38.094 21.2598 36.5446 21.5486 34.8124 21.5486ZM34.8124 16.063C35.5823 16.063 36.2655 15.9187 36.8622 15.63C37.4781 15.3412 37.9882 14.9659 38.3924 14.504C38.8158 14.0228 39.1334 13.4742 39.3451 12.8583C39.5761 12.2232 39.6916 11.5687 39.6916 10.8951C39.6916 10.2214 39.5761 9.57663 39.3451 8.96071C39.1334 8.32554 38.8158 7.77699 38.3924 7.31505C37.9882 6.83386 37.4781 6.44891 36.8622 6.1602C36.2655 5.87149 35.5823 5.72713 34.8124 5.72713C34.0425 5.72713 33.3495 5.87149 32.7336 6.1602C32.137 6.44891 31.6269 6.83386 31.2035 7.31505C30.7993 7.77699 30.4817 8.32554 30.2507 8.96071C30.039 9.57663 29.9331 10.2214 29.9331 10.8951C29.9331 11.5687 30.039 12.2232 30.2507 12.8583C30.4817 13.4742 30.7993 14.0228 31.2035 14.504C31.6269 14.9659 32.137 15.3412 32.7336 15.63C33.3495 15.9187 34.0425 16.063 34.8124 16.063ZM53.5078 14.1864C53.5078 15.1103 53.7388 15.8224 54.2007 16.3229C54.6627 16.8041 55.2786 17.0446 56.0485 17.0446C56.6644 17.0446 57.1456 16.8907 57.492 16.5827C57.8577 16.2747 58.0406 15.8513 58.0406 15.3124C58.0406 14.7542 57.7904 14.3211 57.2899 14.0132C56.8088 13.686 56.0389 13.3106 54.9802 12.8872C54.0564 12.5215 53.1614 12.1558 52.2952 11.7901C51.4483 11.4244 50.6977 10.9913 50.0433 10.4909C49.4081 9.99045 48.898 9.39378 48.5131 8.70087C48.1281 8.00796 47.9357 7.14182 47.9357 6.10246C47.9357 5.06309 48.157 4.17771 48.5997 3.44631C49.0616 2.69566 49.6679 2.08936 50.4186 1.62742C51.1692 1.14624 52.0161 0.799781 52.9593 0.588059C53.9216 0.357089 54.9129 0.241604 55.933 0.241604C57.415 0.241604 58.6565 0.434079 59.6574 0.819028C60.6582 1.20398 61.4666 1.71404 62.0826 2.3492C62.6985 2.96512 63.1412 3.66765 63.4106 4.4568C63.6801 5.24595 63.8148 6.03509 63.8148 6.82424H57.8096C57.8096 5.14971 57.1456 4.31244 55.8175 4.31244C55.3171 4.31244 54.884 4.43755 54.5183 4.68777C54.1526 4.93799 53.9698 5.34218 53.9698 5.90036C53.9698 6.42004 54.2007 6.85311 54.6627 7.19956C55.1246 7.54602 55.8175 7.88285 56.7414 8.21006C57.6075 8.51802 58.4737 8.84522 59.3398 9.19168C60.2252 9.53813 61.0143 9.96158 61.7072 10.462C62.4194 10.9624 62.9872 11.5784 63.4106 12.3098C63.8533 13.0219 64.0747 13.8977 64.0747 14.937C64.0747 15.9764 63.8822 16.9099 63.4972 17.7376C63.1123 18.5652 62.5637 19.2581 61.8516 19.8163C61.1394 20.3745 60.2733 20.7979 59.2532 21.0866C58.2331 21.3946 57.0878 21.5486 55.8175 21.5486C54.5472 21.5486 53.402 21.3849 52.3818 21.0577C51.3617 20.7305 50.486 20.259 49.7546 19.6431C49.0424 19.0271 48.4842 18.2669 48.08 17.3622C47.6951 16.4383 47.5026 15.3797 47.5026 14.1864H53.5078ZM90.5367 21H84.7047V8.4699L81.0381 21H76.5919L72.6943 8.4699V21H66.8623V0.790157H74.5132L78.7861 13.8399L83.0879 0.790157H90.5367V21ZM104.002 21.5486C102.269 21.5486 100.72 21.2598 99.3535 20.6824C98.0062 20.0857 96.8609 19.2966 95.9178 18.315C94.9939 17.3334 94.2818 16.1978 93.7813 14.9082C93.3002 13.6186 93.0596 12.2809 93.0596 10.8951C93.0596 9.50926 93.3002 8.17156 93.7813 6.88198C94.2818 5.5924 94.9939 4.4568 95.9178 3.47518C96.8609 2.49356 98.0062 1.71404 99.3535 1.13661C100.72 0.53994 102.269 0.241604 104.002 0.241604C105.734 0.241604 107.283 0.53994 108.65 1.13661C110.017 1.71404 111.162 2.49356 112.086 3.47518C113.029 4.4568 113.741 5.5924 114.222 6.88198C114.723 8.17156 114.973 9.50926 114.973 10.8951C114.973 12.2809 114.723 13.6186 114.222 14.9082C113.741 16.1978 113.029 17.3334 112.086 18.315C111.162 19.2966 110.017 20.0857 108.65 20.6824C107.283 21.2598 105.734 21.5486 104.002 21.5486ZM104.002 16.063C104.772 16.063 105.455 15.9187 106.052 15.63C106.668 15.3412 107.178 14.9659 107.582 14.504C108.005 14.0228 108.323 13.4742 108.535 12.8583C108.765 12.2232 108.881 11.5687 108.881 10.8951C108.881 10.2214 108.765 9.57663 108.535 8.96071C108.323 8.32554 108.005 7.77699 107.582 7.31505C107.178 6.83386 106.668 6.44891 106.052 6.1602C105.455 5.87149 104.772 5.72713 104.002 5.72713C103.232 5.72713 102.539 5.87149 101.923 6.1602C101.326 6.44891 100.816 6.83386 100.393 7.31505C99.9886 7.77699 99.6711 8.32554 99.4401 8.96071C99.2284 9.57663 99.1225 10.2214 99.1225 10.8951C99.1225 11.5687 99.2284 12.2232 99.4401 12.8583C99.6711 13.4742 99.9886 14.0228 100.393 14.504C100.816 14.9659 101.326 15.3412 101.923 15.63C102.539 15.9187 103.232 16.063 104.002 16.063ZM122.697 14.1864C122.697 15.1103 122.928 15.8224 123.39 16.3229C123.852 16.8041 124.468 17.0446 125.238 17.0446C125.854 17.0446 126.335 16.8907 126.681 16.5827C127.047 16.2747 127.23 15.8513 127.23 15.3124C127.23 14.7542 126.98 14.3211 126.479 14.0132C125.998 13.686 125.228 13.3106 124.17 12.8872C123.246 12.5215 122.351 12.1558 121.485 11.7901C120.638 11.4244 119.887 10.9913 119.233 10.4909C118.597 9.99045 118.087 9.39378 117.702 8.70087C117.318 8.00796 117.125 7.14182 117.125 6.10246C117.125 5.06309 117.346 4.17771 117.789 3.44631C118.251 2.69566 118.857 2.08936 119.608 1.62742C120.359 1.14624 121.206 0.799781 122.149 0.588059C123.111 0.357089 124.102 0.241604 125.122 0.241604C126.604 0.241604 127.846 0.434079 128.847 0.819028C129.848 1.20398 130.656 1.71404 131.272 2.3492C131.888 2.96512 132.331 3.66765 132.6 4.4568C132.869 5.24595 133.004 6.03509 133.004 6.82424H126.999C126.999 5.14971 126.335 4.31244 125.007 4.31244C124.506 4.31244 124.073 4.43755 123.708 4.68777C123.342 4.93799 123.159 5.34218 123.159 5.90036C123.159 6.42004 123.39 6.85311 123.852 7.19956C124.314 7.54602 125.007 7.88285 125.931 8.21006C126.797 8.51802 127.663 8.84522 128.529 9.19168C129.415 9.53813 130.204 9.96158 130.897 10.462C131.609 10.9624 132.177 11.5784 132.6 12.3098C133.043 13.0219 133.264 13.8977 133.264 14.937C133.264 15.9764 133.072 16.9099 132.687 17.7376C132.302 18.5652 131.753 19.2581 131.041 19.8163C130.329 20.3745 129.463 20.7979 128.443 21.0866C127.422 21.3946 126.277 21.5486 125.007 21.5486C123.737 21.5486 122.591 21.3849 121.571 21.0577C120.551 20.7305 119.675 20.259 118.944 19.6431C118.232 19.0271 117.674 18.2669 117.269 17.3622C116.884 16.4383 116.692 15.3797 116.692 14.1864H122.697Z" fill="#5634DE"/>
<path d="M25.4355 46H19.6035V33.4699L15.9369 46H11.4907L7.59313 33.4699V46H1.76114V25.7902H9.41201L13.685 38.8399L17.9868 25.7902H25.4355V46ZM28.9689 25.7902H35.0318V46H28.9689V25.7902ZM49.8437 40.8609V46H38.555V25.7902H44.5602V40.8609H49.8437ZM63.6026 40.8609V46H52.3139V25.7902H58.3192V40.8609H63.6026ZM66.0729 25.7902H72.1358V46H66.0729V25.7902ZM85.5907 46.5486C83.8584 46.5486 82.309 46.2598 80.9424 45.6824C79.5951 45.0857 78.4499 44.2966 77.5068 43.315C76.5829 42.3334 75.8707 41.1978 75.3703 39.9082C74.8891 38.6186 74.6485 37.2809 74.6485 35.8951C74.6485 34.5093 74.8891 33.1716 75.3703 31.882C75.8707 30.5924 76.5829 29.4568 77.5068 28.4752C78.4499 27.4936 79.5951 26.714 80.9424 26.1366C82.309 25.5399 83.8584 25.2416 85.5907 25.2416C87.323 25.2416 88.8724 25.5399 90.239 26.1366C91.6055 26.714 92.7508 27.4936 93.6746 28.4752C94.6178 29.4568 95.3299 30.5924 95.8111 31.882C96.3116 33.1716 96.5618 34.5093 96.5618 35.8951C96.5618 37.2809 96.3116 38.6186 95.8111 39.9082C95.3299 41.1978 94.6178 42.3334 93.6746 43.315C92.7508 44.2966 91.6055 45.0857 90.239 45.6824C88.8724 46.2598 87.323 46.5486 85.5907 46.5486ZM85.5907 41.063C86.3606 41.063 87.0439 40.9187 87.6406 40.63C88.2565 40.3412 88.7665 39.9659 89.1707 39.504C89.5942 39.0228 89.9118 38.4742 90.1235 37.8583C90.3545 37.2232 90.4699 36.5687 90.4699 35.8951C90.4699 35.2214 90.3545 34.5766 90.1235 33.9607C89.9118 33.3255 89.5942 32.777 89.1707 32.315C88.7665 31.8339 88.2565 31.4489 87.6406 31.1602C87.0439 30.8715 86.3606 30.7271 85.5907 30.7271C84.8208 30.7271 84.1279 30.8715 83.512 31.1602C82.9153 31.4489 82.4053 31.8339 81.9818 32.315C81.5776 32.777 81.26 33.3255 81.0291 33.9607C80.8173 34.5766 80.7115 35.2214 80.7115 35.8951C80.7115 36.5687 80.8173 37.2232 81.0291 37.8583C81.26 38.4742 81.5776 39.0228 81.9818 39.504C82.4053 39.9659 82.9153 40.3412 83.512 40.63C84.1279 40.9187 84.8208 41.063 85.5907 41.063ZM108.992 46.5486C107.26 46.5486 105.71 46.2598 104.344 45.6824C102.997 45.0857 101.851 44.2966 100.908 43.315C99.9844 42.3334 99.2722 41.1978 98.7718 39.9082C98.2906 38.6186 98.05 37.2809 98.05 35.8951C98.05 34.5093 98.2906 33.1716 98.7718 31.882C99.2722 30.5924 99.9844 29.4568 100.908 28.4752C101.851 27.4936 102.997 26.714 104.344 26.1366C105.71 25.5399 107.26 25.2416 108.992 25.2416C110.724 25.2416 112.274 25.5399 113.64 26.1366C115.007 26.714 116.152 27.4936 117.076 28.4752C118.019 29.4568 118.731 30.5924 119.213 31.882C119.713 33.1716 119.963 34.5093 119.963 35.8951C119.963 37.2809 119.713 38.6186 119.213 39.9082C118.731 41.1978 118.019 42.3334 117.076 43.315C116.152 44.2966 115.007 45.0857 113.64 45.6824C112.274 46.2598 110.724 46.5486 108.992 46.5486ZM108.992 41.063C109.762 41.063 110.445 40.9187 111.042 40.63C111.658 40.3412 112.168 39.9659 112.572 39.504C112.996 39.0228 113.313 38.4742 113.525 37.8583C113.756 37.2232 113.871 36.5687 113.871 35.8951C113.871 35.2214 113.756 34.5766 113.525 33.9607C113.313 33.3255 112.996 32.777 112.572 32.315C112.168 31.8339 111.658 31.4489 111.042 31.1602C110.445 30.8715 109.762 30.7271 108.992 30.7271C108.222 30.7271 107.529 30.8715 106.913 31.1602C106.317 31.4489 105.807 31.8339 105.383 32.315C104.979 32.777 104.661 33.3255 104.431 33.9607C104.219 34.5766 104.113 35.2214 104.113 35.8951C104.113 36.5687 104.219 37.2232 104.431 37.8583C104.661 38.4742 104.979 39.0228 105.383 39.504C105.807 39.9659 106.317 40.3412 106.913 40.63C107.529 40.9187 108.222 41.063 108.992 41.063ZM132.394 46.5486C130.661 46.5486 129.112 46.2598 127.745 45.6824C126.398 45.0857 125.253 44.2966 124.31 43.315C123.386 42.3334 122.674 41.1978 122.173 39.9082C121.692 38.6186 121.451 37.2809 121.451 35.8951C121.451 34.5093 121.692 33.1716 122.173 31.882C122.674 30.5924 123.386 29.4568 124.31 28.4752C125.253 27.4936 126.398 26.714 127.745 26.1366C129.112 25.5399 130.661 25.2416 132.394 25.2416C134.126 25.2416 135.675 25.5399 137.042 26.1366C138.408 26.714 139.554 27.4936 140.478 28.4752C141.421 29.4568 142.133 30.5924 142.614 31.882C143.114 33.1716 143.365 34.5093 143.365 35.8951C143.365 37.2809 143.114 38.6186 142.614 39.9082C142.133 41.1978 141.421 42.3334 140.478 43.315C139.554 44.2966 138.408 45.0857 137.042 45.6824C135.675 46.2598 134.126 46.5486 132.394 46.5486ZM132.394 41.063C133.164 41.063 133.847 40.9187 134.443 40.63C135.059 40.3412 135.569 39.9659 135.974 39.504C136.397 39.0228 136.715 38.4742 136.926 37.8583C137.157 37.2232 137.273 36.5687 137.273 35.8951C137.273 35.2214 137.157 34.5766 136.926 33.9607C136.715 33.3255 136.397 32.777 135.974 32.315C135.569 31.8339 135.059 31.4489 134.443 31.1602C133.847 30.8715 133.164 30.7271 132.394 30.7271C131.624 30.7271 130.931 30.8715 130.315 31.1602C129.718 31.4489 129.208 31.8339 128.785 32.315C128.381 32.777 128.063 33.3255 127.832 33.9607C127.62 34.5766 127.514 35.2214 127.514 35.8951C127.514 36.5687 127.62 37.2232 127.832 37.8583C128.063 38.4742 128.381 39.0228 128.785 39.504C129.208 39.9659 129.718 40.3412 130.315 40.63C130.931 40.9187 131.624 41.063 132.394 41.063ZM155.795 46.5486C154.063 46.5486 152.513 46.2598 151.147 45.6824C149.8 45.0857 148.654 44.2966 147.711 43.315C146.787 42.3334 146.075 41.1978 145.575 39.9082C145.094 38.6186 144.853 37.2809 144.853 35.8951C144.853 34.5093 145.094 33.1716 145.575 31.882C146.075 30.5924 146.787 29.4568 147.711 28.4752C148.654 27.4936 149.8 26.714 151.147 26.1366C152.513 25.5399 154.063 25.2416 155.795 25.2416C157.527 25.2416 159.077 25.5399 160.443 26.1366C161.81 26.714 162.955 27.4936 163.879 28.4752C164.822 29.4568 165.534 30.5924 166.016 31.882C166.516 33.1716 166.766 34.5093 166.766 35.8951C166.766 37.2809 166.516 38.6186 166.016 39.9082C165.534 41.1978 164.822 42.3334 163.879 43.315C162.955 44.2966 161.81 45.0857 160.443 45.6824C159.077 46.2598 157.527 46.5486 155.795 46.5486ZM155.795 41.063C156.565 41.063 157.248 40.9187 157.845 40.63C158.461 40.3412 158.971 39.9659 159.375 39.504C159.799 39.0228 160.116 38.4742 160.328 37.8583C160.559 37.2232 160.674 36.5687 160.674 35.8951C160.674 35.2214 160.559 34.5766 160.328 33.9607C160.116 33.3255 159.799 32.777 159.375 32.315C158.971 31.8339 158.461 31.4489 157.845 31.1602C157.248 30.8715 156.565 30.7271 155.795 30.7271C155.025 30.7271 154.332 30.8715 153.716 31.1602C153.12 31.4489 152.61 31.8339 152.186 32.315C151.782 32.777 151.464 33.3255 151.233 33.9607C151.022 34.5766 150.916 35.2214 150.916 35.8951C150.916 36.5687 151.022 37.2232 151.233 37.8583C151.464 38.4742 151.782 39.0228 152.186 39.504C152.61 39.9659 153.12 40.3412 153.716 40.63C154.332 40.9187 155.025 41.063 155.795 41.063ZM181.968 37.7717V25.7902H188.002V46H181.882L175.27 34.4226V46H169.265V25.7902H175.386L181.968 37.7717ZM196.764 39.1864C196.764 40.1103 196.995 40.8224 197.457 41.3229C197.919 41.8041 198.535 42.0446 199.305 42.0446C199.921 42.0446 200.402 41.8907 200.748 41.5827C201.114 41.2747 201.297 40.8513 201.297 40.3124C201.297 39.7542 201.047 39.3211 200.546 39.0132C200.065 38.686 199.295 38.3106 198.237 37.8872C197.313 37.5215 196.418 37.1558 195.552 36.7901C194.705 36.4244 193.954 35.9913 193.3 35.4909C192.665 34.9904 192.154 34.3938 191.77 33.7009C191.385 33.008 191.192 32.1418 191.192 31.1025C191.192 30.0631 191.413 29.1777 191.856 28.4463C192.318 27.6957 192.924 27.0894 193.675 26.6274C194.426 26.1462 195.273 25.7998 196.216 25.5881C197.178 25.3571 198.169 25.2416 199.189 25.2416C200.671 25.2416 201.913 25.4341 202.914 25.819C203.915 26.204 204.723 26.714 205.339 27.3492C205.955 27.9651 206.398 28.6677 206.667 29.4568C206.937 30.2459 207.071 31.0351 207.071 31.8242H201.066C201.066 30.1497 200.402 29.3124 199.074 29.3124C198.573 29.3124 198.14 29.4376 197.775 29.6878C197.409 29.938 197.226 30.3422 197.226 30.9004C197.226 31.42 197.457 31.8531 197.919 32.1996C198.381 32.546 199.074 32.8829 199.998 33.2101C200.864 33.518 201.73 33.8452 202.596 34.1917C203.482 34.5381 204.271 34.9616 204.964 35.462C205.676 35.9624 206.244 36.5784 206.667 37.3098C207.11 38.0219 207.331 38.8977 207.331 39.937C207.331 40.9764 207.139 41.9099 206.754 42.7376C206.369 43.5652 205.82 44.2581 205.108 44.8163C204.396 45.3745 203.53 45.7979 202.51 46.0866C201.489 46.3946 200.344 46.5486 199.074 46.5486C197.804 46.5486 196.658 46.3849 195.638 46.0577C194.618 45.7305 193.742 45.259 193.011 44.6431C192.299 44.0271 191.741 43.2669 191.336 42.3622C190.952 41.4383 190.759 40.3797 190.759 39.1864H196.764Z" fill="#FFBA20"/>
</svg>
