<svg width="25" height="25" viewBox="0 0 25 25" fill="none" xmlns="http://www.w3.org/2000/svg">
<path d="M15.3817 13.4833C14.8399 13.4833 14.402 13.9222 14.402 14.4629V18.3817C14.402 18.9215 13.9631 19.3613 13.4222 19.3613H10.4832V4.6662C10.4832 3.82955 9.95027 3.08206 9.14896 2.80384L8.85889 2.70679H13.4222C13.9631 2.70679 14.402 3.14664 14.402 3.68658V6.62561C14.402 7.16627 14.8399 7.60522 15.3817 7.60522C15.9234 7.60522 16.3613 7.16627 16.3613 6.62561V3.68658C16.3613 2.06621 15.0426 0.747559 13.4222 0.747559H2.89079C2.85348 0.747559 2.82227 0.764241 2.78603 0.769085C2.73885 0.765138 2.69383 0.747559 2.64593 0.747559C1.56533 0.747559 0.686523 1.62618 0.686523 2.70679V20.3409C0.686523 21.1776 1.21947 21.9251 2.02078 22.2033L7.91659 24.1686C8.11642 24.2303 8.31518 24.2598 8.52398 24.2598C9.60459 24.2598 10.4832 23.381 10.4832 22.3004V21.3207H13.4222C15.0426 21.3207 16.3613 20.0021 16.3613 18.3817V14.4629C16.3613 13.9222 15.9234 13.4833 15.3817 13.4833Z" fill="#5634DE"/>
<path d="M23.9123 9.85146L19.9935 5.93282C19.7135 5.65262 19.2921 5.56831 18.9258 5.72007C18.5604 5.87201 18.3213 6.22952 18.3213 6.62542V9.56445H14.4026C13.8618 9.56445 13.4229 10.0032 13.4229 10.5441C13.4229 11.0849 13.8618 11.5237 14.4026 11.5237H18.3213V14.4627C18.3213 14.8586 18.5604 15.2161 18.9258 15.3681C19.2921 15.5198 19.7135 15.4355 19.9935 15.1555L23.9123 11.2367C24.2953 10.8537 24.2953 10.2344 23.9123 9.85146Z" fill="#5634DE"/>
</svg>
