<svg width="159" height="49" viewBox="0 0 159 49" fill="none" xmlns="http://www.w3.org/2000/svg">
<path d="M28.6225 20.324C31.6465 20.324 33.6445 19.433 35.3455 17.948C35.7235 17.624 36.0475 17.111 36.0475 16.463C36.0475 15.41 35.1565 14.546 34.1035 14.546C33.6175 14.546 33.1855 14.735 32.8615 15.005C31.6735 15.95 30.5125 16.49 28.7575 16.49C25.5175 16.49 23.2765 13.79 23.2765 10.55V10.496C23.2765 7.256 25.5715 4.61 28.7575 4.61C30.2425 4.61 31.4575 5.096 32.6185 5.96C32.9155 6.149 33.2935 6.365 33.8605 6.365C34.9945 6.365 35.9125 5.474 35.9125 4.34C35.9125 3.611 35.5345 3.017 35.1025 2.693C33.5365 1.532 31.6195 0.776 28.7845 0.776C22.9795 0.776 18.9295 5.177 18.9295 10.55V10.604C18.9295 16.031 23.0605 20.324 28.6225 20.324ZM48.3528 20.324C54.1848 20.324 58.4238 15.923 58.4238 10.55V10.496C58.4238 5.123 54.2388 0.776 48.4068 0.776C42.5748 0.776 38.3358 5.177 38.3358 10.55V10.604C38.3358 15.977 42.5208 20.324 48.3528 20.324ZM48.4068 16.49C45.0588 16.49 42.6828 13.79 42.6828 10.55V10.496C42.6828 7.256 45.0048 4.61 48.3528 4.61C51.7008 4.61 54.0768 7.31 54.0768 10.55V10.604C54.0768 13.844 51.7548 16.49 48.4068 16.49ZM68.7034 20.27C72.7804 20.27 75.6424 18.164 75.6424 14.411V14.357C75.6424 11.063 73.4824 9.686 69.6484 8.687C66.3814 7.85 65.5714 7.445 65.5714 6.203V6.149C65.5714 5.231 66.4084 4.502 68.0014 4.502C69.2974 4.502 70.5934 4.961 71.9704 5.771C72.2944 5.96 72.6184 6.068 73.0234 6.068C74.1034 6.068 74.9674 5.231 74.9674 4.151C74.9674 3.341 74.5084 2.774 74.0494 2.504C72.3484 1.424 70.3504 0.829999 68.0554 0.829999C64.1944 0.829999 61.4404 3.098 61.4404 6.527V6.581C61.4404 10.334 63.8974 11.387 67.7044 12.359C70.8634 13.169 71.5114 13.709 71.5114 14.762V14.816C71.5114 15.923 70.4854 16.598 68.7844 16.598C66.9484 16.598 65.3824 15.95 63.9514 14.897C63.6814 14.708 63.3034 14.519 62.7634 14.519C61.6834 14.519 60.8194 15.356 60.8194 16.436C60.8194 17.084 61.1434 17.678 61.6024 18.002C63.7084 19.514 66.2194 20.27 68.7034 20.27ZM79.2509 18.137C79.2509 19.271 80.1419 20.162 81.2759 20.162C82.4099 20.162 83.3279 19.271 83.3279 18.137V8.741L86.9189 14.276C87.3509 14.924 87.8909 15.329 88.6469 15.329C89.4029 15.329 89.9429 14.924 90.3749 14.276L94.0199 8.66V18.083C94.0199 19.217 94.9379 20.162 96.0719 20.162C97.2329 20.162 98.1509 19.244 98.1509 18.083V3.071C98.1509 1.91 97.2329 0.991998 96.0719 0.991998H95.6129C94.7759 0.991998 94.1819 1.343 93.7499 2.045L88.7009 10.253L83.6789 2.072C83.3009 1.451 82.6799 0.991998 81.7889 0.991998H81.3299C80.1689 0.991998 79.2509 1.91 79.2509 3.071V18.137ZM111.871 20.324C117.703 20.324 121.942 15.923 121.942 10.55V10.496C121.942 5.123 117.757 0.776 111.925 0.776C106.093 0.776 101.854 5.177 101.854 10.55V10.604C101.854 15.977 106.039 20.324 111.871 20.324ZM111.925 16.49C108.577 16.49 106.201 13.79 106.201 10.55V10.496C106.201 7.256 108.523 4.61 111.871 4.61C115.219 4.61 117.595 7.31 117.595 10.55V10.604C117.595 13.844 115.273 16.49 111.925 16.49ZM132.222 20.27C136.299 20.27 139.161 18.164 139.161 14.411V14.357C139.161 11.063 137.001 9.686 133.167 8.687C129.9 7.85 129.09 7.445 129.09 6.203V6.149C129.09 5.231 129.927 4.502 131.52 4.502C132.816 4.502 134.112 4.961 135.489 5.771C135.813 5.96 136.137 6.068 136.542 6.068C137.622 6.068 138.486 5.231 138.486 4.151C138.486 3.341 138.027 2.774 137.568 2.504C135.867 1.424 133.869 0.829999 131.574 0.829999C127.713 0.829999 124.959 3.098 124.959 6.527V6.581C124.959 10.334 127.416 11.387 131.223 12.359C134.382 13.169 135.03 13.709 135.03 14.762V14.816C135.03 15.923 134.004 16.598 132.303 16.598C130.467 16.598 128.901 15.95 127.47 14.897C127.2 14.708 126.822 14.519 126.282 14.519C125.202 14.519 124.338 15.356 124.338 16.436C124.338 17.084 124.662 17.678 125.121 18.002C127.227 19.514 129.738 20.27 132.222 20.27Z" fill="#5634DE"/>
<path d="M0.766125 45.792C0.766125 47.136 1.82213 48.192 3.16613 48.192C4.51013 48.192 5.59813 47.136 5.59813 45.792V34.656L9.85413 41.216C10.3661 41.984 11.0061 42.464 11.9021 42.464C12.7981 42.464 13.4381 41.984 13.9501 41.216L18.2701 34.56V45.728C18.2701 47.072 19.3581 48.192 20.7021 48.192C22.0781 48.192 23.1661 47.104 23.1661 45.728V27.936C23.1661 26.56 22.0781 25.472 20.7021 25.472H20.1581C19.1661 25.472 18.4621 25.888 17.9501 26.72L11.9661 36.448L6.01413 26.752C5.56613 26.016 4.83013 25.472 3.77413 25.472H3.23013C1.85413 25.472 0.766125 26.56 0.766125 27.936V45.792ZM28.7714 45.728C28.7714 47.104 29.8594 48.192 31.2354 48.192C32.6114 48.192 33.6994 47.104 33.6994 45.728V27.872C33.6994 26.496 32.6114 25.408 31.2354 25.408C29.8594 25.408 28.7714 26.496 28.7714 27.872V45.728ZM39.2974 45.536C39.2974 46.912 40.3854 48 41.7614 48H53.3454C54.5934 48 55.5854 47.008 55.5854 45.76C55.5854 44.512 54.5934 43.52 53.3454 43.52H44.2254V27.872C44.2254 26.496 43.1374 25.408 41.7614 25.408C40.3854 25.408 39.2974 26.496 39.2974 27.872V45.536ZM59.1099 45.536C59.1099 46.912 60.1979 48 61.5739 48H73.1579C74.4059 48 75.3979 47.008 75.3979 45.76C75.3979 44.512 74.4059 43.52 73.1579 43.52H64.0379V27.872C64.0379 26.496 62.9499 25.408 61.5739 25.408C60.1979 25.408 59.1099 26.496 59.1099 27.872V45.536ZM79.1464 45.728C79.1464 47.104 80.2344 48.192 81.6104 48.192C82.9864 48.192 84.0744 47.104 84.0744 45.728V27.872C84.0744 26.496 82.9864 25.408 81.6104 25.408C80.2344 25.408 79.1464 26.496 79.1464 27.872V45.728ZM100.552 48.384C107.464 48.384 112.488 43.168 112.488 36.8V36.736C112.488 30.368 107.528 25.216 100.616 25.216C93.7044 25.216 88.6804 30.432 88.6804 36.8V36.864C88.6804 43.232 93.6404 48.384 100.552 48.384ZM100.616 43.84C96.6484 43.84 93.8324 40.64 93.8324 36.8V36.736C93.8324 32.896 96.5844 29.76 100.552 29.76C104.52 29.76 107.336 32.96 107.336 36.8V36.864C107.336 40.704 104.584 43.84 100.616 43.84ZM116.86 45.76C116.86 47.104 117.948 48.192 119.292 48.192C120.636 48.192 121.724 47.104 121.724 45.76V33.76L131.58 46.688C132.252 47.552 132.956 48.128 134.14 48.128H134.3C135.676 48.128 136.764 47.04 136.764 45.664V27.84C136.764 26.496 135.676 25.408 134.332 25.408C132.988 25.408 131.9 26.496 131.9 27.84V39.392L122.396 26.912C121.724 26.048 121.02 25.472 119.836 25.472H119.324C117.948 25.472 116.86 26.56 116.86 27.936V45.76ZM150.109 48.32C154.941 48.32 158.333 45.824 158.333 41.376V41.312C158.333 37.408 155.773 35.776 151.229 34.592C147.357 33.6 146.397 33.12 146.397 31.648V31.584C146.397 30.496 147.389 29.632 149.277 29.632C150.813 29.632 152.349 30.176 153.981 31.136C154.365 31.36 154.749 31.488 155.229 31.488C156.509 31.488 157.533 30.496 157.533 29.216C157.533 28.256 156.989 27.584 156.445 27.264C154.429 25.984 152.061 25.28 149.341 25.28C144.765 25.28 141.501 27.968 141.501 32.032V32.096C141.501 36.544 144.413 37.792 148.925 38.944C152.669 39.904 153.437 40.544 153.437 41.792V41.856C153.437 43.168 152.221 43.968 150.205 43.968C148.029 43.968 146.173 43.2 144.477 41.952C144.157 41.728 143.709 41.504 143.069 41.504C141.789 41.504 140.765 42.496 140.765 43.776C140.765 44.544 141.149 45.248 141.693 45.632C144.189 47.424 147.165 48.32 150.109 48.32Z" fill="#FFB516"/>
</svg>
