<svg width="39" height="38" viewBox="0 0 39 38" fill="none" xmlns="http://www.w3.org/2000/svg">
<path d="M19.4138 7.79937H19.358C17.2198 7.79937 15.4862 6.06582 15.4862 3.92757V3.8718C15.4862 1.73355 17.2198 0 19.358 0H19.4138C21.552 0 23.2856 1.73355 23.2856 3.8718V3.92757C23.2856 6.06582 21.552 7.79937 19.4138 7.79937Z" fill="url(#paint0_linear_536_2872)"/>
<path d="M19.4138 7.79937H19.358C17.2198 7.79937 15.4862 6.06582 15.4862 3.92757V3.8718C15.4862 1.73355 17.2198 0 19.358 0H19.4138C21.552 0 23.2856 1.73355 23.2856 3.8718V3.92757C23.2856 6.06582 21.552 7.79937 19.4138 7.79937Z" fill="#5634DE"/>
<path d="M19.4138 23.1461H19.358C17.2198 23.1461 15.4862 21.4125 15.4862 19.2742V19.2185C15.4862 17.0802 17.2198 15.3467 19.358 15.3467H19.4138C21.552 15.3467 23.2856 17.0802 23.2856 19.2185V19.2742C23.2856 21.4125 21.552 23.1461 19.4138 23.1461Z" fill="url(#paint1_linear_536_2872)"/>
<path d="M19.4138 23.1461H19.358C17.2198 23.1461 15.4862 21.4125 15.4862 19.2742V19.2185C15.4862 17.0802 17.2198 15.3467 19.358 15.3467H19.4138C21.552 15.3467 23.2856 17.0802 23.2856 19.2185V19.2742C23.2856 21.4125 21.552 23.1461 19.4138 23.1461Z" fill="#5634DE"/>
<path d="M7.93902 19.2185V19.2743C7.93902 21.4125 6.20547 23.1461 4.06722 23.1461H4.01145C1.8732 23.1461 0.139648 21.4125 0.139648 19.2743V19.2185C0.139648 17.0802 1.8732 15.3467 4.01145 15.3467H4.06722C6.20547 15.3467 7.93902 17.0802 7.93902 19.2185Z" fill="url(#paint2_linear_536_2872)"/>
<path d="M7.93902 19.2185V19.2743C7.93902 21.4125 6.20547 23.1461 4.06722 23.1461H4.01145C1.8732 23.1461 0.139648 21.4125 0.139648 19.2743V19.2185C0.139648 17.0802 1.8732 15.3467 4.01145 15.3467H4.06722C6.20547 15.3467 7.93902 17.0802 7.93902 19.2185Z" fill="#5634DE"/>
<path d="M19.3575 30.0049H19.4132C21.5512 30.0049 23.2845 31.7382 23.2845 33.8762V33.9319C23.2845 36.0699 21.5512 37.8032 19.4132 37.8032H19.3575C17.2195 37.8032 15.4862 36.0699 15.4862 33.9319V33.8762C15.4862 31.7382 17.2195 30.0049 19.3575 30.0049Z" fill="url(#paint3_linear_536_2872)"/>
<path d="M19.3575 30.0049H19.4132C21.5512 30.0049 23.2845 31.7382 23.2845 33.8762V33.9319C23.2845 36.0699 21.5512 37.8032 19.4132 37.8032H19.3575C17.2195 37.8032 15.4862 36.0699 15.4862 33.9319V33.8762C15.4862 31.7382 17.2195 30.0049 19.3575 30.0049Z" fill="#5634DE"/>
<path d="M31.2009 19.2742V19.2185C31.2009 17.0802 32.9345 15.3467 35.0727 15.3467H35.1285C37.2668 15.3467 39.0003 17.0802 39.0003 19.2185V19.2742C39.0003 21.4125 37.2668 23.1461 35.1285 23.1461H35.0727C32.9345 23.1461 31.2009 21.4125 31.2009 19.2742Z" fill="url(#paint4_linear_536_2872)"/>
<path d="M31.2009 19.2742V19.2185C31.2009 17.0802 32.9345 15.3467 35.0727 15.3467H35.1285C37.2668 15.3467 39.0003 17.0802 39.0003 19.2185V19.2742C39.0003 21.4125 37.2668 23.1461 35.1285 23.1461H35.0727C32.9345 23.1461 31.2009 21.4125 31.2009 19.2742Z" fill="#5634DE"/>
<path d="M9.00177 31.8824C10.3624 31.8824 11.4654 30.7794 11.4654 29.4188C11.4654 28.0581 10.3624 26.9551 9.00177 26.9551C7.64111 26.9551 6.53809 28.0581 6.53809 29.4188C6.53809 30.7794 7.64111 31.8824 9.00177 31.8824Z" fill="url(#paint5_linear_536_2872)"/>
<path d="M9.00177 31.8824C10.3624 31.8824 11.4654 30.7794 11.4654 29.4188C11.4654 28.0581 10.3624 26.9551 9.00177 26.9551C7.64111 26.9551 6.53809 28.0581 6.53809 29.4188C6.53809 30.7794 7.64111 31.8824 9.00177 31.8824Z" fill="#5634DE"/>
<path d="M9.00177 9.85998C10.3624 9.85998 11.4654 8.75695 11.4654 7.3963C11.4654 6.03564 10.3624 4.93262 9.00177 4.93262C7.64111 4.93262 6.53809 6.03564 6.53809 7.3963C6.53809 8.75695 7.64111 9.85998 9.00177 9.85998Z" fill="url(#paint6_linear_536_2872)"/>
<path d="M9.00177 9.85998C10.3624 9.85998 11.4654 8.75695 11.4654 7.3963C11.4654 6.03564 10.3624 4.93262 9.00177 4.93262C7.64111 4.93262 6.53809 6.03564 6.53809 7.3963C6.53809 8.75695 7.64111 9.85998 9.00177 9.85998Z" fill="#5634DE"/>
<path d="M29.4598 9.85998C30.8204 9.85998 31.9235 8.75695 31.9235 7.3963C31.9235 6.03564 30.8204 4.93262 29.4598 4.93262C28.0991 4.93262 26.9961 6.03564 26.9961 7.3963C26.9961 8.75695 28.0991 9.85998 29.4598 9.85998Z" fill="url(#paint7_linear_536_2872)"/>
<path d="M29.4598 9.85998C30.8204 9.85998 31.9235 8.75695 31.9235 7.3963C31.9235 6.03564 30.8204 4.93262 29.4598 4.93262C28.0991 4.93262 26.9961 6.03564 26.9961 7.3963C26.9961 8.75695 28.0991 9.85998 29.4598 9.85998Z" fill="#5634DE"/>
<path d="M29.4653 31.8834C30.8259 31.8834 31.929 30.7804 31.929 29.4197C31.929 28.0591 30.8259 26.9561 29.4653 26.9561C28.1046 26.9561 27.0016 28.0591 27.0016 29.4197C27.0016 30.7804 28.1046 31.8834 29.4653 31.8834Z" fill="url(#paint8_linear_536_2872)"/>
<path d="M29.4653 31.8834C30.8259 31.8834 31.929 30.7804 31.929 29.4197C31.929 28.0591 30.8259 26.9561 29.4653 26.9561C28.1046 26.9561 27.0016 28.0591 27.0016 29.4197C27.0016 30.7804 28.1046 31.8834 29.4653 31.8834Z" fill="#5634DE"/>
<defs>
<linearGradient id="paint0_linear_536_2872" x1="13.7055" y1="8.76233" x2="15.8137" y2="-0.542651" gradientUnits="userSpaceOnUse">
<stop stop-color="#B18045"/>
<stop offset="1" stop-color="#FAC579"/>
</linearGradient>
<linearGradient id="paint1_linear_536_2872" x1="13.7055" y1="24.109" x2="15.8137" y2="14.804" gradientUnits="userSpaceOnUse">
<stop stop-color="#B18045"/>
<stop offset="1" stop-color="#FAC579"/>
</linearGradient>
<linearGradient id="paint2_linear_536_2872" x1="-1.6411" y1="24.109" x2="0.467185" y2="14.804" gradientUnits="userSpaceOnUse">
<stop stop-color="#B18045"/>
<stop offset="1" stop-color="#FAC579"/>
</linearGradient>
<linearGradient id="paint3_linear_536_2872" x1="13.7057" y1="38.766" x2="15.8137" y2="29.4623" gradientUnits="userSpaceOnUse">
<stop stop-color="#B18045"/>
<stop offset="1" stop-color="#FAC579"/>
</linearGradient>
<linearGradient id="paint4_linear_536_2872" x1="29.4202" y1="24.109" x2="31.5285" y2="14.804" gradientUnits="userSpaceOnUse">
<stop stop-color="#B18045"/>
<stop offset="1" stop-color="#FAC579"/>
</linearGradient>
<linearGradient id="paint5_linear_536_2872" x1="5.41307" y1="32.4908" x2="6.74501" y2="26.6123" gradientUnits="userSpaceOnUse">
<stop stop-color="#B18045"/>
<stop offset="1" stop-color="#FAC579"/>
</linearGradient>
<linearGradient id="paint6_linear_536_2872" x1="5.41307" y1="10.4683" x2="6.74501" y2="4.58979" gradientUnits="userSpaceOnUse">
<stop stop-color="#B18045"/>
<stop offset="1" stop-color="#FAC579"/>
</linearGradient>
<linearGradient id="paint7_linear_536_2872" x1="25.8711" y1="10.4683" x2="27.203" y2="4.58979" gradientUnits="userSpaceOnUse">
<stop stop-color="#B18045"/>
<stop offset="1" stop-color="#FAC579"/>
</linearGradient>
<linearGradient id="paint8_linear_536_2872" x1="25.8766" y1="32.4918" x2="27.2085" y2="26.6132" gradientUnits="userSpaceOnUse">
<stop stop-color="#B18045"/>
<stop offset="1" stop-color="#FAC579"/>
</linearGradient>
</defs>
</svg>
