<svg width="42" height="38" viewBox="0 0 42 38" fill="none" xmlns="http://www.w3.org/2000/svg">
<path d="M31.4403 4.51371e-07H15.835C15.4462 0.000370854 15.0643 0.102863 14.7276 0.297216C14.3908 0.49157 14.1111 0.770967 13.9162 1.10744L6.1135 14.621C5.91841 14.9575 5.81567 15.3395 5.81567 15.7285C5.81567 16.1174 5.91841 16.4994 6.1135 16.8359L13.9162 30.3496L17.7533 28.1347L10.5938 15.7285L17.1156 4.42976H30.1652L37.3302 16.8358L41.1673 14.6209L33.3588 1.10744C33.1645 0.770558 32.8849 0.490821 32.5481 0.296403C32.2113 0.101985 31.8292 -0.000247891 31.4403 4.51371e-07Z" fill="#5634DE"/>
<path d="M27.2453 7.34375L23.4082 9.55863L30.5733 21.9648L24.0515 33.2634H11.0021L3.83706 20.8573L0 23.0723L7.80274 36.5859C7.99717 36.9226 8.27683 37.2023 8.61361 37.3967C8.95039 37.5911 9.33241 37.6934 9.72127 37.6933H25.3268C25.7156 37.6929 26.0974 37.5904 26.4341 37.396C26.7708 37.2017 27.0505 36.9223 27.2453 36.5859L35.0481 23.0723C35.2431 22.7358 35.3459 22.3538 35.3459 21.9648C35.3459 21.5759 35.2431 21.1939 35.0481 20.8574L27.2453 7.34375Z" fill="#5634DE"/>
</svg>
