<svg width="29" height="37" viewBox="0 0 29 37" fill="none" xmlns="http://www.w3.org/2000/svg">
<path d="M14.1126 0.962891C16.3186 0.962891 18.3199 1.85909 19.7721 3.31016C21.222 4.76226 22.1169 6.76255 22.1169 8.96853C22.1169 11.179 21.2207 13.1814 19.7721 14.629L19.725 14.6715C18.2785 16.095 16.2956 16.9739 14.1115 16.9739C11.9045 16.9739 9.90314 16.0766 8.45316 14.6266C7.00318 13.1801 6.10719 11.1788 6.10719 8.96827C6.10719 6.76228 7.00338 4.76097 8.45446 3.3088C9.90656 1.85882 11.9068 0.963922 14.1115 0.963922L14.1126 0.962891ZM14.1126 18.5517C17.9705 18.5517 21.4784 20.1302 24.0203 22.6717C26.5615 25.2129 28.1403 28.7206 28.1403 32.5787V36.2333C28.1403 36.6562 27.7978 36.9997 27.3739 36.9997H0.851848C0.428978 36.9997 0.0854492 36.6572 0.0854492 36.2333V32.5787C0.0854492 28.7208 1.66393 25.2129 4.20542 22.6717C6.74663 20.1305 10.2543 18.5517 14.1125 18.5517H14.1126Z" fill="#5634DE"/>
</svg>
