<svg width="894" height="515" viewBox="0 0 894 515" fill="none" xmlns="http://www.w3.org/2000/svg">
<path d="M626.204 23.2633C688.216 18.6233 736.619 28.6243 764.489 51.3693C778.384 62.7085 786.823 76.9238 789.76 93.4005C792.7 109.901 790.139 128.78 781.827 149.429C765.189 190.758 726.522 236.665 671.425 280.232C616.355 323.777 547.947 362.546 476.429 390.735C404.905 418.923 334.183 434.988 274.837 436.568C215.416 438.151 170.945 425.125 147.626 399.919C124.45 374.867 123.021 338.641 144.348 296.206C165.686 253.754 208.534 207.711 266.621 165.006M552.84 -7.32761C663.965 -44.9152 762.181 -58.4172 829.756 -45.595C863.526 -39.1873 888.373 -26.4481 903.779 -8.40513C919.153 9.59876 925.282 33.0674 921.276 61.3064C913.241 117.949 864.991 189.701 784.786 263.524C704.648 337.284 598.149 408.015 484.586 462.873C371.015 517.733 257.985 553.049 165.989 562.473C119.988 567.182 80.8435 565.256 49.9786 557.146C19.1136 549.037 -3.34936 534.776 -16.2104 514.905C-29.0582 495.049 -32.0459 470.016 -25.2589 441.011C-18.4665 411.99 -1.9047 379.084 24.2112 343.672C76.4403 272.851 144.348 206.787 268.843 129.863" stroke="white" stroke-opacity="0.2" stroke-width="2.66054"/>
</svg>
