<svg width="42" height="43" viewBox="0 0 42 43" fill="none" xmlns="http://www.w3.org/2000/svg">
<circle cx="21" cy="21.5" r="21" fill="#5634DE"/>
<path d="M20.5941 24.1887C19.9442 24.1887 19.4311 24.0133 19.0548 23.6627C18.6785 23.3121 18.4904 22.846 18.4904 22.2645C18.4904 21.7257 18.6443 21.2682 18.9522 20.8919C19.26 20.507 19.6791 20.1222 20.2093 19.7374C20.2606 19.6946 20.3889 19.6005 20.5941 19.4551C20.8079 19.3098 20.9448 19.2157 21.0046 19.1729C21.0645 19.1216 21.1628 19.0361 21.2997 18.9164C21.4451 18.7881 21.5391 18.6812 21.5819 18.5957C21.6332 18.5102 21.6802 18.4033 21.723 18.275C21.7743 18.1381 21.8 17.997 21.8 17.8517C21.8 17.4839 21.6802 17.1761 21.4408 16.928C21.2099 16.68 20.8678 16.556 20.4145 16.556C19.662 16.556 19.0847 16.8938 18.6828 17.5694C18.6742 17.5865 18.6229 17.6763 18.5288 17.8388C18.4433 18.0013 18.3706 18.1253 18.3108 18.2108C18.2595 18.2964 18.1654 18.4161 18.0285 18.57C17.9003 18.724 17.7677 18.8437 17.6309 18.9292C17.5026 19.0147 17.3358 19.0917 17.1306 19.1601C16.9253 19.2285 16.703 19.2627 16.4635 19.2627C15.805 19.2627 15.2663 19.0404 14.8472 18.5957C14.4282 18.1424 14.2187 17.5395 14.2187 16.7869C14.2187 15.9061 14.5351 15.0381 15.1679 14.1829C16.3652 12.5751 18.1483 11.7712 20.5172 11.7712C22.3815 11.7712 23.8909 12.263 25.0454 13.2464C26.2085 14.2214 26.79 15.5341 26.79 17.1846C26.79 18.5871 26.3154 19.917 25.3661 21.1741C24.8103 21.9096 24.1817 22.5381 23.4804 23.0598C22.4456 23.8124 21.4835 24.1887 20.5941 24.1887ZM17.8618 28.0242C17.8618 27.2203 18.1183 26.5575 18.6315 26.0359C19.1446 25.5057 19.7988 25.2405 20.5941 25.2405C21.3895 25.2405 22.0437 25.5057 22.5568 26.0359C23.0699 26.5575 23.3265 27.2203 23.3265 28.0242C23.3265 28.8709 23.0742 29.5507 22.5696 30.0639C22.0736 30.5684 21.4151 30.8207 20.5941 30.8207C19.7731 30.8207 19.1104 30.5684 18.6058 30.0639C18.1098 29.5507 17.8618 28.8709 17.8618 28.0242Z" fill="white"/>
</svg>
