<svg width="13" height="20" viewBox="0 0 13 20" fill="none" xmlns="http://www.w3.org/2000/svg">
<path d="M6.59414 12.6887C5.94419 12.6887 5.43107 12.5133 5.05478 12.1627C4.6785 11.8121 4.49036 11.346 4.49036 10.7645C4.49036 10.2257 4.64429 9.76816 4.95216 9.39188C5.26003 9.00704 5.67908 8.6222 6.2093 8.23736C6.26061 8.1946 6.38889 8.10053 6.59414 7.95515C6.80794 7.80977 6.94477 7.7157 7.00463 7.67294C7.06449 7.62162 7.16284 7.5361 7.29967 7.41638C7.44506 7.2881 7.53913 7.1812 7.58189 7.09568C7.6332 7.01016 7.68023 6.90326 7.72299 6.77498C7.77431 6.63815 7.79996 6.49704 7.79996 6.35166C7.79996 5.98392 7.68023 5.67605 7.44078 5.42805C7.20988 5.18004 6.8678 5.05604 6.41455 5.05604C5.66197 5.05604 5.08472 5.39384 4.68277 6.06944C4.67422 6.08655 4.62291 6.17634 4.52884 6.33883C4.44332 6.50132 4.37063 6.62532 4.31076 6.71084C4.25945 6.79636 4.16538 6.91609 4.02855 7.07002C3.90027 7.22396 3.76772 7.34369 3.63088 7.4292C3.5026 7.51472 3.33584 7.59169 3.13059 7.66011C2.92535 7.72852 2.703 7.76273 2.46354 7.76273C1.80504 7.76273 1.26627 7.54038 0.847222 7.09568C0.428177 6.64242 0.218654 6.03951 0.218654 5.28694C0.218654 4.40609 0.535076 3.53806 1.16792 2.68287C2.36519 1.0751 4.14828 0.271218 6.51717 0.271218C8.38149 0.271218 9.89091 0.762955 11.0454 1.74643C12.2085 2.72135 12.79 4.03408 12.79 5.68461C12.79 7.08713 12.3154 8.41696 11.3661 9.67409C10.8103 10.4096 10.1817 11.0381 9.48042 11.5598C8.44563 12.3124 7.48354 12.6887 6.59414 12.6887ZM3.86179 16.5242C3.86179 15.7203 4.11835 15.0575 4.63146 14.5359C5.14458 14.0057 5.7988 13.7405 6.59414 13.7405C7.38947 13.7405 8.04369 14.0057 8.55681 14.5359C9.06993 15.0575 9.32649 15.7203 9.32649 16.5242C9.32649 17.3709 9.0742 18.0507 8.56964 18.5639C8.07362 19.0684 7.41512 19.3207 6.59414 19.3207C5.77315 19.3207 5.11037 19.0684 4.60581 18.5639C4.10979 18.0507 3.86179 17.3709 3.86179 16.5242Z" fill="white"/>
</svg>
