<svg width="62" height="61" viewBox="0 0 62 61" fill="none" xmlns="http://www.w3.org/2000/svg">
<path d="M41.7301 30.8987C41.7301 30.8987 50.4587 40.7157 46.9971 43.2059C43.5354 45.6961 32.5471 41.3802 32.5471 41.3802C32.5471 41.3802 25.573 52.8264 21.9474 51.3238C18.5222 49.9005 18.7837 36.8255 18.7837 36.8255C18.7837 36.8255 7.51347 35.6398 7.60014 31.3983L7.59705 31.3941C7.59758 31.3419 7.59811 31.2898 7.60172 31.2419C8.01252 26.3937 19.8171 24.5289 19.8171 24.5289C19.8171 24.5289 19.7802 12.8178 24.5625 12.0029C28.6974 11.3013 34.0845 20.487 34.0845 20.487C34.0845 20.487 43.6192 16.9843 46.3441 18.8896C46.5264 19.0145 46.675 19.164 46.79 19.3382C49.0131 22.7179 41.7301 30.8987 41.7301 30.8987Z" fill="#FFCE00"/>
<g opacity="0.6">
<path d="M47.2731 20.1536L47.5178 21.5261C44.3582 20.341 34.4721 24.2635 34.4721 24.2635C34.4721 24.2635 28.2292 15.3569 25.6524 15.8198C23.0714 16.2858 22.249 27.8131 22.249 27.8131C14.6596 28.8655 10.5784 31.0669 8.52299 32.6539C8.52352 32.6017 8.52405 32.5496 8.52766 32.5017C8.93846 27.6535 20.7431 25.7887 20.7431 25.7887C20.7431 25.7887 20.7061 14.0777 25.4885 13.2627C29.6233 12.5611 35.0105 21.7468 35.0105 21.7468C35.0105 21.7468 44.5409 18.2472 47.2731 20.1536Z" fill="white"/>
</g>
<g opacity="0.2">
<path d="M46.2057 38.8307C42.7441 41.3209 31.7558 37.0049 31.7558 37.0049C31.7558 37.0049 24.7817 48.4512 21.1561 46.9486C20.2134 46.5544 19.5506 45.2819 19.0824 43.6403C19.4503 47.0565 20.2432 50.6198 21.9366 51.323C25.5611 52.8328 32.5363 41.3793 32.5363 41.3793C32.5363 41.3793 43.5246 45.6953 46.9862 43.205C48.3022 42.2581 47.8534 40.2465 46.7885 38.1182C46.6637 38.3974 46.4777 38.6374 46.2057 38.8307Z" fill="#371A45"/>
<path d="M19.9488 32.7447C19.9488 32.7447 11.3416 31.7506 8.30121 29.495C7.91005 30.0279 7.66129 30.6051 7.60901 31.2385C7.29193 34.9637 17.5357 36.8126 20.0043 37.1535C19.866 34.7457 19.9488 32.7447 19.9488 32.7447Z" fill="#371A45"/>
<path d="M45.9933 18.6941C44.6919 22.3208 38.5878 28.6722 38.5878 28.6722C38.5878 28.6722 39.8942 30.2222 41.0742 31.7939C43.3851 28.8552 48.8863 21.9117 46.7957 19.3466C46.5826 19.0827 46.3347 18.8509 45.9933 18.6941Z" fill="#371A45"/>
</g>
<path d="M48.2103 44.8192C48.1977 44.8285 48.1893 44.8346 48.1767 44.8439C44.7109 47.3372 37.2225 45.1982 33.3837 43.8457C30.6174 48.1018 25.379 54.9364 21.1762 53.1851C17.4499 51.6335 16.7993 43.4904 16.7549 38.5948C12.5921 37.9459 5.17281 36.086 5.59779 31.0721C6.03447 25.9333 13.9992 23.6481 17.8472 22.8467C18.0367 18.9565 19.0586 10.898 24.2274 10.0192C28.5732 9.27908 32.9824 15.0633 34.9477 18.0567C39.6365 16.4891 46.3432 14.9919 48.4822 18.2394C50.8994 21.9098 46.8576 27.8463 44.3797 30.9012C46.4579 33.4495 50.1806 38.5542 49.7975 42.0046C49.6657 43.1814 49.1179 44.1528 48.2103 44.8192ZM31.3513 39.7568C31.8975 39.3557 32.6233 39.2432 33.2806 39.5042C38.065 41.3782 44.1942 42.6527 45.7844 41.5949C46.1292 40.391 43.4587 35.8912 40.2218 32.2406C39.5445 31.4768 39.5426 30.3205 40.2228 29.5559C43.3181 26.0735 45.7044 21.6697 45.1468 20.514C44.0593 19.8962 39.1783 20.7706 34.7851 22.3798C33.8684 22.7167 32.843 22.3508 32.3501 21.5034C30.1321 17.7255 26.5298 13.7094 24.9068 13.9828C23.0915 14.2939 21.8371 19.7811 21.8466 24.5146C21.8469 25.5103 21.1241 26.358 20.1456 26.5139C15.299 27.2854 9.7864 29.4838 9.62622 31.4059C9.53946 32.4591 13.9334 34.277 19.0014 34.8109C20.0398 34.9215 20.8284 35.8105 20.8064 36.855C20.693 42.6101 21.5975 48.5361 22.7134 49.4305C24.081 49.3641 27.9839 44.9911 30.8285 40.3219C30.9631 40.1001 31.1454 39.908 31.3513 39.7568Z" fill="#371A45"/>
</svg>
