<svg width="14" height="13" viewBox="0 0 14 13" fill="none" xmlns="http://www.w3.org/2000/svg">
<path d="M10.126 12.7714C10.0009 12.7714 9.87566 12.7412 9.76118 12.681L6.55782 10.9915L3.35519 12.681C3.09173 12.8212 2.77125 12.7977 2.52889 12.622C2.28818 12.4453 2.16666 12.1469 2.21686 11.8519L2.82827 8.27526L0.237226 5.74227C0.0230289 5.53287 -0.0539254 5.2209 0.0385127 4.93548C0.130951 4.6508 0.376583 4.44305 0.671483 4.40024L4.25351 3.87816L5.85447 0.624337C5.98655 0.35589 6.25964 0.185547 6.55783 0.185547C6.85719 0.185547 7.12957 0.355649 7.26191 0.624337L8.86263 3.87816L12.4447 4.40024C12.7403 4.44306 12.9852 4.65081 13.0783 4.93548C13.1698 5.2204 13.0936 5.53308 12.8799 5.74227L10.2874 8.27526L10.8995 11.8519C10.95 12.1469 10.8291 12.4453 10.5877 12.6211C10.4502 12.7208 10.2888 12.7714 10.126 12.7714Z" fill="#FFB516" fill-opacity="0.4"/>
</svg>
