<svg width="19" height="19" viewBox="0 0 19 19" fill="none" xmlns="http://www.w3.org/2000/svg">
<path d="M13.3675 13.3678C15.4111 11.3242 15.4111 8.0108 13.3675 5.96718C11.3239 3.92356 8.01052 3.92356 5.9669 5.96718C3.92328 8.0108 3.92328 11.3242 5.9669 13.3678C8.01052 15.4114 11.3239 15.4114 13.3675 13.3678Z" fill="white"/>
<path d="M9.00098 1.0011V2.45674C9.00098 2.82521 9.29946 3.12337 9.6676 3.12337C10.0357 3.12337 10.3342 2.82521 10.3342 2.45674V1.0011C10.3342 0.632635 10.0357 0.334473 9.6676 0.334473C9.29946 0.334473 9.00098 0.632635 9.00098 1.0011Z" fill="white"/>
<path d="M3.06835 3.06835C2.80795 3.32874 2.80795 3.7506 3.06835 4.011L4.09758 5.04024C4.22778 5.17044 4.39835 5.23554 4.56891 5.23554C4.73947 5.23554 4.91004 5.17044 5.04024 5.04024C5.30063 4.77984 5.30063 4.35798 5.04024 4.09758L4.011 3.06835C3.7506 2.80795 3.32874 2.80795 3.06835 3.06835Z" fill="white"/>
<path d="M3.12386 9.6676C3.12386 9.29914 2.82537 9.00098 2.45723 9.00098H1.00159C0.633443 9.00098 0.334961 9.29914 0.334961 9.6676C0.334961 10.0361 0.633443 10.3342 1.00159 10.3342H2.45723C2.82537 10.3342 3.12386 10.0361 3.12386 9.6676Z" fill="white"/>
<path d="M4.09758 14.2949L3.06835 15.3241C2.80795 15.5845 2.80795 16.0064 3.06835 16.2668C3.19854 16.397 3.36911 16.4621 3.53967 16.4621C3.71023 16.4621 3.8808 16.397 4.011 16.2668L5.04024 15.2376C5.30063 14.9772 5.30063 14.5553 5.04024 14.2949C4.77984 14.0345 4.35798 14.0345 4.09758 14.2949Z" fill="white"/>
<path d="M9.6676 16.2114C9.29946 16.2114 9.00098 16.5096 9.00098 16.8781V18.3337C9.00098 18.7022 9.29946 19.0003 9.6676 19.0003C10.0357 19.0003 10.3342 18.7022 10.3342 18.3337V16.8781C10.3342 16.5096 10.0357 16.2114 9.6676 16.2114Z" fill="white"/>
<path d="M15.2376 14.2949C14.9772 14.0345 14.5553 14.0345 14.2949 14.2949C14.0345 14.5553 14.0345 14.9772 14.2949 15.2376L15.3241 16.2668C15.4543 16.397 15.6249 16.4621 15.7955 16.4621C15.966 16.4621 16.1366 16.397 16.2668 16.2668C16.5272 16.0064 16.5272 15.5845 16.2668 15.3241L15.2376 14.2949Z" fill="white"/>
<path d="M18.3332 9.00098H16.8776C16.5094 9.00098 16.2109 9.29914 16.2109 9.6676C16.2109 10.0361 16.5094 10.3342 16.8776 10.3342H18.3332C18.7014 10.3342 18.9998 10.0361 18.9998 9.6676C18.9998 9.29914 18.7014 9.00098 18.3332 9.00098Z" fill="white"/>
<path d="M15.3241 3.06835L14.2949 4.09758C14.0345 4.35798 14.0345 4.77984 14.2949 5.04024C14.4251 5.17044 14.5957 5.23554 14.7662 5.23554C14.9368 5.23554 15.1074 5.17044 15.2376 5.04024L16.2668 4.011C16.5272 3.7506 16.5272 3.32874 16.2668 3.06835C16.0064 2.80795 15.5845 2.80795 15.3241 3.06835Z" fill="white"/>
</svg>
