<svg width="40" height="40" viewBox="0 0 40 40" fill="none" xmlns="http://www.w3.org/2000/svg">
<rect width="40" height="40" rx="8.75" fill="#5634DE"/>
<path d="M11.7206 28.281C7.14763 23.7081 7.14764 16.2939 11.7206 11.721C16.2935 7.14806 23.7076 7.14806 28.2805 11.721C32.8535 16.2939 32.8535 23.7081 28.2805 28.281C23.7076 32.8539 16.2935 32.8539 11.7206 28.281Z" fill="#FFD243"/>
<g opacity="0.6">
<path d="M10.6191 12.9917C12.8086 10.3662 16.1232 8.71795 19.8074 8.77809C26.2737 8.88334 31.4307 14.2108 31.3255 20.6771C31.2841 23.2368 30.4234 25.5917 28.9982 27.4955C30.6514 25.5127 31.6638 22.9731 31.7089 20.1916C31.8141 13.7253 26.6571 8.39783 20.1908 8.29258C16.2842 8.22931 12.7935 10.0855 10.6191 12.9917Z" fill="white"/>
</g>
<path d="M11.4337 15.222C13.2329 12.6072 16.2662 10.9139 19.6785 10.969C25.0949 11.0573 29.4143 15.5196 29.326 20.936C29.2984 22.6149 28.8511 24.1886 28.085 25.558C29.1431 24.0213 29.7752 22.1663 29.8078 20.161C29.8961 14.7447 25.5766 10.2824 20.1603 10.1947C16.4222 10.1339 13.1383 12.1724 11.4337 15.222Z" fill="#FF9D33"/>
<g opacity="0.6">
<path d="M19.4578 30.3465C22.9303 30.4029 26.0112 28.6482 27.7979 25.9531C25.9723 28.3406 23.0768 29.861 19.8412 29.8084C14.4248 29.7207 10.106 25.2584 10.1937 19.842C10.2256 17.8987 10.8201 16.0958 11.8206 14.5879C10.5902 16.1966 9.846 18.1994 9.81029 20.3801C9.72196 25.7965 14.0414 30.2588 19.4578 30.3465Z" fill="white"/>
</g>
<path d="M20.0048 31.9608C26.5106 31.9614 31.8549 26.7236 31.9608 20.1946C32.0128 17.0003 30.8175 13.977 28.5954 11.681C26.3734 9.38504 23.3908 8.09265 20.1958 8.04065C16.9996 7.98928 13.9782 9.18394 11.6822 11.406C9.38689 13.6281 8.09388 16.6113 8.04188 19.8056C7.93476 26.3997 13.2121 31.8518 19.8062 31.9595C19.8726 31.9602 19.9396 31.9608 20.0048 31.9608ZM19.9966 8.54057C20.0605 8.54057 20.1238 8.54119 20.1883 8.54182C26.5062 8.64519 31.563 13.8686 31.4596 20.1865C31.3575 26.4411 26.2368 31.4596 20.0041 31.4596C19.9409 31.4596 19.8782 31.459 19.815 31.4584C13.4971 31.3556 8.44093 26.1316 8.54367 19.8137C8.59316 16.7528 9.8323 13.8949 12.0312 11.7662C14.185 9.68198 17.0072 8.54057 19.9966 8.54057Z" fill="#371A45"/>
<path d="M20.0029 30.0597C25.4744 30.0603 29.9686 25.655 30.0582 20.1641C30.1484 14.6181 25.71 10.033 20.1639 9.94278C17.4776 9.89893 14.9348 10.9038 13.0041 12.7725C11.0733 14.6412 9.98642 17.1502 9.94257 19.8365C9.85236 25.3825 14.2908 29.9676 19.8363 30.0578C19.892 30.0591 19.9478 30.0591 20.0029 30.0597ZM19.9966 10.4427C20.0499 10.4427 20.1031 10.4433 20.1564 10.444C25.4255 10.5298 29.6429 14.8862 29.5571 20.156C29.4719 25.3725 25.2013 29.5585 20.0029 29.5585C19.9503 29.5585 19.8977 29.5579 19.845 29.5573C14.5752 29.4714 10.3585 25.1144 10.4437 19.8452C10.4851 17.2924 11.5181 14.9087 13.353 13.1333C15.1491 11.3943 17.5033 10.4427 19.9966 10.4427Z" fill="#371A45"/>
<path d="M25.3088 23.3611C20.5441 30.0514 11.0184 23.7678 14.8873 16.868C19.602 9.90336 29.4418 16.4081 25.3088 23.3611Z" fill="white"/>
<path d="M25.3088 23.3611C20.5441 30.0514 11.0184 23.7678 14.8873 16.868C19.602 9.90336 29.4418 16.4081 25.3088 23.3611Z" fill="white"/>
<path d="M25.3088 23.3611C20.5441 30.0514 11.0184 23.7678 14.8873 16.868C19.602 9.90336 29.4418 16.4081 25.3088 23.3611Z" fill="white"/>
<path d="M20.2052 26.3253C20.5247 26.3253 20.8443 26.2992 21.1601 26.2471C22.814 25.9739 24.2803 24.9983 25.4 23.4256L25.4048 23.4177C26.3846 21.7695 26.6563 20.0305 26.1906 18.3877C25.7748 16.9219 24.8019 15.6417 23.4499 14.7836C22.1011 13.9271 20.5386 13.5986 19.0505 13.858C17.372 14.1504 15.9004 15.1696 14.7935 16.8044L14.7887 16.8124C13.8706 18.4504 13.6356 20.1682 14.1098 21.7807C14.5341 23.2231 15.4985 24.4804 16.826 25.322C17.8659 25.9813 19.0382 26.3253 20.2052 26.3253ZM25.2145 23.2991C22.8151 26.6645 19.3333 26.6448 16.9467 25.1322C14.6149 23.6543 13.0061 20.4564 14.9828 16.9262C17.3439 13.4422 20.9644 13.4715 23.3297 14.9734C25.7185 16.4902 27.3267 19.7423 25.2145 23.2991Z" fill="#371A45"/>
<g opacity="0.35">
<path d="M25.309 23.3599C21.294 29.2102 12.6711 25.2223 14.1788 18.5713C14.4053 20.7835 15.1512 20.9329 16.2098 22.1366C19.4385 26.0671 25.1947 23.8448 26.2553 19.4985C26.3803 20.8755 26.031 22.2312 25.309 23.3599Z" fill="#371A45"/>
</g>
<path d="M20.2054 26.3699C20.5276 26.3699 20.8493 26.3438 21.1677 26.2912C22.8339 26.0158 24.3103 25.0338 25.4369 23.4516L25.4438 23.441C26.43 21.7822 26.7033 20.0304 26.2344 18.3754C25.8154 16.899 24.8356 15.6097 23.4746 14.7458C22.1162 13.8834 20.5425 13.5522 19.0432 13.8138C17.3526 14.1089 15.8703 15.1339 14.7565 16.7794L14.7496 16.7905C13.8251 18.4392 13.589 20.1692 14.0664 21.7934C14.4933 23.2459 15.4652 24.5128 16.8023 25.3603C17.8491 26.0232 19.0299 26.3699 20.2054 26.3699ZM25.1764 23.2741C22.7941 26.6134 19.3394 26.5948 16.9709 25.0934C14.6566 23.6265 13.0605 20.4531 15.0213 16.9495C17.3659 13.4927 20.9588 13.5209 23.306 15.0111C25.6762 16.5162 27.2716 19.7433 25.1764 23.2741Z" fill="#293856"/>
<path d="M24.2983 24.5662C17.9971 28.0735 12.9086 20.6952 17.7238 16.6116C23.3955 12.3647 29.4654 19.3592 24.2983 24.5662Z" fill="#280052"/>
<path d="M26.0649 20.3379C25.9278 26.8544 16.5957 27.1622 15.7434 21.1843C18.6409 24.7666 24.2392 23.447 26.0649 20.3379Z" fill="#14002D"/>
<path d="M20.7044 26.2261C21.0968 26.2261 21.4876 26.1819 21.8693 26.0921C23.2606 25.7646 24.4957 24.8512 25.4404 23.4498C25.4404 23.4492 25.4409 23.4492 25.4409 23.4487C26.987 21.1179 26.8286 17.2507 24.1278 15.2086C24.1203 15.2033 24.1129 15.1985 24.1049 15.1942C22.6317 14.4319 20.8241 14.3372 19.1462 14.9348C17.4736 15.5303 16.1391 16.7371 15.4841 18.2465C14.8876 19.7239 14.8722 21.2349 15.4384 22.6199C15.9515 23.8751 16.9047 24.923 18.1227 25.5705C18.9383 26.0038 19.8262 26.2261 20.7044 26.2261ZM25.1757 23.2717C23.0926 26.3606 20.1552 26.2888 18.2727 25.2882C16.1094 24.1388 14.5575 21.3928 15.7781 18.3693C16.3965 16.9445 17.6634 15.8009 19.253 15.2347C20.8437 14.6684 22.5535 14.7546 23.9465 15.4707C26.4931 17.407 26.6393 21.0642 25.1757 23.2717Z" fill="#280052"/>
<path d="M21.014 25.6502C22.1167 25.6502 23.2603 25.3333 24.3789 24.7107C24.3922 24.7033 24.4049 24.6937 24.4156 24.6826C25.6575 23.431 26.3487 21.9844 26.4156 20.4995C26.4752 19.1698 26.0275 17.8854 25.1551 16.8827C24.3028 15.9028 23.129 15.292 21.8509 15.1628C20.4292 15.0187 18.9677 15.4743 17.6253 16.4797C17.6226 16.4818 17.62 16.4839 17.6173 16.4861C16.4934 17.4393 15.8235 18.6329 15.681 19.937C15.5518 21.1178 15.8682 22.3279 16.5715 23.3433C17.3334 24.4433 18.4717 25.2137 19.7763 25.5119C20.1799 25.6039 20.594 25.6502 21.014 25.6502ZM24.1976 24.4332C20.9662 26.2206 18.1766 25.0808 16.8427 23.1546C15.6316 21.406 15.4673 18.7451 17.8268 16.7407C20.6589 14.6226 23.4224 15.3946 24.9057 17.0991C26.3805 18.7945 26.7857 21.8106 24.1976 24.4332Z" fill="#280052"/>
<path d="M13.1481 21.1331C13.4682 24.0115 16.3801 23.9333 16.3514 21.1544C16.127 18.1255 13.0142 18.2085 13.1481 21.1331Z" fill="white"/>
<g opacity="0.35">
<path d="M14.9109 23.2741C15.7839 23.2571 16.4548 22.2161 16.3421 21.0087C15.7504 22.2491 14.4994 20.124 14.4271 19.5254C12.1697 20.0119 13.308 23.34 14.9109 23.2741Z" fill="#371A45"/>
</g>
<path d="M14.8694 23.4304C14.897 23.4304 14.9247 23.4293 14.9523 23.4277C15.7413 23.3798 16.5308 22.6579 16.5154 21.1528C16.5154 21.149 16.5154 21.1458 16.5149 21.1421C16.3931 19.5004 15.4287 18.6949 14.5419 18.7486C13.7402 18.7965 12.9103 19.5658 12.982 21.1411C12.982 21.1448 12.9826 21.148 12.9831 21.1517C13.1585 22.7318 14.0671 23.4304 14.8694 23.4304ZM16.1852 21.1613C16.1964 22.4463 15.5648 23.0598 14.9321 23.0981C14.2649 23.1385 13.4706 22.5366 13.3117 21.1203C13.2516 19.7726 13.9172 19.117 14.5616 19.0782C15.2873 19.0346 16.0779 19.7364 16.1852 21.1613Z" fill="#280052"/>
<path d="M13.0288 21.2897C13.2904 23.622 15.4728 23.6002 15.4505 21.3524C15.2777 18.8696 12.906 18.8956 13.0288 21.2897Z" fill="white"/>
<path d="M14.356 23.2031C14.3767 23.2031 14.3969 23.2026 14.4172 23.2015C15.0227 23.1648 15.6283 22.5779 15.616 21.3508C15.616 21.3476 15.616 21.3444 15.6155 21.3413C15.5198 19.9643 14.7595 19.2875 14.0599 19.3289C13.4373 19.3667 12.7977 19.9988 12.8647 21.2982C12.8647 21.3014 12.8653 21.3051 12.8658 21.3083C13.0125 22.6215 13.7292 23.2031 14.356 23.2031ZM15.2859 21.3588C15.2944 22.3658 14.8462 22.8442 14.3969 22.8719C13.9073 22.9022 13.3235 22.4147 13.1938 21.2759C13.1406 20.2046 13.6149 19.6862 14.0795 19.6586C14.6181 19.6261 15.2035 20.1993 15.2859 21.3588Z" fill="#280052"/>
<g opacity="0.4">
<path d="M16.9543 19.9261C17.2419 21.1111 18.5939 20.8044 18.5179 19.7384C18.3457 18.3992 16.747 18.7341 16.9543 19.9261Z" fill="white"/>
</g>
<g opacity="0.4">
<path d="M17.598 21.7946C17.7341 22.2411 18.328 22.1189 18.2249 21.6196C18.0887 21.173 17.4949 21.2953 17.598 21.7946Z" fill="white"/>
</g>
<g opacity="0.4">
<path d="M25.0799 20.5251C25.9412 16.5223 21.7831 15.813 20.4779 16.6132C23.1495 16.9157 24.2627 18.6234 25.0799 20.5251Z" fill="white"/>
</g>
<g opacity="0.35">
<path d="M15.5449 21.8819C15.6013 21.5565 15.5683 21.2146 15.4668 20.8988C14.9845 22.4481 13.4385 21.6873 13.1222 20.5469C12.6724 22.8495 14.9814 24.0361 15.5449 21.8819Z" fill="#371A45"/>
</g>
</svg>
