<svg width="34" height="34" viewBox="0 0 34 34" fill="none" xmlns="http://www.w3.org/2000/svg">
<path d="M8.72055 25.281C4.14763 20.7081 4.14764 13.2939 8.72055 8.72098C13.2935 4.14806 20.7076 4.14806 25.2805 8.72098C29.8535 13.2939 29.8535 20.7081 25.2805 25.281C20.7076 29.8539 13.2935 29.8539 8.72055 25.281Z" fill="#FFD243"/>
<g opacity="0.6">
<path d="M7.61956 9.99167C9.80904 7.36617 13.1236 5.71795 16.8079 5.77809C23.2742 5.88334 28.4312 11.2108 28.326 17.6771C28.2846 20.2368 27.4239 22.5917 25.9987 24.4955C27.6519 22.5127 28.6642 19.9731 28.7094 17.1916C28.8146 10.7253 23.6576 5.39783 17.1913 5.29258C13.2846 5.22931 9.794 7.08551 7.61956 9.99167Z" fill="white"/>
</g>
<path d="M8.43318 12.222C10.2324 9.60718 13.2657 7.91386 16.678 7.96899C22.0944 8.05732 26.4138 12.5196 26.3255 17.936C26.298 19.6149 25.8507 21.1886 25.0845 22.558C26.1426 21.0213 26.7747 19.1663 26.8073 17.161C26.8956 11.7447 22.5761 7.28239 17.1598 7.19468C13.4217 7.13392 10.1378 9.17242 8.43318 12.222Z" fill="#FF9D33"/>
<g opacity="0.6">
<path d="M16.4578 27.3465C19.9303 27.4029 23.0112 25.6482 24.7979 22.9531C22.9723 25.3406 20.0768 26.861 16.8412 26.8084C11.4248 26.7207 7.10598 22.2584 7.19368 16.842C7.22563 14.8987 7.82014 13.0958 8.8206 11.5879C7.59023 13.1966 6.846 15.1994 6.81029 17.3801C6.72196 22.7965 11.0414 27.2588 16.4578 27.3465Z" fill="white"/>
</g>
<path d="M17.0053 28.9608C23.5111 28.9614 28.8554 23.7236 28.9613 17.1946C29.0133 14.0003 27.818 10.977 25.5959 8.68102C23.3739 6.38504 20.3913 5.09265 17.1963 5.04065C14.0001 4.98928 10.9787 6.18394 8.68273 8.406C6.38738 10.6281 5.09436 13.6113 5.04237 16.8056C4.93524 23.3997 10.2125 28.8518 16.8067 28.9595C16.8731 28.9602 16.9401 28.9608 17.0053 28.9608ZM16.9971 5.54057C17.061 5.54057 17.1243 5.54119 17.1888 5.54182C23.5067 5.64519 28.5635 10.8686 28.4601 17.1865C28.358 23.4411 23.2373 28.4596 17.0046 28.4596C16.9414 28.4596 16.8787 28.459 16.8154 28.4584C10.4976 28.3556 5.44142 23.1316 5.54416 16.8137C5.59365 13.7528 6.83279 10.8949 9.03167 8.76621C11.1854 6.68198 14.0076 5.54057 16.9971 5.54057Z" fill="#371A45"/>
<path d="M17.0029 27.0597C22.4744 27.0603 26.9686 22.655 27.0582 17.1641C27.1484 11.6181 22.71 7.03299 17.1639 6.94278C14.4776 6.89893 11.9348 7.90377 10.0041 9.77251C8.07333 11.6412 6.98642 14.1502 6.94257 16.8365C6.85236 22.3825 11.2908 26.9676 16.8363 27.0578C16.892 27.0591 16.9478 27.0591 17.0029 27.0597ZM16.9966 7.4427C17.0499 7.4427 17.1031 7.44333 17.1564 7.44395C22.4255 7.52978 26.6429 11.8862 26.5571 17.156C26.4719 22.3725 22.2013 26.5585 17.0029 26.5585C16.9503 26.5585 16.8977 26.5579 16.845 26.5573C11.5752 26.4714 7.35854 22.1144 7.44374 16.8452C7.48508 14.2924 8.51812 11.9087 10.353 10.1333C12.1491 8.39429 14.5033 7.4427 16.9966 7.4427Z" fill="#371A45"/>
<path d="M22.3083 20.3611C17.5436 27.0514 8.01796 20.7678 11.8868 13.868C16.6015 6.90336 26.4414 13.4081 22.3083 20.3611Z" fill="white"/>
<path d="M22.3083 20.3611C17.5436 27.0514 8.01796 20.7678 11.8868 13.868C16.6015 6.90336 26.4414 13.4081 22.3083 20.3611Z" fill="white"/>
<path d="M22.3083 20.3611C17.5436 27.0514 8.01796 20.7678 11.8868 13.868C16.6015 6.90336 26.4414 13.4081 22.3083 20.3611Z" fill="white"/>
<path d="M17.2052 23.3253C17.5247 23.3253 17.8443 23.2992 18.1601 23.2471C19.814 22.9739 21.2803 21.9983 22.4 20.4256L22.4048 20.4177C23.3846 18.7695 23.6563 17.0305 23.1906 15.3877C22.7748 13.9219 21.8019 12.6417 20.4499 11.7836C19.1011 10.9271 17.5386 10.5986 16.0505 10.858C14.372 11.1504 12.9004 12.1696 11.7935 13.8044L11.7887 13.8124C10.8706 15.4504 10.6356 17.1682 11.1098 18.7807C11.5341 20.2231 12.4985 21.4804 13.826 22.322C14.8659 22.9813 16.0382 23.3253 17.2052 23.3253ZM22.2145 20.2991C19.8151 23.6645 16.3333 23.6448 13.9467 22.1322C11.6149 20.6543 10.0061 17.4564 11.9828 13.9262C14.3439 10.4422 17.9644 10.4715 20.3297 11.9734C22.7185 13.4902 24.3267 16.7423 22.2145 20.2991Z" fill="#371A45"/>
<g opacity="0.35">
<path d="M22.308 20.3599C18.293 26.2102 9.67009 22.2223 11.1779 15.5713C11.4043 17.7835 12.1503 17.9329 13.2088 19.1366C16.4375 23.0671 22.1937 20.8448 23.2544 16.4985C23.3793 17.8755 23.03 19.2312 22.308 20.3599Z" fill="#371A45"/>
</g>
<path d="M17.2049 23.3699C17.5271 23.3699 17.8488 23.3438 18.1672 23.2912C19.8334 23.0158 21.3098 22.0338 22.4364 20.4516L22.4433 20.441C23.4296 18.7822 23.7028 17.0304 23.2339 15.3754C22.815 13.899 21.8351 12.6097 20.4741 11.7458C19.1157 10.8834 17.542 10.5522 16.0428 10.8138C14.3521 11.1089 12.8698 12.1339 11.756 13.7794L11.7491 13.7905C10.8246 15.4392 10.5885 17.1692 11.0659 18.7934C11.4929 20.2459 12.4647 21.5128 13.8018 22.3603C14.8487 23.0232 16.0295 23.3699 17.2049 23.3699ZM22.1759 20.2741C19.7936 23.6134 16.3389 23.5948 13.9704 22.0934C11.6561 20.6265 10.0601 17.4531 12.0208 13.9495C14.3654 10.4927 17.9583 10.5209 20.3056 12.0111C22.6757 13.5162 24.2712 16.7433 22.1759 20.2741Z" fill="#293856"/>
<path d="M21.2978 21.5662C14.9966 25.0735 9.90814 17.6952 14.7233 13.6116C20.395 9.36474 26.4649 16.3592 21.2978 21.5662Z" fill="#280052"/>
<path d="M23.0645 17.3379C22.9273 23.8544 13.5952 24.1622 12.7429 18.1843C15.6404 21.7666 21.2388 20.447 23.0645 17.3379Z" fill="#14002D"/>
<path d="M17.704 23.2261C18.0963 23.2261 18.4871 23.1819 18.8688 23.0921C20.2601 22.7646 21.4952 21.8512 22.4399 20.4498C22.4399 20.4492 22.4405 20.4492 22.4405 20.4487C23.9865 18.1179 23.8281 14.2507 21.1273 12.2086C21.1198 12.2033 21.1124 12.1985 21.1044 12.1942C19.6312 11.4319 17.8236 11.3372 16.1457 11.9348C14.4731 12.5303 13.1386 13.7371 12.4836 15.2465C11.8871 16.7239 11.8717 18.2349 12.4379 19.6199C12.951 20.8751 13.9042 21.923 15.1222 22.5705C15.9378 23.0038 16.8257 23.2261 17.704 23.2261ZM22.1752 20.2717C20.0921 23.3606 17.1548 23.2888 15.2722 22.2882C13.1089 21.1388 11.557 18.3928 12.7777 15.3693C13.396 13.9445 14.6629 12.8009 16.2525 12.2347C17.8433 11.6684 19.553 11.7546 20.946 12.4707C23.4926 14.407 23.6388 18.0642 22.1752 20.2717Z" fill="#280052"/>
<path d="M18.0131 22.6502C19.1157 22.6502 20.2593 22.3333 21.3779 21.7107C21.3912 21.7033 21.4039 21.6937 21.4146 21.6826C22.6565 20.431 23.3477 18.9844 23.4147 17.4995C23.4742 16.1698 23.0266 14.8854 22.1541 13.8827C21.3019 12.9028 20.128 12.292 18.8499 12.1628C17.4282 12.0187 15.9667 12.4743 14.6243 13.4797C14.6216 13.4818 14.619 13.4839 14.6163 13.4861C13.4924 14.4393 12.8225 15.6329 12.68 16.937C12.5508 18.1178 12.8672 19.3279 13.5706 20.3433C14.3324 21.4433 15.4707 22.2137 16.7754 22.5119C17.1789 22.6039 17.5931 22.6502 18.0131 22.6502ZM21.1966 21.4332C17.9652 23.2206 15.1756 22.0808 13.8417 20.1546C12.6306 18.406 12.4663 15.7451 14.8258 13.7407C17.6579 11.6226 20.4215 12.3946 21.9048 14.0991C23.3796 15.7945 23.7847 18.8106 21.1966 21.4332Z" fill="#280052"/>
<path d="M10.1481 18.1331C10.4682 21.0115 13.3801 20.9333 13.3514 18.1544C13.127 15.1255 10.0142 15.2085 10.1481 18.1331Z" fill="white"/>
<g opacity="0.35">
<path d="M11.9099 20.2741C12.7829 20.2571 13.4538 19.2161 13.3411 18.0087C12.7494 19.2491 11.4984 17.124 11.4261 16.5254C9.16871 17.0119 10.307 20.34 11.9099 20.2741Z" fill="#371A45"/>
</g>
<path d="M11.8694 20.4304C11.897 20.4304 11.9247 20.4293 11.9523 20.4277C12.7413 20.3798 13.5308 19.6579 13.5154 18.1528C13.5154 18.149 13.5154 18.1458 13.5149 18.1421C13.3931 16.5004 12.4287 15.6949 11.5419 15.7486C10.7402 15.7965 9.91026 16.5658 9.98203 18.1411C9.98203 18.1448 9.98256 18.148 9.98309 18.1517C10.1585 19.7318 11.0671 20.4304 11.8694 20.4304ZM13.1852 18.1613C13.1964 19.4463 12.5648 20.0598 11.9321 20.0981C11.2649 20.1385 10.4706 19.5366 10.3117 18.1203C10.2516 16.7726 10.9172 16.117 11.5616 16.0782C12.2873 16.0346 13.0779 16.7364 13.1852 18.1613Z" fill="#280052"/>
<path d="M10.0283 18.2897C10.2899 20.622 12.4724 20.6002 12.45 18.3524C12.2772 15.8696 9.90553 15.8956 10.0283 18.2897Z" fill="white"/>
<path d="M11.355 20.2031C11.3758 20.2031 11.396 20.2026 11.4162 20.2015C12.0217 20.1648 12.6273 19.5779 12.6151 18.3508C12.6151 18.3476 12.6151 18.3444 12.6145 18.3413C12.5188 16.9643 11.7586 16.2875 11.0589 16.3289C10.4363 16.3667 9.79676 16.9988 9.86374 18.2982C9.86374 18.3014 9.86428 18.3051 9.86481 18.3083C10.0115 19.6215 10.7282 20.2031 11.355 20.2031ZM12.2849 18.3588C12.2934 19.3658 11.8452 19.8442 11.396 19.8719C10.9063 19.9022 10.3226 19.4147 10.1928 18.2759C10.1397 17.2046 10.6139 16.6862 11.0786 16.6586C11.6171 16.6261 12.2025 17.1993 12.2849 18.3588Z" fill="#280052"/>
<g opacity="0.4">
<path d="M13.9538 16.9261C14.2415 18.1111 15.5934 17.8044 15.5174 16.7384C15.3452 15.3992 13.7465 15.7341 13.9538 16.9261Z" fill="white"/>
</g>
<g opacity="0.4">
<path d="M14.5975 18.7946C14.7336 19.2411 15.3275 19.1189 15.2244 18.6196C15.0883 18.173 14.4944 18.2953 14.5975 18.7946Z" fill="white"/>
</g>
<g opacity="0.4">
<path d="M22.0789 17.5251C22.9402 13.5223 18.7821 12.813 17.4769 13.6132C20.1485 13.9157 21.2618 15.6234 22.0789 17.5251Z" fill="white"/>
</g>
<g opacity="0.35">
<path d="M12.5449 18.8819C12.6013 18.5565 12.5683 18.2146 12.4668 17.8988C11.9845 19.4481 10.4385 18.6873 10.1222 17.5469C9.67238 19.8495 11.9814 21.0361 12.5449 18.8819Z" fill="#371A45"/>
</g>
</svg>
