<svg width="24" height="24" viewBox="0 0 24 24" fill="none" xmlns="http://www.w3.org/2000/svg">
<path d="M3.72055 20.281C-0.852366 15.7081 -0.852364 8.29389 3.72055 3.72098C8.29347 -0.851939 15.7076 -0.851939 20.2805 3.72098C24.8535 8.29389 24.8535 15.7081 20.2805 20.281C15.7076 24.8539 8.29347 24.8539 3.72055 20.281Z" fill="#FFD243"/>
<g opacity="0.6">
<path d="M2.61907 4.99167C4.80855 2.36617 8.12315 0.717951 11.8074 0.778091C18.2737 0.883336 23.4307 6.21076 23.3255 12.6771C23.2841 15.2368 22.4234 17.5917 20.9982 19.4955C22.6514 17.5127 23.6638 14.9731 23.7089 12.1916C23.8141 5.72525 18.6571 0.397829 12.1908 0.292584C8.28416 0.229311 4.79352 2.08551 2.61907 4.99167Z" fill="white"/>
</g>
<path d="M3.43366 7.22203C5.23286 4.60718 8.26618 2.91386 11.6785 2.96899C17.0949 3.05732 21.4143 7.5196 21.326 12.936C21.2984 14.6149 20.8511 16.1886 20.085 17.558C21.1431 16.0213 21.7752 14.1663 21.8078 12.161C21.8961 6.74466 17.5766 2.28239 12.1603 2.19468C8.42217 2.13392 5.13826 4.17242 3.43366 7.22203Z" fill="#FF9D33"/>
<g opacity="0.6">
<path d="M11.4578 22.3465C14.9303 22.4029 18.0112 20.6482 19.7979 17.9531C17.9723 20.3406 15.0768 21.861 11.8412 21.8084C6.4248 21.7207 2.10598 17.2584 2.19368 11.842C2.22563 9.89873 2.82014 8.09578 3.8206 6.58789C2.59023 8.19664 1.846 10.1994 1.81029 12.3801C1.72196 17.7965 6.0414 22.2588 11.4578 22.3465Z" fill="white"/>
</g>
<path d="M12.0048 23.9608C18.5106 23.9614 23.8549 18.7236 23.9608 12.1946C24.0128 9.00029 22.8175 5.977 20.5954 3.68102C18.3734 1.38504 15.3908 0.092649 12.1958 0.0406528C8.99964 -0.010717 5.97822 1.18394 3.68224 3.406C1.38689 5.62806 0.0938759 8.61126 0.0418797 11.8056C-0.0652447 18.3997 5.21206 23.8518 11.8062 23.9595C11.8726 23.9602 11.9396 23.9608 12.0048 23.9608ZM11.9966 0.540569C12.0605 0.540569 12.1238 0.541195 12.1883 0.541821C18.5062 0.645187 23.563 5.86862 23.4596 12.1865C23.3575 18.4411 18.2368 23.4596 12.0041 23.4596C11.9409 23.4596 11.8782 23.459 11.815 23.4584C5.4971 23.3556 0.440935 18.1316 0.543674 11.8137C0.593164 8.75284 1.8323 5.89493 4.03118 3.76621C6.18495 1.68198 9.00716 0.540569 11.9966 0.540569Z" fill="#371A45"/>
<path d="M12.0029 22.0597C17.4744 22.0603 21.9686 17.655 22.0582 12.1641C22.1484 6.61806 17.71 2.03299 12.1639 1.94278C9.47764 1.89893 6.93483 2.90377 5.00408 4.77251C3.07333 6.64124 1.98642 9.15021 1.94257 11.8365C1.85236 17.3825 6.29083 21.9676 11.8363 22.0578C11.892 22.0591 11.9478 22.0591 12.0029 22.0597ZM11.9966 2.4427C12.0499 2.4427 12.1031 2.44333 12.1564 2.44395C17.4255 2.52978 21.6429 6.88618 21.5571 12.156C21.4719 17.3725 17.2013 21.5585 12.0029 21.5585C11.9503 21.5585 11.8977 21.5579 11.845 21.5573C6.57525 21.4714 2.35854 17.1144 2.44374 11.8452C2.48508 9.29242 3.51812 6.90874 5.35302 5.13335C7.14908 3.39429 9.50332 2.4427 11.9966 2.4427Z" fill="#371A45"/>
<path d="M17.3088 15.3611C12.5441 22.0514 3.01845 15.7678 6.88729 8.86802C11.602 1.90336 21.4418 8.40814 17.3088 15.3611Z" fill="white"/>
<path d="M17.3088 15.3611C12.5441 22.0514 3.01845 15.7678 6.88729 8.86802C11.602 1.90336 21.4418 8.40814 17.3088 15.3611Z" fill="white"/>
<path d="M17.3088 15.3611C12.5441 22.0514 3.01845 15.7678 6.88729 8.86802C11.602 1.90336 21.4418 8.40814 17.3088 15.3611Z" fill="white"/>
<path d="M12.2052 18.3253C12.5247 18.3253 12.8443 18.2992 13.1601 18.2471C14.814 17.9739 16.2803 16.9983 17.4 15.4256L17.4048 15.4177C18.3846 13.7695 18.6563 12.0305 18.1906 10.3877C17.7748 8.92192 16.8019 7.6417 15.4499 6.78361C14.1011 5.92711 12.5386 5.59855 11.0505 5.858C9.37203 6.15041 7.90041 7.16959 6.79351 8.80442L6.78872 8.8124C5.87056 10.4504 5.63556 12.1682 6.1098 13.7807C6.53406 15.2231 7.49848 16.4804 8.82602 17.322C9.86594 17.9813 11.0382 18.3253 12.2052 18.3253ZM17.2145 15.2991C14.8151 18.6645 11.3333 18.6448 8.9467 17.1322C6.61487 15.6543 5.00609 12.4564 6.98278 8.92617C9.34385 5.44224 12.9644 5.47149 15.3297 6.97341C17.7185 8.49022 19.3267 11.7423 17.2145 15.2991Z" fill="#371A45"/>
<g opacity="0.35">
<path d="M17.309 15.3599C13.294 21.2102 4.67106 17.2223 6.17883 10.5713C6.40532 12.7835 7.15123 12.9329 8.20975 14.1366C11.4385 18.0671 17.1947 15.8448 18.2553 11.4985C18.3803 12.8755 18.031 14.2312 17.309 15.3599Z" fill="#371A45"/>
</g>
<path d="M12.2054 18.3699C12.5276 18.3699 12.8493 18.3438 13.1677 18.2912C14.8339 18.0158 16.3103 17.0338 17.4369 15.4516L17.4438 15.441C18.43 13.7822 18.7033 12.0304 18.2344 10.3754C17.8154 8.89899 16.8356 7.60973 15.4746 6.74579C14.1162 5.88345 12.5425 5.55223 11.0432 5.8138C9.35258 6.10887 7.87033 7.1339 6.75652 8.77937L6.7496 8.79053C5.82506 10.4392 5.589 12.1692 6.06643 13.7934C6.49335 15.2459 7.46521 16.5128 8.80232 17.3603C9.84914 18.0232 11.0299 18.3699 12.2054 18.3699ZM17.1764 15.2741C14.7941 18.6134 11.3394 18.5948 8.97085 17.0934C6.65656 15.6265 5.06054 12.4531 7.02128 8.9495C9.36587 5.49268 12.9588 5.52086 15.306 7.01109C17.6762 8.5162 19.2716 11.7433 17.1764 15.2741Z" fill="#293856"/>
<path d="M16.2983 16.5662C9.99709 20.0735 4.90863 12.6952 9.72382 8.6116C15.3955 4.36474 21.4654 11.3592 16.2983 16.5662Z" fill="#280052"/>
<path d="M18.0649 12.3379C17.9278 18.8544 8.59565 19.1622 7.74341 13.1843C10.6409 16.7666 16.2392 15.447 18.0649 12.3379Z" fill="#14002D"/>
<path d="M12.7044 18.2261C13.0968 18.2261 13.4876 18.1819 13.8693 18.0921C15.2606 17.7646 16.4957 16.8512 17.4404 15.4498C17.4404 15.4492 17.4409 15.4492 17.4409 15.4487C18.987 13.1179 18.8286 9.25068 16.1278 7.2086C16.1203 7.20328 16.1129 7.1985 16.1049 7.19425C14.6317 6.43186 12.8241 6.33722 11.1462 6.9348C9.47358 7.53025 8.13913 8.73711 7.48414 10.2465C6.88762 11.7239 6.8722 13.2349 7.43841 14.6199C7.95146 15.8751 8.90471 16.923 10.1227 17.5705C10.9383 18.0038 11.8262 18.2261 12.7044 18.2261ZM17.1757 15.2717C15.0926 18.3606 12.1552 18.2888 10.2727 17.2882C8.10936 16.1388 6.55746 13.3928 7.77814 10.3693C8.39645 8.94445 9.66339 7.80086 11.253 7.23465C12.8437 6.66844 14.5535 6.75457 15.9465 7.47071C18.4931 9.40699 18.6393 13.0642 17.1757 15.2717Z" fill="#280052"/>
<path d="M13.014 17.6502C14.1167 17.6502 15.2603 17.3333 16.3789 16.7107C16.3922 16.7033 16.4049 16.6937 16.4156 16.6826C17.6575 15.431 18.3487 13.9844 18.4156 12.4995C18.4752 11.1698 18.0275 9.88537 17.1551 8.88267C16.3028 7.90283 15.129 7.29196 13.8509 7.16277C12.4292 7.01869 10.9677 7.47432 9.62527 8.47967C9.62262 8.4818 9.61996 8.48393 9.6173 8.48605C8.49338 9.43931 7.8235 10.6329 7.68102 11.937C7.55182 13.1178 7.86816 14.3279 8.57154 15.3433C9.3334 16.4433 10.4717 17.2137 11.7763 17.5119C12.1799 17.6039 12.594 17.6502 13.014 17.6502ZM16.1976 16.4332C12.9662 18.2206 10.1766 17.0808 8.84268 15.1546C7.63157 13.406 7.46729 10.7451 9.82677 8.74072C12.6589 6.62261 15.4224 7.39457 16.9057 9.09905C18.3805 10.7945 18.7857 13.8106 16.1976 16.4332Z" fill="#280052"/>
<path d="M5.14814 13.1331C5.46819 16.0115 8.38006 15.9333 8.35135 13.1544C8.12699 10.1255 5.01416 10.2085 5.14814 13.1331Z" fill="white"/>
<g opacity="0.35">
<path d="M6.9109 15.2741C7.78387 15.2571 8.45482 14.2161 8.34211 13.0087C7.75038 14.2491 6.4994 12.124 6.42709 11.5254C4.16969 12.0119 5.30796 15.34 6.9109 15.2741Z" fill="#371A45"/>
</g>
<path d="M6.8694 15.4304C6.89705 15.4304 6.92469 15.4293 6.95234 15.4277C7.74132 15.3798 8.53082 14.6579 8.5154 13.1528C8.5154 13.149 8.5154 13.1458 8.51487 13.1421C8.39312 11.5004 7.4287 10.6949 6.5419 10.7486C5.74017 10.7965 4.91026 11.5658 4.98203 13.1411C4.98203 13.1448 4.98256 13.148 4.98309 13.1517C5.15854 14.7318 6.06714 15.4304 6.8694 15.4304ZM8.18525 13.1613C8.19641 14.4463 7.56481 15.0598 6.93214 15.0981C6.26491 15.1385 5.47062 14.5366 5.31166 13.1203C5.25158 11.7726 5.91721 11.117 6.56157 11.0782C7.28728 11.0346 8.07785 11.7364 8.18525 13.1613Z" fill="#280052"/>
<path d="M5.02883 13.2897C5.2904 15.622 7.47284 15.6002 7.45051 13.3524C7.27773 10.8696 4.90602 10.8956 5.02883 13.2897Z" fill="white"/>
<path d="M6.35601 15.2031C6.37674 15.2031 6.39695 15.2026 6.41715 15.2015C7.0227 15.1648 7.62826 14.5779 7.61603 13.3508C7.61603 13.3476 7.61603 13.3444 7.6155 13.3413C7.5198 11.9643 6.75954 11.2875 6.05988 11.3289C5.43731 11.3667 4.79773 11.9988 4.86472 13.2982C4.86472 13.3014 4.86525 13.3051 4.86578 13.3083C5.01252 14.6215 5.72919 15.2031 6.35601 15.2031ZM7.28587 13.3588C7.29438 14.3658 6.84619 14.8442 6.39695 14.8719C5.90729 14.9022 5.32354 14.4147 5.19381 13.2759C5.14065 12.2046 5.61488 11.6862 6.07955 11.6586C6.61812 11.6261 7.20347 12.1993 7.28587 13.3588Z" fill="#280052"/>
<g opacity="0.4">
<path d="M8.95432 11.9261C9.24194 13.1111 10.5939 12.8044 10.5179 11.7384C10.3457 10.3992 8.74697 10.7341 8.95432 11.9261Z" fill="white"/>
</g>
<g opacity="0.4">
<path d="M9.59803 13.7946C9.73414 14.2411 10.328 14.1189 10.2249 13.6196C10.0887 13.173 9.49489 13.2953 9.59803 13.7946Z" fill="white"/>
</g>
<g opacity="0.4">
<path d="M17.0799 12.5251C17.9412 8.52225 13.7831 7.81303 12.4779 8.61317C15.1495 8.91568 16.2627 10.6234 17.0799 12.5251Z" fill="white"/>
</g>
<g opacity="0.35">
<path d="M7.54491 13.8819C7.60126 13.5565 7.5683 13.2146 7.46675 12.8988C6.98454 14.4481 5.43849 13.6873 5.12216 12.5469C4.67238 14.8495 6.98135 16.0361 7.54491 13.8819Z" fill="#371A45"/>
</g>
</svg>
