<svg width="45" height="45" viewBox="0 0 45 45" fill="none" xmlns="http://www.w3.org/2000/svg">
<circle cx="22.5" cy="22.5" r="21.5" stroke="#5634DE" stroke-width="2"/>
<path d="M29.7442 19.5481C29.7549 19.7027 29.7549 19.8573 29.7549 20.0134C29.7549 24.7684 26.1351 30.2523 19.516 30.2523V30.2495C17.5607 30.2523 15.646 29.6922 14 28.6362C14.2843 28.6704 14.5701 28.6875 14.8565 28.6882C16.4769 28.6896 18.051 28.1459 19.3257 27.1448C17.7859 27.1156 16.4356 26.1116 15.9638 24.6458C16.5033 24.7498 17.0591 24.7285 17.5885 24.5838C15.9097 24.2446 14.7019 22.7696 14.7019 21.0566V21.011C15.2021 21.2896 15.7622 21.4442 16.3351 21.4613C14.7539 20.4046 14.2665 18.3011 15.2213 16.6565C17.0484 18.9046 19.744 20.2713 22.6378 20.416C22.3478 19.1661 22.7439 17.8564 23.6788 16.9778C25.1282 15.6154 27.4077 15.6852 28.7702 17.1339C29.5761 16.975 30.3485 16.6793 31.0554 16.2603C30.7867 17.0933 30.2245 17.8009 29.4735 18.2505C30.1867 18.1664 30.8836 17.9754 31.5399 17.684C31.0568 18.408 30.4483 19.0386 29.7442 19.5481Z" fill="#5634DE"/>
</svg>
