<svg width="77" height="77" viewBox="0 0 77 77" fill="none" xmlns="http://www.w3.org/2000/svg">
<circle cx="38.0921" cy="38.0921" r="38.0921" fill="#5634DE"/>
<path d="M50.3578 33.0945C50.3759 33.3563 50.3759 33.618 50.3759 33.8822C50.3759 41.9323 44.2476 51.2165 33.0416 51.2165V51.2117C29.7313 51.2165 26.4898 50.2683 23.7031 48.4805C24.1845 48.5384 24.6682 48.5673 25.1532 48.5686C27.8965 48.571 30.5613 47.6505 32.7195 45.9556C30.1126 45.9061 27.8265 44.2063 27.0279 41.7248C27.9411 41.901 28.8821 41.8648 29.7784 41.6199C26.9362 41.0456 24.8914 38.5485 24.8914 35.6483V35.5711C25.7383 36.0428 26.6865 36.3046 27.6564 36.3336C24.9795 34.5445 24.1543 30.9833 25.7708 28.199C28.864 32.0051 33.4277 34.3189 38.3267 34.5638C37.8357 32.4479 38.5065 30.2306 40.0892 28.7431C42.543 26.4365 46.4021 26.5547 48.7087 29.0073C50.0731 28.7383 51.3808 28.2376 52.5775 27.5283C52.1227 28.9385 51.1709 30.1365 49.8994 30.8977C51.107 30.7553 52.2868 30.432 53.3979 29.9386C52.58 31.1643 51.5497 32.2319 50.3578 33.0945Z" fill="white"/>
</svg>
