<svg width="18" height="15" viewBox="0 0 18 15" fill="none" xmlns="http://www.w3.org/2000/svg">
<path d="M15.9742 3.9221C15.9849 4.07673 15.9849 4.23135 15.9849 4.38741C15.9849 9.14239 12.3651 14.6263 5.74599 14.6263V14.6235C3.79069 14.6263 1.87602 14.0662 0.22998 13.0102C0.514296 13.0444 0.800037 13.0615 1.08649 13.0622C2.70687 13.0637 4.28094 12.52 5.55573 11.5188C4.01587 11.4896 2.66555 10.4856 2.19382 9.01982C2.73324 9.12386 3.28904 9.10248 3.81848 8.95783C2.13967 8.61865 0.931862 7.14363 0.931862 5.43061V5.385C1.43209 5.66362 1.99217 5.81825 2.56507 5.83535C0.98388 4.77861 0.496482 2.6751 1.45133 1.03049C3.27836 3.27865 5.97401 4.64536 8.86776 4.79001C8.57774 3.54016 8.97393 2.23046 9.90882 1.35186C11.3582 -0.0105775 13.6377 0.0592544 15.0001 1.50791C15.8061 1.34901 16.5785 1.05329 17.2853 0.634299C17.0167 1.46729 16.4545 2.17488 15.7034 2.62451C16.4167 2.54042 17.1136 2.34945 17.7699 2.05801C17.2868 2.78199 16.6782 3.41261 15.9742 3.9221Z" fill="white"/>
</svg>
