<svg width="146" height="126" viewBox="0 0 146 126" fill="none" xmlns="http://www.w3.org/2000/svg">
<path d="M11.0095 105.118L62.3436 18.111C67.131 9.99683 78.869 9.99683 83.6564 18.111L134.991 105.118C139.857 113.366 133.911 123.778 124.334 123.778H21.6659C12.0893 123.778 6.14315 113.366 11.0095 105.118Z" fill="#FF6A6A" fill-opacity="0.85"/>
<path d="M65.7289 44.8066V53.6938L67.1508 93.2418H76.749L78.171 53.6938V44.8066H65.7289ZM65.64 100.885C65.64 103.018 66.1732 104.647 67.2397 105.773C68.3062 106.898 69.8762 107.461 71.9499 107.461C74.0236 107.461 75.5937 106.898 76.6601 105.773C77.7266 104.647 78.2598 103.047 78.2598 100.974C78.2598 98.7815 77.7266 97.1226 76.6601 95.9968C75.5937 94.8119 74.0236 94.2194 71.9499 94.2194C69.8762 94.2194 68.3062 94.7823 67.2397 95.908C66.1732 97.0337 65.64 98.6926 65.64 100.885Z" fill="white"/>
</svg>
