<svg width="19" height="19" viewBox="0 0 19 19" fill="none" xmlns="http://www.w3.org/2000/svg">
<path d="M14.5783 18.1197C14.3983 18.1197 14.2179 18.0763 14.0531 17.9896L9.44124 15.5572L4.83044 17.9896C4.45113 18.1915 3.98974 18.1576 3.64082 17.9046C3.29427 17.6502 3.11931 17.2207 3.19159 16.796L4.07183 11.6467L0.341533 7.99996C0.0331545 7.6985 -0.0776359 7.24936 0.0554464 6.83844C0.188529 6.42858 0.542163 6.12949 0.966728 6.06785L6.12374 5.31622L8.42863 0.631722C8.61878 0.245242 9.01194 0 9.44125 0C9.87224 0 10.2644 0.244895 10.4549 0.631722L12.7594 5.31622L17.9165 6.06785C18.342 6.1295 18.6947 6.42859 18.8288 6.83844C18.9605 7.24864 18.8507 7.6988 18.543 7.99996L14.8107 11.6467L15.6919 16.796C15.7646 17.2207 15.5906 17.6502 15.243 17.9033C15.0451 18.0469 14.8127 18.1197 14.5783 18.1197Z" fill="#FFB516"/>
</svg>
