<?xml version="1.0" standalone="no"?>
<!DOCTYPE svg PUBLIC "-//W3C//DTD SVG 1.1//EN" "http://www.w3.org/Graphics/SVG/1.1/DTD/svg11.dtd" >
<svg xmlns="http://www.w3.org/2000/svg" xmlns:xlink="http://www.w3.org/1999/xlink" version="1.1">
<metadata>
Created by FontForge 20170731 at Thu Aug 19 16:44:14 2021
 By Aleksey,,,
Copyright (c) 2004 The Hoefler Type Foundry, Inc., dba Hoefler &#38; Frere-Jones. All Rights Reserved.
</metadata>
<defs>
<font id="GothamRounded-Bold" horiz-adv-x="1024" >
  <font-face 
    font-family="Gotham Rounded Bold"
    font-weight="400"
    font-stretch="normal"
    units-per-em="2048"
    panose-1="2 0 0 0 0 0 0 0 0 0"
    ascent="1638"
    descent="-410"
    x-height="1098"
    cap-height="1446"
    bbox="-123 -608 2447 2226"
    underline-thickness="102"
    underline-position="-307"
    unicode-range="U+0020-2212"
  />
<missing-glyph 
d="M0 -410v2048h1024v-2048h-1024zM145 1536l367 -799l367 799h-734zM102 -156l353 770l-353 770v-1540zM922 1384l-353 -770l353 -770v1540zM512 492l-367 -799h734z" />
    <glyph glyph-name="f_f" unicode="ff" horiz-adv-x="1564" 
d="M193 143v688h-13q-54 0 -91.5 36.5t-37.5 90.5t37.5 91.5t91.5 37.5h13v70q0 178 88 266q86 86 251 86q80 0 127 -8q43 -6 75 -40.5t32 -84.5q0 -53 -37.5 -91t-89.5 -38h-27q-112 0 -112 -119v-43h135q54 0 91.5 -36.5t37.5 -90.5t-37.5 -90.5t-91.5 -36.5h-131v-688
q0 -64 -45.5 -109.5t-110.5 -45.5q-64 0 -109.5 45t-45.5 110zM975 143v688h-12q-54 0 -91.5 36.5t-37.5 90.5t37.5 91.5t91.5 37.5h12v70q0 178 88 266q86 86 252 86q80 0 127 -8q43 -6 74.5 -40.5t31.5 -84.5q0 -53 -37.5 -91t-89.5 -38h-26q-113 0 -113 -119v-43h135
q54 0 91.5 -36.5t37.5 -90.5t-37.5 -90.5t-91.5 -36.5h-131v-688q0 -64 -45.5 -109.5t-110.5 -45.5q-64 0 -109.5 45t-45.5 110z" />
    <glyph glyph-name="fi" unicode="fi" horiz-adv-x="1400" 
d="M193 143v688h-13q-54 0 -91.5 36.5t-37.5 90.5t37.5 91.5t91.5 37.5h13v70q0 178 88 266q86 86 251 86q80 0 127 -8q43 -6 75 -40.5t32 -84.5q0 -53 -37.5 -91t-89.5 -38h-27q-112 0 -112 -119v-43h135q54 0 91.5 -36.5t37.5 -90.5t-37.5 -90.5t-91.5 -36.5h-131v-688
q0 -64 -45.5 -109.5t-110.5 -45.5q-64 0 -109.5 45t-45.5 110zM936 143v811q0 64 46 110t110 46t109.5 -45.5t45.5 -110.5v-811q0 -65 -45.5 -110t-109.5 -45q-65 0 -110.5 45.5t-45.5 109.5zM918 1356v4q0 66 49.5 105.5t124.5 39.5t124.5 -39.5t49.5 -105.5v-4
q0 -66 -49.5 -107t-124.5 -41t-124.5 41t-49.5 107z" />
    <glyph glyph-name="fl" unicode="fl" horiz-adv-x="1400" 
d="M193 143v688h-13q-54 0 -91.5 36.5t-37.5 90.5t37.5 91.5t91.5 37.5h13v70q0 178 88 266q86 86 251 86q80 0 127 -8q43 -6 75 -40.5t32 -84.5q0 -53 -37.5 -91t-89.5 -38h-27q-112 0 -112 -119v-43h135q54 0 91.5 -36.5t37.5 -90.5t-37.5 -90.5t-91.5 -36.5h-131v-688
q0 -64 -45.5 -109.5t-110.5 -45.5q-64 0 -109.5 45t-45.5 110zM936 143v1209q0 64 45.5 109.5t110.5 45.5q64 0 109.5 -45.5t45.5 -109.5v-1209q0 -65 -45.5 -110t-109.5 -45q-65 0 -110.5 45.5t-45.5 109.5z" />
    <glyph glyph-name="f_f_i" unicode="ffi" horiz-adv-x="2183" 
d="M193 143v688h-13q-54 0 -91.5 36.5t-37.5 90.5t37.5 91.5t91.5 37.5h13v70q0 178 88 266q86 86 251 86q80 0 127 -8q43 -6 75 -40.5t32 -84.5q0 -53 -37.5 -91t-89.5 -38h-27q-112 0 -112 -119v-43h135q54 0 91.5 -36.5t37.5 -90.5t-37.5 -90.5t-91.5 -36.5h-131v-688
q0 -64 -45.5 -109.5t-110.5 -45.5q-64 0 -109.5 45t-45.5 110zM975 143v688h-12q-54 0 -91.5 36.5t-37.5 90.5t37.5 91.5t91.5 37.5h12v70q0 178 88 266q86 86 252 86q80 0 127 -8q43 -6 74.5 -40.5t31.5 -84.5q0 -53 -37.5 -91t-89.5 -38h-26q-113 0 -113 -119v-43h135
q54 0 91.5 -36.5t37.5 -90.5t-37.5 -90.5t-91.5 -36.5h-131v-688q0 -64 -45.5 -109.5t-110.5 -45.5q-64 0 -109.5 45t-45.5 110zM1718 143v811q0 64 46 110t110 46t110 -46t46 -110v-811q0 -64 -45.5 -109.5t-110.5 -45.5t-110.5 45.5t-45.5 109.5zM1700 1356v4
q0 66 49.5 105.5t124.5 39.5t124.5 -39.5t49.5 -105.5v-4q0 -66 -49.5 -107t-124.5 -41t-124.5 41t-49.5 107z" />
    <glyph glyph-name="f_f_l" unicode="ffl" horiz-adv-x="2183" 
d="M193 143v688h-13q-54 0 -91.5 36.5t-37.5 90.5t37.5 91.5t91.5 37.5h13v70q0 178 88 266q86 86 251 86q80 0 127 -8q43 -6 75 -40.5t32 -84.5q0 -53 -37.5 -91t-89.5 -38h-27q-112 0 -112 -119v-43h135q54 0 91.5 -36.5t37.5 -90.5t-37.5 -90.5t-91.5 -36.5h-131v-688
q0 -64 -45.5 -109.5t-110.5 -45.5q-64 0 -109.5 45t-45.5 110zM975 143v688h-12q-54 0 -91.5 36.5t-37.5 90.5t37.5 91.5t91.5 37.5h12v70q0 178 88 266q86 86 252 86q80 0 127 -8q43 -6 74.5 -40.5t31.5 -84.5q0 -53 -37.5 -91t-89.5 -38h-26q-113 0 -113 -119v-43h135
q54 0 91.5 -36.5t37.5 -90.5t-37.5 -90.5t-91.5 -36.5h-131v-688q0 -64 -45.5 -109.5t-110.5 -45.5q-64 0 -109.5 45t-45.5 110zM1718 143v1209q0 64 45.5 109.5t110.5 45.5t110.5 -45.5t45.5 -109.5v-1209q0 -64 -45.5 -109.5t-110.5 -45.5t-110.5 45.5t-45.5 109.5z" />
    <glyph glyph-name=".notdef" 
d="M0 -410v2048h1024v-2048h-1024zM145 1536l367 -799l367 799h-734zM102 -156l353 770l-353 770v-1540zM922 1384l-353 -770l353 -770v1540zM512 492l-367 -799h734z" />
    <glyph glyph-name=".null" horiz-adv-x="0" 
 />
    <glyph glyph-name="nonmarkingreturn" horiz-adv-x="682" 
 />
    <glyph glyph-name="space" unicode=" " horiz-adv-x="614" 
 />
    <glyph glyph-name="exclam" unicode="!" horiz-adv-x="663" 
d="M238 565l-88 770q-5 45 17.5 75t63.5 30h201q41 0 64 -30t18 -75l-88 -770q-4 -41 -30 -65.5t-64 -24.5t-64 24.5t-30 65.5zM154 166q0 74 51 124t127 50t127 -50t51 -124v-4q0 -74 -51 -124t-127 -50t-127 50t-51 124v4z" />
    <glyph glyph-name="quotedbl" unicode="&#x22;" horiz-adv-x="1064" 
d="M604 862l25 438q3 60 42.5 101t100.5 41h98q34 0 57 -23t23 -59q0 -22 -6 -43l-164 -473q-27 -76 -90 -76q-37 0 -62 26.5t-24 67.5zM121 862l24 438q3 60 43 101t101 41h98q34 0 57 -23t23 -59q0 -22 -6 -43l-164 -473q-27 -76 -90 -76q-37 0 -62 26.5t-24 67.5z" />
    <glyph glyph-name="numbersign" unicode="#" horiz-adv-x="1433" 
d="M209 141l29 166h-48q-54 0 -92.5 38.5t-38.5 92.5t38.5 92.5t92.5 38.5h93l51 303h-72q-54 0 -92.5 39t-38.5 93t38.5 92.5t92.5 38.5h117l35 202q7 49 44 79t87 30q60 0 100 -47.5t31 -106.5l-27 -157h277l35 202q7 49 44 79t87 30q60 0 100 -47.5t31 -106.5l-27 -157
h47q54 0 92.5 -38.5t38.5 -92.5t-38.5 -93t-92.5 -39h-92l-51 -303h71q54 0 93 -38.5t39 -92.5t-39 -92.5t-93 -38.5h-116l-37 -211q-7 -47 -44 -77.5t-87 -30.5q-60 0 -100.5 47.5t-30.5 105.5l28 166h-276l-37 -211q-8 -44 -43 -76t-88 -32q-61 0 -101 45t-30 108z
M553 569h276l52 303h-277z" />
    <glyph glyph-name="dollar" unicode="$" horiz-adv-x="1323" 
d="M573 1458q0 44 31.5 75.5t75.5 31.5t75 -31.5t31 -75.5v-28q161 -23 297 -99q74 -44 74 -123q0 -58 -40 -97.5t-99 -39.5q-36 0 -72 19q-89 48 -170 69v-311q235 -63 340 -166t105 -274q0 -169 -119 -276.5t-316 -129.5v-108q0 -44 -31 -75.5t-75 -31.5t-75.5 31.5
t-31.5 75.5v110q-212 26 -403 143q-70 44 -70 123q0 60 41 100t101 40q38 0 80 -27q139 -89 262 -115v326q-230 62 -335.5 160.5t-105.5 275.5q0 167 117 275.5t313 128.5v24zM922 391q0 53 -32.5 88.5t-113.5 63.5v-285q146 21 146 133zM442 1049q0 -50 30.5 -84.5
t111.5 -63.5v277q-71 -10 -106.5 -44t-35.5 -85z" />
    <glyph glyph-name="percent" unicode="%" horiz-adv-x="1761" 
d="M438 717q-153 0 -249.5 104t-96.5 258v4q0 155 98 261t252 106q153 0 249.5 -104.5t96.5 -258.5v-4q0 -154 -98 -260t-252 -106zM322 84q0 33 22 66l916 1253q29 43 83 43q40 0 68.5 -28t28.5 -68q0 -36 -23 -66l-915 -1253q-29 -43 -84 -43q-40 0 -68 28t-28 68z
M1319 -16q-153 0 -249.5 104t-96.5 258v4q0 155 98 261t252 106q153 0 249.5 -104.5t96.5 -258.5v-4q0 -154 -98 -260t-252 -106zM442 903q62 0 96.5 51.5t34.5 124.5v4q0 75 -37.5 128t-97.5 53q-62 0 -96.5 -51t-34.5 -126v-4q0 -74 37.5 -127t97.5 -53zM1323 170
q62 0 96.5 51.5t34.5 124.5v4q0 74 -37.5 127t-97.5 53q-62 0 -96.5 -50.5t-34.5 -125.5v-4q0 -74 37.5 -127t97.5 -53z" />
    <glyph glyph-name="ampersand" unicode="&#x26;" horiz-adv-x="1425" 
d="M1202 -20q-59 0 -104 45l-121 120q-193 -165 -426 -165q-209 0 -345 113t-136 300v4q0 267 278 394q-100 136 -100 286v4q0 74 29.5 142t83.5 120.5t137.5 83.5t183.5 31q180 0 291.5 -103t111.5 -257v-4q0 -256 -299 -375l189 -187q37 55 94 156q13 27 44.5 49.5
t72.5 22.5q54 0 92.5 -38.5t38.5 -92.5q0 -34 -19 -66q-59 -103 -137 -215l131 -129q47 -47 47 -102q0 -59 -39.5 -98t-97.5 -39zM621 885q98 37 144 80.5t46 109.5v4q0 61 -37 97t-98 36q-63 0 -101 -40t-38 -105v-4q0 -46 19 -86t65 -92zM588 238q102 0 209 86l-275 276
q-135 -72 -135 -190v-4q0 -75 56.5 -121.5t144.5 -46.5z" />
    <glyph glyph-name="quotesingle" unicode="'" horiz-adv-x="585" 
d="M121 862l24 438q3 60 43 101t101 41h98q35 0 59.5 -23t24.5 -59q0 -22 -6 -43l-164 -473q-27 -76 -94 -76q-38 0 -62.5 26.5t-23.5 67.5z" />
    <glyph glyph-name="parenleft" unicode="(" horiz-adv-x="911" 
d="M705 -272q-47 0 -74 16q-256 154 -383 361t-127 483t127 483t383 361q27 16 74 16q45 0 81.5 -39.5t36.5 -87.5q0 -67 -51 -102q-180 -135 -261 -282.5t-81 -348.5q0 -202 81 -349t261 -282q51 -35 51 -102q0 -48 -36.5 -87.5t-81.5 -39.5z" />
    <glyph glyph-name="parenright" unicode=")" horiz-adv-x="911" 
d="M207 -272q-45 0 -82 39.5t-37 87.5q0 67 51 102q180 135 261 282.5t81 348.5q0 202 -81 349t-261 282q-51 35 -51 102q0 48 37 87.5t82 39.5q47 0 74 -16q256 -154 383 -361t127 -483t-127 -483t-383 -361q-27 -16 -74 -16z" />
    <glyph glyph-name="asterisk" unicode="*" horiz-adv-x="880" 
d="M367 840l22 168l-139 -107q-30 -24 -60 -24q-32 0 -54.5 23.5t-22.5 55.5q0 26 16 46t39 28l166 70l-166 69q-24 9 -39.5 29t-15.5 47q0 32 24 55t56 23q26 0 57 -25l139 -106l-22 166q-5 39 16 65.5t57 26.5q37 0 58 -26t16 -64l-22 -168l139 106q31 25 59 25
q32 0 55 -24t23 -56q0 -51 -55 -74l-166 -69l166 -70q24 -9 39.5 -29t15.5 -47q0 -32 -23.5 -54.5t-56.5 -22.5q-27 0 -57 24l-139 107l22 -166q5 -39 -16.5 -65.5t-57.5 -26.5t-57 25.5t-16 64.5z" />
    <glyph glyph-name="plus" unicode="+" horiz-adv-x="1310" 
d="M510 344v236h-242q-58 0 -99.5 41t-41.5 100t41.5 100t99.5 41h242v236q0 60 42.5 102.5t102.5 42.5t103 -42.5t43 -102.5v-236h241q59 0 100.5 -41.5t41.5 -99.5t-41.5 -99.5t-100.5 -41.5h-241v-236q0 -60 -43 -102.5t-103 -42.5t-102.5 42.5t-42.5 102.5z" />
    <glyph glyph-name="comma" unicode="," horiz-adv-x="585" 
d="M39 -262q0 53 61 67q78 19 119.5 70t38.5 125q-58 15 -100.5 60.5t-42.5 107.5v4q0 73 47 120.5t123 47.5q86 0 134 -61.5t48 -167.5v-9q0 -214 -121 -335q-45 -45 -108 -72t-121 -27q-39 0 -58.5 20t-19.5 50z" />
    <glyph glyph-name="hyphen" unicode="-" horiz-adv-x="835" 
d="M240 485q-62 0 -106 44.5t-44 105.5t44 105t106 44h356q62 0 105.5 -44t43.5 -105q0 -62 -44 -106t-105 -44h-356z" />
    <glyph glyph-name="period" unicode="." horiz-adv-x="585" 
d="M115 166q0 74 51 124t127 50t127 -50t51 -124v-4q0 -74 -51 -124t-127 -50t-127 50t-51 124v4z" />
    <glyph glyph-name="slash" unicode="/" horiz-adv-x="1085" 
d="M6 -158q0 27 14 60l801 1673q35 72 109 72q49 0 85 -35.5t36 -81.5q0 -25 -15 -60l-800 -1673q-35 -71 -109 -71q-49 0 -85 35t-36 81z" />
    <glyph glyph-name="zero" unicode="0" horiz-adv-x="1495" 
d="M745 -25q-141 0 -260.5 57t-201 156t-127 234.5t-45.5 290.5v4q0 207 79.5 375.5t226 267t333.5 98.5q186 0 331.5 -97.5t224 -265t78.5 -374.5v-4q0 -207 -79 -376t-226 -267.5t-334 -98.5zM750 260q140 0 225.5 127.5t85.5 325.5v4q0 197 -88 327t-228 130t-225.5 -127
t-85.5 -326v-4q0 -199 87.5 -328t228.5 -129z" />
    <glyph glyph-name="one" unicode="1" horiz-adv-x="864" 
d="M365 143v992l-111 -29q-32 -8 -55 -8q-56 0 -97 40t-41 95q0 47 29 84t76 51l203 59q100 27 147 27h4q64 0 110 -46t46 -110v-1155q0 -64 -45.5 -109.5t-110.5 -45.5q-64 0 -109.5 45t-45.5 110z" />
    <glyph glyph-name="two" unicode="2" horiz-adv-x="1275" 
d="M88 150q0 90 82 157l408 334q94 77 144.5 128.5t76.5 104t26 111.5q0 89 -52.5 137.5t-139.5 48.5q-66 0 -119 -29t-115 -95q-40 -46 -106 -46q-60 0 -101.5 42t-41.5 102q0 56 36 98q91 105 201 158t266 53q223 0 358.5 -120.5t135.5 -321.5v-4q0 -71 -16 -131.5
t-42.5 -109.5t-77.5 -103.5t-103 -99.5t-138 -111l-233 -181h499q57 0 97.5 -40t40.5 -97t-40.5 -96t-97.5 -39h-778q-75 0 -122.5 40.5t-47.5 109.5z" />
    <glyph glyph-name="three" unicode="3" horiz-adv-x="1271" 
d="M637 -25q-283 0 -475 164q-53 46 -53 113q0 62 44.5 106.5t106.5 44.5q52 0 100 -38q125 -107 281 -107q90 0 146.5 47.5t56.5 126.5v4q0 87 -74 134.5t-207 47.5h-49q-55 0 -95 40t-40 96q0 62 67 129l279 280h-440q-55 0 -95 39.5t-40 95.5t40 96t95 40h698
q70 0 115 -38t45 -102q0 -54 -22.5 -91t-71.5 -85l-281 -268q79 -13 143.5 -40t121 -72.5t88.5 -119t32 -169.5v-5q0 -206 -140.5 -337.5t-375.5 -131.5z" />
    <glyph glyph-name="four" unicode="4" horiz-adv-x="1411" 
d="M815 137v172h-590q-64 0 -108.5 42t-44.5 104q0 87 73 172l623 723q48 57 90 81.5t107 24.5q63 0 107 -43t44 -106v-742h76q54 0 91.5 -37.5t37.5 -91.5t-37.5 -90.5t-91.5 -36.5h-76v-172q0 -63 -44 -106t-107 -43t-106.5 43t-43.5 106zM434 565h381v447z" />
    <glyph glyph-name="five" unicode="5" horiz-adv-x="1290" 
d="M635 -25q-260 0 -451 136q-63 46 -63 120q0 62 44 107t105 45q46 0 86 -29q129 -92 273 -92q102 0 166.5 53t64.5 146v4q0 91 -69.5 142.5t-184.5 51.5q-70 0 -137.5 -18t-79.5 -18q-33 0 -63.5 14t-79.5 49q-64 46 -58 127l29 485q3 57 42.5 96.5t96.5 39.5h623
q57 0 98 -41.5t41 -98.5t-41 -97t-98 -40h-483l-17 -248q102 25 189 25q109 0 198 -26.5t158 -81t107 -144t38 -207.5v-4q0 -225 -148 -360.5t-386 -135.5z" />
    <glyph glyph-name="six" unicode="6" horiz-adv-x="1355" 
d="M694 -25q-259 0 -413 154q-83 83 -126.5 211t-43.5 332v4q0 134 24 251t74 215t123.5 168t177 109t229.5 39q201 0 346 -86q82 -49 82 -135q0 -61 -43.5 -103t-105.5 -42q-36 0 -78 22q-102 57 -211 57q-128 0 -200.5 -90.5t-88.5 -240.5q67 43 134.5 67.5t162.5 24.5
q222 0 363 -120t141 -337v-4q0 -218 -156 -357t-391 -139zM682 246q115 0 180.5 58.5t65.5 152.5v4q0 92 -67.5 150.5t-182.5 58.5t-180.5 -57t-65.5 -150v-4q0 -93 67.5 -153t182.5 -60z" />
    <glyph glyph-name="seven" unicode="7" horiz-adv-x="1267" 
d="M252 129q0 45 29 98l532 934h-549q-57 0 -97 39t-40 96t40 97.5t97 40.5h778q67 0 105.5 -37.5t38.5 -104.5q0 -71 -45 -153l-576 -1045q-57 -106 -151 -106q-67 0 -114.5 38t-47.5 103z" />
    <glyph glyph-name="eight" unicode="8" horiz-adv-x="1290" 
d="M645 -20q-241 0 -397 114t-156 299v4q0 127 57.5 209.5t174.5 136.5q-89 55 -136 129.5t-47 184.5v4q0 167 140.5 280t363.5 113q224 0 364 -112.5t140 -280.5v-4q0 -110 -46.5 -185t-135.5 -129q116 -61 173.5 -138.5t57.5 -198.5v-5q0 -195 -154.5 -308t-398.5 -113z
M645 848q92 0 148.5 49t56.5 125v4q0 69 -56 118.5t-149 49.5t-149 -48.5t-56 -117.5v-4q0 -76 56.5 -126t148.5 -50zM645 240q114 0 181 50.5t67 127.5v4q0 82 -69 129t-179 47t-179 -47t-69 -129v-4q0 -76 67 -127t181 -51z" />
    <glyph glyph-name="nine" unicode="9" horiz-adv-x="1355" 
d="M618 -25q-213 0 -378 103q-74 46 -74 129q0 61 43.5 102t105.5 41q39 0 82 -24q110 -64 230 -64q128 0 201.5 88t89.5 238q-117 -99 -291 -99q-235 0 -373.5 123.5t-138.5 339.5v4q0 218 153 360t394 142q143 0 236.5 -36t176.5 -119q82 -82 126 -211t44 -330v-4
q0 -234 -70.5 -409t-213.5 -274.5t-343 -99.5zM678 752q115 0 180.5 59.5t65.5 153.5v4q0 97 -68 158t-184 61q-115 0 -179.5 -60t-64.5 -157v-4q0 -97 67 -156t183 -59z" />
    <glyph glyph-name="colon" unicode=":" horiz-adv-x="606" 
d="M125 936q0 74 51 124t127 50t127 -50t51 -124v-4q0 -74 -51 -124t-127 -50t-127 50t-51 124v4zM125 166q0 74 51 124t127 50t127 -50t51 -124v-4q0 -74 -51 -124t-127 -50t-127 50t-51 124v4z" />
    <glyph glyph-name="semicolon" unicode=";" horiz-adv-x="606" 
d="M125 936q0 74 51 124t127 50t127 -50t51 -124v-4q0 -74 -51 -124t-127 -50t-127 50t-51 124v4zM49 -262q0 53 62 67q78 19 119 70t38 125q-58 15 -100.5 60.5t-42.5 107.5v4q0 73 47 120.5t123 47.5q86 0 134 -61.5t48 -167.5v-9q0 -214 -121 -335q-45 -45 -108 -72
t-121 -27q-39 0 -58.5 20t-19.5 50z" />
    <glyph glyph-name="less" unicode="&#x3c;" horiz-adv-x="1310" 
d="M1008 190q-28 0 -66 19l-690 328q-125 59 -125 174v20q0 115 125 174l690 328q42 20 76 20q50 2 87.5 -36t37.5 -93q0 -84 -86 -125l-619 -276l619 -277q86 -41 86 -129q0 -57 -39 -93t-96 -34z" />
    <glyph glyph-name="equal" unicode="=" horiz-adv-x="1310" 
d="M279 846q-59 0 -100.5 41.5t-41.5 99.5t41.5 99.5t100.5 41.5h753q59 0 100.5 -41.5t41.5 -99.5t-41.5 -99.5t-100.5 -41.5h-753zM279 313q-59 0 -100.5 41.5t-41.5 100.5q0 58 41.5 99.5t100.5 41.5h753q59 0 100.5 -41.5t41.5 -99.5q0 -59 -42 -100.5t-100 -41.5h-753z
" />
    <glyph glyph-name="greater" unicode="&#x3e;" horiz-adv-x="1310" 
d="M303 1251q30 0 66 -18l690 -328q125 -59 125 -174v-20q0 -115 -125 -174l-690 -328q-44 -21 -76 -21q-50 -2 -87.5 36t-37.5 93q0 84 86 125l618 277l-618 276q-86 41 -86 129q0 57 39 93t96 34z" />
    <glyph glyph-name="question" unicode="?" horiz-adv-x="1114" 
d="M518 475h-16q-43 0 -74 29t-37 71l-20 140q-7 51 18.5 84t75.5 39q134 17 197 60t63 118v4q0 69 -49.5 107t-138.5 38q-128 0 -238 -82q-44 -32 -92 -32q-59 0 -101.5 42.5t-42.5 100.5q0 66 54 111q178 147 426 147q225 0 360 -111.5t135 -312.5v-4q0 -76 -21 -138.5
t-56.5 -106t-88 -77.5t-110 -55t-127.5 -35l-6 -37q-6 -41 -37 -70.5t-74 -29.5zM324 166q0 74 51 124t127 50t127 -50t51 -124v-4q0 -74 -51 -124t-127 -50t-127 50t-51 124v4z" />
    <glyph glyph-name="at" unicode="@" horiz-adv-x="2007" 
d="M1022 -332q-129 0 -249.5 32.5t-220.5 90.5t-183 140.5t-140 180.5t-88.5 213t-31.5 236q0 181 70 346t189.5 286t286 193t351.5 72q183 0 350 -68t285 -179.5t187.5 -259.5t69.5 -304q0 -125 -32 -224t-87.5 -161.5t-129 -95.5t-158.5 -33q-207 0 -313 123
q-137 -123 -304 -123q-161 0 -267.5 108t-106.5 287q0 141 64.5 260t169.5 186.5t224 67.5q181 0 283 -139v2q9 61 42.5 92t86.5 31q56 0 93 -42.5t26 -106.5l-80 -457q-6 -30 -6 -64q0 -57 40 -93t109 -36q113 0 186.5 110.5t73.5 307.5q0 141 -62 273.5t-167.5 233
t-257 161.5t-319.5 61q-136 0 -261.5 -41.5t-224.5 -116.5t-172.5 -175.5t-113 -224.5t-39.5 -257q0 -167 62 -316.5t170 -258.5t262.5 -172.5t332.5 -63.5q142 0 255.5 31t227.5 96q9 6 23 6q15 0 26 -13t11 -28q0 -19 -21 -32q-245 -142 -522 -142zM946 344q98 0 171 85.5
t73 209.5q0 87 -53.5 139.5t-137.5 52.5q-101 0 -173 -83t-72 -205q0 -93 53 -146t139 -53z" />
    <glyph glyph-name="A" unicode="A" horiz-adv-x="1568" 
d="M74 135q0 27 18 68l500 1128q56 125 184 125h19q126 0 182 -125l500 -1128q16 -37 16 -64q0 -63 -43.5 -107t-106.5 -44q-104 0 -151 108l-96 226h-631l-100 -236q-20 -46 -58.5 -72t-87.5 -26q-61 0 -103 42.5t-42 104.5zM582 600h397l-199 473z" />
    <glyph glyph-name="B" unicode="B" horiz-adv-x="1478" 
d="M172 158v1118q0 66 46 112t112 46h508q247 0 374 -127q99 -99 99 -244v-4q0 -203 -189 -309q133 -50 201 -132.5t68 -220.5v-4q0 -192 -144 -292.5t-393 -100.5h-524q-66 0 -112 46t-46 112zM479 854h291q227 0 227 152v4q0 71 -53 109t-153 38h-312v-303zM479 276h375
q107 0 165 39t58 117v4q0 74 -57.5 115t-175.5 41h-365v-316z" />
    <glyph glyph-name="C" unicode="C" horiz-adv-x="1511" 
d="M844 -25q-207 0 -376 98t-264 267t-95 373v4q0 203 94 372t266 269t387 100q283 0 479 -145q62 -47 62 -125q0 -64 -45.5 -109t-110.5 -45q-43 0 -94 31q-136 102 -293 102q-179 0 -297.5 -129.5t-118.5 -316.5v-4q0 -188 117.5 -319.5t298.5 -131.5q95 0 167 28t144 85
q44 35 95 35q60 0 103.5 -43t43.5 -103q0 -66 -53 -112q-102 -89 -223.5 -135t-286.5 -46z" />
    <glyph glyph-name="D" unicode="D" horiz-adv-x="1601" 
d="M172 158v1118q0 66 46 112t112 46h401q166 0 309 -55t242 -150t155 -226.5t56 -281.5v-4q0 -150 -56 -282t-155 -228t-242 -151.5t-309 -55.5h-401q-66 0 -112 46t-46 112zM487 285h244q193 0 312.5 118.5t119.5 309.5v4q0 191 -119.5 311.5t-312.5 120.5h-244v-864z" />
    <glyph glyph-name="E" unicode="E" horiz-adv-x="1372" 
d="M330 0q-66 0 -112 46t-46 112v1118q0 66 46 112t112 46h794q58 0 100 -42t42 -100t-41.5 -98.5t-100.5 -40.5h-639v-291h547q59 0 100.5 -41.5t41.5 -99.5t-41.5 -98.5t-100.5 -40.5h-547v-301h650q58 0 99.5 -41.5t41.5 -100.5q0 -58 -41 -98.5t-100 -40.5h-805z" />
    <glyph glyph-name="F" unicode="F" horiz-adv-x="1343" 
d="M172 145v1131q0 66 46 112t112 46h803q60 0 101.5 -42t41.5 -102t-41.5 -101.5t-101.5 -41.5h-646v-305h553q60 0 102 -42t42 -102t-42 -101.5t-102 -41.5h-553v-410q0 -66 -45.5 -111.5t-111.5 -45.5t-112 45.5t-46 111.5z" />
    <glyph glyph-name="G" unicode="G" horiz-adv-x="1605" 
d="M862 -25q-165 0 -305.5 56t-238.5 154t-153.5 234.5t-55.5 293.5v4q0 151 57 287.5t155.5 236.5t239 158.5t299.5 58.5q157 0 273 -34.5t217 -104.5q65 -48 65 -127q0 -65 -45.5 -110.5t-109.5 -45.5q-50 0 -97 33q-138 98 -313 98q-171 0 -291.5 -131t-120.5 -315v-4
q0 -197 122 -326t312 -129q176 0 297 86v205h-213q-57 0 -97 39t-40 96t40 97t97 40h361q66 0 112 -45.5t46 -111.5v-349q0 -134 -111 -200q-234 -144 -502 -144z" />
    <glyph glyph-name="H" unicode="H" horiz-adv-x="1556" 
d="M172 145v1143q0 66 46 112t112 46t111.5 -46t45.5 -112v-422h582v422q0 66 46 112t112 46t111.5 -46t45.5 -112v-1143q0 -66 -45.5 -111.5t-111.5 -45.5t-112 45.5t-46 111.5v430h-582v-430q0 -66 -45.5 -111.5t-111.5 -45.5t-112 45.5t-46 111.5z" />
    <glyph glyph-name="I" unicode="I" horiz-adv-x="688" 
d="M186 145v1143q0 66 46 112t112 46t112 -46t46 -112v-1143q0 -66 -46 -111.5t-112 -45.5t-112 45.5t-46 111.5z" />
    <glyph glyph-name="J" unicode="J" horiz-adv-x="1155" 
d="M498 -20q-220 0 -379 124q-26 20 -43 53t-17 68q0 63 43.5 107.5t106.5 44.5q50 0 94 -33q97 -72 191 -72q196 0 196 238v778q0 66 46 112t112 46t112 -46t46 -112v-792q0 -247 -136 -383q-133 -133 -372 -133z" />
    <glyph glyph-name="K" unicode="K" horiz-adv-x="1458" 
d="M172 145v1143q0 66 46 112t112 46t111.5 -46t45.5 -112v-481l582 577q62 62 133 62q64 0 105 -43t41 -103q0 -63 -58 -118l-403 -377l440 -553q43 -53 43 -111q0 -66 -45.5 -109.5t-114.5 -43.5q-75 0 -133 75l-409 537l-181 -168v-287q0 -66 -45.5 -111.5t-111.5 -45.5
t-112 45.5t-46 111.5z" />
    <glyph glyph-name="L" unicode="L" horiz-adv-x="1267" 
d="M172 158v1130q0 66 46 112t112 46t111.5 -46t45.5 -112v-1001h584q60 0 101.5 -42t41.5 -102t-41.5 -101.5t-101.5 -41.5h-741q-66 0 -112 46t-46 112z" />
    <glyph glyph-name="M" unicode="M" horiz-adv-x="1777" 
d="M172 141v1143q0 66 46 112t112 46h35q92 0 143 -82l381 -621l383 623q50 80 141 80h35q66 0 112 -46t46 -112v-1139q0 -66 -46 -111.5t-112 -45.5q-64 0 -110 46t-46 111v715l-276 -426q-54 -80 -131 -80t-131 80l-273 420v-713q0 -64 -45 -108.5t-110 -44.5t-109.5 44.5
t-44.5 108.5z" />
    <glyph glyph-name="N" unicode="N" horiz-adv-x="1617" 
d="M172 143v1141q0 66 46 112t112 46h32q53 0 90.5 -23t73.5 -69l609 -799v739q0 65 45.5 110.5t109.5 45.5t110 -46t46 -110v-1140q0 -66 -46 -112t-112 -46h-10q-53 0 -90.5 23t-73.5 69l-631 827v-768q0 -65 -45.5 -110t-109.5 -45q-65 0 -110.5 45.5t-45.5 109.5z" />
    <glyph glyph-name="O" unicode="O" horiz-adv-x="1740" 
d="M868 -25q-162 0 -304.5 58t-241.5 157.5t-156 235.5t-57 287v4q0 151 57.5 287.5t157.5 236.5t243 158.5t305 58.5q216 0 391 -99t272 -267.5t97 -370.5v-4q0 -151 -58 -287.5t-158 -236.5t-243 -159t-305 -59zM872 266q124 0 223.5 60.5t153.5 162.5t54 224v4
q0 187 -123.5 318.5t-311.5 131.5q-124 0 -223 -60t-153 -162t-54 -224v-4q0 -122 55 -225t155 -164.5t224 -61.5z" />
    <glyph glyph-name="P" unicode="P" horiz-adv-x="1368" 
d="M172 145v1131q0 66 46 112t112 46h428q253 0 401 -136.5t148 -359.5v-4q0 -121 -45 -218t-124.5 -159t-184 -94.5t-226.5 -32.5h-240v-285q0 -66 -45.5 -111.5t-111.5 -45.5t-112 45.5t-46 111.5zM487 711h250q116 0 183 61t67 156v4q0 104 -68 160.5t-188 56.5h-244
v-438z" />
    <glyph glyph-name="Q" unicode="Q" horiz-adv-x="1740" 
d="M868 -25q-162 0 -304.5 58t-241.5 157.5t-156 235.5t-57 287v4q0 151 57.5 287.5t157.5 236.5t243 158.5t305 58.5q216 0 391 -99t272 -267.5t97 -370.5v-4q0 -223 -127 -412l62 -51q57 -50 57 -119q0 -62 -43 -105.5t-104 -43.5q-62 0 -105 43l-78 69
q-191 -123 -426 -123zM911 432q-57 50 -57 119q0 62 43 105.5t104 43.5q56 0 105 -43l158 -141q39 89 39 197v4q0 187 -123.5 318.5t-311.5 131.5q-124 0 -223 -60t-153 -162t-54 -224v-4q0 -122 55 -225t155 -164.5t224 -61.5q110 0 189 39z" />
    <glyph glyph-name="R" unicode="R" horiz-adv-x="1480" 
d="M172 145v1131q0 66 46 112t112 46h497q272 0 418 -146q123 -123 123 -327v-5q0 -317 -287 -436l219 -266q52 -65 52 -121q0 -64 -45 -104.5t-105 -40.5q-90 0 -155 82l-308 389h-252v-314q0 -66 -45.5 -111.5t-111.5 -45.5t-112 45.5t-46 111.5zM487 737h320
q114 0 178 55.5t64 147.5v4q0 100 -65.5 152.5t-182.5 52.5h-314v-412z" />
    <glyph glyph-name="S" unicode="S" horiz-adv-x="1310" 
d="M682 -20q-300 0 -539 172q-59 42 -59 118q0 61 42.5 103.5t104.5 42.5q50 0 91 -29q176 -129 366 -129q97 0 152 36t55 99v4q0 42 -22 70t-84.5 55.5t-182.5 57.5q-68 17 -117.5 32.5t-102.5 37t-89 44.5t-69.5 55t-53.5 70.5t-31.5 88.5t-11.5 110v4q0 194 140.5 313
t361.5 119q254 0 454 -127q29 -17 49.5 -49.5t20.5 -75.5q0 -61 -42.5 -103t-104.5 -42q-41 0 -80 22q-165 97 -301 97q-88 0 -136.5 -35t-48.5 -90v-4q0 -69 60 -105t250 -84q115 -30 194.5 -64.5t140.5 -84.5t90 -119.5t29 -161.5v-4q0 -209 -144.5 -326.5t-381.5 -117.5z
" />
    <glyph glyph-name="T" unicode="T" horiz-adv-x="1327" 
d="M506 145v998h-303q-60 0 -103 42.5t-43 102.5t43 103t103 43h921q60 0 103 -43t43 -103t-43 -102.5t-103 -42.5h-303v-998q0 -66 -45.5 -111.5t-111.5 -45.5t-112 45.5t-46 111.5z" />
    <glyph glyph-name="U" unicode="U" horiz-adv-x="1548" 
d="M770 -23q-294 0 -457 162.5t-163 474.5v674q0 66 45.5 112t111.5 46t112 -46t46 -112v-665q0 -173 81 -264t228 -91t228 88t81 256v676q0 66 46 112t112 46t112 -46t46 -112v-663q0 -319 -166.5 -483.5t-462.5 -164.5z" />
    <glyph glyph-name="V" unicode="V" horiz-adv-x="1486" 
d="M733 -23q-125 0 -178 125l-465 1112q-18 45 -18 76q0 66 45.5 111t111.5 45q59 0 99.5 -30.5t60.5 -80.5l359 -927l362 938q16 41 57 70.5t95 29.5q65 0 110 -44t45 -108q0 -33 -16 -69l-469 -1123q-53 -125 -178 -125h-21z" />
    <glyph glyph-name="W" unicode="W" horiz-adv-x="2248" 
d="M483 106l-401 1127q-12 36 -12 59q0 65 47 109.5t114 44.5q55 0 97 -31.5t57 -81.5l285 -878l286 870q19 58 60.5 91.5t99.5 33.5h25q59 0 99.5 -33t59.5 -92l287 -870l285 878q16 49 55.5 81t95.5 32q65 0 110.5 -44t45.5 -108q0 -25 -12 -61l-402 -1127
q-22 -61 -64.5 -95t-98.5 -34h-33q-116 0 -162 129l-283 822l-282 -822q-46 -129 -162 -129h-33q-56 0 -99 34t-65 95z" />
    <glyph glyph-name="X" unicode="X" horiz-adv-x="1454" 
d="M94 133q0 62 47 121l387 475l-364 445q-47 58 -47 116q0 66 44 111t111 45q49 0 82 -19t64 -59l313 -418l311 410q35 44 69.5 65t84.5 21q56 0 99.5 -41t43.5 -105q0 -61 -47 -120l-364 -447l385 -473q47 -58 47 -117q0 -66 -44.5 -110.5t-111.5 -44.5q-49 0 -81.5 18.5
t-63.5 59.5l-336 440l-332 -432q-35 -44 -69 -65t-84 -21q-56 0 -100 40.5t-44 104.5z" />
    <glyph glyph-name="Y" unicode="Y" horiz-adv-x="1409" 
d="M547 145v408l-463 629q-39 53 -39 112q0 63 46 107.5t112 44.5q51 0 87 -24.5t68 -71.5l349 -502l354 506q64 94 151 94q70 0 112 -44t42 -110q0 -51 -41 -110l-463 -625v-414q0 -66 -45.5 -111.5t-111.5 -45.5t-112 45.5t-46 111.5z" />
    <glyph glyph-name="Z" unicode="Z" horiz-adv-x="1449" 
d="M256 0q-57 0 -98 41t-41 98v6q0 82 57 148l744 864h-637q-57 0 -98.5 40t-41.5 97t41.5 98.5t98.5 41.5h915q57 0 98 -41.5t41 -98.5v-6q0 -78 -57 -147l-743 -865h661q57 0 98 -41t41 -98t-41 -97t-98 -40h-940z" />
    <glyph glyph-name="bracketleft" unicode="[" horiz-adv-x="952" 
d="M170 -115v1397q0 63 44.5 107.5t107.5 44.5h399q51 0 87 -36t36 -87t-36 -86t-87 -35h-252v-1213h252q51 0 87 -34.5t36 -85.5t-36 -87t-87 -36h-399q-63 0 -107.5 44t-44.5 107z" />
    <glyph glyph-name="backslash" unicode="\" horiz-adv-x="1085" 
d="M1079 -158q0 -46 -36 -81t-85 -35q-73 0 -108 71l-801 1673q-14 33 -14 60q0 46 36 81.5t85 35.5q73 0 108 -72l801 -1673q14 -33 14 -60z" />
    <glyph glyph-name="bracketright" unicode="]" horiz-adv-x="952" 
d="M782 1282v-1397q0 -63 -44 -107t-107 -44h-400q-51 0 -86.5 36t-35.5 87t35.5 85.5t86.5 34.5h252v1213h-252q-51 0 -86.5 35t-35.5 86t35.5 87t86.5 36h400q63 0 107 -44.5t44 -107.5z" />
    <glyph glyph-name="asciicircum" unicode="^" 
d="M510 1249l-104 -135q-53 -68 -90.5 -91.5t-90.5 -23.5q-30 0 -49.5 13.5t-19.5 36.5q0 31 28 73l162 228q32 45 68 66.5t88 21.5h18q52 0 88 -21.5t68 -66.5l162 -228q28 -42 28 -73q0 -23 -19.5 -36.5t-49.5 -13.5q-56 0 -92.5 23t-90.5 92z" />
    <glyph glyph-name="underscore" unicode="_" horiz-adv-x="1228" 
d="M-4 -328q-50 0 -84.5 35t-34.5 84t34.5 84t84.5 35h1237q49 0 84 -35t35 -84t-35 -84t-84 -35h-1237z" />
    <glyph glyph-name="grave" unicode="`" 
d="M606 1206q-56 0 -96 14.5t-82 53.5l-127 119q-41 38 -41 73q0 34 57.5 64.5t116.5 30.5q73 0 117 -70l113 -176q20 -32 20 -55q0 -24 -22 -39t-56 -15z" />
    <glyph glyph-name="a" unicode="a" horiz-adv-x="1212" 
d="M451 -20q-162 0 -269.5 89t-107.5 246v4q0 174 119.5 262.5t322.5 88.5q138 0 268 -45v18q0 98 -59.5 149.5t-175.5 51.5q-113 0 -215 -31q-24 -8 -45 -8q-54 0 -91.5 36.5t-37.5 90.5q0 41 23.5 74t60.5 47q151 57 350 57q248 0 371 -123q118 -118 118 -350v-500
q0 -63 -44 -106t-107 -43q-65 0 -107.5 38.5t-42.5 90.5v2q-126 -139 -331 -139zM545 195q108 0 175.5 53.5t67.5 138.5v55q-87 41 -198 41q-101 0 -158 -39t-57 -112v-4q0 -62 47 -97.5t123 -35.5z" />
    <glyph glyph-name="b" unicode="b" horiz-adv-x="1382" 
d="M139 143v1209q0 64 45.5 109.5t110.5 45.5t110.5 -45.5t45.5 -109.5v-412q133 178 342 178q97 0 186 -37.5t159 -107.5t112 -179.5t42 -242.5v-4q0 -133 -41 -242.5t-111 -179.5t-159 -107.5t-188 -37.5q-205 0 -342 163v-2q0 -63 -46 -108t-110 -45q-65 0 -110.5 45.5
t-45.5 109.5zM713 244q112 0 190 84t78 219v4q0 133 -78 218t-190 85q-111 0 -189 -84.5t-78 -218.5v-4q0 -134 78 -218.5t189 -84.5z" />
    <glyph glyph-name="c" unicode="c" horiz-adv-x="1169" 
d="M657 -25q-162 0 -293.5 76.5t-204.5 206.5t-73 285v4q0 156 73 286t206 207.5t297 77.5q229 0 374 -123q49 -39 49 -106q0 -58 -41 -98.5t-100 -40.5q-51 0 -90 30q-90 70 -195 70q-115 0 -190.5 -87.5t-75.5 -211.5v-4q0 -129 77 -216t202 -87q111 0 205 75q39 29 84 29
q55 0 93 -38.5t38 -94.5t-45 -98q-156 -142 -390 -142z" />
    <glyph glyph-name="d" unicode="d" horiz-adv-x="1382" 
d="M1243 1352v-1209q0 -64 -45.5 -109.5t-110.5 -45.5t-110 45t-45 110v15q-133 -178 -342 -178q-97 0 -186 37.5t-159.5 107.5t-112.5 179.5t-42 242.5v4q0 133 41.5 242.5t111.5 179.5t159 107.5t188 37.5q204 0 342 -164v398q0 64 45 109.5t110 45.5t110.5 -45.5
t45.5 -109.5zM670 854q-112 0 -190.5 -84.5t-78.5 -218.5v-4q0 -133 78.5 -218t190.5 -85q111 0 188.5 84.5t77.5 218.5v4q0 134 -77.5 218.5t-188.5 84.5z" />
    <glyph glyph-name="e" unicode="e" horiz-adv-x="1255" 
d="M391 635h469q-14 107 -74.5 170t-156.5 63q-95 0 -157 -62.5t-81 -170.5zM1040 109q-157 -134 -381 -134q-249 0 -411 159t-162 409v4q0 156 68.5 286t193.5 207.5t281 77.5q106 0 195.5 -33t149.5 -87t102.5 -124t61.5 -142t19 -142q0 -67 -41.5 -108.5t-103.5 -41.5
h-617q23 -105 93.5 -160t175.5 -55q122 0 221 74q36 25 76 25q52 0 86 -35t34 -88q0 -56 -41 -92z" />
    <glyph glyph-name="f" unicode="f" horiz-adv-x="782" 
d="M193 143v688h-13q-54 0 -91.5 36.5t-37.5 90.5t37.5 91.5t91.5 37.5h13v70q0 178 88 266q86 86 251 86q80 0 127 -8q43 -6 75 -40.5t32 -84.5q0 -53 -37.5 -91t-89.5 -38h-27q-112 0 -112 -119v-43h135q54 0 91.5 -36.5t37.5 -90.5t-37.5 -90.5t-91.5 -36.5h-131v-688
q0 -64 -45.5 -109.5t-110.5 -45.5q-64 0 -109.5 45t-45.5 110z" />
    <glyph glyph-name="g" unicode="g" horiz-adv-x="1382" 
d="M631 -332q-210 0 -402 76q-41 15 -64.5 47t-23.5 74q0 53 37.5 90t89.5 37q28 0 51 -10q145 -66 304 -66q313 0 313 299v53q-74 -89 -157 -133.5t-201 -44.5q-97 0 -184.5 35t-155.5 98.5t-108 161.5t-40 217v4q0 119 40.5 217.5t109 162t156 98t182.5 34.5
q118 0 200 -42.5t154 -121.5v2q0 63 45.5 108.5t109.5 45.5q65 0 110.5 -46t45.5 -110v-706q0 -293 -139 -432q-148 -148 -473 -148zM668 348q115 0 191.5 71.5t76.5 182.5v4q0 111 -76.5 182.5t-191.5 71.5t-191 -71t-76 -183v-4q0 -113 76 -183.5t191 -70.5z" />
    <glyph glyph-name="h" unicode="h" horiz-adv-x="1275" 
d="M139 143v1209q0 64 45.5 109.5t110.5 45.5t110.5 -45.5t45.5 -109.5v-410q64 82 138.5 129t182.5 47q176 0 274.5 -108.5t98.5 -298.5v-568q0 -64 -45.5 -109.5t-110.5 -45.5t-110 45t-45 110v469q0 109 -49.5 166.5t-139.5 57.5q-91 0 -142.5 -57.5t-51.5 -166.5v-469
q0 -64 -45.5 -109.5t-110.5 -45.5t-110.5 45.5t-45.5 109.5z" />
    <glyph glyph-name="i" unicode="i" horiz-adv-x="618" 
d="M135 1356v4q0 66 49.5 105.5t124.5 39.5t124.5 -39.5t49.5 -105.5v-4q0 -66 -49.5 -107t-124.5 -41t-124.5 41t-49.5 107zM154 143v811q0 65 45.5 110.5t109.5 45.5q65 0 110.5 -46t45.5 -110v-811q0 -64 -45.5 -109.5t-110.5 -45.5t-110 45t-45 110z" />
    <glyph glyph-name="j" unicode="j" horiz-adv-x="618" 
d="M135 1356v4q0 66 49.5 105.5t124.5 39.5t124.5 -39.5t49.5 -105.5v-4q0 -66 -49.5 -107t-124.5 -41t-124.5 41t-49.5 107zM133 -334h-4q-78 0 -126 32.5t-48 94.5q0 56 35 90.5t86 34.5h2q76 0 76 102v934q0 65 45.5 110.5t109.5 45.5q65 0 110.5 -46t45.5 -110v-936
q0 -177 -87 -264.5t-245 -87.5z" />
    <glyph glyph-name="k" unicode="k" horiz-adv-x="1204" 
d="M139 143v1209q0 64 45.5 109.5t110.5 45.5t110.5 -45.5t45.5 -109.5v-680l389 368q38 36 68.5 53t68.5 17q61 0 99 -41.5t38 -97.5q0 -66 -72 -135l-245 -211l293 -396q38 -52 38 -100q0 -62 -42.5 -101.5t-102.5 -39.5q-46 0 -76.5 16.5t-58.5 54.5l-273 375l-124 -112
v-179q0 -64 -45.5 -109.5t-110.5 -45.5t-110.5 45.5t-45.5 109.5z" />
    <glyph glyph-name="l" unicode="l" horiz-adv-x="618" 
d="M154 143v1209q0 64 45 109.5t110 45.5t110.5 -45.5t45.5 -109.5v-1209q0 -64 -45.5 -109.5t-110.5 -45.5t-110 45t-45 110z" />
    <glyph glyph-name="m" unicode="m" horiz-adv-x="1945" 
d="M139 143v811q0 64 45.5 110t110.5 46t110.5 -46t45.5 -110v-12q64 82 139.5 129t183.5 47q107 0 186.5 -45t122.5 -129q148 174 361 174q175 0 273 -103.5t98 -299.5v-572q0 -64 -45.5 -109.5t-110.5 -45.5t-110.5 45.5t-45.5 109.5v469q0 110 -47 167t-135 57
q-89 0 -138.5 -57.5t-49.5 -166.5v-469q0 -64 -45.5 -109.5t-110.5 -45.5t-110.5 45.5t-45.5 109.5v469q0 110 -47 167t-135 57q-89 0 -138.5 -57.5t-49.5 -166.5v-469q0 -64 -45.5 -109.5t-110.5 -45.5t-110.5 45.5t-45.5 109.5z" />
    <glyph glyph-name="n" unicode="n" horiz-adv-x="1275" 
d="M139 143v811q0 64 45.5 110t110.5 46t110.5 -46t45.5 -110v-12q64 82 138.5 129t182.5 47q176 0 274.5 -108.5t98.5 -298.5v-568q0 -64 -45.5 -109.5t-110.5 -45.5t-110 45t-45 110v469q0 109 -49.5 166.5t-139.5 57.5q-91 0 -142.5 -57.5t-51.5 -166.5v-469
q0 -64 -45.5 -109.5t-110.5 -45.5t-110.5 45.5t-45.5 109.5z" />
    <glyph glyph-name="o" unicode="o" horiz-adv-x="1359" 
d="M678 -25q-167 0 -303 76t-212.5 206t-76.5 286v4q0 117 45.5 222t124 182t189.5 122t237 45q167 0 303 -75.5t212.5 -205.5t76.5 -286v-4q0 -156 -77 -287t-214 -208t-305 -77zM682 244q129 0 207 86.5t78 212.5v4q0 125 -81.5 214t-207.5 89q-129 0 -207 -86.5
t-78 -212.5v-4q0 -125 81.5 -214t207.5 -89z" />
    <glyph glyph-name="p" unicode="p" horiz-adv-x="1382" 
d="M139 -184v1138q0 64 45.5 110t110.5 46t110.5 -46t45.5 -110v-14q133 178 342 178q97 0 186 -37.5t159 -107.5t112 -179.5t42 -242.5v-4q0 -133 -41 -242.5t-111 -179.5t-159 -107.5t-188 -37.5q-205 0 -342 163v-327q0 -64 -45.5 -110t-110.5 -46t-110.5 46t-45.5 110z
M713 244q112 0 190 84t78 219v4q0 133 -78 218t-190 85q-111 0 -189 -84.5t-78 -218.5v-4q0 -134 78 -218.5t189 -84.5z" />
    <glyph glyph-name="q" unicode="q" horiz-adv-x="1382" 
d="M1243 954v-1138q0 -64 -45.5 -110t-110.5 -46q-64 0 -109.5 45.5t-45.5 110.5v342q-133 -178 -342 -178q-97 0 -186 37.5t-159.5 107.5t-112.5 179.5t-42 242.5v4q0 133 41.5 242.5t111.5 179.5t159 107.5t188 37.5q204 0 342 -164v2q0 63 45.5 108.5t109.5 45.5
q65 0 110.5 -46t45.5 -110zM670 854q-112 0 -190.5 -84.5t-78.5 -218.5v-4q0 -133 78.5 -218t190.5 -85q111 0 188.5 84.5t77.5 218.5v4q0 134 -77.5 218.5t-188.5 84.5z" />
    <glyph glyph-name="r" unicode="r" horiz-adv-x="856" 
d="M139 143v811q0 64 45.5 110t110.5 46t110.5 -46t45.5 -110v-49q38 89 92.5 147t118.5 58q70 0 110.5 -42t40.5 -110q0 -58 -33 -96t-84 -49q-245 -57 -245 -379v-291q0 -64 -45.5 -109.5t-110.5 -45.5t-110.5 45.5t-45.5 109.5z" />
    <glyph glyph-name="s" unicode="s" horiz-adv-x="1028" 
d="M524 -20q-221 0 -413 124q-60 36 -60 107q0 53 35.5 88t87.5 35q35 0 62 -17q154 -98 296 -98q66 0 99 22t33 60v4q0 11 -3.5 21t-11.5 18.5t-16.5 15.5t-24 14t-27.5 12t-32.5 12t-34.5 11t-38.5 11.5t-39.5 11.5q-54 16 -94 31.5t-86.5 43t-76.5 60.5t-50 83.5
t-20 111.5v4q0 162 114.5 255t286.5 93t340 -84q74 -38 74 -117q0 -52 -36 -87t-89 -35q-30 0 -58 14q-141 69 -237 69q-55 0 -85 -21t-30 -54v-4q0 -26 28.5 -48.5t63 -36t98.5 -35.5q7 -2 11 -3.5t10.5 -3.5t11.5 -4q55 -18 94.5 -34t88 -44.5t78 -60.5t50.5 -80.5
t21 -106.5v-4q0 -175 -116 -264.5t-304 -89.5z" />
    <glyph glyph-name="t" unicode="t" horiz-adv-x="849" 
d="M510 -18q-154 0 -237 74.5t-83 254.5v520h-10q-55 0 -94 39t-39 95q0 55 38.5 94t94.5 39h10v137q0 65 46 110.5t110 45.5t110 -45.5t46 -110.5v-137h137q55 0 94 -39t39 -94q0 -56 -39 -95t-94 -39h-137v-469q0 -54 24 -80t76 -26q6 0 20 1t17 1q53 0 91 -37.5t38 -91.5
q0 -40 -23 -72t-57 -45q-74 -30 -178 -30z" />
    <glyph glyph-name="u" unicode="u" horiz-adv-x="1275" 
d="M1137 954v-811q0 -64 -45.5 -109.5t-110.5 -45.5t-110.5 45.5t-45.5 109.5v13q-64 -82 -138.5 -129t-182.5 -47q-176 0 -274.5 108.5t-98.5 298.5v567q0 64 45.5 110t110.5 46q64 0 109.5 -45.5t45.5 -110.5v-469q0 -109 49.5 -166t139.5 -57q91 0 142.5 57.5t51.5 165.5
v469q0 64 45.5 110t110.5 46t110.5 -46t45.5 -110z" />
    <glyph glyph-name="v" unicode="v" horiz-adv-x="1204" 
d="M786 113q-60 -136 -176 -136h-16q-118 0 -176 136l-336 776q-16 40 -16 76q0 57 44.5 101t106.5 44q111 0 152 -111l235 -637l240 642q40 106 145 106q62 0 106 -42.5t44 -104.5q0 -34 -17 -74z" />
    <glyph glyph-name="w" unicode="w" horiz-adv-x="1738" 
d="M514 -20q-124 0 -172 139l-268 774q-15 45 -15 76q0 57 42 99t108 42q112 0 151 -121l168 -557l172 555q18 57 59.5 91t100.5 34h19q58 0 99.5 -34t59.5 -91l174 -557l172 561q16 53 54 86t96 33q63 0 104 -41.5t41 -101.5q0 -29 -10 -64l-276 -784q-48 -139 -172 -139
h-11q-59 0 -103 33.5t-65 99.5l-174 553l-176 -553q-21 -66 -65 -99.5t-103 -33.5h-10z" />
    <glyph glyph-name="x" unicode="x" horiz-adv-x="1175" 
d="M82 119q0 57 43 106l281 332l-256 295q-52 61 -52 119q0 64 42 103.5t102 39.5q81 0 145 -80l203 -270l207 270q66 80 135 80q62 0 103.5 -38.5t41.5 -96.5q0 -54 -43 -107l-266 -311l274 -315q52 -61 52 -119q0 -64 -42 -103.5t-102 -39.5q-81 0 -145 79l-221 291
l-222 -291q-65 -79 -135 -79q-62 0 -103.5 38.5t-41.5 96.5z" />
    <glyph glyph-name="y" unicode="y" horiz-adv-x="1200" 
d="M367 -334q-88 0 -170 29q-99 35 -99 129q0 55 37 91t86 36q27 0 51 -8q44 -13 66 -13q43 0 66.5 13t44.5 53l10 24l-375 869q-16 40 -16 72q0 65 44 107t109 42q107 0 150 -117l237 -639l230 637q45 119 149 119q61 0 104.5 -41t43.5 -102q0 -39 -15 -74l-383 -920
q-70 -170 -151 -238.5t-219 -68.5z" />
    <glyph glyph-name="z" unicode="z" horiz-adv-x="1153" 
d="M242 0q-66 0 -109 35t-43 90v6q0 43 16 77t54 75l510 563h-434q-53 0 -90 36.5t-37 88.5q0 53 37.5 90t89.5 37h682q66 0 108.5 -35t42.5 -90v-6q0 -43 -16 -77t-54 -75l-512 -563h455q52 0 89.5 -37t37.5 -90q0 -52 -37 -88.5t-90 -36.5h-700z" />
    <glyph glyph-name="braceleft" unicode="{" horiz-adv-x="1003" 
d="M770 -272q-113 26 -190.5 62.5t-122.5 85.5t-64.5 107t-19.5 134q0 15 3 69t3 72q0 106 -40.5 153.5t-125.5 53.5q-59 5 -93 38t-34 85t34 85t93 38q85 6 125.5 53.5t40.5 153.5q0 18 -3 72t-3 69q0 76 19.5 134t64.5 107t122.5 85.5t190.5 62.5q60 13 101.5 -18.5
t41.5 -88.5q0 -41 -22.5 -68t-50.5 -36q-112 -39 -147.5 -87t-35.5 -136q0 -20 3.5 -75t3.5 -77q0 -109 -53 -174t-160 -100q106 -35 159.5 -100.5t53.5 -174.5q0 -22 -3.5 -76.5t-3.5 -74.5q0 -88 35.5 -136t147.5 -87q28 -9 50.5 -36t22.5 -69q0 -57 -41.5 -88t-101.5 -18
z" />
    <glyph glyph-name="bar" unicode="|" horiz-adv-x="716" 
d="M236 -152v1676q0 51 35.5 87t86.5 36t87 -36t36 -87v-1676q0 -51 -36 -86.5t-87 -35.5t-86.5 35.5t-35.5 86.5z" />
    <glyph glyph-name="braceright" unicode="}" horiz-adv-x="1003" 
d="M233 1448q221 -51 309.5 -143.5t88.5 -245.5q0 -15 -3 -69t-3 -72q0 -106 40.5 -153.5t125.5 -53.5q59 -5 93 -38t34 -85t-34 -85t-93 -38q-85 -6 -125.5 -53.5t-40.5 -153.5q0 -18 3 -72t3 -69q0 -153 -88.5 -245.5t-309.5 -143.5q-60 -13 -101.5 18t-41.5 88
q0 41 23 68.5t51 36.5q111 39 146.5 86.5t35.5 136.5q0 20 -3 74.5t-3 76.5q0 109 53.5 174.5t159.5 100.5q-107 35 -160 100t-53 174q0 22 3 77t3 75q0 89 -35.5 136.5t-146.5 86.5q-28 9 -51 36t-23 68q0 57 41.5 88.5t101.5 18.5z" />
    <glyph glyph-name="asciitilde" unicode="~" horiz-adv-x="1044" 
d="M287 500q-28 -47 -80 -47q-36 0 -64 25.5t-28 58.5q0 28 10 55q37 99 89 150t140 51q54 0 115.5 -20t112.5 -40t80 -20q35 0 55.5 13.5t40.5 45.5q28 47 80 47q36 0 64 -25.5t28 -58.5q0 -28 -10 -55q-37 -99 -89.5 -150t-140.5 -51q-54 0 -115 20t-112 40t-80 20
q-35 0 -55.5 -13.5t-40.5 -45.5z" />
    <glyph glyph-name="uni00A0" unicode="&#xa0;" horiz-adv-x="614" 
 />
    <glyph glyph-name="exclamdown" unicode="&#xa1;" horiz-adv-x="663" 
d="M426 868l88 -770q5 -45 -18 -74.5t-64 -29.5h-201q-41 0 -63.5 29.5t-17.5 74.5l88 770q4 41 30 65.5t64 24.5t64 -24.5t30 -65.5zM510 1268q0 -74 -51 -124t-127 -50t-127 50t-51 124v4q0 74 51 124t127 50t127 -50t51 -124v-4z" />
    <glyph glyph-name="cent" unicode="&#xa2;" horiz-adv-x="1189" 
d="M449 102l16 86q-165 59 -267 205t-102 330v4q0 156 73.5 286.5t205.5 207.5t295 77h12l14 74q8 38 36 62t69 24q48 0 79 -38t21 -89l-14 -65q92 -34 166 -95q45 -40 45 -102q0 -57 -40 -97t-97 -40q-47 0 -84 29q-16 12 -52 32l-112 -567q88 11 172 74q33 26 82 26
q51 0 88 -37.5t37 -91.5q0 -56 -41 -94q-158 -144 -379 -147l-19 -95q-8 -38 -35.5 -62t-68.5 -24q-48 0 -79 38t-21 89zM397 727q0 -87 34 -156.5t97 -107.5l111 565q-105 -7 -173.5 -93t-68.5 -204v-4z" />
    <glyph glyph-name="sterling" unicode="&#xa3;" horiz-adv-x="1318" 
d="M111 115q0 39 23 71t63 45l82 27v289h-37q-54 0 -92.5 37.5t-38.5 91.5t38.5 92.5t92.5 38.5h37v166q0 228 122 350q131 131 363 131q240 0 393 -156q49 -49 49 -112q0 -64 -45 -109t-110 -45q-66 0 -113 47q-79 82 -170 82q-72 0 -117 -45q-53 -53 -53 -151v-158h348
q54 0 92.5 -38.5t38.5 -92.5t-38.5 -91.5t-92.5 -37.5h-348v-275h498q57 0 97 -40t40 -97t-40 -96t-97 -39h-858q-56 0 -91.5 33.5t-35.5 81.5z" />
    <glyph glyph-name="yen" unicode="&#xa5;" horiz-adv-x="1404" 
d="M854 537v-127h279q46 0 78 -32.5t32 -78.5t-32 -78.5t-78 -32.5h-279v-49q0 -63 -44.5 -107t-107.5 -44t-107 44t-44 107v49h-279q-46 0 -78 32.5t-32 78.5t32 78.5t78 32.5h279v127h-279q-46 0 -78 32t-32 78t32 78.5t78 32.5h193l-326 432q-39 53 -39 106
q0 60 44.5 105t111.5 45q89 0 147 -88l302 -447l303 443q63 92 145 92q64 0 108 -40.5t44 -107.5q0 -55 -39 -108l-330 -432h197q46 0 78 -32.5t32 -78.5t-32 -78t-78 -32h-279z" />
    <glyph glyph-name="section" unicode="&#xa7;" horiz-adv-x="1294" 
d="M666 -20q-247 0 -422 139q-43 34 -43 94q0 51 35 86t86 35q44 0 73 -25q125 -102 262 -102q63 0 99.5 20.5t36.5 53.5v4q0 36 -46.5 59.5t-179.5 52.5q-247 55 -350.5 123t-103.5 182v5q0 170 182 239q-86 69 -86 187v4q0 147 112 232t308 85q247 0 422 -139
q43 -34 43 -94q0 -51 -35 -86t-86 -35q-46 0 -74 24q-127 103 -262 103q-64 0 -99.5 -20t-35.5 -54v-4q0 -35 43.5 -59t181.5 -54q249 -55 352 -122t103 -183v-4q0 -171 -183 -240q41 -32 63.5 -81.5t22.5 -104.5v-4q0 -146 -112 -231.5t-307 -85.5zM797 592q49 0 80.5 24
t31.5 66v4q0 38 -48.5 65t-158.5 54q-145 37 -204 37q-49 0 -81 -24t-32 -66v-4q0 -38 48.5 -65t158.5 -54q145 -37 205 -37z" />
    <glyph glyph-name="dieresis" unicode="&#xa8;" 
d="M731 1509q67 0 114.5 -42t47.5 -107v-4q0 -65 -47.5 -107.5t-114.5 -42.5t-114.5 42.5t-47.5 107.5v4q0 65 47.5 107t114.5 42zM293 1509q67 0 114.5 -42t47.5 -107v-4q0 -65 -47.5 -107.5t-114.5 -42.5t-114.5 42.5t-47.5 107.5v4q0 65 47.5 107t114.5 42z" />
    <glyph glyph-name="copyright" unicode="&#xa9;" horiz-adv-x="1699" 
d="M848 -25q-153 0 -290.5 59t-235.5 158.5t-155.5 235.5t-57.5 285v4q0 149 58 285.5t157 236.5t237 159.5t291 59.5t290.5 -59t235.5 -158t155.5 -235t57.5 -285v-4q0 -149 -58 -285.5t-157 -237t-237 -160t-291 -59.5zM848 57q138 0 260.5 52.5t209 141.5t137 210.5
t50.5 255.5v4q0 179 -84.5 329t-235 238t-333.5 88q-138 0 -260.5 -52.5t-209 -141t-137 -210t-50.5 -255.5v-4q0 -134 50 -255t136 -209t208 -140t259 -52zM858 319q-172 0 -287.5 117t-115.5 287v4q0 171 115.5 289.5t293.5 118.5q156 0 266 -82q39 -27 39 -74
q0 -37 -25.5 -62.5t-60.5 -25.5q-29 0 -57 22q-76 58 -162 58q-97 0 -161 -70.5t-64 -171.5v-4q0 -100 63.5 -171t161.5 -71q93 0 174 68q24 20 54 20q34 0 59 -25t25 -59q0 -36 -27 -59q-61 -55 -128.5 -82t-162.5 -27z" />
    <glyph glyph-name="ordfeminine" unicode="&#xaa;" horiz-adv-x="798" 
d="M313 817q-90 0 -148.5 49t-58.5 135v5q0 95 66 143.5t178 48.5q74 0 148 -24v10q0 53 -33.5 81.5t-97.5 28.5q-54 0 -105 -14q-18 -6 -35 -6q-29 0 -49 20t-20 49q0 49 45 66q82 31 188 31q137 0 205 -68q66 -66 66 -192v-279q0 -34 -25 -58t-59 -24q-33 0 -57.5 21
t-24.5 53v2q-68 -78 -183 -78zM156 567q-28 0 -48 20t-20 48t20 47.5t48 19.5h458q28 0 48 -19.5t20 -47.5t-20 -48t-48 -20h-458zM365 936q60 0 97.5 30t37.5 76v31q-59 23 -111 23q-55 0 -86 -21.5t-31 -60.5v-4q0 -34 25.5 -54t67.5 -20z" />
    <glyph glyph-name="guillemotleft" unicode="&#xab;" horiz-adv-x="1320" 
d="M1057 84q-65 0 -107 53l-256 328q-35 47 -35 84t35 84l248 317q48 62 117 62q52 0 87.5 -38t35.5 -91q0 -39 -35 -84l-199 -248l205 -256q31 -42 31 -82q0 -54 -36.5 -91.5t-90.5 -37.5zM500 84q-65 0 -107 53l-256 328q-35 47 -35 84t35 84l248 317q48 62 117 62
q52 0 87.5 -38t35.5 -91q0 -39 -35 -84l-199 -248l205 -256q31 -42 31 -82q0 -54 -36.5 -91.5t-90.5 -37.5z" />
    <glyph glyph-name="registered" unicode="&#xae;" horiz-adv-x="753" 
d="M377 737q-150 0 -253.5 105t-103.5 252v2q0 147 104.5 252.5t252.5 105.5q150 0 253 -104.5t103 -251.5v-2q0 -147 -104 -253t-252 -106zM377 776q132 0 223.5 94t91.5 226v2q0 132 -90.5 224.5t-224.5 92.5q-133 0 -224.5 -94t-91.5 -225v-2q0 -132 91 -225t225 -93z
M221 958v279q0 22 15.5 37.5t37.5 15.5h127q73 0 115.5 -32.5t42.5 -96.5q0 -79 -70 -112l48 -56q14 -17 14 -37q0 -22 -15.5 -36.5t-37.5 -14.5q-24 0 -41 21l-80 100h-49v-68q0 -22 -16 -37.5t-38 -15.5t-37.5 15.5t-15.5 37.5zM328 1110h67q27 0 42.5 12t15.5 33
q0 45 -58 45h-67v-90z" />
    <glyph glyph-name="macron" unicode="&#xaf;" 
d="M784 1229h-544q-45 0 -77 31t-32 75t32.5 76.5t76.5 32.5h544q44 0 76.5 -32.5t32.5 -76.5t-32 -75t-77 -31z" />
    <glyph glyph-name="degree" unicode="&#xb0;" horiz-adv-x="983" 
d="M492 754q-92 0 -174 46.5t-131.5 126.5t-49.5 171v4q0 91 49.5 171t131.5 126.5t174 46.5q140 0 247 -102.5t107 -241.5v-4q0 -139 -107 -241.5t-247 -102.5zM492 907q80 0 134 56.5t54 134.5v4q0 78 -54 134t-134 56t-134.5 -56t-54.5 -134v-4q0 -78 54.5 -134.5
t134.5 -56.5z" />
    <glyph glyph-name="plusminus" unicode="&#xb1;" horiz-adv-x="1310" 
d="M516 543l2 235l-246 -2q-56 0 -95.5 40t-39.5 95q0 56 40 96t95 40l246 -3l-2 236q0 58 40 98.5t99 40.5t99.5 -40.5t40.5 -98.5l-2 -236l245 3q56 0 96 -40.5t40 -95.5t-40 -95t-96 -40l-245 2l2 -235q0 -59 -40.5 -99.5t-99.5 -40.5q-58 0 -98.5 40.5t-40.5 99.5z
M266 0q-54 0 -91.5 37.5t-37.5 91.5t37.5 91.5t91.5 37.5h778q54 0 92 -37.5t38 -91.5t-38 -91.5t-92 -37.5h-778z" />
    <glyph glyph-name="acute" unicode="&#xb4;" 
d="M418 1206q-34 0 -56 15t-22 39q0 23 20 55l113 176q44 70 117 70q59 0 116.5 -30.5t57.5 -64.5q0 -35 -41 -73l-127 -119q-42 -39 -82 -53.5t-96 -14.5z" />
    <glyph glyph-name="paragraph" unicode="&#xb6;" horiz-adv-x="1208" 
d="M721 145v326h-49q-175 0 -308.5 52t-212.5 161.5t-79 263.5v4q0 223 155 352.5t410 129.5h242q66 0 111.5 -46t45.5 -112v-1131q0 -66 -45.5 -111.5t-111.5 -45.5t-112 45.5t-46 111.5z" />
    <glyph glyph-name="periodcentered" unicode="&#xb7;" horiz-adv-x="585" 
d="M115 637q0 73 52 123.5t126 50.5t126 -50.5t52 -123.5v-4q0 -73 -52 -123.5t-126 -50.5t-126 50.5t-52 123.5v4z" />
    <glyph glyph-name="cedilla" unicode="&#xb8;" 
d="M653 20l-121 -296q-26 -66 -90 -66q-47 0 -111.5 35t-64.5 71q0 27 19 54l139 202h229z" />
    <glyph glyph-name="ordmasculine" unicode="&#xba;" horiz-adv-x="798" 
d="M397 815q-134 0 -223.5 90t-89.5 221v4q0 131 91.5 222.5t225.5 91.5t224 -90t90 -221v-5q0 -131 -92 -222t-226 -91zM160 567q-28 0 -48 20t-20 48t20 47.5t48 19.5h479q28 0 48 -19.5t20 -47.5t-20 -48t-48 -20h-479zM401 963q66 0 106 47.5t40 115.5v4q0 68 -42 117
t-108 49q-65 0 -105 -47.5t-40 -115.5v-5q0 -68 41.5 -116.5t107.5 -48.5z" />
    <glyph glyph-name="guillemotright" unicode="&#xbb;" horiz-adv-x="1320" 
d="M821 1012q64 0 107 -54l256 -327q35 -47 35 -84t-35 -84l-248 -318q-47 -61 -117 -61q-52 0 -87.5 38t-35.5 91q0 39 35 84l199 248l-205 256q-31 42 -31 82q0 54 36.5 91.5t90.5 37.5zM264 1012q64 0 107 -54l256 -327q35 -47 35 -84t-35 -84l-248 -318
q-47 -61 -117 -61q-52 0 -87.5 38t-35.5 91q0 39 35 84l199 248l-205 256q-31 42 -31 82q0 54 36.5 91.5t90.5 37.5z" />
    <glyph glyph-name="questiondown" unicode="&#xbf;" horiz-adv-x="1114" 
d="M596 958h16q43 0 74 -29t37 -71l20 -139q7 -51 -18.5 -84t-75.5 -39q-134 -17 -197 -60t-63 -118v-4q0 -69 50 -107.5t139 -38.5q127 0 237 82q46 33 92 33q59 0 101.5 -42.5t42.5 -100.5q0 -66 -54 -111q-178 -147 -426 -147q-225 0 -360 111.5t-135 312.5v4
q0 94 30.5 166.5t88 120t126.5 77t158 47.5l6 37q6 41 37 70.5t74 29.5zM791 1268q0 -74 -51.5 -124t-127.5 -50t-127 50t-51 124v4q0 74 51 124t127 50t127.5 -50t51.5 -124v-4z" />
    <glyph glyph-name="Agrave" unicode="&#xc0;" horiz-adv-x="1568" 
d="M74 135q0 27 18 68l500 1128q56 125 184 125h19q126 0 182 -125l500 -1128q16 -37 16 -64q0 -63 -43.5 -107t-106.5 -44q-104 0 -151 108l-96 226h-631l-100 -236q-20 -46 -58.5 -72t-87.5 -26q-61 0 -103 42.5t-42 104.5zM582 600h397l-199 473zM791 1554
q-56 0 -96.5 14.5t-82.5 53.5l-127 119q-41 38 -41 74q0 34 57.5 64t116.5 30q73 0 117 -70l113 -176q20 -32 20 -55q0 -24 -21.5 -39t-55.5 -15z" />
    <glyph glyph-name="Aacute" unicode="&#xc1;" horiz-adv-x="1568" 
d="M74 135q0 27 18 68l500 1128q56 125 184 125h19q126 0 182 -125l500 -1128q16 -37 16 -64q0 -63 -43.5 -107t-106.5 -44q-104 0 -151 108l-96 226h-631l-100 -236q-20 -46 -58.5 -72t-87.5 -26q-61 0 -103 42.5t-42 104.5zM582 600h397l-199 473zM774 1554q-34 0 -56 15
t-22 39q0 21 21 55l112 176q44 70 117 70q59 0 116.5 -30t57.5 -64q0 -36 -41 -74l-127 -119q-42 -39 -82 -53.5t-96 -14.5z" />
    <glyph glyph-name="Acircumflex" unicode="&#xc2;" horiz-adv-x="1568" 
d="M74 135q0 27 18 68l500 1128q56 125 184 125h19q126 0 182 -125l500 -1128q16 -37 16 -64q0 -63 -43.5 -107t-106.5 -44q-104 0 -151 108l-96 226h-631l-100 -236q-20 -46 -58.5 -72t-87.5 -26q-61 0 -103 42.5t-42 104.5zM582 600h397l-199 473zM780 1702l-96 -80
q-49 -40 -91 -54t-97 -14q-30 0 -49 13t-19 37q0 19 31 59l129 166q28 35 61 52t84 17h98q51 0 84.5 -17t61.5 -52l129 -166q31 -40 31 -59q0 -24 -20.5 -37t-51.5 -13q-55 0 -97 14t-91 54z" />
    <glyph glyph-name="Atilde" unicode="&#xc3;" horiz-adv-x="1568" 
d="M74 135q0 27 18 68l500 1128q56 125 184 125h19q126 0 182 -125l500 -1128q16 -37 16 -64q0 -63 -43.5 -107t-106.5 -44q-104 0 -151 108l-96 226h-631l-100 -236q-20 -46 -58.5 -72t-87.5 -26q-61 0 -103 42.5t-42 104.5zM582 600h397l-199 473zM557 1587
q-28 -47 -80 -47q-36 0 -64 25.5t-28 58.5q0 28 10 55q37 99 89.5 150t140.5 51q54 0 115 -20t112 -40t80 -20q35 0 55.5 13.5t40.5 46.5q28 47 80 47q36 0 64 -25.5t28 -58.5q0 -29 -10 -56q-37 -99 -89 -149.5t-140 -50.5q-54 0 -115.5 20t-112.5 40t-80 20
q-35 0 -55.5 -13.5t-40.5 -46.5z" />
    <glyph glyph-name="Adieresis" unicode="&#xc4;" horiz-adv-x="1568" 
d="M74 135q0 27 18 68l500 1128q56 125 184 125h19q126 0 182 -125l500 -1128q16 -37 16 -64q0 -63 -43.5 -107t-106.5 -44q-104 0 -151 108l-96 226h-631l-100 -236q-20 -46 -58.5 -72t-87.5 -26q-61 0 -103 42.5t-42 104.5zM582 600h397l-199 473zM1001 1858
q67 0 114.5 -42.5t47.5 -107.5v-4q0 -65 -47.5 -107.5t-114.5 -42.5t-114 42.5t-47 107.5v4q0 65 47 107.5t114 42.5zM563 1858q67 0 114.5 -42.5t47.5 -107.5v-4q0 -65 -47.5 -107.5t-114.5 -42.5t-114.5 42.5t-47.5 107.5v4q0 65 47.5 107.5t114.5 42.5z" />
    <glyph glyph-name="Aring" unicode="&#xc5;" horiz-adv-x="1617" 
d="M969 1405l532 -1202q17 -39 17 -64q0 -63 -43.5 -107t-106.5 -44q-104 0 -151 108l-97 226h-631l-100 -236q-20 -46 -58 -72t-87 -26q-61 0 -103.5 42.5t-42.5 104.5q0 24 19 68l532 1202q-88 75 -88 180v4q0 96 74.5 167t173.5 71t173.5 -71t74.5 -167v-4
q0 -105 -88 -180zM809 1460q52 0 89.5 37t37.5 88v4q0 51 -37.5 88t-89.5 37t-89.5 -37t-37.5 -88v-4q0 -51 37.5 -88t89.5 -37zM606 600h398l-199 473z" />
    <glyph glyph-name="AE" unicode="&#xc6;" horiz-adv-x="2140" 
d="M68 115q0 44 24 90l641 1118q64 111 189 111h970q58 0 100 -42t42 -100t-41.5 -98.5t-100.5 -40.5h-587v-291h495q59 0 100.5 -41.5t41.5 -99.5t-41.5 -98.5t-100.5 -40.5h-495v-301h598q58 0 99.5 -41.5t41.5 -100.5q0 -58 -41 -98.5t-100 -40.5h-754q-66 0 -112 46
t-46 112v164h-508l-139 -248q-50 -86 -137 -86q-59 0 -99 36t-40 91zM641 600h350v561h-35z" />
    <glyph glyph-name="Ccedilla" unicode="&#xc7;" horiz-adv-x="1511" 
d="M1354 156q-94 -82 -203 -127t-254 -52l-102 -253q-26 -66 -90 -66q-47 0 -112 35t-65 71q0 27 19 54l121 178q-248 56 -403.5 254.5t-155.5 462.5v4q0 203 94 372t266 269t387 100q283 0 479 -145q62 -47 62 -125q0 -64 -45.5 -109t-110.5 -45q-43 0 -94 31
q-136 102 -293 102q-179 0 -297.5 -129.5t-118.5 -316.5v-4q0 -188 117.5 -319.5t298.5 -131.5q95 0 167 28t144 85q44 35 95 35q60 0 103.5 -43t43.5 -103q0 -66 -53 -112z" />
    <glyph glyph-name="Egrave" unicode="&#xc8;" horiz-adv-x="1372" 
d="M330 0q-66 0 -112 46t-46 112v1118q0 66 46 112t112 46h794q58 0 100 -42t42 -100t-41.5 -98.5t-100.5 -40.5h-639v-291h547q59 0 100.5 -41.5t41.5 -99.5t-41.5 -98.5t-100.5 -40.5h-547v-301h650q58 0 99.5 -41.5t41.5 -100.5q0 -58 -41 -98.5t-100 -40.5h-805z
M725 1534q-56 0 -96 14.5t-82 53.5l-127 118q-41 38 -41 74q0 34 57.5 64t116.5 30q74 0 117 -69l112 -177q21 -34 21 -55q0 -24 -22 -38.5t-56 -14.5z" />
    <glyph glyph-name="Eacute" unicode="&#xc9;" horiz-adv-x="1372" 
d="M330 0q-66 0 -112 46t-46 112v1118q0 66 46 112t112 46h794q58 0 100 -42t42 -100t-41.5 -98.5t-100.5 -40.5h-639v-291h547q59 0 100.5 -41.5t41.5 -99.5t-41.5 -98.5t-100.5 -40.5h-547v-301h650q58 0 99.5 -41.5t41.5 -100.5q0 -58 -41 -98.5t-100 -40.5h-805z
M709 1534q-34 0 -56 14.5t-22 38.5q0 23 20 55l113 177q43 69 117 69q59 0 116.5 -30t57.5 -64q0 -36 -41 -74l-127 -118q-42 -39 -82 -53.5t-96 -14.5z" />
    <glyph glyph-name="Ecircumflex" unicode="&#xca;" horiz-adv-x="1372" 
d="M330 0q-66 0 -112 46t-46 112v1118q0 66 46 112t112 46h794q58 0 100 -42t42 -100t-41.5 -98.5t-100.5 -40.5h-639v-291h547q59 0 100.5 -41.5t41.5 -99.5t-41.5 -98.5t-100.5 -40.5h-547v-301h650q58 0 99.5 -41.5t41.5 -100.5q0 -58 -41 -98.5t-100 -40.5h-805z
M715 1681l-97 -79q-49 -40 -91 -54t-97 -14q-31 0 -49.5 12.5t-18.5 36.5q0 19 31 59l129 166q29 35 62 52.5t84 17.5h98q51 0 83.5 -17.5t61.5 -52.5l129 -166q31 -40 31 -59q0 -24 -20.5 -36.5t-51.5 -12.5q-55 0 -97 14t-91 54z" />
    <glyph glyph-name="Edieresis" unicode="&#xcb;" horiz-adv-x="1372" 
d="M330 0q-66 0 -112 46t-46 112v1118q0 66 46 112t112 46h794q58 0 100 -42t42 -100t-41.5 -98.5t-100.5 -40.5h-639v-291h547q59 0 100.5 -41.5t41.5 -99.5t-41.5 -98.5t-100.5 -40.5h-547v-301h650q58 0 99.5 -41.5t41.5 -100.5q0 -58 -41 -98.5t-100 -40.5h-805z
M936 1837q67 0 114.5 -42t47.5 -107v-5q0 -65 -47.5 -107t-114.5 -42t-114.5 42t-47.5 107v5q0 65 47.5 107t114.5 42zM498 1837q67 0 114 -42t47 -107v-5q0 -65 -47 -107t-114 -42t-114.5 42t-47.5 107v5q0 65 47.5 107t114.5 42z" />
    <glyph glyph-name="Igrave" unicode="&#xcc;" horiz-adv-x="688" 
d="M186 145v1143q0 66 46 112t112 46t112 -46t46 -112v-1143q0 -66 -46 -111.5t-112 -45.5t-112 45.5t-46 111.5zM352 1534q-56 0 -96 14.5t-82 53.5l-127 118q-41 38 -41 74q0 34 57.5 64t116.5 30q74 0 117 -69l113 -177q20 -32 20 -55q0 -24 -22 -38.5t-56 -14.5z" />
    <glyph glyph-name="Iacute" unicode="&#xcd;" horiz-adv-x="688" 
d="M186 145v1143q0 66 46 112t112 46t112 -46t46 -112v-1143q0 -66 -46 -111.5t-112 -45.5t-112 45.5t-46 111.5zM336 1534q-34 0 -56 14.5t-22 38.5q0 21 21 55l112 177q43 69 117 69q59 0 116.5 -30t57.5 -64q0 -36 -41 -74l-127 -118q-42 -39 -82 -53.5t-96 -14.5z" />
    <glyph glyph-name="Icircumflex" unicode="&#xce;" horiz-adv-x="688" 
d="M186 145v1143q0 66 46 112t112 46t112 -46t46 -112v-1143q0 -66 -46 -111.5t-112 -45.5t-112 45.5t-46 111.5zM342 1681l-96 -79q-49 -39 -91 -53.5t-98 -14.5q-30 0 -48.5 12.5t-18.5 36.5q0 20 30 59l130 166q29 35 61.5 52.5t83.5 17.5h98q51 0 84 -17.5t62 -52.5
l129 -166q30 -39 30 -59q0 -24 -20 -36.5t-51 -12.5q-56 0 -98 14.5t-91 53.5z" />
    <glyph glyph-name="Idieresis" unicode="&#xcf;" horiz-adv-x="688" 
d="M186 145v1143q0 66 46 112t112 46t112 -46t46 -112v-1143q0 -66 -46 -111.5t-112 -45.5t-112 45.5t-46 111.5zM563 1837q67 0 114.5 -42t47.5 -107v-5q0 -65 -47.5 -107t-114.5 -42t-114.5 42t-47.5 107v5q0 65 47.5 107t114.5 42zM125 1837q67 0 114.5 -42t47.5 -107v-5
q0 -65 -47.5 -107t-114.5 -42t-114.5 42t-47.5 107v5q0 65 47.5 107t114.5 42z" />
    <glyph glyph-name="Eth" unicode="&#xd0;" horiz-adv-x="1662" 
d="M207 860h26v416q0 66 46 112t112 46h402q166 0 308.5 -55t241.5 -150t155 -226.5t56 -281.5v-4q0 -150 -56 -282t-155 -228t-241.5 -151.5t-308.5 -55.5h-402q-66 0 -112 46t-46 112v424h-26q-59 0 -99 40t-40 99t40 99t99 40zM545 1149v-289h184q59 0 99 -40t40 -99
t-40 -99t-99 -40h-184v-297h248q193 0 312.5 118.5t119.5 309.5v4q0 191 -119.5 311.5t-312.5 120.5h-248z" />
    <glyph glyph-name="Ntilde" unicode="&#xd1;" horiz-adv-x="1617" 
d="M172 143v1141q0 66 46 112t112 46h32q53 0 90.5 -23t73.5 -69l609 -799v739q0 65 45.5 110.5t109.5 45.5t110 -46t46 -110v-1140q0 -66 -46 -112t-112 -46h-10q-53 0 -90.5 23t-73.5 69l-631 827v-768q0 -65 -45.5 -110t-109.5 -45q-65 0 -110.5 45.5t-45.5 109.5z
M584 1567q-28 -47 -80 -47q-36 0 -64 25.5t-28 58.5q0 28 10 55q37 99 89 150t140 51q54 0 115 -20t112 -40t80 -20q35 0 56 13.5t41 45.5q28 47 80 47q36 0 64 -25.5t28 -58.5q0 -28 -10 -55q-37 -99 -89.5 -150t-140.5 -51q-54 0 -115 20t-112 40t-80 20
q-35 0 -55.5 -13.5t-40.5 -45.5z" />
    <glyph glyph-name="Ograve" unicode="&#xd2;" horiz-adv-x="1740" 
d="M868 -25q-162 0 -304.5 58t-241.5 157.5t-156 235.5t-57 287v4q0 151 57.5 287.5t157.5 236.5t243 158.5t305 58.5q216 0 391 -99t272 -267.5t97 -370.5v-4q0 -151 -58 -287.5t-158 -236.5t-243 -159t-305 -59zM872 266q124 0 223.5 60.5t153.5 162.5t54 224v4
q0 187 -123.5 318.5t-311.5 131.5q-124 0 -223 -60t-153 -162t-54 -224v-4q0 -122 55 -225t155 -164.5t224 -61.5zM879 1554q-56 0 -96.5 14.5t-82.5 53.5l-127 119q-41 38 -41 74q0 34 58 64t117 30q72 0 116 -70l113 -176q20 -32 20 -55q0 -24 -21.5 -39t-55.5 -15z" />
    <glyph glyph-name="Oacute" unicode="&#xd3;" horiz-adv-x="1740" 
d="M868 -25q-162 0 -304.5 58t-241.5 157.5t-156 235.5t-57 287v4q0 151 57.5 287.5t157.5 236.5t243 158.5t305 58.5q216 0 391 -99t272 -267.5t97 -370.5v-4q0 -151 -58 -287.5t-158 -236.5t-243 -159t-305 -59zM872 266q124 0 223.5 60.5t153.5 162.5t54 224v4
q0 187 -123.5 318.5t-311.5 131.5q-124 0 -223 -60t-153 -162t-54 -224v-4q0 -122 55 -225t155 -164.5t224 -61.5zM862 1554q-34 0 -56 15t-22 39q0 21 21 55l113 176q44 70 116 70q59 0 116.5 -30t57.5 -64q0 -36 -41 -74l-127 -119q-42 -39 -82 -53.5t-96 -14.5z" />
    <glyph glyph-name="Ocircumflex" unicode="&#xd4;" horiz-adv-x="1740" 
d="M868 -25q-162 0 -304.5 58t-241.5 157.5t-156 235.5t-57 287v4q0 151 57.5 287.5t157.5 236.5t243 158.5t305 58.5q216 0 391 -99t272 -267.5t97 -370.5v-4q0 -151 -58 -287.5t-158 -236.5t-243 -159t-305 -59zM872 266q124 0 223.5 60.5t153.5 162.5t54 224v4
q0 187 -123.5 318.5t-311.5 131.5q-124 0 -223 -60t-153 -162t-54 -224v-4q0 -122 55 -225t155 -164.5t224 -61.5zM868 1702l-96 -80q-49 -40 -91 -54t-97 -14q-30 0 -49 13t-19 37q0 19 31 59l129 166q28 35 61 52t84 17h99q51 0 84 -17t61 -52l129 -166q31 -40 31 -59
q0 -24 -20.5 -37t-51.5 -13q-55 0 -97 14t-91 54z" />
    <glyph glyph-name="Otilde" unicode="&#xd5;" horiz-adv-x="1740" 
d="M868 -25q-162 0 -304.5 58t-241.5 157.5t-156 235.5t-57 287v4q0 151 57.5 287.5t157.5 236.5t243 158.5t305 58.5q216 0 391 -99t272 -267.5t97 -370.5v-4q0 -151 -58 -287.5t-158 -236.5t-243 -159t-305 -59zM872 266q124 0 223.5 60.5t153.5 162.5t54 224v4
q0 187 -123.5 318.5t-311.5 131.5q-124 0 -223 -60t-153 -162t-54 -224v-4q0 -122 55 -225t155 -164.5t224 -61.5zM645 1587q-28 -47 -80 -47q-36 0 -64 25.5t-28 58.5q0 28 10 55q37 99 89.5 150t140.5 51q54 0 115 -20t112 -40t80 -20q35 0 55.5 13.5t40.5 46.5
q28 47 80 47q36 0 64 -25.5t28 -58.5q0 -29 -10 -56q-37 -99 -89 -149.5t-140 -50.5q-54 0 -115.5 20t-112.5 40t-80 20q-35 0 -55.5 -13.5t-40.5 -46.5z" />
    <glyph glyph-name="Odieresis" unicode="&#xd6;" horiz-adv-x="1740" 
d="M868 -25q-162 0 -304.5 58t-241.5 157.5t-156 235.5t-57 287v4q0 151 57.5 287.5t157.5 236.5t243 158.5t305 58.5q216 0 391 -99t272 -267.5t97 -370.5v-4q0 -151 -58 -287.5t-158 -236.5t-243 -159t-305 -59zM872 266q124 0 223.5 60.5t153.5 162.5t54 224v4
q0 187 -123.5 318.5t-311.5 131.5q-124 0 -223 -60t-153 -162t-54 -224v-4q0 -122 55 -225t155 -164.5t224 -61.5zM1090 1858q67 0 114 -42.5t47 -107.5v-4q0 -65 -47 -107.5t-114 -42.5t-114.5 42.5t-47.5 107.5v4q0 65 47.5 107.5t114.5 42.5zM651 1858q67 0 114.5 -42.5
t47.5 -107.5v-4q0 -65 -47.5 -107.5t-114.5 -42.5t-114.5 42.5t-47.5 107.5v4q0 65 47.5 107.5t114.5 42.5z" />
    <glyph glyph-name="multiply" unicode="&#xd7;" horiz-adv-x="1310" 
d="M1073 950l-233 -227l237 -229q41 -41 41 -99q0 -57 -40 -97t-97 -40t-98 41l-230 238l-229 -236q-43 -43 -98 -43q-56 0 -94.5 39t-38.5 94q0 56 45 101l233 227l-238 229q-40 40 -40 99q0 57 40 97t97 40t98 -41l229 -238l230 236q43 43 98 43t94 -39t39 -94
q0 -56 -45 -101z" />
    <glyph glyph-name="Oslash" unicode="&#xd8;" horiz-adv-x="1740" 
d="M868 -25q-246 0 -438 127l-82 -82q-43 -43 -94 -43q-46 0 -77.5 30t-31.5 69q0 51 45 96l78 80q-159 195 -159 461v4q0 151 57.5 287.5t157.5 236.5t243 158.5t305 58.5q245 0 437 -127l84 82q43 43 94 43q46 0 77 -29.5t31 -68.5q0 -51 -45 -96l-77 -82
q159 -199 159 -459v-4q0 -151 -58 -287.5t-158 -236.5t-243 -159t-305 -59zM432 717q0 -129 60 -234l606 625q-106 66 -230 66q-189 0 -312.5 -132t-123.5 -321v-4zM872 260q189 0 313 132t124 321v4q0 125 -60 233l-608 -626q103 -64 231 -64z" />
    <glyph glyph-name="Ugrave" unicode="&#xd9;" horiz-adv-x="1548" 
d="M770 -23q-294 0 -457 162.5t-163 474.5v674q0 66 45.5 112t111.5 46t112 -46t46 -112v-665q0 -173 81 -264t228 -91t228 88t81 256v676q0 66 46 112t112 46t112 -46t46 -112v-663q0 -319 -166.5 -483.5t-462.5 -164.5zM782 1534q-56 0 -96 14.5t-82 53.5l-127 118
q-41 38 -41 74q0 34 57.5 64t116.5 30q74 0 117 -69l113 -177q20 -32 20 -55q0 -24 -22 -38.5t-56 -14.5z" />
    <glyph glyph-name="Uacute" unicode="&#xda;" horiz-adv-x="1548" 
d="M770 -23q-294 0 -457 162.5t-163 474.5v674q0 66 45.5 112t111.5 46t112 -46t46 -112v-665q0 -173 81 -264t228 -91t228 88t81 256v676q0 66 46 112t112 46t112 -46t46 -112v-663q0 -319 -166.5 -483.5t-462.5 -164.5zM766 1534q-34 0 -56 14.5t-22 38.5q0 21 21 55
l112 177q43 69 117 69q59 0 116.5 -30t57.5 -64q0 -36 -41 -74l-127 -118q-42 -39 -82 -53.5t-96 -14.5z" />
    <glyph glyph-name="Ucircumflex" unicode="&#xdb;" horiz-adv-x="1548" 
d="M770 -23q-294 0 -457 162.5t-163 474.5v674q0 66 45.5 112t111.5 46t112 -46t46 -112v-665q0 -173 81 -264t228 -91t228 88t81 256v676q0 66 46 112t112 46t112 -46t46 -112v-663q0 -319 -166.5 -483.5t-462.5 -164.5zM772 1681l-96 -79q-49 -39 -91 -53.5t-98 -14.5
q-30 0 -48.5 12.5t-18.5 36.5q0 19 31 59l129 166q29 35 61.5 52.5t83.5 17.5h98q51 0 84 -17.5t62 -52.5l129 -166q30 -39 30 -59q0 -24 -20 -36.5t-51 -12.5q-56 0 -98 14.5t-91 53.5z" />
    <glyph glyph-name="Udieresis" unicode="&#xdc;" horiz-adv-x="1548" 
d="M770 -23q-294 0 -457 162.5t-163 474.5v674q0 66 45.5 112t111.5 46t112 -46t46 -112v-665q0 -173 81 -264t228 -91t228 88t81 256v676q0 66 46 112t112 46t112 -46t46 -112v-663q0 -319 -166.5 -483.5t-462.5 -164.5zM993 1837q67 0 114.5 -42t47.5 -107v-5
q0 -65 -47.5 -107t-114.5 -42t-114.5 42t-47.5 107v5q0 65 47.5 107t114.5 42zM555 1837q67 0 114.5 -42t47.5 -107v-5q0 -65 -47.5 -107t-114.5 -42t-114.5 42t-47.5 107v5q0 65 47.5 107t114.5 42z" />
    <glyph glyph-name="Yacute" unicode="&#xdd;" horiz-adv-x="1409" 
d="M547 145v408l-463 629q-39 53 -39 112q0 63 46 107.5t112 44.5q51 0 87 -24.5t68 -71.5l349 -502l354 506q64 94 151 94q70 0 112 -44t42 -110q0 -51 -41 -110l-463 -625v-414q0 -66 -45.5 -111.5t-111.5 -45.5t-112 45.5t-46 111.5zM696 1534q-34 0 -56 14.5t-22 38.5
q0 21 21 55l113 177q43 69 116 69q59 0 116.5 -30t57.5 -64q0 -36 -41 -74l-127 -118q-42 -39 -82 -53.5t-96 -14.5z" />
    <glyph glyph-name="Thorn" unicode="&#xde;" horiz-adv-x="1378" 
d="M172 145v1143q0 66 46 112t112 46t111.5 -46t45.5 -112v-63h271q253 0 401 -136.5t148 -359.5v-4q0 -121 -45 -218t-124.5 -159t-184 -94.5t-226.5 -32.5h-240v-76q0 -66 -45.5 -111.5t-111.5 -45.5t-112 45.5t-46 111.5zM487 502h250q116 0 183 61t67 156v4
q0 104 -68 160.5t-188 56.5h-244v-438z" />
    <glyph glyph-name="germandbls" unicode="&#xdf;" horiz-adv-x="1269" 
d="M600 119q0 45 29.5 78t79.5 45q165 42 165 176v4q0 117 -167 178q-107 40 -107 135q0 78 59 123q134 101 134 221v4q0 76 -44.5 120t-119.5 44q-80 0 -130 -56t-50 -149v-901q0 -64 -45.5 -108.5t-110.5 -44.5t-109.5 44.5t-44.5 108.5v889q0 225 136 352t368 127
q213 0 335 -112t122 -285v-4q0 -83 -27 -149.5t-64.5 -105.5t-95.5 -79q269 -116 269 -362v-4q0 -79 -26 -147t-69.5 -116.5t-100.5 -83t-119 -51t-124 -16.5q-67 0 -105 34.5t-38 90.5z" />
    <glyph glyph-name="agrave" unicode="&#xe0;" horiz-adv-x="1212" 
d="M451 -20q-162 0 -269.5 89t-107.5 246v4q0 174 119.5 262.5t322.5 88.5q138 0 268 -45v18q0 98 -59.5 149.5t-175.5 51.5q-113 0 -215 -31q-24 -8 -45 -8q-54 0 -91.5 36.5t-37.5 90.5q0 41 23.5 74t60.5 47q151 57 350 57q248 0 371 -123q118 -118 118 -350v-500
q0 -63 -44 -106t-107 -43q-65 0 -107.5 38.5t-42.5 90.5v2q-126 -139 -331 -139zM545 195q108 0 175.5 53.5t67.5 138.5v55q-87 41 -198 41q-101 0 -158 -39t-57 -112v-4q0 -62 47 -97.5t123 -35.5zM618 1206q-56 0 -96 14.5t-82 53.5l-127 119q-41 38 -41 73
q0 34 57.5 64.5t116.5 30.5q73 0 117 -70l113 -176q20 -32 20 -55q0 -24 -22 -39t-56 -15z" />
    <glyph glyph-name="aacute" unicode="&#xe1;" horiz-adv-x="1212" 
d="M451 -20q-162 0 -269.5 89t-107.5 246v4q0 174 119.5 262.5t322.5 88.5q138 0 268 -45v18q0 98 -59.5 149.5t-175.5 51.5q-113 0 -215 -31q-24 -8 -45 -8q-54 0 -91.5 36.5t-37.5 90.5q0 41 23.5 74t60.5 47q151 57 350 57q248 0 371 -123q118 -118 118 -350v-500
q0 -63 -44 -106t-107 -43q-65 0 -107.5 38.5t-42.5 90.5v2q-126 -139 -331 -139zM545 195q108 0 175.5 53.5t67.5 138.5v55q-87 41 -198 41q-101 0 -158 -39t-57 -112v-4q0 -62 47 -97.5t123 -35.5zM602 1206q-34 0 -56 15t-22 39q0 21 21 55l112 176q44 70 117 70
q59 0 116.5 -30.5t57.5 -64.5q0 -35 -41 -73l-127 -119q-42 -39 -82 -53.5t-96 -14.5z" />
    <glyph glyph-name="acircumflex" unicode="&#xe2;" horiz-adv-x="1212" 
d="M451 -20q-162 0 -269.5 89t-107.5 246v4q0 174 119.5 262.5t322.5 88.5q138 0 268 -45v18q0 98 -59.5 149.5t-175.5 51.5q-113 0 -215 -31q-24 -8 -45 -8q-54 0 -91.5 36.5t-37.5 90.5q0 41 23.5 74t60.5 47q151 57 350 57q248 0 371 -123q118 -118 118 -350v-500
q0 -63 -44 -106t-107 -43q-65 0 -107.5 38.5t-42.5 90.5v2q-126 -139 -331 -139zM608 1354l-96 -80q-49 -40 -91 -54t-97 -14q-31 0 -49.5 12.5t-18.5 36.5q0 20 31 60l129 166q28 35 61 52t84 17h98q51 0 84.5 -17t61.5 -52l129 -166q31 -40 31 -60q0 -24 -20.5 -36.5
t-51.5 -12.5q-55 0 -97 14t-91 54zM545 195q108 0 175.5 53.5t67.5 138.5v55q-87 41 -198 41q-101 0 -158 -39t-57 -112v-4q0 -62 47 -97.5t123 -35.5z" />
    <glyph glyph-name="atilde" unicode="&#xe3;" horiz-adv-x="1212" 
d="M451 -20q-162 0 -269.5 89t-107.5 246v4q0 174 119.5 262.5t322.5 88.5q138 0 268 -45v18q0 98 -59.5 149.5t-175.5 51.5q-113 0 -215 -31q-24 -8 -45 -8q-54 0 -91.5 36.5t-37.5 90.5q0 41 23.5 74t60.5 47q151 57 350 57q248 0 371 -123q118 -118 118 -350v-500
q0 -63 -44 -106t-107 -43q-65 0 -107.5 38.5t-42.5 90.5v2q-126 -139 -331 -139zM385 1239q-28 -47 -80 -47q-36 0 -64 25.5t-28 58.5q0 28 10 55q37 99 89.5 150t140.5 51q54 0 115 -20t112 -40t80 -20q35 0 55.5 13.5t40.5 45.5q28 48 80 48q36 0 64 -25.5t28 -58.5
q0 -29 -10 -56q-37 -98 -89.5 -149t-140.5 -51q-54 0 -115 19.5t-112 39.5t-80 20q-35 0 -55.5 -13.5t-40.5 -45.5zM545 195q108 0 175.5 53.5t67.5 138.5v55q-87 41 -198 41q-101 0 -158 -39t-57 -112v-4q0 -62 47 -97.5t123 -35.5z" />
    <glyph glyph-name="adieresis" unicode="&#xe4;" horiz-adv-x="1212" 
d="M451 -20q-162 0 -269.5 89t-107.5 246v4q0 174 119.5 262.5t322.5 88.5q138 0 268 -45v18q0 98 -59.5 149.5t-175.5 51.5q-113 0 -215 -31q-24 -8 -45 -8q-54 0 -91.5 36.5t-37.5 90.5q0 41 23.5 74t60.5 47q151 57 350 57q248 0 371 -123q118 -118 118 -350v-500
q0 -63 -44 -106t-107 -43q-65 0 -107.5 38.5t-42.5 90.5v2q-126 -139 -331 -139zM545 195q108 0 175.5 53.5t67.5 138.5v55q-87 41 -198 41q-101 0 -158 -39t-57 -112v-4q0 -62 47 -97.5t123 -35.5zM829 1509q67 0 114.5 -42t47.5 -107v-4q0 -65 -47.5 -107.5t-114.5 -42.5
t-114 42.5t-47 107.5v4q0 65 47 107t114 42zM391 1509q67 0 114.5 -42t47.5 -107v-4q0 -65 -47.5 -107.5t-114.5 -42.5t-114.5 42.5t-47.5 107.5v4q0 65 47.5 107t114.5 42z" />
    <glyph glyph-name="aring" unicode="&#xe5;" horiz-adv-x="1212" 
d="M451 -20q-162 0 -269.5 89t-107.5 246v4q0 174 119.5 262.5t322.5 88.5q138 0 268 -45v18q0 98 -59.5 149.5t-175.5 51.5q-113 0 -215 -31q-24 -8 -45 -8q-54 0 -91.5 36.5t-37.5 90.5q0 41 23.5 74t60.5 47q151 57 350 57q248 0 371 -123q118 -118 118 -350v-500
q0 -63 -44 -106t-107 -43q-65 0 -107.5 38.5t-42.5 90.5v2q-126 -139 -331 -139zM610 1214q-99 0 -173.5 71t-74.5 167v4q0 96 74.5 167t173.5 71t173.5 -71t74.5 -167v-4q0 -96 -74.5 -167t-173.5 -71zM545 195q108 0 175.5 53.5t67.5 138.5v55q-87 41 -198 41
q-101 0 -158 -39t-57 -112v-4q0 -62 47 -97.5t123 -35.5zM610 1327q52 0 89.5 37t37.5 88v4q0 51 -37.5 88t-89.5 37t-89.5 -37t-37.5 -88v-4q0 -51 37.5 -88t89.5 -37z" />
    <glyph glyph-name="ae" unicode="&#xe6;" horiz-adv-x="1947" 
d="M1083 635h469q-14 107 -74.5 170t-156.5 63q-95 0 -157 -62.5t-81 -170.5zM545 199q147 0 280 104q-31 74 -39 141q-90 39 -196 39q-101 0 -158 -39t-57 -112v-4q0 -59 48.5 -94t121.5 -35zM1733 109q-157 -134 -381 -134q-125 0 -233 43.5t-185 122.5
q-219 -161 -447 -161q-183 0 -298 89.5t-115 245.5v4q0 174 119.5 262.5t322.5 88.5q138 0 268 -45v18q0 98 -59.5 149.5t-175.5 51.5q-113 0 -215 -31q-24 -8 -45 -8q-54 0 -91.5 36.5t-37.5 90.5q0 41 23.5 74t60.5 47q151 57 350 57q259 0 373 -139q144 147 362 147
q103 0 190.5 -33t147 -87.5t101.5 -124t61.5 -141.5t19.5 -142q0 -67 -41.5 -108.5t-103.5 -41.5h-617q23 -105 93.5 -160t175.5 -55q122 0 221 74q36 25 76 25q52 0 86.5 -35t34.5 -88q0 -56 -41 -92z" />
    <glyph glyph-name="ccedilla" unicode="&#xe7;" horiz-adv-x="1169" 
d="M1047 117q-140 -127 -338 -140l-103 -253q-26 -66 -90 -66q-47 0 -111.5 35t-64.5 71q0 29 18 54l125 182q-179 53 -288 202t-109 341v4q0 156 73 286t206 207.5t297 77.5q229 0 374 -123q49 -39 49 -106q0 -58 -41 -98.5t-100 -40.5q-51 0 -90 30q-90 70 -195 70
q-115 0 -190.5 -87.5t-75.5 -211.5v-4q0 -129 77 -216t202 -87q111 0 205 75q39 29 84 29q55 0 93 -38.5t38 -94.5t-45 -98z" />
    <glyph glyph-name="egrave" unicode="&#xe8;" horiz-adv-x="1255" 
d="M391 635h469q-14 107 -74.5 170t-156.5 63q-95 0 -157 -62.5t-81 -170.5zM1040 109q-157 -134 -381 -134q-249 0 -411 159t-162 409v4q0 156 68.5 286t193.5 207.5t281 77.5q106 0 195.5 -33t149.5 -87t102.5 -124t61.5 -142t19 -142q0 -67 -41.5 -108.5t-103.5 -41.5
h-617q23 -105 93.5 -160t175.5 -55q122 0 221 74q36 25 76 25q52 0 86 -35t34 -88q0 -56 -41 -92zM633 1206q-56 0 -96 14.5t-82 53.5l-127 119q-41 38 -41 73q0 34 57.5 64.5t116.5 30.5q73 0 117 -70l112 -176q21 -34 21 -55q0 -24 -22 -39t-56 -15z" />
    <glyph glyph-name="eacute" unicode="&#xe9;" horiz-adv-x="1255" 
d="M391 635h469q-14 107 -74.5 170t-156.5 63q-95 0 -157 -62.5t-81 -170.5zM1040 109q-157 -134 -381 -134q-249 0 -411 159t-162 409v4q0 156 68.5 286t193.5 207.5t281 77.5q106 0 195.5 -33t149.5 -87t102.5 -124t61.5 -142t19 -142q0 -67 -41.5 -108.5t-103.5 -41.5
h-617q23 -105 93.5 -160t175.5 -55q122 0 221 74q36 25 76 25q52 0 86 -35t34 -88q0 -56 -41 -92zM616 1206q-34 0 -55.5 15t-21.5 39q0 23 20 55l113 176q44 70 116 70q59 0 117 -30.5t58 -64.5q0 -35 -41 -73l-127 -119q-42 -39 -82.5 -53.5t-96.5 -14.5z" />
    <glyph glyph-name="ecircumflex" unicode="&#xea;" horiz-adv-x="1255" 
d="M391 635h469q-14 107 -74.5 170t-156.5 63q-95 0 -157 -62.5t-81 -170.5zM1040 109q-157 -134 -381 -134q-249 0 -411 159t-162 409v4q0 156 68.5 286t193.5 207.5t281 77.5q106 0 195.5 -33t149.5 -87t102.5 -124t61.5 -142t19 -142q0 -67 -41.5 -108.5t-103.5 -41.5
h-617q23 -105 93.5 -160t175.5 -55q122 0 221 74q36 25 76 25q52 0 86 -35t34 -88q0 -56 -41 -92zM623 1354l-97 -80q-49 -40 -91 -54t-97 -14q-31 0 -49.5 12.5t-18.5 36.5q0 20 31 60l129 166q28 35 61 52t84 17h99q51 0 84 -17t61 -52l129 -166q31 -40 31 -60
q0 -24 -20.5 -36.5t-51.5 -12.5q-55 0 -97 14t-91 54z" />
    <glyph glyph-name="edieresis" unicode="&#xeb;" horiz-adv-x="1255" 
d="M391 635h469q-14 107 -74.5 170t-156.5 63q-95 0 -157 -62.5t-81 -170.5zM1040 109q-157 -134 -381 -134q-249 0 -411 159t-162 409v4q0 156 68.5 286t193.5 207.5t281 77.5q106 0 195.5 -33t149.5 -87t102.5 -124t61.5 -142t19 -142q0 -67 -41.5 -108.5t-103.5 -41.5
h-617q23 -105 93.5 -160t175.5 -55q122 0 221 74q36 25 76 25q52 0 86 -35t34 -88q0 -56 -41 -92zM844 1509q67 0 114.5 -42t47.5 -107v-4q0 -65 -47.5 -107.5t-114.5 -42.5t-114.5 42.5t-47.5 107.5v4q0 65 47.5 107t114.5 42zM406 1509q67 0 114 -42t47 -107v-4
q0 -65 -47 -107.5t-114 -42.5t-114.5 42.5t-47.5 107.5v4q0 65 47.5 107t114.5 42z" />
    <glyph glyph-name="igrave" unicode="&#xec;" horiz-adv-x="618" 
d="M154 143v811q0 65 45.5 110.5t109.5 45.5q65 0 110.5 -46t45.5 -110v-811q0 -64 -45.5 -109.5t-110.5 -45.5t-110 45t-45 110zM317 1206q-56 0 -96 14.5t-82 53.5l-127 119q-41 38 -41 73q0 34 57.5 64.5t116.5 30.5q73 0 117 -70l113 -176q20 -32 20 -55q0 -24 -22 -39
t-56 -15z" />
    <glyph glyph-name="iacute" unicode="&#xed;" horiz-adv-x="618" 
d="M154 143v811q0 65 45.5 110.5t109.5 45.5q65 0 110.5 -46t45.5 -110v-811q0 -64 -45.5 -109.5t-110.5 -45.5t-110 45t-45 110zM301 1206q-34 0 -56 15t-22 39q0 21 21 55l112 176q44 70 117 70q59 0 116.5 -30.5t57.5 -64.5q0 -35 -41 -73l-127 -119q-42 -39 -82 -53.5
t-96 -14.5z" />
    <glyph glyph-name="icircumflex" unicode="&#xee;" horiz-adv-x="618" 
d="M154 143v811q0 65 45.5 110.5t109.5 45.5q65 0 110.5 -46t45.5 -110v-811q0 -64 -45.5 -109.5t-110.5 -45.5t-110 45t-45 110zM307 1354l-96 -80q-49 -40 -91 -54t-97 -14q-31 0 -49.5 12.5t-18.5 36.5q0 20 31 60l129 166q28 35 61 52t84 17h98q51 0 84.5 -17t61.5 -52
l129 -166q31 -40 31 -60q0 -24 -20.5 -36.5t-51.5 -12.5q-56 0 -98 14.5t-91 53.5z" />
    <glyph glyph-name="idieresis" unicode="&#xef;" horiz-adv-x="618" 
d="M154 143v811q0 65 45.5 110.5t109.5 45.5q65 0 110.5 -46t45.5 -110v-811q0 -64 -45.5 -109.5t-110.5 -45.5t-110 45t-45 110zM528 1509q67 0 114.5 -42t47.5 -107v-4q0 -65 -47.5 -107.5t-114.5 -42.5t-114 42.5t-47 107.5v4q0 65 47 107t114 42zM90 1509
q67 0 114.5 -42t47.5 -107v-4q0 -65 -47.5 -107.5t-114.5 -42.5t-114.5 42.5t-47.5 107.5v4q0 65 47.5 107t114.5 42z" />
    <glyph glyph-name="eth" unicode="&#xf0;" horiz-adv-x="1327" 
d="M807 930l-178 237l-209 -86q-24 -8 -39 -8q-38 0 -65 27t-27 65q0 65 65 88l166 68q-10 27 -10 53q0 58 40 98.5t99 40.5q74 0 121 -67l12 -19l181 74q24 8 38 8q38 0 65.5 -27t27.5 -65q0 -64 -66 -88l-137 -55l166 -236q97 -138 138.5 -252.5t41.5 -246.5
q0 -115 -40 -217t-113 -179.5t-184.5 -122.5t-246.5 -45q-121 0 -226.5 42t-180 114.5t-117.5 172t-43 210.5q0 213 131.5 347t337.5 134q130 0 252 -65zM934 508q0 113 -75 189.5t-197 76.5q-123 0 -198 -75t-75 -191q0 -114 77 -192t198 -78q123 0 196.5 76.5t73.5 193.5z
" />
    <glyph glyph-name="ntilde" unicode="&#xf1;" horiz-adv-x="1275" 
d="M139 143v811q0 64 45.5 110t110.5 46t110.5 -46t45.5 -110v-12q64 82 138.5 129t182.5 47q176 0 274.5 -108.5t98.5 -298.5v-568q0 -64 -45.5 -109.5t-110.5 -45.5t-110 45t-45 110v469q0 109 -49.5 166.5t-139.5 57.5q-91 0 -142.5 -57.5t-51.5 -166.5v-469
q0 -64 -45.5 -109.5t-110.5 -45.5t-110.5 45.5t-45.5 109.5zM416 1239q-28 -47 -80 -47q-36 0 -64 25.5t-28 58.5q0 28 10 55q37 99 89 150t140 51q54 0 115.5 -20t112.5 -40t80 -20q35 0 55.5 13.5t40.5 45.5q28 48 80 48q36 0 64 -25.5t28 -58.5q0 -29 -10 -56
q-37 -98 -89.5 -149t-140.5 -51q-54 0 -115 19.5t-112 39.5t-80 20q-35 0 -55.5 -13.5t-40.5 -45.5z" />
    <glyph glyph-name="ograve" unicode="&#xf2;" horiz-adv-x="1359" 
d="M678 -25q-167 0 -303 76t-212.5 206t-76.5 286v4q0 117 45.5 222t124 182t189.5 122t237 45q167 0 303 -75.5t212.5 -205.5t76.5 -286v-4q0 -156 -77 -287t-214 -208t-305 -77zM682 244q129 0 207 86.5t78 212.5v4q0 125 -81.5 214t-207.5 89q-129 0 -207 -86.5
t-78 -212.5v-4q0 -125 81.5 -214t207.5 -89zM688 1206q-56 0 -96 14.5t-82 53.5l-127 119q-41 38 -41 73q0 34 57.5 64.5t116.5 30.5q73 0 117 -70l112 -176q21 -34 21 -55q0 -24 -22 -39t-56 -15z" />
    <glyph glyph-name="oacute" unicode="&#xf3;" horiz-adv-x="1359" 
d="M678 -25q-167 0 -303 76t-212.5 206t-76.5 286v4q0 117 45.5 222t124 182t189.5 122t237 45q167 0 303 -75.5t212.5 -205.5t76.5 -286v-4q0 -156 -77 -287t-214 -208t-305 -77zM682 244q129 0 207 86.5t78 212.5v4q0 125 -81.5 214t-207.5 89q-129 0 -207 -86.5
t-78 -212.5v-4q0 -125 81.5 -214t207.5 -89zM672 1206q-34 0 -56 15t-22 39q0 23 20 55l113 176q44 70 117 70q59 0 116.5 -30.5t57.5 -64.5q0 -35 -41 -73l-127 -119q-42 -39 -82 -53.5t-96 -14.5z" />
    <glyph glyph-name="ocircumflex" unicode="&#xf4;" horiz-adv-x="1359" 
d="M678 -25q-167 0 -303 76t-212.5 206t-76.5 286v4q0 117 45.5 222t124 182t189.5 122t237 45q167 0 303 -75.5t212.5 -205.5t76.5 -286v-4q0 -156 -77 -287t-214 -208t-305 -77zM682 244q129 0 207 86.5t78 212.5v4q0 125 -81.5 214t-207.5 89q-129 0 -207 -86.5
t-78 -212.5v-4q0 -125 81.5 -214t207.5 -89zM678 1354l-96 -80q-49 -39 -91 -53.5t-98 -14.5q-30 0 -48.5 12.5t-18.5 36.5q0 21 30 60l129 166q28 35 61.5 52t84.5 17h98q51 0 84 -17t61 -52l130 -166q30 -39 30 -60q0 -24 -20 -36.5t-51 -12.5q-56 0 -98 14.5t-91 53.5z
" />
    <glyph glyph-name="otilde" unicode="&#xf5;" horiz-adv-x="1359" 
d="M678 -25q-167 0 -303 76t-212.5 206t-76.5 286v4q0 117 45.5 222t124 182t189.5 122t237 45q167 0 303 -75.5t212.5 -205.5t76.5 -286v-4q0 -156 -77 -287t-214 -208t-305 -77zM682 244q129 0 207 86.5t78 212.5v4q0 125 -81.5 214t-207.5 89q-129 0 -207 -86.5
t-78 -212.5v-4q0 -125 81.5 -214t207.5 -89zM455 1239q-28 -47 -80 -47q-36 0 -64 25.5t-28 58.5q0 28 10 55q37 99 89 150t140 51q54 0 115 -20t112 -40t80 -20q35 0 56 13.5t41 45.5q28 48 80 48q36 0 64 -25.5t28 -58.5q0 -27 -11 -56q-37 -99 -89 -149.5t-140 -50.5
q-54 0 -115 19.5t-112 39.5t-80 20q-35 0 -55.5 -13.5t-40.5 -45.5z" />
    <glyph glyph-name="odieresis" unicode="&#xf6;" horiz-adv-x="1359" 
d="M678 -25q-167 0 -303 76t-212.5 206t-76.5 286v4q0 117 45.5 222t124 182t189.5 122t237 45q167 0 303 -75.5t212.5 -205.5t76.5 -286v-4q0 -156 -77 -287t-214 -208t-305 -77zM682 244q129 0 207 86.5t78 212.5v4q0 125 -81.5 214t-207.5 89q-129 0 -207 -86.5
t-78 -212.5v-4q0 -125 81.5 -214t207.5 -89zM899 1509q67 0 114.5 -42t47.5 -107v-4q0 -65 -47.5 -107.5t-114.5 -42.5t-114.5 42.5t-47.5 107.5v4q0 65 47.5 107t114.5 42zM461 1509q67 0 114.5 -42t47.5 -107v-4q0 -65 -47.5 -107.5t-114.5 -42.5t-114.5 42.5t-47.5 107.5
v4q0 65 47.5 107t114.5 42z" />
    <glyph glyph-name="divide" unicode="&#xf7;" horiz-adv-x="1310" 
d="M258 590h795q54 0 92.5 38.5t38.5 92.5t-38.5 92.5t-92.5 38.5h-795q-54 0 -92.5 -38.5t-38.5 -92.5t38.5 -92.5t92.5 -38.5zM655 440q69 0 118.5 -46.5t49.5 -112.5t-49.5 -113t-118.5 -47t-118.5 47t-49.5 113t49.5 112.5t118.5 46.5zM655 1321q69 0 118.5 -47
t49.5 -113t-49.5 -113t-118.5 -47t-118.5 47t-49.5 113t49.5 113t118.5 47z" />
    <glyph glyph-name="oslash" unicode="&#xf8;" horiz-adv-x="1359" 
d="M678 -25q-179 0 -326 91l-47 -48q-45 -45 -94 -45q-38 0 -67 26.5t-29 63.5q0 52 45 97l41 41q-115 146 -115 342v4q0 117 45.5 222t124 182t189.5 122t237 45q175 0 326 -90l47 47q45 45 94 45q38 0 67 -26.5t29 -63.5q0 -51 -45 -96l-41 -43q115 -150 115 -340v-4
q0 -156 -77 -287t-214 -208t-305 -77zM682 236q134 0 213.5 89t79.5 218v4q0 62 -27 131l-403 -410q62 -32 137 -32zM385 547q0 -73 27 -131l403 407q-62 35 -137 35q-134 0 -213.5 -89t-79.5 -218v-4z" />
    <glyph glyph-name="ugrave" unicode="&#xf9;" horiz-adv-x="1275" 
d="M1137 954v-811q0 -64 -45.5 -109.5t-110.5 -45.5t-110.5 45.5t-45.5 109.5v13q-64 -82 -138.5 -129t-182.5 -47q-176 0 -274.5 108.5t-98.5 298.5v567q0 64 45.5 110t110.5 46q64 0 109.5 -45.5t45.5 -110.5v-469q0 -109 49.5 -166t139.5 -57q91 0 142.5 57.5t51.5 165.5
v469q0 64 45.5 110t110.5 46t110.5 -46t45.5 -110zM641 1206q-56 0 -96 14.5t-82 53.5l-127 119q-41 38 -41 73q0 34 57.5 64.5t116.5 30.5q73 0 117 -70l112 -176q21 -34 21 -55q0 -24 -22 -39t-56 -15z" />
    <glyph glyph-name="uacute" unicode="&#xfa;" horiz-adv-x="1275" 
d="M1137 954v-811q0 -64 -45.5 -109.5t-110.5 -45.5t-110.5 45.5t-45.5 109.5v13q-64 -82 -138.5 -129t-182.5 -47q-176 0 -274.5 108.5t-98.5 298.5v567q0 64 45.5 110t110.5 46q64 0 109.5 -45.5t45.5 -110.5v-469q0 -109 49.5 -166t139.5 -57q91 0 142.5 57.5t51.5 165.5
v469q0 64 45.5 110t110.5 46t110.5 -46t45.5 -110zM625 1206q-34 0 -56 15t-22 39q0 23 20 55l113 176q44 70 117 70q59 0 116.5 -30.5t57.5 -64.5q0 -35 -41 -73l-127 -119q-42 -39 -82 -53.5t-96 -14.5z" />
    <glyph glyph-name="ucircumflex" unicode="&#xfb;" horiz-adv-x="1275" 
d="M1137 954v-811q0 -64 -45.5 -109.5t-110.5 -45.5t-110.5 45.5t-45.5 109.5v13q-64 -82 -138.5 -129t-182.5 -47q-176 0 -274.5 108.5t-98.5 298.5v567q0 64 45.5 110t110.5 46q64 0 109.5 -45.5t45.5 -110.5v-469q0 -109 49.5 -166t139.5 -57q91 0 142.5 57.5t51.5 165.5
v469q0 64 45.5 110t110.5 46t110.5 -46t45.5 -110zM631 1354l-96 -80q-49 -39 -91 -53.5t-98 -14.5q-30 0 -48.5 12.5t-18.5 36.5q0 21 30 60l129 166q28 35 61.5 52t84.5 17h98q51 0 84 -17t61 -52l129 -166q31 -40 31 -60q0 -24 -20.5 -36.5t-51.5 -12.5q-55 0 -97 14
t-91 54z" />
    <glyph glyph-name="udieresis" unicode="&#xfc;" horiz-adv-x="1275" 
d="M1137 954v-811q0 -64 -45.5 -109.5t-110.5 -45.5t-110.5 45.5t-45.5 109.5v13q-64 -82 -138.5 -129t-182.5 -47q-176 0 -274.5 108.5t-98.5 298.5v567q0 64 45.5 110t110.5 46q64 0 109.5 -45.5t45.5 -110.5v-469q0 -109 49.5 -166t139.5 -57q91 0 142.5 57.5t51.5 165.5
v469q0 64 45.5 110t110.5 46t110.5 -46t45.5 -110zM852 1509q67 0 114.5 -42t47.5 -107v-4q0 -65 -47.5 -107.5t-114.5 -42.5t-114.5 42.5t-47.5 107.5v4q0 65 47.5 107t114.5 42zM414 1509q67 0 114 -42t47 -107v-4q0 -65 -47 -107.5t-114 -42.5t-114.5 42.5t-47.5 107.5v4
q0 65 47.5 107t114.5 42z" />
    <glyph glyph-name="yacute" unicode="&#xfd;" horiz-adv-x="1200" 
d="M367 -334q-88 0 -170 29q-99 35 -99 129q0 55 37 91t86 36q27 0 51 -8q44 -13 66 -13q43 0 66.5 13t44.5 53l10 24l-375 869q-16 40 -16 72q0 65 44 107t109 42q107 0 150 -117l237 -639l230 637q45 119 149 119q61 0 104.5 -41t43.5 -102q0 -39 -15 -74l-383 -920
q-70 -170 -151 -238.5t-219 -68.5zM592 1206q-34 0 -56 15t-22 39q0 21 21 55l112 176q44 70 117 70q59 0 116.5 -30.5t57.5 -64.5q0 -35 -41 -73l-127 -119q-42 -39 -82 -53.5t-96 -14.5z" />
    <glyph glyph-name="thorn" unicode="&#xfe;" horiz-adv-x="1382" 
d="M139 -184v1536q0 64 45.5 109.5t110.5 45.5t110.5 -45.5t45.5 -109.5v-412q133 178 342 178q97 0 186 -37.5t159 -107.5t112 -179.5t42 -242.5v-4q0 -133 -41 -242.5t-111 -179.5t-159 -107.5t-188 -37.5q-205 0 -342 163v-327q0 -64 -45.5 -110t-110.5 -46t-110.5 46
t-45.5 110zM713 244q112 0 190 84t78 219v4q0 133 -78 218t-190 85q-111 0 -189 -84.5t-78 -218.5v-4q0 -134 78 -218.5t189 -84.5z" />
    <glyph glyph-name="ydieresis" unicode="&#xff;" horiz-adv-x="1200" 
d="M367 -334q-88 0 -170 29q-99 35 -99 129q0 55 37 91t86 36q27 0 51 -8q44 -13 66 -13q43 0 66.5 13t44.5 53l10 24l-375 869q-16 40 -16 72q0 65 44 107t109 42q107 0 150 -117l237 -639l230 637q45 119 149 119q61 0 104.5 -41t43.5 -102q0 -39 -15 -74l-383 -920
q-70 -170 -151 -238.5t-219 -68.5zM819 1509q67 0 114.5 -42t47.5 -107v-4q0 -65 -47.5 -107.5t-114.5 -42.5t-114.5 42.5t-47.5 107.5v4q0 65 47.5 107t114.5 42zM381 1509q67 0 114.5 -42t47.5 -107v-4q0 -65 -47.5 -107.5t-114.5 -42.5t-114.5 42.5t-47.5 107.5v4
q0 65 47.5 107t114.5 42z" />
    <glyph glyph-name="Amacron" unicode="&#x100;" horiz-adv-x="1568" 
d="M74 135q0 27 18 68l500 1128q56 125 184 125h19q126 0 182 -125l500 -1128q16 -37 16 -64q0 -63 -43.5 -107t-106.5 -44q-104 0 -151 108l-96 226h-631l-100 -236q-20 -46 -58.5 -72t-87.5 -26q-61 0 -103 42.5t-42 104.5zM582 600h397l-199 473zM1055 1577h-545
q-45 0 -77 31t-32 75t32.5 76.5t76.5 32.5h545q44 0 76 -32.5t32 -76.5t-32 -75t-76 -31z" />
    <glyph glyph-name="amacron" unicode="&#x101;" horiz-adv-x="1212" 
d="M451 -20q-162 0 -269.5 89t-107.5 246v4q0 174 119.5 262.5t322.5 88.5q138 0 268 -45v18q0 98 -59.5 149.5t-175.5 51.5q-113 0 -215 -31q-24 -8 -45 -8q-54 0 -91.5 36.5t-37.5 90.5q0 41 23.5 74t60.5 47q151 57 350 57q248 0 371 -123q118 -118 118 -350v-500
q0 -63 -44 -106t-107 -43q-65 0 -107.5 38.5t-42.5 90.5v2q-126 -139 -331 -139zM883 1229h-545q-45 0 -77 31t-32 75t32.5 76.5t76.5 32.5h545q44 0 76 -32.5t32 -76.5t-32 -75t-76 -31zM545 195q108 0 175.5 53.5t67.5 138.5v55q-87 41 -198 41q-101 0 -158 -39t-57 -112
v-4q0 -62 47 -97.5t123 -35.5z" />
    <glyph glyph-name="Abreve" unicode="&#x102;" horiz-adv-x="1568" 
d="M74 135q0 27 18 68l500 1128q56 125 184 125h19q126 0 182 -125l500 -1128q16 -37 16 -64q0 -63 -43.5 -107t-106.5 -44q-104 0 -151 108l-96 226h-631l-100 -236q-20 -46 -58.5 -72t-87.5 -26q-61 0 -103 42.5t-42 104.5zM582 600h397l-199 473zM782 1563
q-119 0 -207.5 45.5t-134.5 128.5q-14 25 -14 57q0 44 31 75.5t75 31.5q61 0 93 -54q52 -82 157 -82q106 0 158 82q32 54 92 54q44 0 75.5 -31.5t31.5 -75.5q0 -30 -15 -57q-46 -83 -134.5 -128.5t-207.5 -45.5z" />
    <glyph glyph-name="abreve" unicode="&#x103;" horiz-adv-x="1212" 
d="M451 -20q-162 0 -269.5 89t-107.5 246v4q0 174 119.5 262.5t322.5 88.5q138 0 268 -45v18q0 98 -59.5 149.5t-175.5 51.5q-113 0 -215 -31q-24 -8 -45 -8q-54 0 -91.5 36.5t-37.5 90.5q0 41 23.5 74t60.5 47q151 57 350 57q248 0 371 -123q118 -118 118 -350v-500
q0 -63 -44 -106t-107 -43q-65 0 -107.5 38.5t-42.5 90.5v2q-126 -139 -331 -139zM610 1214q-119 0 -207.5 46t-134.5 129q-14 25 -14 57q0 44 31 75t75 31q62 0 93 -53q52 -82 157 -82q106 0 158 82q31 53 92 53q44 0 75.5 -31t31.5 -75q0 -30 -15 -57q-46 -83 -134.5 -129
t-207.5 -46zM545 195q108 0 175.5 53.5t67.5 138.5v55q-87 41 -198 41q-101 0 -158 -39t-57 -112v-4q0 -62 47 -97.5t123 -35.5z" />
    <glyph glyph-name="Aogonek" unicode="&#x104;" horiz-adv-x="1617" 
d="M98 135q0 24 19 68l499 1128q56 125 185 125h18q126 0 182 -125l500 -1128q17 -39 17 -64q0 -35 -13 -61.5t-43 -59.5q-69 -74 -69 -133q0 -32 20 -50.5t62 -29.5q73 -19 73 -73q0 -35 -25 -54.5t-73 -19.5q-131 0 -206 46t-75 132q0 81 82 180l-131 306h-631l-100 -236
q-20 -46 -58 -72t-87 -26q-61 0 -103.5 42.5t-42.5 104.5zM606 600h398l-199 473z" />
    <glyph glyph-name="aogonek" unicode="&#x105;" horiz-adv-x="1212" 
d="M725 -174q0 93 100 199q-43 37 -43 92v2q-126 -139 -331 -139q-162 0 -269.5 89t-107.5 246v4q0 174 119.5 262.5t322.5 88.5q138 0 268 -45v18q0 98 -59.5 149.5t-175.5 51.5q-113 0 -215 -31q-24 -8 -45 -8q-54 0 -91.5 36.5t-37.5 90.5q0 41 23.5 74t60.5 47
q151 57 350 57q248 0 371 -123q118 -118 118 -350v-500q0 -36 -12.5 -61.5t-44.5 -57.5q-76 -76 -76 -137q0 -30 18.5 -47.5t59.5 -28.5q74 -19 74 -73q0 -35 -25 -54.5t-73 -19.5q-130 0 -204.5 44.5t-74.5 123.5zM545 195q108 0 175.5 53.5t67.5 138.5v55q-87 41 -198 41
q-101 0 -158 -39t-57 -112v-4q0 -62 47 -97.5t123 -35.5z" />
    <glyph glyph-name="Cacute" unicode="&#x106;" horiz-adv-x="1511" 
d="M844 -25q-207 0 -376 98t-264 267t-95 373v4q0 203 94 372t266 269t387 100q283 0 479 -145q62 -47 62 -125q0 -64 -45.5 -109t-110.5 -45q-43 0 -94 31q-136 102 -293 102q-179 0 -297.5 -129.5t-118.5 -316.5v-4q0 -188 117.5 -319.5t298.5 -131.5q95 0 167 28t144 85
q44 35 95 35q60 0 103.5 -43t43.5 -103q0 -66 -53 -112q-102 -89 -223.5 -135t-286.5 -46zM821 1554q-34 0 -56 15t-22 39q0 21 21 55l113 176q44 70 116 70q59 0 116.5 -30t57.5 -64q0 -36 -41 -74l-127 -119q-42 -39 -82 -53.5t-96 -14.5z" />
    <glyph glyph-name="cacute" unicode="&#x107;" horiz-adv-x="1169" 
d="M657 -25q-162 0 -293.5 76.5t-204.5 206.5t-73 285v4q0 156 73 286t206 207.5t297 77.5q229 0 374 -123q49 -39 49 -106q0 -58 -41 -98.5t-100 -40.5q-51 0 -90 30q-90 70 -195 70q-115 0 -190.5 -87.5t-75.5 -211.5v-4q0 -129 77 -216t202 -87q111 0 205 75q39 29 84 29
q55 0 93 -38.5t38 -94.5t-45 -98q-156 -142 -390 -142zM641 1206q-34 0 -56 15t-22 39q0 21 21 55l112 176q44 70 117 70q59 0 116.5 -30.5t57.5 -64.5q0 -35 -41 -73l-127 -119q-42 -39 -82 -53.5t-96 -14.5z" />
    <glyph glyph-name="Cdotaccent" unicode="&#x10a;" horiz-adv-x="1511" 
d="M844 -25q-207 0 -376 98t-264 267t-95 373v4q0 203 94 372t266 269t387 100q283 0 479 -145q62 -47 62 -125q0 -64 -45.5 -109t-110.5 -45q-43 0 -94 31q-136 102 -293 102q-179 0 -297.5 -129.5t-118.5 -316.5v-4q0 -188 117.5 -319.5t298.5 -131.5q95 0 167 28t144 85
q44 35 95 35q60 0 103.5 -43t43.5 -103q0 -66 -53 -112q-102 -89 -223.5 -135t-286.5 -46zM995 1708v-4q0 -66 -48.5 -108t-117.5 -42t-117 42t-48 108v4q0 66 48 108t117 42t117.5 -42t48.5 -108z" />
    <glyph glyph-name="cdotaccent" unicode="&#x10b;" horiz-adv-x="1169" 
d="M657 -25q-162 0 -293.5 76.5t-204.5 206.5t-73 285v4q0 156 73 286t206 207.5t297 77.5q229 0 374 -123q49 -39 49 -106q0 -58 -41 -98.5t-100 -40.5q-51 0 -90 30q-90 70 -195 70q-115 0 -190.5 -87.5t-75.5 -211.5v-4q0 -129 77 -216t202 -87q111 0 205 75q39 29 84 29
q55 0 93 -38.5t38 -94.5t-45 -98q-156 -142 -390 -142zM815 1360v-4q0 -66 -48.5 -108t-117.5 -42t-117.5 42t-48.5 108v4q0 66 48.5 107.5t117.5 41.5t117.5 -41.5t48.5 -107.5z" />
    <glyph glyph-name="Ccaron" unicode="&#x10c;" horiz-adv-x="1511" 
d="M844 -25q-207 0 -376 98t-264 267t-95 373v4q0 203 94 372t266 269t387 100q283 0 479 -145q62 -47 62 -125q0 -64 -45.5 -109t-110.5 -45q-43 0 -94 31q-136 102 -293 102q-179 0 -297.5 -129.5t-118.5 -316.5v-4q0 -188 117.5 -319.5t298.5 -131.5q95 0 167 28t144 85
q44 35 95 35q60 0 103.5 -43t43.5 -103q0 -66 -53 -112q-102 -89 -223.5 -135t-286.5 -46zM831 1753l97 80q49 40 91 54t97 14q30 0 49 -13t19 -37q0 -19 -31 -59l-129 -166q-29 -35 -61.5 -52.5t-83.5 -17.5h-99q-51 0 -83.5 17.5t-61.5 52.5l-129 166q-31 40 -31 59
q0 24 20.5 37t51.5 13q55 0 97 -14t91 -54z" />
    <glyph glyph-name="ccaron" unicode="&#x10d;" horiz-adv-x="1169" 
d="M657 -25q-162 0 -293.5 76.5t-204.5 206.5t-73 285v4q0 156 73 286t206 207.5t297 77.5q229 0 374 -123q49 -39 49 -106q0 -58 -41 -98.5t-100 -40.5q-51 0 -90 30q-90 70 -195 70q-115 0 -190.5 -87.5t-75.5 -211.5v-4q0 -129 77 -216t202 -87q111 0 205 75q39 29 84 29
q55 0 93 -38.5t38 -94.5t-45 -98q-156 -142 -390 -142zM651 1405l97 80q49 39 90.5 53t97.5 14q31 0 49.5 -12.5t18.5 -36.5q0 -19 -31 -59l-129 -166q-29 -35 -62 -52.5t-84 -17.5h-98q-51 0 -83.5 17.5t-61.5 52.5l-129 166q-31 40 -31 59q0 24 20.5 36.5t51.5 12.5
q56 0 97.5 -14t90.5 -53z" />
    <glyph glyph-name="Dcaron" unicode="&#x10e;" horiz-adv-x="1601" 
d="M172 158v1118q0 66 46 112t112 46h401q166 0 309 -55t242 -150t155 -226.5t56 -281.5v-4q0 -150 -56 -282t-155 -228t-242 -151.5t-309 -55.5h-401q-66 0 -112 46t-46 112zM487 285h244q193 0 312.5 118.5t119.5 309.5v4q0 191 -119.5 311.5t-312.5 120.5h-244v-864z
M776 1733l96 79q49 39 91 53.5t98 14.5q30 0 48.5 -12.5t18.5 -36.5q0 -20 -30 -59l-129 -166q-29 -35 -62 -52.5t-84 -17.5h-98q-51 0 -83.5 17.5t-61.5 52.5l-129 166q-31 40 -31 59q0 24 20.5 36.5t51.5 12.5q55 0 97 -14t91 -54z" />
    <glyph glyph-name="dcaron" unicode="&#x10f;" horiz-adv-x="1382" 
d="M1243 1352v-1209q0 -64 -45.5 -109.5t-110.5 -45.5t-110 45t-45 110v15q-133 -178 -342 -178q-97 0 -186 37.5t-159.5 107.5t-112.5 179.5t-42 242.5v4q0 133 41.5 242.5t111.5 179.5t159 107.5t188 37.5q204 0 342 -164v398q0 64 45 109.5t110 45.5t110.5 -45.5
t45.5 -109.5zM670 854q-112 0 -190.5 -84.5t-78.5 -218.5v-4q0 -133 78.5 -218t190.5 -85q111 0 188.5 84.5t77.5 218.5v4q0 134 -77.5 218.5t-188.5 84.5zM1346 1137v266q0 44 29 74t75 30h41q34 0 55 -17t21 -50q0 -23 -8 -47l-78 -271q-16 -55 -72 -55q-29 0 -46 19.5
t-17 50.5z" />
    <glyph glyph-name="Dcroat" unicode="&#x110;" horiz-adv-x="1662" 
d="M207 860h26v416q0 66 46 112t112 46h402q166 0 308.5 -55t241.5 -150t155 -226.5t56 -281.5v-4q0 -150 -56 -282t-155 -228t-241.5 -151.5t-308.5 -55.5h-402q-66 0 -112 46t-46 112v424h-26q-59 0 -99 40t-40 99t40 99t99 40zM545 1149v-289h184q59 0 99 -40t40 -99
t-40 -99t-99 -40h-184v-297h248q193 0 312.5 118.5t119.5 309.5v4q0 191 -119.5 311.5t-312.5 120.5h-248z" />
    <glyph glyph-name="dcroat" unicode="&#x111;" horiz-adv-x="1382" 
d="M688 1389h248q12 52 54 85t97 33t97.5 -33.5t54.5 -84.5h70q35 0 60.5 -25.5t25.5 -60.5t-25.5 -60.5t-60.5 -25.5h-66v-1074q0 -64 -45.5 -109.5t-110.5 -45.5t-110 45t-45 110v15q-133 -178 -342 -178q-97 0 -186 37.5t-159.5 107.5t-112.5 179.5t-42 242.5v4
q0 133 41.5 242.5t111.5 179.5t159 107.5t188 37.5q204 0 342 -164v263h-244q-35 0 -60.5 25.5t-25.5 60.5t25.5 60.5t60.5 25.5zM670 854q-112 0 -190.5 -84.5t-78.5 -218.5v-4q0 -133 78.5 -218t190.5 -85q111 0 188.5 84.5t77.5 218.5v4q0 134 -77.5 218.5t-188.5 84.5z
" />
    <glyph glyph-name="Emacron" unicode="&#x112;" horiz-adv-x="1372" 
d="M330 0q-66 0 -112 46t-46 112v1118q0 66 46 112t112 46h794q58 0 100 -42t42 -100t-41.5 -98.5t-100.5 -40.5h-639v-291h547q59 0 100.5 -41.5t41.5 -99.5t-41.5 -98.5t-100.5 -40.5h-547v-301h650q58 0 99.5 -41.5t41.5 -100.5q0 -58 -41 -98.5t-100 -40.5h-805z
M989 1556h-545q-44 0 -76 31.5t-32 75.5t32 76.5t76 32.5h545q44 0 76.5 -32.5t32.5 -76.5t-32.5 -75.5t-76.5 -31.5z" />
    <glyph glyph-name="emacron" unicode="&#x113;" horiz-adv-x="1255" 
d="M391 635h469q-14 107 -74.5 170t-156.5 63q-95 0 -157 -62.5t-81 -170.5zM1040 109q-157 -134 -381 -134q-249 0 -411 159t-162 409v4q0 156 68.5 286t193.5 207.5t281 77.5q106 0 195.5 -33t149.5 -87t102.5 -124t61.5 -142t19 -142q0 -67 -41.5 -108.5t-103.5 -41.5
h-617q23 -105 93.5 -160t175.5 -55q122 0 221 74q36 25 76 25q52 0 86 -35t34 -88q0 -56 -41 -92zM897 1229h-545q-44 0 -76 31t-32 75t32 76.5t76 32.5h545q44 0 76.5 -32.5t32.5 -76.5t-32 -75t-77 -31z" />
    <glyph glyph-name="Ebreve" unicode="&#x114;" horiz-adv-x="1372" 
d="M330 0q-66 0 -112 46t-46 112v1118q0 66 46 112t112 46h794q58 0 100 -42t42 -100t-41.5 -98.5t-100.5 -40.5h-639v-291h547q59 0 100.5 -41.5t41.5 -99.5t-41.5 -98.5t-100.5 -40.5h-547v-301h650q58 0 99.5 -41.5t41.5 -100.5q0 -58 -41 -98.5t-100 -40.5h-805z
M717 1542q-119 0 -207.5 45.5t-134.5 128.5q-15 27 -15 58q0 44 31.5 75t75.5 31q61 0 92 -53q52 -82 158 -82q105 0 157 82q31 53 93 53q44 0 75 -31t31 -75q0 -33 -14 -58q-46 -83 -134.5 -128.5t-207.5 -45.5z" />
    <glyph glyph-name="ebreve" unicode="&#x115;" horiz-adv-x="1255" 
d="M391 635h469q-14 107 -74.5 170t-156.5 63q-95 0 -157 -62.5t-81 -170.5zM1040 109q-157 -134 -381 -134q-249 0 -411 159t-162 409v4q0 156 68.5 286t193.5 207.5t281 77.5q106 0 195.5 -33t149.5 -87t102.5 -124t61.5 -142t19 -142q0 -67 -41.5 -108.5t-103.5 -41.5
h-617q23 -105 93.5 -160t175.5 -55q122 0 221 74q36 25 76 25q52 0 86 -35t34 -88q0 -56 -41 -92zM625 1214q-119 0 -207.5 46t-134.5 129q-15 27 -15 57q0 44 31.5 75t75.5 31q61 0 92 -53q52 -82 158 -82q105 0 157 82q31 53 92 53q44 0 75.5 -31t31.5 -75q0 -32 -14 -57
q-46 -83 -134.5 -129t-207.5 -46z" />
    <glyph glyph-name="Edotaccent" unicode="&#x116;" horiz-adv-x="1372" 
d="M330 0q-66 0 -112 46t-46 112v1118q0 66 46 112t112 46h794q58 0 100 -42t42 -100t-41.5 -98.5t-100.5 -40.5h-639v-291h547q59 0 100.5 -41.5t41.5 -99.5t-41.5 -98.5t-100.5 -40.5h-547v-301h650q58 0 99.5 -41.5t41.5 -100.5q0 -58 -41 -98.5t-100 -40.5h-805z
M883 1688v-5q0 -66 -48.5 -107.5t-117.5 -41.5t-117.5 41.5t-48.5 107.5v5q0 66 48.5 107.5t117.5 41.5t117.5 -41.5t48.5 -107.5z" />
    <glyph glyph-name="edotaccent" unicode="&#x117;" horiz-adv-x="1255" 
d="M391 635h469q-14 107 -74.5 170t-156.5 63q-95 0 -157 -62.5t-81 -170.5zM1040 109q-157 -134 -381 -134q-249 0 -411 159t-162 409v4q0 156 68.5 286t193.5 207.5t281 77.5q106 0 195.5 -33t149.5 -87t102.5 -124t61.5 -142t19 -142q0 -67 -41.5 -108.5t-103.5 -41.5
h-617q23 -105 93.5 -160t175.5 -55q122 0 221 74q36 25 76 25q52 0 86 -35t34 -88q0 -56 -41 -92zM791 1360v-4q0 -66 -48.5 -108t-117.5 -42t-117.5 42t-48.5 108v4q0 66 48.5 107.5t117.5 41.5t117.5 -41.5t48.5 -107.5z" />
    <glyph glyph-name="Eogonek" unicode="&#x118;" horiz-adv-x="1372" 
d="M330 0q-66 0 -112 46t-46 112v1118q0 66 46 112t112 46h794q58 0 100 -42t42 -100t-41.5 -98.5t-100.5 -40.5h-639v-291h547q59 0 100.5 -41.5t41.5 -99.5t-41.5 -98.5t-100.5 -40.5h-547v-301h650q58 0 99.5 -40.5t41.5 -93.5q0 -43 -16.5 -69.5t-61.5 -69.5
q-68 -65 -68 -123q0 -32 20 -50.5t62 -29.5q74 -19 74 -73q0 -35 -25 -54.5t-73 -19.5q-131 0 -206 46t-75 132q0 78 70 164h-647z" />
    <glyph glyph-name="eogonek" unicode="&#x119;" horiz-adv-x="1255" 
d="M1157 590q0 -67 -41.5 -108.5t-103.5 -41.5h-617q23 -105 93.5 -160t175.5 -55q122 0 221 74q36 25 76 25q52 0 86 -35t34 -88q0 -51 -41 -92q-17 -18 -43.5 -43t-46.5 -46q-61 -64 -61 -124q0 -39 20 -59.5t62 -31.5q73 -19 73 -73q0 -35 -25 -54.5t-73 -19.5
q-131 0 -205.5 46t-74.5 132q0 66 65 144q-63 -5 -72 -5q-249 0 -411 159t-162 409v4q0 156 68.5 286t193.5 207.5t281 77.5q106 0 195.5 -33t149.5 -87t102.5 -124t61.5 -142t19 -142zM391 635h469q-14 107 -74.5 170t-156.5 63q-95 0 -157 -62.5t-81 -170.5z" />
    <glyph glyph-name="Ecaron" unicode="&#x11a;" horiz-adv-x="1372" 
d="M330 0q-66 0 -112 46t-46 112v1118q0 66 46 112t112 46h794q58 0 100 -42t42 -100t-41.5 -98.5t-100.5 -40.5h-639v-291h547q59 0 100.5 -41.5t41.5 -99.5t-41.5 -98.5t-100.5 -40.5h-547v-301h650q58 0 99.5 -41.5t41.5 -100.5q0 -58 -41 -98.5t-100 -40.5h-805z
M719 1733l96 79q49 39 91 53.5t98 14.5q30 0 48.5 -12.5t18.5 -36.5q0 -19 -31 -59l-129 -166q-29 -35 -61.5 -52.5t-83.5 -17.5h-98q-51 0 -84 17.5t-62 52.5l-129 166q-31 40 -31 59q0 24 20.5 36.5t51.5 12.5q56 0 98 -14.5t91 -53.5z" />
    <glyph glyph-name="ecaron" unicode="&#x11b;" horiz-adv-x="1255" 
d="M391 635h469q-14 107 -74.5 170t-156.5 63q-95 0 -157 -62.5t-81 -170.5zM1040 109q-157 -134 -381 -134q-249 0 -411 159t-162 409v4q0 156 68.5 286t193.5 207.5t281 77.5q106 0 195.5 -33t149.5 -87t102.5 -124t61.5 -142t19 -142q0 -67 -41.5 -108.5t-103.5 -41.5
h-617q23 -105 93.5 -160t175.5 -55q122 0 221 74q36 25 76 25q52 0 86 -35t34 -88q0 -56 -41 -92zM627 1405l96 80q49 39 90.5 53t97.5 14q31 0 49.5 -12.5t18.5 -36.5q0 -19 -31 -59l-129 -166q-29 -35 -61.5 -52.5t-83.5 -17.5h-99q-51 0 -83.5 17.5t-61.5 52.5l-129 166
q-31 40 -31 59q0 24 20.5 36.5t51.5 12.5q56 0 97.5 -14t90.5 -53z" />
    <glyph glyph-name="Gbreve" unicode="&#x11e;" horiz-adv-x="1605" 
d="M862 -25q-165 0 -305.5 56t-238.5 154t-153.5 234.5t-55.5 293.5v4q0 151 57 287.5t155.5 236.5t239 158.5t299.5 58.5q157 0 273 -34.5t217 -104.5q65 -48 65 -127q0 -65 -45.5 -110.5t-109.5 -45.5q-50 0 -97 33q-138 98 -313 98q-171 0 -291.5 -131t-120.5 -315v-4
q0 -197 122 -326t312 -129q176 0 297 86v205h-213q-57 0 -97 39t-40 96t40 97t97 40h361q66 0 112 -45.5t46 -111.5v-349q0 -134 -111 -200q-234 -144 -502 -144zM844 1563q-119 0 -207.5 45.5t-134.5 128.5q-15 27 -15 57q0 44 31.5 75.5t75.5 31.5q60 0 92 -54
q52 -82 158 -82q105 0 157 82q32 54 93 54q44 0 75 -31.5t31 -75.5q0 -32 -14 -57q-46 -83 -134.5 -128.5t-207.5 -45.5z" />
    <glyph glyph-name="gbreve" unicode="&#x11f;" horiz-adv-x="1382" 
d="M631 -332q-210 0 -402 76q-41 15 -64.5 47t-23.5 74q0 53 37.5 90t89.5 37q28 0 51 -10q145 -66 304 -66q313 0 313 299v53q-74 -89 -157 -133.5t-201 -44.5q-97 0 -184.5 35t-155.5 98.5t-108 161.5t-40 217v4q0 119 40.5 217.5t109 162t156 98t182.5 34.5
q118 0 200 -42.5t154 -121.5v2q0 63 45.5 108.5t109.5 45.5q65 0 110.5 -46t45.5 -110v-706q0 -293 -139 -432q-148 -148 -473 -148zM668 348q115 0 191.5 71.5t76.5 182.5v4q0 111 -76.5 182.5t-191.5 71.5t-191 -71t-76 -183v-4q0 -113 76 -183.5t191 -70.5zM666 1214
q-119 0 -207.5 46t-134.5 129q-15 27 -15 57q0 44 31.5 75t75.5 31q61 0 92 -53q52 -82 158 -82q105 0 157 82q31 53 92 53q44 0 75.5 -31t31.5 -75q0 -32 -14 -57q-46 -83 -134.5 -129t-207.5 -46z" />
    <glyph glyph-name="Gdotaccent" unicode="&#x120;" horiz-adv-x="1605" 
d="M862 -25q-165 0 -305.5 56t-238.5 154t-153.5 234.5t-55.5 293.5v4q0 151 57 287.5t155.5 236.5t239 158.5t299.5 58.5q157 0 273 -34.5t217 -104.5q65 -48 65 -127q0 -65 -45.5 -110.5t-109.5 -45.5q-50 0 -97 33q-138 98 -313 98q-171 0 -291.5 -131t-120.5 -315v-4
q0 -197 122 -326t312 -129q176 0 297 86v205h-213q-57 0 -97 39t-40 96t40 97t97 40h361q66 0 112 -45.5t46 -111.5v-349q0 -134 -111 -200q-234 -144 -502 -144zM1010 1708v-4q0 -66 -48.5 -108t-117.5 -42t-117.5 42t-48.5 108v4q0 66 48.5 108t117.5 42t117.5 -42
t48.5 -108z" />
    <glyph glyph-name="gdotaccent" unicode="&#x121;" horiz-adv-x="1382" 
d="M631 -332q-210 0 -402 76q-41 15 -64.5 47t-23.5 74q0 53 37.5 90t89.5 37q28 0 51 -10q145 -66 304 -66q313 0 313 299v53q-74 -89 -157 -133.5t-201 -44.5q-97 0 -184.5 35t-155.5 98.5t-108 161.5t-40 217v4q0 119 40.5 217.5t109 162t156 98t182.5 34.5
q118 0 200 -42.5t154 -121.5v2q0 63 45.5 108.5t109.5 45.5q65 0 110.5 -46t45.5 -110v-706q0 -293 -139 -432q-148 -148 -473 -148zM668 348q115 0 191.5 71.5t76.5 182.5v4q0 111 -76.5 182.5t-191.5 71.5t-191 -71t-76 -183v-4q0 -113 76 -183.5t191 -70.5zM831 1360v-4
q0 -66 -48 -108t-117 -42t-117.5 42t-48.5 108v4q0 66 48.5 107.5t117.5 41.5t117 -41.5t48 -107.5z" />
    <glyph glyph-name="Gcommaaccent" unicode="&#x122;" horiz-adv-x="1605" 
d="M862 -25q-165 0 -305.5 56t-238.5 154t-153.5 234.5t-55.5 293.5v4q0 151 57 287.5t155.5 236.5t239 158.5t299.5 58.5q157 0 273 -34.5t217 -104.5q65 -48 65 -127q0 -65 -45.5 -110.5t-109.5 -45.5q-50 0 -97 33q-138 98 -313 98q-171 0 -291.5 -131t-120.5 -315v-4
q0 -197 122 -326t312 -129q176 0 297 86v205h-213q-57 0 -97 39t-40 96t40 97t97 40h361q66 0 112 -45.5t46 -111.5v-349q0 -134 -111 -200q-234 -144 -502 -144zM823 -367q-58 10 -93.5 41t-35.5 82v2q0 55 40.5 89t107.5 34q71 0 113 -46t42 -122v-6q0 -160 -104 -244
q-38 -33 -91.5 -52t-105.5 -19q-32 0 -48.5 14.5t-16.5 36.5q0 40 51 49q144 29 141 141z" />
    <glyph glyph-name="gcommaaccent" unicode="&#x123;" horiz-adv-x="1382" 
d="M631 -332q-210 0 -402 76q-41 15 -64.5 47t-23.5 74q0 53 37.5 90t89.5 37q28 0 51 -10q145 -66 304 -66q313 0 313 299v53q-74 -89 -157 -133.5t-201 -44.5q-97 0 -184.5 35t-155.5 98.5t-108 161.5t-40 217v4q0 119 40.5 217.5t109 162t156 98t182.5 34.5
q118 0 200 -42.5t154 -121.5v2q0 63 45.5 108.5t109.5 45.5q65 0 110.5 -46t45.5 -110v-706q0 -293 -139 -432q-148 -148 -473 -148zM668 348q115 0 191.5 71.5t76.5 182.5v4q0 111 -76.5 182.5t-191.5 71.5t-191 -71t-76 -183v-4q0 -113 76 -183.5t191 -70.5zM684 1454
q58 -10 93.5 -41t35.5 -82v-2q0 -55 -40 -89t-107 -34q-71 0 -113.5 46t-42.5 122v6q0 160 104 244q38 33 91.5 52.5t105.5 19.5q32 0 49 -14.5t17 -36.5q0 -41 -52 -50q-144 -29 -141 -141z" />
    <glyph glyph-name="Hbar" unicode="&#x126;" horiz-adv-x="1556" 
d="M172 145v904h-47q-45 0 -77 31t-32 75t32.5 76.5t76.5 32.5h47v24q0 66 46 112t112 46t111.5 -46t45.5 -112v-24h582v24q0 66 46 112t112 46t111.5 -46t45.5 -112v-24h43q44 0 76.5 -32.5t32.5 -76.5t-32 -75t-77 -31h-43v-904q0 -66 -45.5 -111.5t-111.5 -45.5
t-112 45.5t-46 111.5v430h-582v-430q0 -66 -45.5 -111.5t-111.5 -45.5t-112 45.5t-46 111.5zM487 866h582v183h-582v-183z" />
    <glyph glyph-name="hbar" unicode="&#x127;" horiz-adv-x="1275" 
d="M139 143v1074h-65q-35 0 -60.5 25.5t-25.5 60.5t25.5 60.5t60.5 25.5h69q12 51 54.5 84.5t97.5 33.5t97 -33t54 -85h248q35 0 60.5 -25.5t25.5 -60.5t-25.5 -60.5t-60.5 -25.5h-243v-275q64 82 138.5 129t182.5 47q176 0 274.5 -108.5t98.5 -298.5v-568
q0 -64 -45.5 -109.5t-110.5 -45.5t-110 45t-45 110v469q0 109 -49.5 166.5t-139.5 57.5q-91 0 -142.5 -57.5t-51.5 -166.5v-469q0 -64 -45.5 -109.5t-110.5 -45.5t-110.5 45.5t-45.5 109.5z" />
    <glyph glyph-name="Imacron" unicode="&#x12a;" horiz-adv-x="688" 
d="M186 145v1143q0 66 46 112t112 46t112 -46t46 -112v-1143q0 -66 -46 -111.5t-112 -45.5t-112 45.5t-46 111.5zM616 1556h-544q-44 0 -76.5 31.5t-32.5 75.5t32.5 76.5t76.5 32.5h544q44 0 76.5 -32.5t32.5 -76.5t-32.5 -75.5t-76.5 -31.5z" />
    <glyph glyph-name="imacron" unicode="&#x12b;" horiz-adv-x="618" 
d="M154 143v811q0 65 45.5 110.5t109.5 45.5q65 0 110.5 -46t45.5 -110v-811q0 -64 -45.5 -109.5t-110.5 -45.5t-110 45t-45 110zM582 1229h-545q-45 0 -77 31t-32 75t32.5 76.5t76.5 32.5h545q44 0 76 -32.5t32 -76.5t-32 -75t-76 -31z" />
    <glyph glyph-name="Ibreve" unicode="&#x12c;" horiz-adv-x="688" 
d="M186 145v1143q0 66 46 112t112 46t112 -46t46 -112v-1143q0 -66 -46 -111.5t-112 -45.5t-112 45.5t-46 111.5zM344 1542q-119 0 -207.5 45.5t-134.5 128.5q-14 25 -14 58q0 44 31 75t75 31q61 0 92 -53q52 -82 158 -82t158 82q31 53 92 53q44 0 75 -31t31 -75
q0 -33 -14 -58q-46 -83 -134.5 -128.5t-207.5 -45.5z" />
    <glyph glyph-name="ibreve" unicode="&#x12d;" horiz-adv-x="618" 
d="M154 143v811q0 65 45.5 110.5t109.5 45.5q65 0 110.5 -46t45.5 -110v-811q0 -64 -45.5 -109.5t-110.5 -45.5t-110 45t-45 110zM309 1214q-119 0 -207.5 46t-134.5 129q-14 25 -14 57q0 44 31 75t75 31q62 0 93 -53q52 -82 157 -82q106 0 158 82q31 53 92 53
q44 0 75.5 -31t31.5 -75q0 -30 -15 -57q-46 -83 -134.5 -129t-207.5 -46z" />
    <glyph glyph-name="Iogonek" unicode="&#x12e;" horiz-adv-x="688" 
d="M150 -164q0 85 90 191q-54 47 -54 118v1143q0 66 46 112t112 46t112 -46t46 -112v-1143q0 -35 -13.5 -62.5t-44.5 -62.5q-71 -79 -71 -135q0 -32 20 -50.5t62 -29.5q73 -19 73 -73q0 -35 -25 -54.5t-73 -19.5q-131 0 -205.5 46t-74.5 132z" />
    <glyph glyph-name="iogonek" unicode="&#x12f;" horiz-adv-x="618" 
d="M465 954v-817q0 -36 -12.5 -61.5t-44.5 -57.5q-76 -76 -76 -137q0 -30 18.5 -47.5t59.5 -28.5q73 -19 73 -73q0 -35 -25 -54.5t-73 -19.5q-130 0 -204.5 44.5t-74.5 123.5q0 100 103 199q-55 46 -55 118v811q0 65 45.5 110.5t109.5 45.5q65 0 110.5 -46t45.5 -110z
M135 1356v4q0 66 49.5 105.5t124.5 39.5t124.5 -39.5t49.5 -105.5v-4q0 -66 -49.5 -107t-124.5 -41t-124.5 41t-49.5 107z" />
    <glyph glyph-name="Idotaccent" unicode="&#x130;" horiz-adv-x="688" 
d="M186 145v1143q0 66 46 112t112 46t112 -46t46 -112v-1143q0 -66 -46 -111.5t-112 -45.5t-112 45.5t-46 111.5zM510 1688v-5q0 -66 -48.5 -107.5t-117.5 -41.5t-117.5 41.5t-48.5 107.5v5q0 66 48.5 107.5t117.5 41.5t117.5 -41.5t48.5 -107.5z" />
    <glyph glyph-name="dotlessi" unicode="&#x131;" horiz-adv-x="618" 
d="M154 143v811q0 65 45.5 110.5t109.5 45.5q65 0 110.5 -46t45.5 -110v-811q0 -64 -45.5 -109.5t-110.5 -45.5t-110 45t-45 110z" />
    <glyph glyph-name="Kcommaaccent" unicode="&#x136;" horiz-adv-x="1458" 
d="M172 145v1143q0 66 46 112t112 46t111.5 -46t45.5 -112v-481l582 577q62 62 133 62q64 0 105 -43t41 -103q0 -63 -58 -118l-403 -377l440 -553q43 -53 43 -111q0 -66 -45.5 -109.5t-114.5 -43.5q-75 0 -133 75l-409 537l-181 -168v-287q0 -66 -45.5 -111.5t-111.5 -45.5
t-112 45.5t-46 111.5zM729 -346q-58 10 -93.5 41t-35.5 82v2q0 55 40.5 89t107.5 34q71 0 113 -46t42 -122v-6q0 -160 -104 -244q-38 -33 -91.5 -52.5t-105.5 -19.5q-32 0 -48.5 14.5t-16.5 36.5q0 41 51 50q144 29 141 141z" />
    <glyph glyph-name="kcommaaccent" unicode="&#x137;" horiz-adv-x="1204" 
d="M139 143v1209q0 64 45.5 109.5t110.5 45.5t110.5 -45.5t45.5 -109.5v-680l389 368q38 36 68.5 53t68.5 17q61 0 99 -41.5t38 -97.5q0 -66 -72 -135l-245 -211l293 -396q38 -52 38 -100q0 -62 -42.5 -101.5t-102.5 -39.5q-46 0 -76.5 16.5t-58.5 54.5l-273 375l-124 -112
v-179q0 -64 -45.5 -109.5t-110.5 -45.5t-110.5 45.5t-45.5 109.5zM608 -356q-58 10 -93.5 41t-35.5 82v2q0 54 40.5 88t107.5 34q71 0 113 -45.5t42 -121.5v-7q0 -159 -104 -243q-38 -33 -91.5 -52.5t-105.5 -19.5q-32 0 -48.5 14.5t-16.5 36.5q0 40 51 49q144 29 141 142z
" />
    <glyph glyph-name="Lacute" unicode="&#x139;" horiz-adv-x="1267" 
d="M172 158v1130q0 66 46 112t112 46t111.5 -46t45.5 -112v-1001h584q60 0 101.5 -42t41.5 -102t-41.5 -101.5t-101.5 -41.5h-741q-66 0 -112 46t-46 112zM371 1534q-34 0 -56 14.5t-22 38.5q0 23 20 55l113 177q43 69 117 69q59 0 116.5 -30t57.5 -64q0 -36 -41 -74
l-127 -118q-42 -39 -82 -53.5t-96 -14.5z" />
    <glyph glyph-name="lacute" unicode="&#x13a;" horiz-adv-x="618" 
d="M154 143v1209q0 64 45 109.5t110 45.5t110.5 -45.5t45.5 -109.5v-1209q0 -64 -45.5 -109.5t-110.5 -45.5t-110 45t-45 110zM301 1565q-34 0 -56 14.5t-22 38.5q0 21 21 55l112 176q44 70 117 70q59 0 116.5 -30t57.5 -64q0 -36 -41 -74l-127 -119q-42 -39 -82 -53
t-96 -14z" />
    <glyph glyph-name="Lcommaaccent" unicode="&#x13b;" horiz-adv-x="1267" 
d="M172 158v1130q0 66 46 112t112 46t111.5 -46t45.5 -112v-1001h584q60 0 101.5 -42t41.5 -102t-41.5 -101.5t-101.5 -41.5h-741q-66 0 -112 46t-46 112zM666 -356q-58 10 -93.5 41t-35.5 82v2q0 54 40 88t107 34q72 0 114 -45.5t42 -121.5v-7q0 -158 -105 -243
q-38 -33 -91 -52.5t-105 -19.5q-32 0 -49 14.5t-17 36.5q0 40 51 49q145 30 142 142z" />
    <glyph glyph-name="lcommaaccent" unicode="&#x13c;" horiz-adv-x="618" 
d="M154 143v1209q0 64 45 109.5t110 45.5t110.5 -45.5t45.5 -109.5v-1209q0 -64 -45.5 -109.5t-110.5 -45.5t-110 45t-45 110zM289 -356q-58 10 -93.5 41t-35.5 82v2q0 54 40 88t107 34q72 0 114 -45.5t42 -121.5v-7q0 -158 -105 -243q-38 -33 -91 -52.5t-105 -19.5
q-32 0 -49 14.5t-17 36.5q0 40 51 49q145 30 142 142z" />
    <glyph glyph-name="Lcaron" unicode="&#x13d;" horiz-adv-x="1267" 
d="M172 158v1130q0 66 46 112t112 46t111.5 -46t45.5 -112v-1001h584q60 0 101.5 -42t41.5 -102t-41.5 -101.5t-101.5 -41.5h-741q-66 0 -112 46t-46 112zM647 1065v266q0 44 29.5 74.5t75.5 30.5h41q33 0 54 -17.5t21 -50.5q0 -23 -8 -47l-78 -270q-16 -56 -71 -56
q-29 0 -46.5 19.5t-17.5 50.5z" />
    <glyph glyph-name="lcaron" unicode="&#x13e;" horiz-adv-x="618" 
d="M154 143v1209q0 64 45 109.5t110 45.5t110.5 -45.5t45.5 -109.5v-1209q0 -64 -45.5 -109.5t-110.5 -45.5t-110 45t-45 110zM567 1137v266q0 44 29.5 74t75.5 30h41q34 0 54.5 -17t20.5 -50q0 -23 -8 -47l-78 -271q-16 -55 -71 -55q-29 0 -46.5 19.5t-17.5 50.5z" />
    <glyph glyph-name="Ldot" unicode="&#x13f;" horiz-adv-x="1267" 
d="M172 158v1130q0 66 46 112t112 46t111.5 -46t45.5 -112v-1001h584q60 0 101.5 -42t41.5 -102t-41.5 -101.5t-101.5 -41.5h-741q-66 0 -112 46t-46 112zM1155 786v-4q0 -66 -48.5 -107.5t-117.5 -41.5t-117.5 41.5t-48.5 107.5v4q0 66 48.5 108t117.5 42t117.5 -42
t48.5 -108z" />
    <glyph glyph-name="ldot" unicode="&#x140;" horiz-adv-x="802" 
d="M840 784v-18q0 -55 -36.5 -92t-92.5 -37t-92.5 37t-36.5 92v18q0 55 36.5 92t92.5 37t92.5 -37t36.5 -92zM154 143v1209q0 64 45 109.5t110 45.5t110.5 -45.5t45.5 -109.5v-1209q0 -64 -45.5 -109.5t-110.5 -45.5t-110 45t-45 110z" />
    <glyph glyph-name="Lslash" unicode="&#x141;" horiz-adv-x="1329" 
d="M850 721l-305 -92v-342h588q60 0 101.5 -42t41.5 -102t-41.5 -101.5t-101.5 -41.5h-742q-66 0 -112 46t-46 112v381q-12 -2 -26 -2q-58 0 -98.5 41t-40.5 100q0 50 28 85.5t72 47.5l65 18v459q0 66 45 112t111 46t111 -46t45 -112v-364l221 65q24 6 45 6q58 0 98.5 -41
t40.5 -100q0 -50 -28 -85.5t-72 -47.5z" />
    <glyph glyph-name="lslash" unicode="&#x142;" horiz-adv-x="741" 
d="M598 686l-74 -22v-521q0 -65 -44.5 -110t-108.5 -45t-109 45t-45 110v428q-14 -2 -35 -2q-58 0 -98.5 41.5t-40.5 100.5q0 50 28 85.5t72 47.5l74 20v488q0 65 45 110t109 45t108.5 -45t44.5 -110v-396q17 5 35 5q58 0 98.5 -41.5t40.5 -100.5q0 -50 -28 -85.5t-72 -47.5
z" />
    <glyph glyph-name="Nacute" unicode="&#x143;" horiz-adv-x="1617" 
d="M172 143v1141q0 66 46 112t112 46h32q53 0 90.5 -23t73.5 -69l609 -799v739q0 65 45.5 110.5t109.5 45.5t110 -46t46 -110v-1140q0 -66 -46 -112t-112 -46h-10q-53 0 -90.5 23t-73.5 69l-631 827v-768q0 -65 -45.5 -110t-109.5 -45q-65 0 -110.5 45.5t-45.5 109.5z
M801 1534q-34 0 -56 14.5t-22 38.5q0 23 20 55l113 177q43 69 117 69q59 0 116.5 -30t57.5 -64q0 -36 -41 -74l-127 -118q-42 -39 -82 -53.5t-96 -14.5z" />
    <glyph glyph-name="nacute" unicode="&#x144;" horiz-adv-x="1275" 
d="M139 143v811q0 64 45.5 110t110.5 46t110.5 -46t45.5 -110v-12q64 82 138.5 129t182.5 47q176 0 274.5 -108.5t98.5 -298.5v-568q0 -64 -45.5 -109.5t-110.5 -45.5t-110 45t-45 110v469q0 109 -49.5 166.5t-139.5 57.5q-91 0 -142.5 -57.5t-51.5 -166.5v-469
q0 -64 -45.5 -109.5t-110.5 -45.5t-110.5 45.5t-45.5 109.5zM633 1206q-34 0 -56 15t-22 39q0 23 20 55l113 176q44 70 117 70q59 0 116.5 -30.5t57.5 -64.5q0 -35 -41 -73l-127 -119q-42 -39 -82 -53.5t-96 -14.5z" />
    <glyph glyph-name="Ncommaaccent" unicode="&#x145;" horiz-adv-x="1617" 
d="M172 143v1141q0 66 46 112t112 46h32q53 0 90.5 -23t73.5 -69l609 -799v739q0 65 45.5 110.5t109.5 45.5t110 -46t46 -110v-1140q0 -66 -46 -112t-112 -46h-10q-53 0 -90.5 23t-73.5 69l-631 827v-768q0 -65 -45.5 -110t-109.5 -45q-65 0 -110.5 45.5t-45.5 109.5z
M788 -346q-58 10 -93.5 41t-35.5 82v2q0 55 40.5 89t107.5 34q71 0 113.5 -46t42.5 -122v-6q0 -159 -105 -244q-38 -33 -91 -52.5t-105 -19.5q-32 0 -49 14.5t-17 36.5q0 41 51 50q144 29 141 141z" />
    <glyph glyph-name="ncommaaccent" unicode="&#x146;" horiz-adv-x="1275" 
d="M139 143v811q0 64 45.5 110t110.5 46t110.5 -46t45.5 -110v-12q64 82 138.5 129t182.5 47q176 0 274.5 -108.5t98.5 -298.5v-568q0 -64 -45.5 -109.5t-110.5 -45.5t-110 45t-45 110v469q0 109 -49.5 166.5t-139.5 57.5q-91 0 -142.5 -57.5t-51.5 -166.5v-469
q0 -64 -45.5 -109.5t-110.5 -45.5t-110.5 45.5t-45.5 109.5zM621 -356q-58 10 -93.5 41t-35.5 82v2q0 54 40 88t107 34q72 0 114 -45.5t42 -121.5v-7q0 -158 -105 -243q-38 -33 -91 -52.5t-105 -19.5q-32 0 -49 14.5t-17 36.5q0 40 51 49q145 30 142 142z" />
    <glyph glyph-name="Ncaron" unicode="&#x147;" horiz-adv-x="1617" 
d="M172 143v1141q0 66 46 112t112 46h32q53 0 90.5 -23t73.5 -69l609 -799v739q0 65 45.5 110.5t109.5 45.5t110 -46t46 -110v-1140q0 -66 -46 -112t-112 -46h-10q-53 0 -90.5 23t-73.5 69l-631 827v-768q0 -65 -45.5 -110t-109.5 -45q-65 0 -110.5 45.5t-45.5 109.5z
M811 1733l96 79q49 39 91 53.5t98 14.5q30 0 48.5 -12.5t18.5 -36.5q0 -20 -30 -59l-129 -166q-29 -35 -62 -52.5t-84 -17.5h-98q-51 0 -84 17.5t-62 52.5l-129 166q-30 39 -30 59q0 24 20 36.5t51 12.5q56 0 98 -14.5t91 -53.5z" />
    <glyph glyph-name="ncaron" unicode="&#x148;" horiz-adv-x="1275" 
d="M139 143v811q0 64 45.5 110t110.5 46t110.5 -46t45.5 -110v-12q64 82 138.5 129t182.5 47q176 0 274.5 -108.5t98.5 -298.5v-568q0 -64 -45.5 -109.5t-110.5 -45.5t-110 45t-45 110v469q0 109 -49.5 166.5t-139.5 57.5q-91 0 -142.5 -57.5t-51.5 -166.5v-469
q0 -64 -45.5 -109.5t-110.5 -45.5t-110.5 45.5t-45.5 109.5zM643 1405l96 80q49 39 91 53t98 14q30 0 48.5 -12.5t18.5 -36.5q0 -20 -30 -59l-129 -166q-29 -35 -62 -52.5t-84 -17.5h-98q-51 0 -84 17.5t-62 52.5l-129 166q-30 39 -30 59q0 24 20 36.5t51 12.5q56 0 98 -14
t91 -53z" />
    <glyph glyph-name="Omacron" unicode="&#x14c;" horiz-adv-x="1740" 
d="M868 -25q-162 0 -304.5 58t-241.5 157.5t-156 235.5t-57 287v4q0 151 57.5 287.5t157.5 236.5t243 158.5t305 58.5q216 0 391 -99t272 -267.5t97 -370.5v-4q0 -151 -58 -287.5t-158 -236.5t-243 -159t-305 -59zM872 266q124 0 223.5 60.5t153.5 162.5t54 224v4
q0 187 -123.5 318.5t-311.5 131.5q-124 0 -223 -60t-153 -162t-54 -224v-4q0 -122 55 -225t155 -164.5t224 -61.5zM1143 1577h-545q-45 0 -77 31t-32 75t32.5 76.5t76.5 32.5h545q44 0 76 -32.5t32 -76.5t-32 -75t-76 -31z" />
    <glyph glyph-name="omacron" unicode="&#x14d;" horiz-adv-x="1359" 
d="M678 -25q-167 0 -303 76t-212.5 206t-76.5 286v4q0 117 45.5 222t124 182t189.5 122t237 45q167 0 303 -75.5t212.5 -205.5t76.5 -286v-4q0 -156 -77 -287t-214 -208t-305 -77zM682 244q129 0 207 86.5t78 212.5v4q0 125 -81.5 214t-207.5 89q-129 0 -207 -86.5
t-78 -212.5v-4q0 -125 81.5 -214t207.5 -89zM952 1229h-544q-45 0 -77 31t-32 75t32.5 76.5t76.5 32.5h544q44 0 76.5 -32.5t32.5 -76.5t-32 -75t-77 -31z" />
    <glyph glyph-name="Obreve" unicode="&#x14e;" horiz-adv-x="1740" 
d="M868 -25q-162 0 -304.5 58t-241.5 157.5t-156 235.5t-57 287v4q0 151 57.5 287.5t157.5 236.5t243 158.5t305 58.5q216 0 391 -99t272 -267.5t97 -370.5v-4q0 -151 -58 -287.5t-158 -236.5t-243 -159t-305 -59zM872 266q124 0 223.5 60.5t153.5 162.5t54 224v4
q0 187 -123.5 318.5t-311.5 131.5q-124 0 -223 -60t-153 -162t-54 -224v-4q0 -122 55 -225t155 -164.5t224 -61.5zM870 1563q-119 0 -207.5 45.5t-134.5 128.5q-14 25 -14 57q0 44 31.5 75.5t75.5 31.5q60 0 92 -54q52 -82 157 -82q106 0 158 82q32 54 92 54
q44 0 75.5 -31.5t31.5 -75.5q0 -30 -15 -57q-46 -83 -134.5 -128.5t-207.5 -45.5z" />
    <glyph glyph-name="obreve" unicode="&#x14f;" horiz-adv-x="1359" 
d="M678 -25q-167 0 -303 76t-212.5 206t-76.5 286v4q0 117 45.5 222t124 182t189.5 122t237 45q167 0 303 -75.5t212.5 -205.5t76.5 -286v-4q0 -156 -77 -287t-214 -208t-305 -77zM682 244q129 0 207 86.5t78 212.5v4q0 125 -81.5 214t-207.5 89q-129 0 -207 -86.5
t-78 -212.5v-4q0 -125 81.5 -214t207.5 -89zM680 1214q-119 0 -207.5 46t-134.5 129q-14 25 -14 57q0 44 31 75t75 31q61 0 92 -53q52 -82 158 -82t158 82q31 53 92 53q44 0 75 -31t31 -75q0 -32 -14 -57q-46 -83 -134.5 -129t-207.5 -46z" />
    <glyph glyph-name="Ohungarumlaut" unicode="&#x150;" horiz-adv-x="1740" 
d="M868 -25q-162 0 -304.5 58t-241.5 157.5t-156 235.5t-57 287v4q0 151 57.5 287.5t157.5 236.5t243 158.5t305 58.5q216 0 391 -99t272 -267.5t97 -370.5v-4q0 -151 -58 -287.5t-158 -236.5t-243 -159t-305 -59zM872 266q124 0 223.5 60.5t153.5 162.5t54 224v4
q0 187 -123.5 318.5t-311.5 131.5q-124 0 -223 -60t-153 -162t-54 -224v-4q0 -122 55 -225t155 -164.5t224 -61.5zM1047 1554q-34 0 -54 14.5t-20 39.5q0 23 20 55l113 176q44 70 111 70q59 0 115.5 -30t56.5 -64q0 -36 -41 -74l-127 -119q-43 -40 -81 -54t-93 -14z
M645 1554q-34 0 -54 14.5t-20 39.5q0 21 21 55l113 176q44 70 110 70q59 0 115.5 -30t56.5 -64q0 -36 -41 -74l-127 -119q-43 -40 -81 -54t-93 -14z" />
    <glyph glyph-name="ohungarumlaut" unicode="&#x151;" horiz-adv-x="1359" 
d="M678 -25q-167 0 -303 76t-212.5 206t-76.5 286v4q0 117 45.5 222t124 182t189.5 122t237 45q167 0 303 -75.5t212.5 -205.5t76.5 -286v-4q0 -156 -77 -287t-214 -208t-305 -77zM682 244q129 0 207 86.5t78 212.5v4q0 125 -81.5 214t-207.5 89q-129 0 -207 -86.5
t-78 -212.5v-4q0 -125 81.5 -214t207.5 -89zM856 1206q-34 0 -54 14.5t-20 39.5q0 21 21 55l112 176q44 70 111 70q59 0 115.5 -30.5t56.5 -64.5q0 -35 -41 -73l-127 -119q-43 -40 -81 -54t-93 -14zM455 1206q-34 0 -54 14.5t-20 39.5q0 23 20 55l113 176q44 70 111 70
q59 0 115.5 -30.5t56.5 -64.5q0 -35 -41 -73l-127 -119q-43 -40 -81 -54t-93 -14z" />
    <glyph glyph-name="OE" unicode="&#x152;" horiz-adv-x="2201" 
d="M870 0q-166 0 -308.5 55t-241.5 150t-155 226.5t-56 281.5v4q0 150 56 282t155 228t241.5 151.5t308.5 55.5h1084q58 0 99.5 -41.5t41.5 -100.5q0 -58 -41 -98.5t-100 -40.5h-588v-291h496q58 0 99.5 -41t41.5 -100q0 -58 -41 -98.5t-100 -40.5h-496v-301h598
q58 0 99.5 -41.5t41.5 -100.5q0 -58 -41 -98.5t-100 -40.5h-1094zM870 285h183v864h-183q-193 0 -312.5 -118.5t-119.5 -309.5v-4q0 -191 119.5 -311.5t312.5 -120.5z" />
    <glyph glyph-name="oe" unicode="&#x153;" horiz-adv-x="2115" 
d="M1251 635h469q-14 107 -74.5 170t-156.5 63q-95 0 -157 -62.5t-81 -170.5zM672 244q125 0 199.5 86.5t74.5 212.5v4q0 125 -78 214t-200 89q-124 0 -199.5 -87.5t-75.5 -211.5v-4q0 -125 78.5 -214t200.5 -89zM1901 109q-157 -134 -381 -134q-133 0 -246.5 49t-192.5 138
q-76 -88 -185.5 -137.5t-236.5 -49.5q-115 0 -221 45t-183 120.5t-123 181t-46 221.5v4q0 155 78 286.5t213 208t295 76.5q125 0 231.5 -48t181.5 -134q73 86 177.5 134t226.5 48q106 0 195.5 -33t149.5 -87t102.5 -124t61.5 -142t19 -142q0 -67 -41.5 -108.5t-103.5 -41.5
h-617q23 -105 93.5 -160t175.5 -55q122 0 221 74q36 25 76 25q52 0 86.5 -35t34.5 -88q0 -56 -41 -92z" />
    <glyph glyph-name="Racute" unicode="&#x154;" horiz-adv-x="1480" 
d="M172 145v1131q0 66 46 112t112 46h497q272 0 418 -146q123 -123 123 -327v-5q0 -317 -287 -436l219 -266q52 -65 52 -121q0 -64 -45 -104.5t-105 -40.5q-90 0 -155 82l-308 389h-252v-314q0 -66 -45.5 -111.5t-111.5 -45.5t-112 45.5t-46 111.5zM487 737h320
q114 0 178 55.5t64 147.5v4q0 100 -65.5 152.5t-182.5 52.5h-314v-412zM762 1534q-34 0 -56 14.5t-22 38.5q0 21 21 55l112 177q43 69 117 69q59 0 116.5 -30t57.5 -64q0 -36 -41 -74l-127 -118q-42 -39 -82 -53.5t-96 -14.5z" />
    <glyph glyph-name="racute" unicode="&#x155;" horiz-adv-x="856" 
d="M139 143v811q0 64 45.5 110t110.5 46t110.5 -46t45.5 -110v-49q38 89 92.5 147t118.5 58q70 0 110.5 -42t40.5 -110q0 -58 -33 -96t-84 -49q-245 -57 -245 -379v-291q0 -64 -45.5 -109.5t-110.5 -45.5t-110.5 45.5t-45.5 109.5zM461 1206q-34 0 -56 15t-22 39q0 23 20 55
l113 176q44 70 117 70q59 0 116.5 -30.5t57.5 -64.5q0 -35 -41 -73l-127 -119q-42 -39 -82 -53.5t-96 -14.5z" />
    <glyph glyph-name="Rcommaaccent" unicode="&#x156;" horiz-adv-x="1480" 
d="M172 145v1131q0 66 46 112t112 46h497q272 0 418 -146q123 -123 123 -327v-5q0 -317 -287 -436l219 -266q52 -65 52 -121q0 -64 -45 -104.5t-105 -40.5q-90 0 -155 82l-308 389h-252v-314q0 -66 -45.5 -111.5t-111.5 -45.5t-112 45.5t-46 111.5zM487 737h320
q114 0 178 55.5t64 147.5v4q0 100 -65.5 152.5t-182.5 52.5h-314v-412zM750 -346q-58 10 -93.5 41t-35.5 82v2q0 55 40 89t107 34q71 0 113.5 -46t42.5 -122v-6q0 -159 -105 -244q-38 -33 -91 -52.5t-105 -19.5q-32 0 -49 14.5t-17 36.5q0 41 51 50q73 15 108.5 50.5
t33.5 90.5z" />
    <glyph glyph-name="rcommaaccent" unicode="&#x157;" horiz-adv-x="856" 
d="M139 143v811q0 64 45.5 110t110.5 46t110.5 -46t45.5 -110v-49q38 89 92.5 147t118.5 58q70 0 110.5 -42t40.5 -110q0 -58 -33 -96t-84 -49q-245 -57 -245 -379v-291q0 -64 -45.5 -109.5t-110.5 -45.5t-110.5 45.5t-45.5 109.5zM287 -356q-58 10 -93.5 41t-35.5 82v2
q0 54 40 88t107 34q72 0 114 -45.5t42 -121.5v-7q0 -158 -105 -243q-38 -33 -91 -52.5t-105 -19.5q-32 0 -49 14.5t-17 36.5q0 40 51 49q145 30 142 142z" />
    <glyph glyph-name="Rcaron" unicode="&#x158;" horiz-adv-x="1480" 
d="M172 145v1131q0 66 46 112t112 46h497q272 0 418 -146q123 -123 123 -327v-5q0 -317 -287 -436l219 -266q52 -65 52 -121q0 -64 -45 -104.5t-105 -40.5q-90 0 -155 82l-308 389h-252v-314q0 -66 -45.5 -111.5t-111.5 -45.5t-112 45.5t-46 111.5zM487 737h320
q114 0 178 55.5t64 147.5v4q0 100 -65.5 152.5t-182.5 52.5h-314v-412zM772 1733l96 79q49 39 91 53.5t98 14.5q30 0 48.5 -12.5t18.5 -36.5q0 -20 -30 -59l-129 -166q-29 -35 -62 -52.5t-84 -17.5h-98q-51 0 -84 17.5t-62 52.5l-129 166q-30 39 -30 59q0 24 20 36.5
t51 12.5q56 0 98 -14.5t91 -53.5z" />
    <glyph glyph-name="rcaron" unicode="&#x159;" horiz-adv-x="856" 
d="M139 143v811q0 64 45.5 110t110.5 46t110.5 -46t45.5 -110v-49q38 89 92.5 147t118.5 58q70 0 110.5 -42t40.5 -110q0 -58 -33 -96t-84 -49q-245 -57 -245 -379v-291q0 -64 -45.5 -109.5t-110.5 -45.5t-110.5 45.5t-45.5 109.5zM471 1405l96 80q49 39 91 53t98 14
q30 0 48.5 -12.5t18.5 -36.5q0 -20 -30 -59l-129 -166q-29 -35 -62 -52.5t-84 -17.5h-98q-51 0 -84 17.5t-62 52.5l-129 166q-30 39 -30 59q0 24 20 36.5t51 12.5q56 0 98 -14t91 -53z" />
    <glyph glyph-name="Sacute" unicode="&#x15a;" horiz-adv-x="1310" 
d="M682 -20q-300 0 -539 172q-59 42 -59 118q0 61 42.5 103.5t104.5 42.5q50 0 91 -29q176 -129 366 -129q97 0 152 36t55 99v4q0 42 -22 70t-84.5 55.5t-182.5 57.5q-68 17 -117.5 32.5t-102.5 37t-89 44.5t-69.5 55t-53.5 70.5t-31.5 88.5t-11.5 110v4q0 194 140.5 313
t361.5 119q254 0 454 -127q29 -17 49.5 -49.5t20.5 -75.5q0 -61 -42.5 -103t-104.5 -42q-41 0 -80 22q-165 97 -301 97q-88 0 -136.5 -35t-48.5 -90v-4q0 -69 60 -105t250 -84q115 -30 194.5 -64.5t140.5 -84.5t90 -119.5t29 -161.5v-4q0 -209 -144.5 -326.5t-381.5 -117.5z
M655 1554q-34 0 -55.5 15t-21.5 39q0 23 20 55l113 176q44 70 116 70q59 0 116.5 -30t57.5 -64q0 -37 -40 -74l-127 -119q-42 -39 -82.5 -53.5t-96.5 -14.5z" />
    <glyph glyph-name="sacute" unicode="&#x15b;" horiz-adv-x="1028" 
d="M524 -20q-221 0 -413 124q-60 36 -60 107q0 53 35.5 88t87.5 35q35 0 62 -17q154 -98 296 -98q66 0 99 22t33 60v4q0 11 -3.5 21t-11.5 18.5t-16.5 15.5t-24 14t-27.5 12t-32.5 12t-34.5 11t-38.5 11.5t-39.5 11.5q-54 16 -94 31.5t-86.5 43t-76.5 60.5t-50 83.5
t-20 111.5v4q0 162 114.5 255t286.5 93t340 -84q74 -38 74 -117q0 -52 -36 -87t-89 -35q-30 0 -58 14q-141 69 -237 69q-55 0 -85 -21t-30 -54v-4q0 -26 28.5 -48.5t63 -36t98.5 -35.5q7 -2 11 -3.5t10.5 -3.5t11.5 -4q55 -18 94.5 -34t88 -44.5t78 -60.5t50.5 -80.5
t21 -106.5v-4q0 -175 -116 -264.5t-304 -89.5zM512 1206q-34 0 -56 15t-22 39q0 21 21 55l112 176q44 70 117 70q59 0 116.5 -30.5t57.5 -64.5q0 -35 -41 -73l-127 -119q-42 -39 -82 -53.5t-96 -14.5z" />
    <glyph glyph-name="Scedilla" unicode="&#x15e;" horiz-adv-x="1310" 
d="M1208 424q0 -186 -115.5 -300t-310.5 -138l-106 -262q-26 -66 -90 -66q-47 0 -111.5 35t-64.5 71q0 29 18 54l119 172q-224 31 -404 162q-59 42 -59 118q0 61 42.5 103.5t104.5 42.5q50 0 91 -29q176 -129 366 -129q97 0 152 36t55 99v4q0 42 -22 70t-84.5 55.5
t-182.5 57.5q-68 17 -117.5 32.5t-102.5 37t-89 44.5t-69.5 55t-53.5 70.5t-31.5 88.5t-11.5 110v4q0 194 140.5 313t361.5 119q254 0 454 -127q29 -17 49.5 -49.5t20.5 -75.5q0 -61 -42.5 -103t-104.5 -42q-41 0 -80 22q-165 97 -301 97q-88 0 -136.5 -35t-48.5 -90v-4
q0 -69 60 -105t250 -84q115 -30 194.5 -64.5t140.5 -84.5t90 -119.5t29 -161.5v-4z" />
    <glyph glyph-name="scedilla" unicode="&#x15f;" horiz-adv-x="1028" 
d="M944 334q0 -152 -87.5 -239.5t-235.5 -108.5l-107 -262q-26 -66 -90 -66q-47 0 -111.5 35t-64.5 71q0 29 18 54l119 176q-142 25 -274 110q-60 36 -60 107q0 53 35.5 88t87.5 35q35 0 62 -17q154 -98 296 -98q66 0 99 22t33 60v4q0 11 -3.5 21t-11.5 18.5t-16.5 15.5
t-24 14t-27.5 12t-32.5 12t-34.5 11t-38.5 11.5t-39.5 11.5q-54 16 -94 31.5t-86.5 43t-76.5 60.5t-50 83.5t-20 111.5v4q0 162 114.5 255t286.5 93t340 -84q74 -38 74 -117q0 -52 -36 -87t-89 -35q-30 0 -58 14q-141 69 -237 69q-55 0 -85 -21t-30 -54v-4q0 -26 28.5 -48.5
t63 -36t98.5 -35.5q7 -2 11 -3.5t10.5 -3.5t11.5 -4q55 -18 94.5 -34t88 -44.5t78 -60.5t50.5 -80.5t21 -106.5v-4z" />
    <glyph glyph-name="Scaron" unicode="&#x160;" horiz-adv-x="1310" 
d="M682 -20q-300 0 -539 172q-59 42 -59 118q0 61 42.5 103.5t104.5 42.5q50 0 91 -29q176 -129 366 -129q97 0 152 36t55 99v4q0 42 -22 70t-84.5 55.5t-182.5 57.5q-68 17 -117.5 32.5t-102.5 37t-89 44.5t-69.5 55t-53.5 70.5t-31.5 88.5t-11.5 110v4q0 194 140.5 313
t361.5 119q254 0 454 -127q29 -17 49.5 -49.5t20.5 -75.5q0 -61 -42.5 -103t-104.5 -42q-41 0 -80 22q-165 97 -301 97q-88 0 -136.5 -35t-48.5 -90v-4q0 -69 60 -105t250 -84q115 -30 194.5 -64.5t140.5 -84.5t90 -119.5t29 -161.5v-4q0 -209 -144.5 -326.5t-381.5 -117.5z
M666 1753l96 80q49 40 91 54t97 14q30 0 49 -13t19 -37q0 -19 -31 -59l-129 -166q-29 -35 -61.5 -52.5t-83.5 -17.5h-99q-51 0 -83.5 17.5t-61.5 52.5l-129 166q-31 40 -31 59q0 24 20.5 37t51.5 13q55 0 97 -14t91 -54z" />
    <glyph glyph-name="scaron" unicode="&#x161;" horiz-adv-x="1028" 
d="M524 -20q-221 0 -413 124q-60 36 -60 107q0 53 35.5 88t87.5 35q35 0 62 -17q154 -98 296 -98q66 0 99 22t33 60v4q0 11 -3.5 21t-11.5 18.5t-16.5 15.5t-24 14t-27.5 12t-32.5 12t-34.5 11t-38.5 11.5t-39.5 11.5q-54 16 -94 31.5t-86.5 43t-76.5 60.5t-50 83.5
t-20 111.5v4q0 162 114.5 255t286.5 93t340 -84q74 -38 74 -117q0 -52 -36 -87t-89 -35q-30 0 -58 14q-141 69 -237 69q-55 0 -85 -21t-30 -54v-4q0 -26 28.5 -48.5t63 -36t98.5 -35.5q7 -2 11 -3.5t10.5 -3.5t11.5 -4q55 -18 94.5 -34t88 -44.5t78 -60.5t50.5 -80.5
t21 -106.5v-4q0 -175 -116 -264.5t-304 -89.5zM522 1405l96 80q49 39 91 53t98 14q30 0 48.5 -12.5t18.5 -36.5q0 -20 -30 -59l-129 -166q-29 -35 -62 -52.5t-84 -17.5h-98q-51 0 -83.5 17.5t-61.5 52.5l-129 166q-31 40 -31 59q0 24 20.5 36.5t51.5 12.5q56 0 97.5 -14
t90.5 -53z" />
    <glyph glyph-name="Tcommaaccent" unicode="&#x162;" horiz-adv-x="1327" 
d="M506 145v998h-303q-60 0 -103 42.5t-43 102.5t43 103t103 43h921q60 0 103 -43t43 -103t-43 -102.5t-103 -42.5h-303v-998q0 -66 -45.5 -111.5t-111.5 -45.5t-112 45.5t-46 111.5zM643 -356q-58 10 -93.5 41t-35.5 82v2q0 54 40.5 88t107.5 34q71 0 113 -45.5t42 -121.5
v-7q0 -159 -104 -243q-38 -33 -91.5 -52.5t-105.5 -19.5q-32 0 -48.5 14.5t-16.5 36.5q0 40 51 49q144 29 141 142z" />
    <glyph glyph-name="tcommaaccent" unicode="&#x163;" horiz-adv-x="849" 
d="M510 -18q-154 0 -237 74.5t-83 254.5v520h-10q-55 0 -94 39t-39 95q0 55 38.5 94t94.5 39h10v137q0 65 46 110.5t110 45.5t110 -45.5t46 -110.5v-137h137q55 0 94 -39t39 -94q0 -56 -39 -95t-94 -39h-137v-469q0 -54 24 -80t76 -26q6 0 20 1t17 1q53 0 91 -37.5t38 -91.5
q0 -40 -23 -72t-57 -45q-74 -30 -178 -30zM434 -356q-58 10 -93.5 41t-35.5 82v2q0 54 40.5 88t107.5 34q71 0 113 -45.5t42 -121.5v-7q0 -159 -104 -243q-38 -33 -91.5 -52.5t-105.5 -19.5q-32 0 -48.5 14.5t-16.5 36.5q0 40 51 49q144 29 141 142z" />
    <glyph glyph-name="Tcaron" unicode="&#x164;" horiz-adv-x="1327" 
d="M506 145v998h-303q-60 0 -103 42.5t-43 102.5t43 103t103 43h921q60 0 103 -43t43 -103t-43 -102.5t-103 -42.5h-303v-998q0 -66 -45.5 -111.5t-111.5 -45.5t-112 45.5t-46 111.5zM666 1733l96 79q49 40 91 54t97 14q31 0 49.5 -12.5t18.5 -36.5q0 -19 -31 -59l-129 -166
q-29 -35 -61.5 -52.5t-83.5 -17.5h-99q-51 0 -83.5 17.5t-61.5 52.5l-129 166q-31 40 -31 59q0 24 20.5 36.5t51.5 12.5q55 0 97 -14t91 -54z" />
    <glyph glyph-name="tcaron" unicode="&#x165;" horiz-adv-x="849" 
d="M510 -18q-154 0 -237 74.5t-83 254.5v520h-10q-55 0 -94 39t-39 95q0 55 38.5 94t94.5 39h10v137q0 65 46 110.5t110 45.5t110 -45.5t46 -110.5v-137h137q55 0 94 -39t39 -94q0 -56 -39 -95t-94 -39h-137v-469q0 -54 24 -80t76 -26q6 0 20 1t17 1q53 0 91 -37.5t38 -91.5
q0 -40 -23 -72t-57 -45q-74 -30 -178 -30zM637 1270v266q0 44 29 74t75 30h41q34 0 55 -17t21 -50q0 -23 -8 -47l-78 -271q-16 -55 -72 -55q-29 0 -46 19.5t-17 50.5z" />
    <glyph glyph-name="Umacron" unicode="&#x16a;" horiz-adv-x="1548" 
d="M770 -23q-294 0 -457 162.5t-163 474.5v674q0 66 45.5 112t111.5 46t112 -46t46 -112v-665q0 -173 81 -264t228 -91t228 88t81 256v676q0 66 46 112t112 46t112 -46t46 -112v-663q0 -319 -166.5 -483.5t-462.5 -164.5zM1047 1556h-545q-44 0 -76.5 31.5t-32.5 75.5
t32.5 76.5t76.5 32.5h545q44 0 76 -32.5t32 -76.5t-32 -75.5t-76 -31.5z" />
    <glyph glyph-name="umacron" unicode="&#x16b;" horiz-adv-x="1275" 
d="M1137 954v-811q0 -64 -45.5 -109.5t-110.5 -45.5t-110.5 45.5t-45.5 109.5v13q-64 -82 -138.5 -129t-182.5 -47q-176 0 -274.5 108.5t-98.5 298.5v567q0 64 45.5 110t110.5 46q64 0 109.5 -45.5t45.5 -110.5v-469q0 -109 49.5 -166t139.5 -57q91 0 142.5 57.5t51.5 165.5
v469q0 64 45.5 110t110.5 46t110.5 -46t45.5 -110zM905 1229h-545q-44 0 -76 31t-32 75t32 76.5t76 32.5h545q44 0 76.5 -32.5t32.5 -76.5t-32 -75t-77 -31z" />
    <glyph glyph-name="Ubreve" unicode="&#x16c;" horiz-adv-x="1548" 
d="M770 -23q-294 0 -457 162.5t-163 474.5v674q0 66 45.5 112t111.5 46t112 -46t46 -112v-665q0 -173 81 -264t228 -91t228 88t81 256v676q0 66 46 112t112 46t112 -46t46 -112v-663q0 -319 -166.5 -483.5t-462.5 -164.5zM774 1532q-119 0 -207.5 45.5t-134.5 128.5
q-14 25 -14 57q0 44 31 75.5t75 31.5q61 0 92 -53q52 -82 158 -82t158 82q31 53 92 53q44 0 75 -31.5t31 -75.5q0 -32 -14 -57q-46 -83 -134.5 -128.5t-207.5 -45.5z" />
    <glyph glyph-name="ubreve" unicode="&#x16d;" horiz-adv-x="1275" 
d="M1137 954v-811q0 -64 -45.5 -109.5t-110.5 -45.5t-110.5 45.5t-45.5 109.5v13q-64 -82 -138.5 -129t-182.5 -47q-176 0 -274.5 108.5t-98.5 298.5v567q0 64 45.5 110t110.5 46q64 0 109.5 -45.5t45.5 -110.5v-469q0 -109 49.5 -166t139.5 -57q91 0 142.5 57.5t51.5 165.5
v469q0 64 45.5 110t110.5 46t110.5 -46t45.5 -110zM633 1214q-119 0 -207.5 46t-134.5 129q-15 27 -15 57q0 44 31.5 75t75.5 31q61 0 92 -53q52 -82 158 -82t158 82q31 53 92 53q44 0 75 -31t31 -75q0 -32 -14 -57q-46 -83 -134.5 -129t-207.5 -46z" />
    <glyph glyph-name="Uring" unicode="&#x16e;" horiz-adv-x="1548" 
d="M770 -23q-294 0 -457 162.5t-163 474.5v674q0 66 45.5 112t111.5 46t112 -46t46 -112v-665q0 -173 81 -264t228 -91t228 88t81 256v676q0 66 46 112t112 46t112 -46t46 -112v-663q0 -319 -166.5 -483.5t-462.5 -164.5zM774 1511q-99 0 -173.5 71t-74.5 167v4
q0 96 74.5 167t173.5 71t173.5 -71t74.5 -167v-4q0 -96 -74.5 -167t-173.5 -71zM774 1624q52 0 89.5 37t37.5 88v4q0 51 -37.5 88t-89.5 37t-89.5 -37t-37.5 -88v-4q0 -51 37.5 -88t89.5 -37z" />
    <glyph glyph-name="uring" unicode="&#x16f;" horiz-adv-x="1275" 
d="M1137 954v-811q0 -64 -45.5 -109.5t-110.5 -45.5t-110.5 45.5t-45.5 109.5v13q-64 -82 -138.5 -129t-182.5 -47q-176 0 -274.5 108.5t-98.5 298.5v567q0 64 45.5 110t110.5 46q64 0 109.5 -45.5t45.5 -110.5v-469q0 -109 49.5 -166t139.5 -57q91 0 142.5 57.5t51.5 165.5
v469q0 64 45.5 110t110.5 46t110.5 -46t45.5 -110zM633 1214q-99 0 -173.5 71t-74.5 167v4q0 96 74.5 167t173.5 71t173.5 -71t74.5 -167v-4q0 -96 -74.5 -167t-173.5 -71zM633 1327q52 0 89.5 37t37.5 88v4q0 51 -37.5 88t-89.5 37t-89.5 -37t-37.5 -88v-4q0 -51 37.5 -88
t89.5 -37z" />
    <glyph glyph-name="Uhungarumlaut" unicode="&#x170;" horiz-adv-x="1548" 
d="M770 -23q-294 0 -457 162.5t-163 474.5v674q0 66 45.5 112t111.5 46t112 -46t46 -112v-665q0 -173 81 -264t228 -91t228 88t81 256v676q0 66 46 112t112 46t112 -46t46 -112v-663q0 -319 -166.5 -483.5t-462.5 -164.5zM950 1534q-34 0 -53.5 14t-19.5 39q0 23 20 55
l113 177q43 69 110 69q59 0 115.5 -30t56.5 -64q0 -36 -41 -74l-127 -118q-43 -40 -81 -54t-93 -14zM549 1534q-34 0 -54 14t-20 39q0 21 21 55l112 177q43 69 111 69q59 0 115.5 -30t56.5 -64q0 -36 -41 -74l-127 -118q-43 -40 -81 -54t-93 -14z" />
    <glyph glyph-name="uhungarumlaut" unicode="&#x171;" horiz-adv-x="1275" 
d="M1137 954v-811q0 -64 -45.5 -109.5t-110.5 -45.5t-110.5 45.5t-45.5 109.5v13q-64 -82 -138.5 -129t-182.5 -47q-176 0 -274.5 108.5t-98.5 298.5v567q0 64 45.5 110t110.5 46q64 0 109.5 -45.5t45.5 -110.5v-469q0 -109 49.5 -166t139.5 -57q91 0 142.5 57.5t51.5 165.5
v469q0 64 45.5 110t110.5 46t110.5 -46t45.5 -110zM809 1206q-34 0 -54 14.5t-20 39.5q0 21 21 55l112 176q44 70 111 70q59 0 115.5 -30.5t56.5 -64.5q0 -35 -41 -73l-127 -119q-43 -40 -81 -54t-93 -14zM408 1206q-34 0 -54 14.5t-20 39.5q0 23 20 55l113 176
q44 70 111 70q59 0 115.5 -30.5t56.5 -64.5q0 -35 -41 -73l-127 -119q-43 -40 -81 -54t-93 -14z" />
    <glyph glyph-name="Uogonek" unicode="&#x172;" horiz-adv-x="1548" 
d="M590 -164q0 70 57 150q-237 31 -367 191t-130 437v674q0 66 45.5 112t111.5 46t112 -46t46 -112v-665q0 -173 81 -264t228 -91t228 88t81 256v676q0 66 46 112t112 46t112 -46t46 -112v-663q0 -296 -145 -459t-406 -184q-35 -48 -35 -97q0 -32 20 -50.5t62 -29.5
q74 -19 74 -73q0 -35 -25.5 -54.5t-73.5 -19.5q-131 0 -205.5 46t-74.5 132z" />
    <glyph glyph-name="uogonek" unicode="&#x173;" horiz-adv-x="1275" 
d="M1137 954v-817q0 -36 -13 -61.5t-45 -57.5q-75 -75 -75 -137q0 -30 18.5 -47.5t58.5 -28.5q74 -19 74 -73q0 -35 -25 -54.5t-73 -19.5q-130 0 -204.5 44.5t-74.5 123.5q0 100 103 199q-56 46 -56 118v13q-64 -82 -138.5 -129t-182.5 -47q-176 0 -274.5 108.5t-98.5 298.5
v567q0 64 45.5 110t110.5 46q64 0 109.5 -45.5t45.5 -110.5v-469q0 -109 49.5 -166t139.5 -57q91 0 142.5 57.5t51.5 165.5v469q0 64 45.5 110t110.5 46t110.5 -46t45.5 -110z" />
    <glyph glyph-name="Wcircumflex" unicode="&#x174;" horiz-adv-x="2248" 
d="M483 106l-401 1127q-12 36 -12 59q0 65 47 109.5t114 44.5q55 0 97 -31.5t57 -81.5l285 -878l286 870q19 58 60.5 91.5t99.5 33.5h25q59 0 99.5 -33t59.5 -92l287 -870l285 878q16 49 55.5 81t95.5 32q65 0 110.5 -44t45.5 -108q0 -25 -12 -61l-402 -1127
q-22 -61 -64.5 -95t-98.5 -34h-33q-116 0 -162 129l-283 822l-282 -822q-46 -129 -162 -129h-33q-56 0 -99 34t-65 95zM1122 1681l-96 -79q-49 -40 -91 -54t-97 -14q-31 0 -49.5 12.5t-18.5 36.5q0 19 31 59l129 166q29 35 61.5 52.5t83.5 17.5h99q51 0 83.5 -17.5
t61.5 -52.5l129 -166q31 -40 31 -59q0 -24 -20.5 -36.5t-51.5 -12.5q-55 0 -97 14t-91 54z" />
    <glyph glyph-name="wcircumflex" unicode="&#x175;" horiz-adv-x="1738" 
d="M514 -20q-124 0 -172 139l-268 774q-15 45 -15 76q0 57 42 99t108 42q112 0 151 -121l168 -557l172 555q18 57 59.5 91t100.5 34h19q58 0 99.5 -34t59.5 -91l174 -557l172 561q16 53 54 86t96 33q63 0 104 -41.5t41 -101.5q0 -29 -10 -64l-276 -784q-48 -139 -172 -139
h-11q-59 0 -103 33.5t-65 99.5l-174 553l-176 -553q-21 -66 -65 -99.5t-103 -33.5h-10zM866 1354l-96 -80q-49 -40 -91 -54t-97 -14q-31 0 -49.5 12.5t-18.5 36.5q0 20 31 60l129 166q28 35 61 52t84 17h99q51 0 84 -17t61 -52l129 -166q31 -40 31 -60q0 -24 -20.5 -36.5
t-51.5 -12.5q-55 0 -97 14t-91 54z" />
    <glyph glyph-name="Ycircumflex" unicode="&#x176;" horiz-adv-x="1409" 
d="M547 145v408l-463 629q-39 53 -39 112q0 63 46 107.5t112 44.5q51 0 87 -24.5t68 -71.5l349 -502l354 506q64 94 151 94q70 0 112 -44t42 -110q0 -51 -41 -110l-463 -625v-414q0 -66 -45.5 -111.5t-111.5 -45.5t-112 45.5t-46 111.5zM702 1681l-96 -79q-49 -40 -91 -54
t-97 -14q-31 0 -49.5 12.5t-18.5 36.5q0 19 31 59l129 166q29 35 61.5 52.5t83.5 17.5h99q51 0 83.5 -17.5t61.5 -52.5l129 -166q31 -40 31 -59q0 -24 -20.5 -36.5t-51.5 -12.5q-55 0 -97 14t-91 54z" />
    <glyph glyph-name="ycircumflex" unicode="&#x177;" horiz-adv-x="1200" 
d="M367 -334q-88 0 -170 29q-99 35 -99 129q0 55 37 91t86 36q27 0 51 -8q44 -13 66 -13q43 0 66.5 13t44.5 53l10 24l-375 869q-16 40 -16 72q0 65 44 107t109 42q107 0 150 -117l237 -639l230 637q45 119 149 119q61 0 104.5 -41t43.5 -102q0 -39 -15 -74l-383 -920
q-70 -170 -151 -238.5t-219 -68.5zM598 1354l-96 -80q-49 -39 -91 -53.5t-98 -14.5q-30 0 -48.5 12.5t-18.5 36.5q0 21 30 60l130 166q28 35 61 52t84 17h98q51 0 84.5 -17t61.5 -52l129 -166q30 -39 30 -60q0 -24 -20 -36.5t-51 -12.5q-56 0 -98 14.5t-91 53.5z" />
    <glyph glyph-name="Ydieresis" unicode="&#x178;" horiz-adv-x="1409" 
d="M547 145v408l-463 629q-39 53 -39 112q0 63 46 107.5t112 44.5q51 0 87 -24.5t68 -71.5l349 -502l354 506q64 94 151 94q70 0 112 -44t42 -110q0 -51 -41 -110l-463 -625v-414q0 -66 -45.5 -111.5t-111.5 -45.5t-112 45.5t-46 111.5zM924 1837q67 0 114 -42t47 -107v-5
q0 -65 -47 -107t-114 -42t-114.5 42t-47.5 107v5q0 65 47.5 107t114.5 42zM485 1837q67 0 114.5 -42t47.5 -107v-5q0 -65 -47.5 -107t-114.5 -42t-114 42t-47 107v5q0 65 47 107t114 42z" />
    <glyph glyph-name="Zacute" unicode="&#x179;" horiz-adv-x="1449" 
d="M256 0q-57 0 -98 41t-41 98v6q0 82 57 148l744 864h-637q-57 0 -98.5 40t-41.5 97t41.5 98.5t98.5 41.5h915q57 0 98 -41.5t41 -98.5v-6q0 -78 -57 -147l-743 -865h661q57 0 98 -41t41 -98t-41 -97t-98 -40h-940zM729 1534q-34 0 -56 14.5t-22 38.5q0 21 21 55l112 177
q43 69 117 69q59 0 116.5 -30t57.5 -64q0 -36 -41 -74l-127 -118q-42 -39 -82 -53.5t-96 -14.5z" />
    <glyph glyph-name="zacute" unicode="&#x17a;" horiz-adv-x="1153" 
d="M242 0q-66 0 -109 35t-43 90v6q0 43 16 77t54 75l510 563h-434q-53 0 -90 36.5t-37 88.5q0 53 37.5 90t89.5 37h682q66 0 108.5 -35t42.5 -90v-6q0 -43 -16 -77t-54 -75l-512 -563h455q52 0 89.5 -37t37.5 -90q0 -52 -37 -88.5t-90 -36.5h-700zM571 1206q-34 0 -55.5 15
t-21.5 39q0 23 20 55l113 176q44 70 116 70q59 0 117 -30.5t58 -64.5q0 -35 -41 -73l-127 -119q-42 -39 -82.5 -53.5t-96.5 -14.5z" />
    <glyph glyph-name="Zdotaccent" unicode="&#x17b;" horiz-adv-x="1449" 
d="M256 0q-57 0 -98 41t-41 98v6q0 82 57 148l744 864h-637q-57 0 -98.5 40t-41.5 97t41.5 98.5t98.5 41.5h915q57 0 98 -41.5t41 -98.5v-6q0 -78 -57 -147l-743 -865h661q57 0 98 -41t41 -98t-41 -97t-98 -40h-940zM903 1688v-5q0 -66 -48.5 -107.5t-117.5 -41.5
t-117.5 41.5t-48.5 107.5v5q0 66 48.5 107.5t117.5 41.5t117.5 -41.5t48.5 -107.5z" />
    <glyph glyph-name="zdotaccent" unicode="&#x17c;" horiz-adv-x="1153" 
d="M242 0q-66 0 -109 35t-43 90v6q0 43 16 77t54 75l510 563h-434q-53 0 -90 36.5t-37 88.5q0 53 37.5 90t89.5 37h682q66 0 108.5 -35t42.5 -90v-6q0 -43 -16 -77t-54 -75l-512 -563h455q52 0 89.5 -37t37.5 -90q0 -52 -37 -88.5t-90 -36.5h-700zM745 1360v-4
q0 -66 -48 -108t-117 -42t-117.5 42t-48.5 108v4q0 66 48.5 107.5t117.5 41.5t117 -41.5t48 -107.5z" />
    <glyph glyph-name="Zcaron" unicode="&#x17d;" horiz-adv-x="1449" 
d="M256 0q-57 0 -98 41t-41 98v6q0 82 57 148l744 864h-637q-57 0 -98.5 40t-41.5 97t41.5 98.5t98.5 41.5h915q57 0 98 -41.5t41 -98.5v-6q0 -78 -57 -147l-743 -865h661q57 0 98 -41t41 -98t-41 -97t-98 -40h-940zM739 1733l97 79q49 40 91 54t97 14q31 0 49.5 -12.5
t18.5 -36.5q0 -19 -31 -59l-129 -166q-29 -35 -62 -52.5t-84 -17.5h-98q-51 0 -83.5 17.5t-61.5 52.5l-129 166q-31 40 -31 59q0 24 20.5 36.5t51.5 12.5q55 0 97 -14t91 -54z" />
    <glyph glyph-name="zcaron" unicode="&#x17e;" horiz-adv-x="1153" 
d="M242 0q-66 0 -109 35t-43 90v6q0 43 16 77t54 75l510 563h-434q-53 0 -90 36.5t-37 88.5q0 53 37.5 90t89.5 37h682q66 0 108.5 -35t42.5 -90v-6q0 -43 -16 -77t-54 -75l-512 -563h455q52 0 89.5 -37t37.5 -90q0 -52 -37 -88.5t-90 -36.5h-700zM582 1405l96 80
q49 39 90.5 53t97.5 14q31 0 49.5 -12.5t18.5 -36.5q0 -19 -31 -59l-129 -166q-29 -35 -61.5 -52.5t-83.5 -17.5h-99q-51 0 -83.5 17.5t-61.5 52.5l-129 166q-31 40 -31 59q0 24 20.5 36.5t51.5 12.5q56 0 97.5 -14t90.5 -53z" />
    <glyph glyph-name="florin" unicode="&#x192;" horiz-adv-x="1097" 
d="M227 -16q-73 0 -114 35t-41 94q0 50 32.5 86.5t85.5 42.5q50 6 76.5 34.5t36.5 88.5l57 340h-20q-54 0 -91.5 36t-37.5 90t37.5 92t91.5 38h66l28 155q31 165 120.5 248.5t266.5 83.5q37 0 99 -4q48 -5 82 -41t34 -88q0 -54 -37.5 -91.5t-91.5 -37.5h-22
q-68 0 -105 -33.5t-49 -105.5l-14 -86h119q54 0 91.5 -38t37.5 -92t-37.5 -90t-91.5 -36h-164l-68 -390q-31 -177 -123.5 -254t-253.5 -77z" />
    <glyph glyph-name="Aringacute" unicode="&#x1fa;" horiz-adv-x="1617" 
d="M969 1405l532 -1202q17 -39 17 -64q0 -63 -43.5 -107t-106.5 -44q-104 0 -151 108l-97 226h-631l-100 -236q-20 -46 -58 -72t-87 -26q-61 0 -103.5 42.5t-42.5 104.5q0 24 19 68l532 1202q-88 75 -88 180v4q0 96 74.5 167t173.5 71t173.5 -71t74.5 -167v-4
q0 -105 -88 -180zM809 1460q52 0 89.5 37t37.5 88v4q0 51 -37.5 88t-89.5 37t-89.5 -37t-37.5 -88v-4q0 -51 37.5 -88t89.5 -37zM606 600h398l-199 473zM801 1872q-34 0 -56 14.5t-22 38.5q0 23 20 55l113 177q43 69 117 69q59 0 116.5 -30t57.5 -64q0 -36 -41 -74
l-127 -119q-42 -39 -82 -53t-96 -14z" />
    <glyph glyph-name="aringacute" unicode="&#x1fb;" horiz-adv-x="1212" 
d="M451 -20q-162 0 -269.5 89t-107.5 246v4q0 174 119.5 262.5t322.5 88.5q138 0 268 -45v18q0 98 -59.5 149.5t-175.5 51.5q-113 0 -215 -31q-24 -8 -45 -8q-54 0 -91.5 36.5t-37.5 90.5q0 41 23.5 74t60.5 47q151 57 350 57q248 0 371 -123q118 -118 118 -350v-500
q0 -63 -44 -106t-107 -43q-65 0 -107.5 38.5t-42.5 90.5v2q-126 -139 -331 -139zM610 1214q-99 0 -173.5 71t-74.5 167v4q0 96 74.5 167t173.5 71t173.5 -71t74.5 -167v-4q0 -96 -74.5 -167t-173.5 -71zM545 195q108 0 175.5 53.5t67.5 138.5v55q-87 41 -198 41
q-101 0 -158 -39t-57 -112v-4q0 -62 47 -97.5t123 -35.5zM602 1751q-34 0 -56 14.5t-22 38.5q0 22 21 56l112 176q43 69 117 69q59 0 116.5 -30t57.5 -64q0 -36 -41 -74l-127 -118q-42 -39 -82 -53.5t-96 -14.5zM610 1327q52 0 89.5 37t37.5 88v4q0 51 -37.5 88t-89.5 37
t-89.5 -37t-37.5 -88v-4q0 -51 37.5 -88t89.5 -37z" />
    <glyph glyph-name="AEacute" unicode="&#x1fc;" horiz-adv-x="2140" 
d="M68 115q0 44 24 90l641 1118q64 111 189 111h970q58 0 100 -42t42 -100t-41.5 -98.5t-100.5 -40.5h-587v-291h495q59 0 100.5 -41.5t41.5 -99.5t-41.5 -98.5t-100.5 -40.5h-495v-301h598q58 0 99.5 -41.5t41.5 -100.5q0 -58 -41 -98.5t-100 -40.5h-754q-66 0 -112 46
t-46 112v164h-508l-139 -248q-50 -86 -137 -86q-59 0 -99 36t-40 91zM641 600h350v561h-35zM1253 1534q-34 0 -55.5 14.5t-21.5 38.5q0 23 20 55l113 177q43 69 116 69q59 0 116.5 -30t57.5 -64q0 -37 -40 -74l-127 -118q-42 -39 -82.5 -53.5t-96.5 -14.5z" />
    <glyph glyph-name="aeacute" unicode="&#x1fd;" horiz-adv-x="1947" 
d="M1083 635h469q-14 107 -74.5 170t-156.5 63q-95 0 -157 -62.5t-81 -170.5zM545 199q147 0 280 104q-31 74 -39 141q-90 39 -196 39q-101 0 -158 -39t-57 -112v-4q0 -59 48.5 -94t121.5 -35zM1733 109q-157 -134 -381 -134q-125 0 -233 43.5t-185 122.5
q-219 -161 -447 -161q-183 0 -298 89.5t-115 245.5v4q0 174 119.5 262.5t322.5 88.5q138 0 268 -45v18q0 98 -59.5 149.5t-175.5 51.5q-113 0 -215 -31q-24 -8 -45 -8q-54 0 -91.5 36.5t-37.5 90.5q0 41 23.5 74t60.5 47q151 57 350 57q259 0 373 -139q144 147 362 147
q103 0 190.5 -33t147 -87.5t101.5 -124t61.5 -141.5t19.5 -142q0 -67 -41.5 -108.5t-103.5 -41.5h-617q23 -105 93.5 -160t175.5 -55q122 0 221 74q36 25 76 25q52 0 86.5 -35t34.5 -88q0 -56 -41 -92zM956 1206q-34 0 -55.5 15t-21.5 39q0 23 20 55l113 176q44 70 116 70
q59 0 117 -30.5t58 -64.5q0 -35 -41 -73l-127 -119q-42 -39 -82.5 -53.5t-96.5 -14.5z" />
    <glyph glyph-name="Oslashacute" unicode="&#x1fe;" horiz-adv-x="1740" 
d="M868 -25q-246 0 -438 127l-82 -82q-43 -43 -94 -43q-46 0 -77.5 30t-31.5 69q0 51 45 96l78 80q-159 195 -159 461v4q0 151 57.5 287.5t157.5 236.5t243 158.5t305 58.5q245 0 437 -127l84 82q43 43 94 43q46 0 77 -29.5t31 -68.5q0 -51 -45 -96l-77 -82
q159 -199 159 -459v-4q0 -151 -58 -287.5t-158 -236.5t-243 -159t-305 -59zM432 717q0 -129 60 -234l606 625q-106 66 -230 66q-189 0 -312.5 -132t-123.5 -321v-4zM872 260q189 0 313 132t124 321v4q0 125 -60 233l-608 -626q103 -64 231 -64zM862 1554q-34 0 -56 15
t-22 39q0 21 21 55l113 176q44 70 116 70q59 0 116.5 -30t57.5 -64q0 -36 -41 -74l-127 -119q-42 -39 -82 -53.5t-96 -14.5z" />
    <glyph glyph-name="oslashacute" unicode="&#x1ff;" horiz-adv-x="1359" 
d="M678 -25q-179 0 -326 91l-47 -48q-45 -45 -94 -45q-38 0 -67 26.5t-29 63.5q0 52 45 97l41 41q-115 146 -115 342v4q0 117 45.5 222t124 182t189.5 122t237 45q175 0 326 -90l47 47q45 45 94 45q38 0 67 -26.5t29 -63.5q0 -51 -45 -96l-41 -43q115 -150 115 -340v-4
q0 -156 -77 -287t-214 -208t-305 -77zM672 1206q-34 0 -56 15t-22 39q0 23 20 55l113 176q44 70 117 70q59 0 116.5 -30.5t57.5 -64.5q0 -35 -41 -73l-127 -119q-42 -39 -82 -53.5t-96 -14.5zM682 236q134 0 213.5 89t79.5 218v4q0 62 -27 131l-403 -410q62 -32 137 -32z
M385 547q0 -73 27 -131l403 407q-62 35 -137 35q-134 0 -213.5 -89t-79.5 -218v-4z" />
    <glyph glyph-name="Scommaaccent" unicode="&#x218;" horiz-adv-x="1310" 
d="M682 -20q-300 0 -539 172q-59 42 -59 118q0 61 42.5 103.5t104.5 42.5q50 0 91 -29q176 -129 366 -129q97 0 152 36t55 99v4q0 42 -22 70t-84.5 55.5t-182.5 57.5q-68 17 -117.5 32.5t-102.5 37t-89 44.5t-69.5 55t-53.5 70.5t-31.5 88.5t-11.5 110v4q0 194 140.5 313
t361.5 119q254 0 454 -127q29 -17 49.5 -49.5t20.5 -75.5q0 -61 -42.5 -103t-104.5 -42q-41 0 -80 22q-165 97 -301 97q-88 0 -136.5 -35t-48.5 -90v-4q0 -69 60 -105t250 -84q115 -30 194.5 -64.5t140.5 -84.5t90 -119.5t29 -161.5v-4q0 -209 -144.5 -326.5t-381.5 -117.5z
M643 -367q-58 10 -93.5 41t-35.5 82v2q0 55 40.5 89t107.5 34q71 0 113 -46t42 -122v-6q0 -160 -104 -244q-38 -33 -91.5 -52t-105.5 -19q-32 0 -48.5 14.5t-16.5 36.5q0 40 51 49q144 29 141 141z" />
    <glyph glyph-name="scommaaccent" unicode="&#x219;" horiz-adv-x="1028" 
d="M524 -20q-221 0 -413 124q-60 36 -60 107q0 53 35.5 88t87.5 35q35 0 62 -17q154 -98 296 -98q66 0 99 22t33 60v4q0 11 -3.5 21t-11.5 18.5t-16.5 15.5t-24 14t-27.5 12t-32.5 12t-34.5 11t-38.5 11.5t-39.5 11.5q-54 16 -94 31.5t-86.5 43t-76.5 60.5t-50 83.5
t-20 111.5v4q0 162 114.5 255t286.5 93t340 -84q74 -38 74 -117q0 -52 -36 -87t-89 -35q-30 0 -58 14q-141 69 -237 69q-55 0 -85 -21t-30 -54v-4q0 -26 28.5 -48.5t63 -36t98.5 -35.5q7 -2 11 -3.5t10.5 -3.5t11.5 -4q55 -18 94.5 -34t88 -44.5t78 -60.5t50.5 -80.5
t21 -106.5v-4q0 -175 -116 -264.5t-304 -89.5zM500 -356q-58 10 -93.5 41t-35.5 82v2q0 54 40 88t107 34q72 0 114 -45.5t42 -121.5v-7q0 -158 -105 -243q-38 -33 -91 -52.5t-105 -19.5q-32 0 -49 14.5t-17 36.5q0 40 51 49q145 30 142 142z" />
    <glyph glyph-name="schwa" unicode="&#x259;" horiz-adv-x="1255" 
d="M864 463h-469q14 -107 75 -170.5t157 -63.5q95 0 156.5 63t80.5 171zM215 989q156 133 381 133q249 0 411 -158.5t162 -408.5v-4q0 -156 -68 -286t-193 -207.5t-281 -77.5q-106 0 -195.5 33t-150 87t-102.5 124t-61.5 142t-19.5 142q0 66 41.5 107.5t104.5 41.5h616
q-23 105 -93 160t-175 55q-123 0 -221 -73q-36 -25 -76 -25q-52 0 -86.5 35t-34.5 88q0 56 41 92z" />
    <glyph glyph-name="circumflex" unicode="&#x2c6;" 
d="M510 1354l-96 -80q-49 -39 -91 -53.5t-98 -14.5q-30 0 -48.5 12.5t-18.5 36.5q0 21 30 60l129 166q28 35 61.5 52t84.5 17h98q51 0 84.5 -17t61.5 -52l129 -166q30 -39 30 -60q0 -24 -20 -36.5t-51 -12.5q-56 0 -98 14.5t-91 53.5z" />
    <glyph glyph-name="caron" unicode="&#x2c7;" 
d="M514 1405l96 80q49 39 91 53t98 14q30 0 48.5 -12.5t18.5 -36.5q0 -20 -30 -59l-129 -166q-29 -35 -62 -52.5t-84 -17.5h-98q-51 0 -84 17.5t-62 52.5l-129 166q-30 39 -30 59q0 24 20 36.5t51 12.5q56 0 98 -14t91 -53z" />
    <glyph glyph-name="breve" unicode="&#x2d8;" 
d="M512 1214q-119 0 -207.5 46t-134.5 129q-14 25 -14 57q0 44 31 75t75 31q61 0 92 -53q52 -82 158 -82t158 82q31 53 92 53q44 0 75 -31t31 -75q0 -32 -14 -57q-46 -83 -134.5 -129t-207.5 -46z" />
    <glyph glyph-name="dotaccent" unicode="&#x2d9;" 
d="M678 1360v-4q0 -66 -48.5 -108t-117.5 -42t-117.5 42t-48.5 108v4q0 66 48.5 107.5t117.5 41.5t117.5 -41.5t48.5 -107.5z" />
    <glyph glyph-name="ring" unicode="&#x2da;" 
d="M512 1214q-99 0 -173.5 71t-74.5 167v4q0 96 74.5 167t173.5 71t173.5 -71t74.5 -167v-4q0 -96 -74.5 -167t-173.5 -71zM512 1327q52 0 89.5 37t37.5 88v4q0 51 -37.5 88t-89.5 37t-89.5 -37t-37.5 -88v-4q0 -51 37.5 -88t89.5 -37z" />
    <glyph glyph-name="ogonek" unicode="&#x2db;" 
d="M362 -164q0 80 87 184h206q-69 -72 -69 -135q0 -32 20 -50.5t62 -29.5q73 -19 73 -73q0 -35 -25 -54.5t-73 -19.5q-131 0 -206 46t-75 132z" />
    <glyph glyph-name="tilde" unicode="&#x2dc;" 
d="M276 1239q-28 -47 -79 -47q-37 0 -65 26t-28 58q0 26 11 55q37 99 89 150t140 51q54 0 115 -20t112 -40t80 -20q35 0 56 13.5t41 45.5q28 48 79 48q37 0 65 -26t28 -58q0 -27 -11 -56q-37 -99 -89 -149.5t-140 -50.5q-54 0 -115 19.5t-112 39.5t-80 20q-35 0 -56 -13.5
t-41 -45.5z" />
    <glyph glyph-name="hungarumlaut" unicode="&#x2dd;" 
d="M588 1206q-34 0 -54 14.5t-20 39.5q0 21 21 55l112 176q44 70 111 70q59 0 115.5 -30.5t56.5 -64.5q0 -35 -41 -73l-127 -119q-43 -40 -81 -54t-93 -14zM186 1206q-34 0 -53.5 14.5t-19.5 39.5q0 23 20 55l113 176q44 70 110 70q59 0 115.5 -30.5t56.5 -64.5
q0 -35 -41 -73l-127 -119q-43 -40 -81 -54t-93 -14z" />
    <glyph glyph-name="commaaccent" unicode="&#x326;" 
d="M492 -356q-58 10 -94 41t-36 82v2q0 54 40.5 88t107.5 34q72 0 114 -45.5t42 -121.5v-7q0 -158 -105 -243q-38 -33 -91 -52.5t-105 -19.5q-32 0 -49 14.5t-17 36.5q0 40 51 49q145 30 142 142z" />
    <glyph glyph-name="Wgrave" unicode="&#x1e80;" horiz-adv-x="2248" 
d="M483 106l-401 1127q-12 36 -12 59q0 65 47 109.5t114 44.5q55 0 97 -31.5t57 -81.5l285 -878l286 870q19 58 60.5 91.5t99.5 33.5h25q59 0 99.5 -33t59.5 -92l287 -870l285 878q16 49 55.5 81t95.5 32q65 0 110.5 -44t45.5 -108q0 -25 -12 -61l-402 -1127
q-22 -61 -64.5 -95t-98.5 -34h-33q-116 0 -162 129l-283 822l-282 -822q-46 -129 -162 -129h-33q-56 0 -99 34t-65 95zM1133 1534q-56 0 -96.5 14.5t-82.5 53.5l-127 118q-41 38 -41 74q0 34 58 64t117 30q73 0 116 -69l113 -177q20 -32 20 -55q0 -24 -21.5 -38.5
t-55.5 -14.5z" />
    <glyph glyph-name="wgrave" unicode="&#x1e81;" horiz-adv-x="1738" 
d="M514 -20q-124 0 -172 139l-268 774q-15 45 -15 76q0 57 42 99t108 42q112 0 151 -121l168 -557l172 555q18 57 59.5 91t100.5 34h19q58 0 99.5 -34t59.5 -91l174 -557l172 561q16 53 54 86t96 33q63 0 104 -41.5t41 -101.5q0 -29 -10 -64l-276 -784q-48 -139 -172 -139
h-11q-59 0 -103 33.5t-65 99.5l-174 553l-176 -553q-21 -66 -65 -99.5t-103 -33.5h-10zM877 1206q-56 0 -96.5 14.5t-82.5 53.5l-127 119q-41 38 -41 73q0 34 58 64.5t117 30.5q72 0 116 -70l113 -176q20 -32 20 -55q0 -24 -21.5 -39t-55.5 -15z" />
    <glyph glyph-name="Wacute" unicode="&#x1e82;" horiz-adv-x="2248" 
d="M483 106l-401 1127q-12 36 -12 59q0 65 47 109.5t114 44.5q55 0 97 -31.5t57 -81.5l285 -878l286 870q19 58 60.5 91.5t99.5 33.5h25q59 0 99.5 -33t59.5 -92l287 -870l285 878q16 49 55.5 81t95.5 32q65 0 110.5 -44t45.5 -108q0 -25 -12 -61l-402 -1127
q-22 -61 -64.5 -95t-98.5 -34h-33q-116 0 -162 129l-283 822l-282 -822q-46 -129 -162 -129h-33q-56 0 -99 34t-65 95zM1116 1534q-34 0 -56 14.5t-22 38.5q0 21 21 55l112 177q43 69 117 69q59 0 116.5 -30t57.5 -64q0 -36 -41 -74l-127 -118q-42 -39 -82 -53.5t-96 -14.5z
" />
    <glyph glyph-name="wacute" unicode="&#x1e83;" horiz-adv-x="1738" 
d="M514 -20q-124 0 -172 139l-268 774q-15 45 -15 76q0 57 42 99t108 42q112 0 151 -121l168 -557l172 555q18 57 59.5 91t100.5 34h19q58 0 99.5 -34t59.5 -91l174 -557l172 561q16 53 54 86t96 33q63 0 104 -41.5t41 -101.5q0 -29 -10 -64l-276 -784q-48 -139 -172 -139
h-11q-59 0 -103 33.5t-65 99.5l-174 553l-176 -553q-21 -66 -65 -99.5t-103 -33.5h-10zM860 1206q-34 0 -56 15t-22 39q0 21 21 55l112 176q44 70 117 70q59 0 116.5 -30.5t57.5 -64.5q0 -35 -41 -73l-127 -119q-42 -39 -82 -53.5t-96 -14.5z" />
    <glyph glyph-name="Wdieresis" unicode="&#x1e84;" horiz-adv-x="2248" 
d="M483 106l-401 1127q-12 36 -12 59q0 65 47 109.5t114 44.5q55 0 97 -31.5t57 -81.5l285 -878l286 870q19 58 60.5 91.5t99.5 33.5h25q59 0 99.5 -33t59.5 -92l287 -870l285 878q16 49 55.5 81t95.5 32q65 0 110.5 -44t45.5 -108q0 -25 -12 -61l-402 -1127
q-22 -61 -64.5 -95t-98.5 -34h-33q-116 0 -162 129l-283 822l-282 -822q-46 -129 -162 -129h-33q-56 0 -99 34t-65 95zM1343 1837q67 0 114.5 -42t47.5 -107v-5q0 -65 -47.5 -107t-114.5 -42t-114 42t-47 107v5q0 65 47 107t114 42zM905 1837q67 0 114.5 -42t47.5 -107v-5
q0 -65 -47.5 -107t-114.5 -42t-114.5 42t-47.5 107v5q0 65 47.5 107t114.5 42z" />
    <glyph glyph-name="wdieresis" unicode="&#x1e85;" horiz-adv-x="1738" 
d="M514 -20q-124 0 -172 139l-268 774q-15 45 -15 76q0 57 42 99t108 42q112 0 151 -121l168 -557l172 555q18 57 59.5 91t100.5 34h19q58 0 99.5 -34t59.5 -91l174 -557l172 561q16 53 54 86t96 33q63 0 104 -41.5t41 -101.5q0 -29 -10 -64l-276 -784q-48 -139 -172 -139
h-11q-59 0 -103 33.5t-65 99.5l-174 553l-176 -553q-21 -66 -65 -99.5t-103 -33.5h-10zM1087 1509q67 0 114.5 -42t47.5 -107v-4q0 -65 -47.5 -107.5t-114.5 -42.5t-114 42.5t-47 107.5v4q0 65 47 107t114 42zM649 1509q67 0 114.5 -42t47.5 -107v-4q0 -65 -47.5 -107.5
t-114.5 -42.5t-114.5 42.5t-47.5 107.5v4q0 65 47.5 107t114.5 42z" />
    <glyph glyph-name="Ygrave" unicode="&#x1ef2;" horiz-adv-x="1409" 
d="M547 145v408l-463 629q-39 53 -39 112q0 63 46 107.5t112 44.5q51 0 87 -24.5t68 -71.5l349 -502l354 506q64 94 151 94q70 0 112 -44t42 -110q0 -51 -41 -110l-463 -625v-414q0 -66 -45.5 -111.5t-111.5 -45.5t-112 45.5t-46 111.5zM713 1534q-56 0 -96 14.5t-82 53.5
l-127 118q-41 38 -41 74q0 34 57.5 64t116.5 30q73 0 116 -69l113 -177q21 -34 21 -55q0 -24 -22 -38.5t-56 -14.5z" />
    <glyph glyph-name="ygrave" unicode="&#x1ef3;" horiz-adv-x="1200" 
d="M367 -334q-88 0 -170 29q-99 35 -99 129q0 55 37 91t86 36q27 0 51 -8q44 -13 66 -13q43 0 66.5 13t44.5 53l10 24l-375 869q-16 40 -16 72q0 65 44 107t109 42q107 0 150 -117l237 -639l230 637q45 119 149 119q61 0 104.5 -41t43.5 -102q0 -39 -15 -74l-383 -920
q-70 -170 -151 -238.5t-219 -68.5zM608 1206q-56 0 -96 14.5t-82 53.5l-127 119q-41 38 -41 73q0 34 57.5 64.5t116.5 30.5q73 0 117 -70l113 -176q20 -32 20 -55q0 -24 -22 -39t-56 -15z" />
    <glyph glyph-name="enspace" unicode="&#x2002;" 
 />
    <glyph glyph-name="emspace" unicode="&#x2003;" horiz-adv-x="2048" 
 />
    <glyph glyph-name="threeperemspace" unicode="&#x2004;" horiz-adv-x="681" 
 />
    <glyph glyph-name="fourperemspace" unicode="&#x2005;" horiz-adv-x="512" 
 />
    <glyph glyph-name="thinspace" unicode="&#x2009;" horiz-adv-x="272" 
 />
    <glyph glyph-name="hairspace" unicode="&#x200a;" horiz-adv-x="153" 
 />
    <glyph glyph-name="endash" unicode="&#x2013;" horiz-adv-x="1081" 
d="M236 489q-60 0 -103 43t-43 103t43 102.5t103 42.5h610q60 0 102.5 -42.5t42.5 -102.5t-42.5 -103t-102.5 -43h-610z" />
    <glyph glyph-name="emdash" unicode="&#x2014;" horiz-adv-x="1839" 
d="M236 489q-60 0 -103 43t-43 103t43 102.5t103 42.5h1368q60 0 102.5 -42.5t42.5 -102.5t-42.5 -103t-102.5 -43h-1368z" />
    <glyph glyph-name="quoteleft" unicode="&#x2018;" horiz-adv-x="585" 
d="M537 1374q0 -53 -62 -67q-78 -19 -119.5 -70t-38.5 -125q59 -15 101.5 -60.5t42.5 -107.5v-4q0 -73 -47 -120.5t-123 -47.5q-86 0 -134 61.5t-48 167.5v9q0 216 120 336q45 45 108.5 71.5t121.5 26.5q39 0 58.5 -20t19.5 -50z" />
    <glyph glyph-name="quoteright" unicode="&#x2019;" horiz-adv-x="585" 
d="M49 844q0 53 62 67q78 19 119 70t38 125q-58 15 -100.5 60.5t-42.5 107.5v4q0 73 47 120.5t123 47.5q86 0 134 -61.5t48 -167.5v-9q0 -215 -121 -336q-45 -45 -108 -71.5t-121 -26.5q-39 0 -58.5 20t-19.5 50z" />
    <glyph glyph-name="quotesinglbase" unicode="&#x201a;" horiz-adv-x="585" 
d="M39 -262q0 53 61 67q78 19 119.5 70t38.5 125q-58 15 -100.5 60.5t-42.5 107.5v4q0 73 47 120.5t123 47.5q86 0 134 -61.5t48 -167.5v-9q0 -214 -121 -335q-45 -45 -108 -72t-121 -27q-39 0 -58.5 20t-19.5 50z" />
    <glyph glyph-name="quotedblleft" unicode="&#x201c;" horiz-adv-x="1105" 
d="M1057 1374q0 -53 -62 -67q-78 -19 -119 -70t-38 -125q58 -15 100.5 -60.5t42.5 -107.5v-4q0 -73 -47 -120.5t-123 -47.5q-86 0 -134 61.5t-48 167.5v9q0 215 121 336q45 45 108 71.5t121 26.5q39 0 58.5 -20t19.5 -50zM537 1374q0 -53 -62 -67q-78 -19 -119.5 -70
t-38.5 -125q59 -15 101.5 -60.5t42.5 -107.5v-4q0 -73 -47 -120.5t-123 -47.5q-86 0 -134 61.5t-48 167.5v9q0 216 120 336q45 45 108.5 71.5t121.5 26.5q39 0 58.5 -20t19.5 -50z" />
    <glyph glyph-name="quotedblright" unicode="&#x201d;" horiz-adv-x="1105" 
d="M49 844q0 53 62 67q78 19 119 70t38 125q-58 15 -100.5 60.5t-42.5 107.5v4q0 73 47 120.5t123 47.5q86 0 134 -61.5t48 -167.5v-9q0 -215 -121 -336q-45 -45 -108 -71.5t-121 -26.5q-39 0 -58.5 20t-19.5 50zM569 844q0 53 62 67q78 19 119 70t38 125
q-58 15 -100.5 60.5t-42.5 107.5v4q0 73 47 120.5t123 47.5q86 0 134 -61.5t48 -167.5v-9q0 -216 -120 -336q-45 -45 -108.5 -71.5t-121.5 -26.5q-39 0 -58.5 20t-19.5 50z" />
    <glyph glyph-name="quotedblbase" unicode="&#x201e;" horiz-adv-x="1105" 
d="M39 -262q0 53 61 67q78 19 119.5 70t38.5 125q-58 15 -100.5 60.5t-42.5 107.5v4q0 73 47 120.5t123 47.5q86 0 134 -61.5t48 -167.5v-9q0 -214 -121 -335q-45 -45 -108 -72t-121 -27q-39 0 -58.5 20t-19.5 50zM559 -262q0 53 62 67q78 19 119 70t38 125
q-58 15 -100.5 60.5t-42.5 107.5v4q0 73 47 120.5t123 47.5q86 0 134 -61.5t48 -167.5v-9q0 -214 -121 -335q-45 -45 -108 -72t-121 -27q-39 0 -58.5 20t-19.5 50z" />
    <glyph glyph-name="dagger" unicode="&#x2020;" horiz-adv-x="839" 
d="M336 565l18 475l-170 -14q-36 -3 -62 20.5t-26 59.5q0 34 25 57.5t61 20.5l170 -15l-18 179q-4 42 22 70t64 28t64 -28t22 -70l-19 -179l170 15q36 3 61 -20.5t25 -57.5q0 -36 -26 -59.5t-62 -20.5l-170 14l19 -473q2 -38 -22.5 -65t-61.5 -27t-61 26t-23 64z" />
    <glyph glyph-name="daggerdbl" unicode="&#x2021;" horiz-adv-x="880" 
d="M354 86l19 178l-170 -14q-36 -3 -61 20.5t-25 57.5q0 36 26 59.5t62 20.5l168 -15l-19 324l19 323l-168 -14q-36 -3 -62 20.5t-26 59.5q0 34 25 57.5t61 20.5l170 -15l-19 179q-4 42 22 70t64 28t64 -28t22 -70l-18 -179l170 15q36 3 61 -20.5t25 -57.5q0 -36 -26 -59.5
t-62 -20.5l-168 14l18 -323l-18 -324l168 15q36 3 62 -20.5t26 -59.5q0 -34 -25 -57.5t-61 -20.5l-170 14l18 -178q4 -42 -22 -70t-64 -28t-64 28t-22 70z" />
    <glyph glyph-name="bullet" unicode="&#x2022;" 
d="M512 416q-126 0 -215.5 88.5t-89.5 214.5v4q0 126 89.5 214.5t215.5 88.5t215.5 -88.5t89.5 -214.5v-4q0 -126 -89.5 -214.5t-215.5 -88.5z" />
    <glyph glyph-name="ellipsis" unicode="&#x2026;" horiz-adv-x="1720" 
d="M1257 166q0 74 49.5 124t125.5 50t125 -50t49 -124v-4q0 -74 -49 -124t-125 -50t-125.5 50t-49.5 124v4zM686 166q0 74 49 124t125 50t125 -50t49 -124v-4q0 -74 -49 -124t-125 -50t-125 50t-49 124v4zM115 166q0 74 49 124t125 50t125 -50t49 -124v-4q0 -74 -49 -124
t-125 -50t-125 50t-49 124v4z" />
    <glyph glyph-name="perthousand" unicode="&#x2030;" horiz-adv-x="2539" 
d="M438 717q-153 0 -249.5 104t-96.5 258v4q0 155 98 261t252 106q153 0 249.5 -104.5t96.5 -258.5v-4q0 -154 -98 -260t-252 -106zM322 84q0 33 22 66l916 1253q29 43 83 43q40 0 68.5 -28t28.5 -68q0 -36 -23 -66l-915 -1253q-29 -43 -84 -43q-40 0 -68 28t-28 68z
M2097 -16q-153 0 -249.5 104t-96.5 258v4q0 155 98 261t252 106q153 0 249.5 -104.5t96.5 -258.5v-4q0 -154 -98 -260t-252 -106zM1319 -16q-153 0 -249.5 104t-96.5 258v4q0 155 98 261t252 106q153 0 249.5 -104.5t96.5 -258.5v-4q0 -154 -98 -260t-252 -106zM442 903
q62 0 96.5 51.5t34.5 124.5v4q0 75 -37.5 128t-97.5 53q-62 0 -96.5 -51t-34.5 -126v-4q0 -74 37.5 -127t97.5 -53zM2101 170q62 0 96.5 51.5t34.5 124.5v4q0 74 -37.5 127t-97.5 53q-62 0 -96.5 -50.5t-34.5 -125.5v-4q0 -74 37.5 -127t97.5 -53zM1323 170q62 0 96.5 51.5
t34.5 124.5v4q0 74 -37.5 127t-97.5 53q-62 0 -96.5 -50.5t-34.5 -125.5v-4q0 -74 37.5 -127t97.5 -53z" />
    <glyph glyph-name="guilsinglleft" unicode="&#x2039;" horiz-adv-x="763" 
d="M500 84q-65 0 -107 53l-256 328q-35 47 -35 84t35 84l248 317q48 62 117 62q52 0 87.5 -38t35.5 -91q0 -39 -35 -84l-199 -248l205 -256q31 -42 31 -82q0 -54 -36.5 -91.5t-90.5 -37.5z" />
    <glyph glyph-name="guilsinglright" unicode="&#x203a;" horiz-adv-x="763" 
d="M264 1012q64 0 107 -54l256 -327q35 -47 35 -84t-35 -84l-248 -318q-47 -61 -117 -61q-52 0 -87.5 38t-35.5 91q0 39 35 84l199 248l-205 256q-31 42 -31 82q0 54 36.5 91.5t90.5 37.5z" />
    <glyph glyph-name="fraction" unicode="&#x2044;" horiz-adv-x="983" 
d="M-72 -96q0 31 19 65l835 1534q14 27 44 44.5t63 17.5q50 0 85.5 -34t35.5 -83q0 -32 -19 -66l-835 -1534q-14 -26 -44 -43.5t-63 -17.5q-50 0 -85.5 34t-35.5 83z" />
    <glyph glyph-name="Euro" unicode="&#x20ac;" horiz-adv-x="1474" 
d="M1382 289q0 -51 -30 -90q-90 -109 -199.5 -166.5t-257.5 -57.5q-229 0 -387 126.5t-221 342.5h-94q-43 0 -74 30t-31 73t31 73.5t74 30.5h61q-2 20 -2 64q0 51 2 76h-61q-43 0 -74 30t-31 72q0 43 31 73.5t74 30.5h100q65 210 220 335.5t376 125.5q151 0 255.5 -48
t190.5 -140q43 -43 43 -107q0 -61 -44.5 -104t-106.5 -43q-68 0 -109 47q-52 58 -107.5 86.5t-127.5 28.5q-178 0 -260 -181h284q43 0 74 -30.5t31 -73.5q0 -42 -31 -72t-74 -30h-334q-2 -23 -2 -72q0 -48 2 -68h334q43 0 74 -30.5t31 -73.5t-31 -73t-74 -30h-289
q39 -91 109 -139.5t168 -48.5q73 0 128 30t112 95q42 49 106 49q59 0 100 -41t41 -100z" />
    <glyph glyph-name="published" unicode="&#x2117;" horiz-adv-x="1699" 
d="M848 -25q-153 0 -290.5 59t-235.5 158.5t-155.5 235.5t-57.5 285v4q0 149 58 285.5t157 236.5t237 159.5t291 59.5t290.5 -59t235.5 -158t155.5 -235t57.5 -285v-4q0 -149 -58 -285.5t-157 -237t-237 -160t-291 -59.5zM848 57q138 0 260.5 52.5t209 141.5t137 210.5
t50.5 255.5v4q0 179 -84.5 329t-235 238t-333.5 88q-138 0 -260.5 -52.5t-209 -141t-137 -210t-50.5 -255.5v-4q0 -134 50 -255t136 -209t208 -140t259 -52zM578 412v624q0 37 25.5 62.5t62.5 25.5h235q140 0 221.5 -74.5t81.5 -197.5v-4q0 -130 -90.5 -202.5t-228.5 -72.5
h-131v-161q0 -37 -25.5 -62.5t-62.5 -25.5t-62.5 25.5t-25.5 62.5zM754 727h135q63 0 100 33.5t37 85.5v4q0 56 -38 87.5t-103 31.5h-131v-242z" />
    <glyph glyph-name="servicemark" unicode="&#x2120;" horiz-adv-x="1439" 
d="M733 858v514q0 29 20.5 49.5t49.5 20.5h16q42 0 64 -37l166 -272l170 272q21 37 61 37h16q28 0 48 -20.5t20 -49.5v-514q0 -28 -20 -47.5t-48 -19.5t-47.5 19.5t-19.5 47.5v330l-123 -191q-22 -36 -57 -36q-37 0 -60 36l-121 187v-326q0 -28 -19.5 -47.5t-47.5 -19.5
t-48 19.5t-20 47.5zM63 920q0 26 18 43.5t44 17.5q20 0 41 -14q90 -64 190 -64q53 0 82 18.5t29 49.5t-29 48.5t-112 37.5q-59 14 -95.5 27t-72 34.5t-52 53t-16.5 75.5q0 89 64.5 144t175.5 55q123 0 215 -57q35 -21 35 -58q0 -26 -18 -43.5t-44 -17.5q-20 0 -37 10
q-83 49 -155 49q-49 0 -75 -18t-26 -47q0 -31 31 -49t113 -37q114 -26 173.5 -69t59.5 -122q0 -91 -69.5 -143.5t-184.5 -52.5q-137 0 -252 75q-33 23 -33 54z" />
    <glyph glyph-name="trademark" unicode="&#x2122;" horiz-adv-x="1413" 
d="M242 862v445h-138q-26 0 -44.5 18.5t-18.5 44.5t18.5 45t44.5 19h418q26 0 45 -19t19 -45t-19 -44.5t-45 -18.5h-137v-445q0 -29 -21.5 -50t-50.5 -21t-50 21t-21 50zM707 858v514q0 29 20 49.5t49 20.5h17q41 0 63 -37l166 -272l170 272q21 37 61 37h17q28 0 47.5 -20.5
t19.5 -49.5v-514q0 -28 -19.5 -47.5t-47.5 -19.5t-48 19.5t-20 47.5v330l-123 -191q-22 -36 -57 -36q-36 0 -59 36l-121 187v-326q0 -28 -20 -47.5t-48 -19.5t-47.5 19.5t-19.5 47.5z" />
    <glyph glyph-name="minus" unicode="&#x2212;" horiz-adv-x="1310" 
d="M1038 575h-768q-60 0 -101.5 42t-41.5 102t41.5 102.5t101.5 42.5h768q60 0 103 -42.5t43 -102.5t-43 -102t-103 -42z" />
    <glyph glyph-name="Q.alt" horiz-adv-x="1740" 
d="M1632 717q0 -147 -53.5 -278t-151.5 -232l113 -119q68 -71 68 -139q0 -73 -52 -121.5t-122 -48.5q-91 0 -168 86l-136 153q-127 -43 -262 -43q-162 0 -304.5 58t-241.5 157.5t-156 235.5t-57 287v4q0 151 57.5 287.5t157.5 236.5t243 158.5t305 58.5q216 0 391 -99
t272 -267.5t97 -370.5v-4zM1303 713v4q0 187 -123.5 318.5t-311.5 131.5q-124 0 -223 -60t-153 -162t-54 -224v-4q0 -122 55 -225t155 -164.5t224 -61.5t223.5 60.5t153.5 162.5t54 224z" />
    <glyph glyph-name="aring.alt" horiz-adv-x="1212" 
d="M451 -20q-162 0 -269.5 89t-107.5 246v4q0 174 119.5 262.5t322.5 88.5q138 0 268 -45v18q0 98 -59.5 149.5t-175.5 51.5q-113 0 -215 -31q-24 -8 -45 -8q-54 0 -91.5 36.5t-37.5 90.5q0 41 23.5 74t60.5 47q98 33 170 45q-52 58 -52 139v4q0 96 74.5 167t173.5 71
t173.5 -71t74.5 -167v-4q0 -89 -65 -154q105 -29 172 -96q118 -118 118 -350v-500q0 -63 -44 -106t-107 -43q-65 0 -107.5 38.5t-42.5 90.5v2q-126 -139 -331 -139zM545 195q108 0 175.5 53.5t67.5 138.5v55q-87 41 -198 41q-101 0 -158 -39t-57 -112v-4q0 -62 47 -97.5
t123 -35.5zM610 1112q52 0 89.5 37t37.5 88v4q0 51 -37.5 88t-89.5 37t-89.5 -37t-37.5 -88v-4q0 -51 37.5 -88t89.5 -37z" />
    <glyph glyph-name="aringacute.alt" horiz-adv-x="1212" 
d="M451 -20q-162 0 -269.5 89t-107.5 246v4q0 174 119.5 262.5t322.5 88.5q138 0 268 -45v18q0 98 -59.5 149.5t-175.5 51.5q-113 0 -215 -31q-24 -8 -45 -8q-54 0 -91.5 36.5t-37.5 90.5q0 41 23.5 74t60.5 47q98 33 170 45q-52 58 -52 139v4q0 96 74.5 167t173.5 71
t173.5 -71t74.5 -167v-4q0 -89 -65 -154q105 -29 172 -96q118 -118 118 -350v-500q0 -63 -44 -106t-107 -43q-65 0 -107.5 38.5t-42.5 90.5v2q-126 -139 -331 -139zM545 195q108 0 175.5 53.5t67.5 138.5v55q-87 41 -198 41q-101 0 -158 -39t-57 -112v-4q0 -62 47 -97.5
t123 -35.5zM610 1112q52 0 89.5 37t37.5 88v4q0 51 -37.5 88t-89.5 37t-89.5 -37t-37.5 -88v-4q0 -51 37.5 -88t89.5 -37zM602 1536q-34 0 -56 14.5t-22 38.5q0 22 21 56l112 176q43 69 117 69q59 0 116.5 -30t57.5 -64q0 -36 -41 -74l-127 -118q-42 -39 -82 -53.5
t-96 -14.5z" />
    <glyph glyph-name="three.alt" horiz-adv-x="1257" 
d="M643 -25q-268 0 -471 156q-59 46 -59 117q0 62 42.5 104.5t104.5 42.5q52 0 90 -30q133 -107 297 -107q100 0 155.5 45t55.5 123v4q0 79 -70.5 120.5t-199.5 41.5h-39q-54 0 -92.5 38.5t-38.5 92.5t38.5 92.5t92.5 38.5h47q106 0 164.5 46t58.5 120v4q0 67 -55.5 109.5
t-151.5 42.5q-66 0 -120.5 -26.5t-112.5 -78.5q-42 -39 -98 -39q-60 0 -103 42t-43 102q0 61 43 104q88 88 191.5 133t246.5 45q231 0 371.5 -107.5t140.5 -277.5v-4q0 -229 -188 -332q108 -47 167.5 -120t59.5 -191v-4q0 -197 -139.5 -322t-384.5 -125z" />
    <glyph glyph-name="registered.alt" horiz-adv-x="1699" 
d="M848 -25q-153 0 -290.5 59t-235.5 158.5t-155.5 235.5t-57.5 285v4q0 149 58 285.5t157 236.5t237 159.5t291 59.5t290.5 -59t235.5 -158t155.5 -235t57.5 -285v-4q0 -149 -58 -285.5t-157 -237t-237 -160t-291 -59.5zM848 57q138 0 260.5 52.5t209 141.5t137 210.5
t50.5 255.5v4q0 179 -84.5 329t-235 238t-333.5 88q-138 0 -260.5 -52.5t-209 -141t-137 -210t-50.5 -255.5v-4q0 -134 50 -255t136 -209t208 -140t259 -52zM545 418v629q0 35 25.5 60.5t60.5 25.5h264q158 0 244 -86q65 -65 65 -173v-4q0 -172 -160 -239l130 -156
q22 -28 22 -59q0 -35 -24.5 -59.5t-55.5 -24.5q-26 0 -41 8.5t-33 30.5l-182 227h-141v-180q0 -35 -26.5 -60.5t-61.5 -25.5t-60.5 25.5t-25.5 60.5zM719 748h174q65 0 100 30.5t35 81.5v4q0 56 -36.5 85.5t-102.5 29.5h-170v-231z" />
    <glyph glyph-name="hfjslug" horiz-adv-x="1421" 
d="M1319 -410h-426l-16 29h-334l-17 -29h-424v621q28 0 47 18.5t19 46.5q0 27 -19.5 46.5t-46.5 19.5v1135h205l62 161h684l59 -161h207v-1887zM819 1153v-352h31v160h78v28h-78v135h88v29h-119zM377 1153v-352h31v162h96v-162h31v352h-31v-162h-96v162h-31zM942 807
q20 -8 43 -8q64 0 64 73v281h-33v-281q0 -45 -33 -45q-13 0 -41 11v-31zM760 952l-27 6q-9 -39 -16 -61h-2l-33 64q47 44 47 86q0 28 -14 45.5t-41 17.5q-26 0 -42 -18t-16 -45q0 -9 1 -16.5t4.5 -16.5t6 -13.5t9 -16.5t8.5 -17q-47 -38 -47 -97q0 -34 16.5 -54.5
t42.5 -20.5q41 0 60 49h2l24 -49l25 12l-35 65q16 40 27 80zM1071 662v-95h16v25l17 16l31 -41h20l-41 54l37 41h-21l-40 -50h-3v50h-16zM999 598l21 -31h18l-24 35q20 8 20 29q0 13 -10 22t-25 9h-41v-95h17v31h24zM872 565q22 0 36 14.5t14 34.5q0 19 -14.5 34.5
t-35.5 15.5t-35 -15t-14 -35q0 -21 14 -35t35 -14zM758 616l-27 46h-18l37 -60v-35h16v35l37 60h-19zM395 662v-95h70v15h-53v26h47v15h-47v24h53v15h-70zM270 662v-95h17v66l51 -66h14v95h-16v-66l-51 66h-15zM494 662l28 -97h17l22 70h2l23 -70h16l29 97h-17l-20 -72h-2
l-23 72h-14l-23 -72h-2l-20 72h-16zM670 981q-25 48 -25 66q0 17 8.5 27.5t20.5 10.5q26 0 26 -38q0 -31 -30 -66zM700 866q-16 -43 -41 -43q-14 0 -23 14t-9 37q0 40 32 72zM997 612h-22v35h22q21 0 21 -16q0 -8 -6 -13.5t-15 -5.5zM872 580q-14 0 -23 10t-9 24q0 13 9 24
t23 11t23.5 -11t9.5 -24q0 -14 -9 -24t-24 -10z" />
    <glyph glyph-name="caron.alt" 
d="M412 1126v267q0 44 29 74t75 30h41q34 0 55 -17t21 -50q0 -24 -8 -48l-78 -270q-16 -55 -72 -55q-29 0 -46 19t-17 50z" />
    <glyph glyph-name="NUL" horiz-adv-x="0" 
 />
    </font>
</defs>
</svg>
