<svg width="88" height="88" viewBox="0 0 88 88" fill="none" xmlns="http://www.w3.org/2000/svg">
<circle cx="44" cy="44" r="44" fill="#9C4CFF"/>
<path d="M43.7404 18C40.5313 18 37.9292 29.6396 37.9292 43.9979C37.9292 58.3562 40.5313 69.9958 43.7404 69.9958C46.9495 69.9958 49.5517 58.3562 49.5517 43.9979C49.5517 29.6396 46.9495 18 43.7404 18ZM44.1417 68.5286C43.7747 69.0181 43.4077 68.6509 43.4077 68.6509C41.9298 66.9385 41.1909 63.7572 41.1909 63.7572C38.6058 55.438 39.2211 37.5759 39.2211 37.5759C40.436 23.3953 42.6459 20.0454 43.398 19.3017C43.4748 19.2258 43.5759 19.1794 43.6835 19.1707C43.7911 19.162 43.8984 19.1915 43.9864 19.2541C45.0775 20.0273 45.9927 23.2609 45.9927 23.2609C48.6952 33.293 48.4505 42.7134 48.4505 42.7134C48.6952 50.9103 47.0963 60.086 47.0963 60.086C45.8655 67.0593 44.1417 68.5286 44.1417 68.5286Z" fill="white"/>
<path d="M66.2887 31.0617C64.6909 28.2772 53.3008 31.8128 40.8404 38.9578C28.3801 46.1028 19.5907 54.1528 21.1872 56.9362C22.7838 59.7196 34.1751 56.1851 46.6355 49.0401C59.0959 41.8951 67.8853 33.8451 66.2887 31.0617ZM22.6613 56.5542C22.0496 56.4772 22.1878 55.9744 22.1878 55.9744C22.9382 53.8408 25.326 51.6166 25.326 51.6166C31.2583 45.234 47.0591 36.8791 47.0591 36.8791C59.9626 30.8757 63.9705 31.129 64.9873 31.409C65.0917 31.4381 65.1823 31.5032 65.2433 31.5928C65.3042 31.6824 65.3315 31.7907 65.3203 31.8984C65.198 33.2303 62.8427 35.6324 62.8427 35.6324C55.4908 42.9718 47.1973 47.4483 47.1973 47.4483C40.209 51.7412 31.4543 54.9184 31.4543 54.9184C24.7928 57.3189 22.6616 56.5542 22.6616 56.5542H22.6613Z" fill="white"/>
<path d="M66.2318 57.0292C67.842 54.2521 59.0747 46.1652 46.6581 38.9664C34.2415 31.7677 22.8528 28.1883 21.2441 30.9702C19.6353 33.7522 28.4012 41.8342 40.825 49.033C53.2487 56.2318 64.6231 59.8114 66.2318 57.0292ZM22.311 32.0433C22.0731 31.4794 22.5752 31.3436 22.5752 31.3436C24.798 30.9238 27.9203 31.8804 27.9203 31.8804C36.4146 33.8147 51.561 43.3024 51.561 43.3024C63.2228 51.4627 65.0113 55.0571 65.2793 56.0774C65.3066 56.1821 65.296 56.293 65.2494 56.3906C65.2029 56.4882 65.1233 56.5662 65.0248 56.6109C63.8088 57.1677 60.5519 56.3381 60.5519 56.3381C50.5136 53.6465 42.4855 48.715 42.4855 48.715C35.2722 44.8245 28.1396 38.8383 28.1396 38.8383C22.7198 34.2749 22.3126 32.0495 22.3126 32.0495L22.311 32.0433Z" fill="white"/>
<path d="M43.6782 46.9965C45.3674 46.9965 46.7367 45.6271 46.7367 43.9379C46.7367 42.2488 45.3674 40.8794 43.6782 40.8794C41.989 40.8794 40.6196 42.2488 40.6196 43.9379C40.6196 45.6271 41.989 46.9965 43.6782 46.9965Z" fill="white"/>
<path d="M56.2183 34.0277C57.1981 34.0277 57.9923 33.2061 57.9923 32.1926C57.9923 31.179 57.1981 30.3574 56.2183 30.3574C55.2386 30.3574 54.4443 31.179 54.4443 32.1926C54.4443 33.2061 55.2386 34.0277 56.2183 34.0277Z" fill="white"/>
<path d="M27.1012 40.2669C28.0809 40.2669 28.8752 39.4453 28.8752 38.4318C28.8752 37.4183 28.0809 36.5967 27.1012 36.5967C26.1214 36.5967 25.3271 37.4183 25.3271 38.4318C25.3271 39.4453 26.1214 40.2669 27.1012 40.2669Z" fill="white"/>
<path d="M40.0689 62.7801C41.0487 62.7801 41.8429 61.9585 41.8429 60.945C41.8429 59.9315 41.0487 59.1099 40.0689 59.1099C39.0892 59.1099 38.2949 59.9315 38.2949 60.945C38.2949 61.9585 39.0892 62.7801 40.0689 62.7801Z" fill="white"/>
</svg>
