<svg width="64" height="64" viewBox="0 0 64 64" fill="none" xmlns="http://www.w3.org/2000/svg">
<circle cx="32" cy="32" r="32" fill="#002D74"/>
<path d="M32.0114 16.0552L17.9995 24.1452V40.3253L32.0114 48.4154L46 40.3253V24.1452L32.0114 16.0552ZM41.85 37.924L31.9881 43.6126L22.1495 37.924V26.5466L32.0114 20.8579L41.85 26.5466V37.924Z" fill="white"/>
<path d="M32.0111 48.4154L45.9997 40.3253V24.1452L32.0111 16.0552V20.8579L41.8497 26.5466V37.9473L31.9878 43.636V48.4154H32.0111Z" fill="white"/>
<path d="M31.9881 16.0552L17.9995 24.1452V40.3253L31.9881 48.4154V43.6126L22.1495 37.924V26.5233L31.9881 20.8579V16.0552Z" fill="white"/>
<path d="M38.5398 36.0129L32.0118 39.7898L25.4604 36.0129V28.459L32.0118 24.6821L38.5398 28.459L35.812 30.0444L31.9884 27.8296L28.1882 30.0444V34.4508L32.0118 36.6657L35.8353 34.4508L38.5398 36.0129Z" fill="white"/>
</svg>
