<svg width="88" height="88" viewBox="0 0 88 88" fill="none" xmlns="http://www.w3.org/2000/svg">
<circle cx="44" cy="44" r="44" fill="#FFC1B3"/>
<path d="M38.2354 29.9506C29.8961 33.165 29.1322 41.397 26.741 45.2415C24.3215 49.1317 18.7784 51.278 19.5364 53.2606C20.2944 55.2429 25.844 53.1137 30.2346 54.3786C34.5732 55.6286 40.6267 61.2333 48.9659 58.0188C53.2141 56.3817 56.2903 53.0114 57.7049 49.0193C57.8569 48.5908 57.5726 48.1325 57.1213 48.0902C56.8409 48.0637 56.5716 48.2112 56.4451 48.4638C55.1656 51.0227 52.9704 53.1302 50.098 54.2372C45.3556 56.065 40.1668 54.63 36.9802 51.0307C36.2564 50.2134 35.6374 49.2831 35.1488 48.2548C35.0144 47.9718 34.8866 47.6842 34.7734 47.3866C34.6594 47.0891 34.5626 46.7895 34.4737 46.4886C36.9802 45.3156 39.8725 44.0731 43.1516 42.8094C46.3664 41.5702 49.2927 40.5651 51.8976 39.761C53.66 39.2175 55.2755 38.7652 56.734 38.3955C56.8397 38.3691 56.9435 38.3426 57.0471 38.3168C57.2675 38.2619 57.4941 38.3803 57.5757 38.5932L57.5772 38.5972C57.6251 38.7235 57.6667 38.8505 57.7116 38.9774C57.9999 39.7967 58.2161 40.6246 58.3587 41.4545C58.4213 41.8175 58.8165 42.0152 59.1405 41.8406C60.3379 41.1953 61.433 40.5657 62.4115 39.96C66.0581 37.7052 68.0798 35.7928 67.6648 34.709C67.2506 33.6245 64.4741 33.5624 60.2613 34.3361C58.9224 34.5821 57.4383 34.9127 55.8386 35.322C55.562 35.3927 55.2819 35.4661 54.9988 35.5415C53.6527 35.8999 52.2329 36.3106 50.7545 36.7702C48.0051 37.6251 45.0554 38.6494 42.0101 39.8232C39.1613 40.9215 36.4612 42.0602 33.9851 43.1949C33.9548 38.379 36.8544 33.8262 41.5966 31.9985C44.4685 30.8916 47.5046 30.9822 50.1612 32.025C50.4232 32.1281 50.7216 32.0567 50.9134 31.8484C51.22 31.5145 51.1259 30.9828 50.7274 30.7659C47.016 28.7511 42.4838 28.3133 38.2354 29.9506Z" fill="white"/>
</svg>
