<svg width="65" height="65" viewBox="0 0 65 65" fill="none" xmlns="http://www.w3.org/2000/svg">
<circle cx="32.2705" cy="32.2705" r="32.2705" fill="#FED62E"/>
<path d="M28.4276 35.9274C28.4276 38.0636 26.6949 39.7957 24.5571 39.7957C22.4192 39.7957 20.6865 38.0636 20.6865 35.9274C20.6865 33.7912 22.4192 32.0591 24.5571 32.0591C26.6949 32.0591 28.4276 33.7912 28.4276 35.9274Z" fill="black" stroke="black" stroke-width="0.897444"/>
<path d="M47.3241 35.6618C47.3241 37.798 45.5914 39.5301 43.4535 39.5301C41.3157 39.5301 39.583 37.798 39.583 35.6618C39.583 33.5256 41.3157 31.7935 43.4535 31.7935C45.5914 31.7935 47.3241 33.5256 47.3241 35.6618Z" fill="black" stroke="black" stroke-width="0.897444"/>
<path d="M25.7353 35.3875C26.5121 35.3875 27.1419 34.7444 27.1419 33.9511C27.1419 33.1578 26.5121 32.5146 25.7353 32.5146C24.9583 32.5146 24.3286 33.1578 24.3286 33.9511C24.3286 34.7444 24.9583 35.3875 25.7353 35.3875Z" fill="white"/>
<path d="M44.5502 35.0666C45.3272 35.0666 45.9569 34.4236 45.9569 33.6303C45.9569 32.837 45.3272 32.1938 44.5502 32.1938C43.7734 32.1938 43.1436 32.837 43.1436 33.6303C43.1436 34.4236 43.7734 35.0666 44.5502 35.0666Z" fill="white"/>
<path d="M41.6216 39.4588C42.0774 39.4588 42.4469 39.0815 42.4469 38.6161C42.4469 38.1507 42.0774 37.7734 41.6216 37.7734C41.1659 37.7734 40.7964 38.1507 40.7964 38.6161C40.7964 39.0815 41.1659 39.4588 41.6216 39.4588Z" fill="white" fill-opacity="0.9"/>
<path d="M22.3253 39.406C22.781 39.406 23.1505 39.0287 23.1505 38.5634C23.1505 38.098 22.781 37.7207 22.3253 37.7207C21.8694 37.7207 21.5 38.098 21.5 38.5634C21.5 39.0287 21.8694 39.406 22.3253 39.406Z" fill="white" fill-opacity="0.9"/>
<path d="M33.8912 50.3664C33.4375 50.1679 32.9494 49.7902 32.7222 49.0063L37.3245 48.6641C37.2427 48.8348 37.1406 49.0227 37.0158 49.2126C36.5944 49.8534 35.9502 50.4667 34.986 50.5903C34.973 50.5906 34.9517 50.5907 34.9232 50.5902C34.8655 50.5892 34.7791 50.5851 34.6733 50.5729C34.4594 50.5482 34.177 50.4914 33.8912 50.3664Z" fill="#FA7F5B" stroke="#FA7F5B" stroke-width="1.1218"/>
<path fill-rule="evenodd" clip-rule="evenodd" d="M32.3563 34.9383C32.3812 35.2895 32.3812 35.6087 32.3812 35.9279C32.3814 36.2572 32.3552 36.5859 32.3031 36.9109C32.2179 37.5307 32.0112 38.1265 31.6953 38.6629C31.3796 39.1993 30.9611 39.6651 30.465 40.0327C30.0724 40.2736 29.701 40.5492 29.3554 40.8562C29.1361 41.0683 28.9372 41.3013 28.7614 41.5521C28.2504 42.281 27.9819 43.1581 27.9956 44.0546C28.0132 44.7457 28.1595 45.4271 28.427 46.0622C28.5391 46.3461 28.6751 46.6195 28.8333 46.8795C29.2063 47.4901 29.7003 48.0141 30.2838 48.4179C30.9658 48.8576 31.7284 49.1509 32.525 49.2798C33.2876 49.4051 34.0623 49.4352 34.8319 49.3691C35.4849 49.3124 36.1328 49.2057 36.77 49.0499C37.2009 48.9764 37.621 48.8477 38.0204 48.6669C38.3698 48.4776 38.6969 48.2484 38.9957 47.9838C39.4605 47.5989 39.859 47.1372 40.1742 46.6177C40.5921 45.9124 40.7783 45.0893 40.7056 44.2684C40.6267 43.5442 40.4021 42.8443 40.046 42.2128C39.7849 41.7189 39.4703 41.2562 39.1083 40.8339C38.7436 40.4385 38.3575 40.0644 37.9517 39.7135C37.2043 39.0621 36.5838 38.2727 36.123 37.3865C35.88 36.8801 35.7558 36.3227 35.7604 35.7587C35.7573 34.6288 35.7291 33.4956 35.6447 32.3688C35.5942 31.6076 35.5013 30.8498 35.3665 30.0994C35.357 30.049 35.3477 29.9972 35.3381 29.9442C35.2171 29.2764 35.0617 28.4191 34.3725 28.1619C34.173 28.0906 33.9599 28.0687 33.7507 28.0982C33.5414 28.1276 33.342 28.2074 33.169 28.331C32.8412 28.5975 32.6191 28.9762 32.5438 29.3972C32.4811 29.724 32.4383 30.0544 32.4156 30.3866C32.3422 31.1813 32.3077 31.9792 32.3124 32.7774C32.3124 33.5009 32.327 34.2212 32.3563 34.9383ZM35.2778 42.2873C35.141 42.2915 35.0046 42.2958 34.8696 42.2958C34.4757 42.3022 34.085 42.3277 33.6942 42.3724C33.1941 42.4299 32.3125 42.5735 32.2281 43.2119C32.1562 43.7736 32.7158 44.1949 33.1221 44.4503C33.3889 44.6131 33.6668 44.756 33.9537 44.8781C34.3987 45.0643 34.8823 45.1334 35.3604 45.0792C35.6944 44.9901 36.0113 44.8445 36.2982 44.6482C36.8327 44.3641 38.1518 43.1385 37.164 42.5607C36.834 42.3912 36.4706 42.3007 36.1012 42.2958C35.8298 42.2702 35.5529 42.2787 35.2778 42.2873Z" fill="black"/>
<path d="M37.3663 36.0251C37.3659 36.818 37.5184 37.6034 37.8155 38.3368C38.1127 39.0702 38.5487 39.7373 39.0993 40.2998C39.6498 40.8623 40.304 41.3091 41.025 41.6141C41.7459 41.9192 42.519 42.0763 43.3 42.0763C43.6587 42.0762 44.0157 42.0428 44.3664 41.9771C41.7058 45.3913 37.4814 47.6055 32.6969 47.6055C26.8912 47.6055 20.5187 43.1768 18.7027 38.1966C18.9865 39.1477 19.9252 40.2524 20.1886 40.5215C21.3004 41.6574 22.8885 42.2956 24.4659 42.2966C26.0433 42.2956 27.5543 41.655 28.6661 40.5191C29.7775 39.3836 30.4 37.8461 30.4 36.245C30.4 34.6442 29.7773 33.107 28.6658 31.972C27.5538 30.8365 26.0434 30.1967 24.4662 30.1967C22.8891 30.1967 21.3787 30.8365 20.2668 31.972C19.1552 33.107 18.5325 34.6442 18.5325 36.245C18.5325 36.5141 18.6681 37.9328 18.7027 38.1966C18.1278 37.1662 18.1495 34.8163 18.1495 33.6435C18.1495 25.9499 24.6428 19.6816 32.6969 19.6816C39.9289 19.6816 45.9024 24.7368 47.0475 31.3347C46.735 31.0737 46.3962 30.845 46.0355 30.6529C45.1916 30.2036 44.2535 29.968 43.3006 29.9668C42.519 29.9668 41.7447 30.1243 41.0234 30.4297C40.302 30.7352 39.6475 31.1826 39.0968 31.7458C38.5462 32.309 38.1103 32.9771 37.8136 33.7113C37.5169 34.4453 37.3649 35.2315 37.3663 36.0251Z" fill="black"/>
<path d="M37.3663 36.0251C37.3659 36.818 37.5184 37.6034 37.8155 38.3368C38.1127 39.0702 38.5487 39.7373 39.0993 40.2998C39.6498 40.8623 40.304 41.3091 41.025 41.6141C41.7459 41.9192 42.519 42.0763 43.3 42.0763C43.6587 42.0762 44.0157 42.0428 44.3664 41.9771C41.7058 45.3913 37.4814 47.6055 32.6969 47.6055C26.8912 47.6055 20.5187 43.1768 18.7027 38.1966M37.3663 36.0251C37.3649 35.2315 37.5169 34.4453 37.8136 33.7113C38.1103 32.9771 38.5462 32.309 39.0968 31.7458C39.6475 31.1826 40.302 30.7352 41.0234 30.4297C41.7447 30.1243 42.519 29.9668 43.3006 29.9668C44.2535 29.968 45.1916 30.2036 46.0355 30.6529C46.3962 30.845 46.735 31.0737 47.0475 31.3347C45.9024 24.7368 39.9289 19.6816 32.6969 19.6816C24.6428 19.6816 18.1495 25.9499 18.1495 33.6435C18.1495 34.8163 18.1278 37.1662 18.7027 38.1966M37.3663 36.0251L37.8734 36.0248M18.7027 38.1966C18.9865 39.1477 19.9252 40.2524 20.1886 40.5215C21.3004 41.6574 22.8885 42.2956 24.4659 42.2966C26.0433 42.2956 27.5543 41.655 28.6661 40.5191C29.7775 39.3836 30.4 37.8461 30.4 36.245C30.4 34.6442 29.7773 33.107 28.6658 31.972C27.5538 30.8365 26.0434 30.1967 24.4662 30.1967C22.8891 30.1967 21.3787 30.8365 20.2668 31.972C19.1552 33.107 18.5325 34.6442 18.5325 36.245C18.5325 36.5141 18.6681 37.9328 18.7027 38.1966Z" stroke="black" stroke-width="1.1218"/>
<path fill-rule="evenodd" clip-rule="evenodd" d="M32.3563 34.9369C32.3812 35.288 32.3812 35.6072 32.3812 35.9264C32.3814 36.2557 32.3552 36.5845 32.3031 36.9095C32.2179 37.5293 32.0112 38.1251 31.6953 38.6614C31.3796 39.1978 30.9611 39.6637 30.465 40.0312C30.0724 40.2721 29.701 40.5477 29.3554 40.8547C29.1361 41.0668 28.9372 41.2998 28.7614 41.5506C28.2504 42.2795 27.9819 43.1567 27.9956 44.0531C28.0132 44.7442 28.1595 45.4256 28.427 46.0608C28.5391 46.3447 28.6751 46.618 28.8333 46.878C29.2063 47.4886 29.7003 48.0127 30.2838 48.4165C30.9658 48.8562 31.7284 49.1494 32.525 49.2783C33.2876 49.4037 34.0623 49.4337 34.8319 49.3677C35.4849 49.311 36.1328 49.2043 36.77 49.0485C37.2009 48.9749 37.621 48.8462 38.0204 48.6655C38.3698 48.4761 38.6969 48.247 38.9957 47.9824C39.4605 47.5974 39.859 47.1357 40.1742 46.6162C40.5921 45.911 40.7783 45.0879 40.7056 44.2669C40.6267 43.5427 40.4021 42.8428 40.046 42.2113C39.7849 41.7174 39.4703 41.2548 39.1083 40.8324C38.7436 40.437 38.3575 40.063 37.9517 39.712C37.2043 39.0607 36.5838 38.2712 36.123 37.3851C35.88 36.8786 35.7558 36.3213 35.7604 35.7572C35.7573 34.6273 35.7291 33.4941 35.6447 32.3674C35.5942 31.6061 35.5013 30.8484 35.3665 30.0979C35.357 30.0476 35.3477 29.9958 35.3381 29.9427C35.2171 29.2749 35.0617 28.4176 34.3725 28.1604C34.173 28.0891 33.9599 28.0673 33.7507 28.0967C33.5414 28.1261 33.342 28.2059 33.169 28.3296C32.8412 28.596 32.6191 28.9748 32.5438 29.3957C32.4811 29.7225 32.4383 30.053 32.4156 30.3851C32.3422 31.1798 32.3077 31.9778 32.3124 32.7759C32.3124 33.4994 32.327 34.2198 32.3563 34.9369ZM35.2778 42.2858C35.141 42.2901 35.0046 42.2943 34.8696 42.2943C34.4757 42.3007 34.085 42.3263 33.6942 42.3709C33.1941 42.4284 32.3125 42.572 32.2281 43.2104C32.1562 43.7721 32.7158 44.1935 33.1221 44.4489C33.3889 44.6117 33.6668 44.7546 33.9537 44.8766C34.3987 45.0628 34.8823 45.1319 35.3604 45.0777C35.6944 44.9887 36.0113 44.843 36.2982 44.6468C36.8327 44.3627 38.1518 43.137 37.164 42.5593C36.834 42.3898 36.4706 42.2992 36.1012 42.2943C35.8298 42.2688 35.5529 42.2773 35.2778 42.2858Z" fill="white"/>
<path fill-rule="evenodd" clip-rule="evenodd" d="M36.9116 43.1221C36.9199 43.1298 36.922 43.1334 36.9209 43.1318C36.9192 43.1292 36.9162 43.1235 36.9143 43.1173C36.9125 43.1112 36.9124 43.108 36.9125 43.1091C36.9126 43.1117 36.9124 43.1161 36.9116 43.1221Z" fill="#7E6C6C"/>
<path fill-rule="evenodd" clip-rule="evenodd" d="M36.9143 43.1173C36.9162 43.1235 36.9187 43.1285 36.9204 43.1311C36.9196 43.1301 36.9173 43.1274 36.9116 43.1221C36.9124 43.1161 36.9126 43.1117 36.9125 43.1091C36.9124 43.108 36.9125 43.1112 36.9143 43.1173Z" fill="#7E6C6C"/>
<path fill-rule="evenodd" clip-rule="evenodd" d="M23.6151 22.1013C20.9718 24.0257 19.0102 26.7696 18.1398 29.9401C17.564 28.7058 15.2597 23.4615 15.7201 19.5023C15.7354 19.4082 15.7846 19.3233 15.8581 19.2643C15.9315 19.2052 16.0239 19.1762 16.1171 19.1831C18.8566 19.3332 21.4778 20.3554 23.6151 22.1013Z" fill="white"/>
<path fill-rule="evenodd" clip-rule="evenodd" d="M17.6613 34.3762C16.2962 33.0723 10.0684 26.6141 11.6938 18.7365C11.6938 18.7365 12.119 16.8565 11.8408 15.618C11.7784 15.3463 11.8209 15.0604 11.9595 14.82C12.1878 14.4784 12.6597 14.5455 13.0036 14.5965C13.462 14.6654 13.9211 14.7212 14.3798 14.7771C15.3258 14.8922 16.2703 15.0071 17.2048 15.2349C18.8749 15.6163 20.4759 16.2625 21.95 17.1501C22.7025 17.6149 23.4008 18.1653 24.0318 18.7908C24.3588 19.1139 24.6638 19.4594 24.9447 19.825C25.0916 20.0165 25.2322 20.2144 25.3635 20.4155C25.3719 20.4283 25.3919 20.4564 25.4185 20.4938C25.484 20.5858 25.5896 20.7343 25.6612 20.8506C25.2269 21.0716 24.8052 21.3124 24.3975 21.5718C21.0312 18.0493 16.2547 17.2458 14.7696 17.0767C14.7107 17.0701 14.6512 17.0759 14.5945 17.0939C14.5379 17.1118 14.4855 17.1415 14.4407 17.181C14.3958 17.2206 14.3594 17.2691 14.3337 17.3236C14.308 17.3782 14.2936 17.4375 14.2914 17.498C13.9266 26.8408 17.0421 30.4463 17.8528 31.2216C17.7144 32.0099 17.6424 32.8199 17.6424 33.6461C17.6424 33.8909 17.6488 34.1343 17.6613 34.3762Z" fill="black"/>
<path fill-rule="evenodd" clip-rule="evenodd" d="M47.3197 30.1841C48.0174 28.5991 50.3105 23.0026 49.8428 18.8941C49.8287 18.7884 49.7748 18.6926 49.6924 18.6269C49.6101 18.5613 49.5059 18.5312 49.4021 18.5431C46.5076 18.8899 43.7684 20.053 41.4893 21.897C44.3479 23.8766 46.4546 26.7961 47.3197 30.1841Z" fill="white"/>
<path fill-rule="evenodd" clip-rule="evenodd" d="M38.8711 20.595C39.3901 19.521 42.2484 14.7577 52.2868 14.285C52.378 14.2746 52.4704 14.2858 52.5566 14.318C52.6428 14.35 52.7206 14.4022 52.7838 14.4701C52.9105 14.6306 52.9819 14.8291 52.9871 15.0351C52.998 15.2095 52.998 15.3843 52.9871 15.5586V16.0566V17.046C53.0324 17.5713 53.1128 18.0929 53.2278 18.6069C53.3477 19.0627 53.4077 19.533 53.4059 20.005C53.4059 20.3701 53.374 20.7379 53.3421 21.1059L53.334 21.1987C53.2871 21.7063 53.2246 22.2138 53.1434 22.7181C53.0495 23.3055 52.9308 23.8928 52.7869 24.4737C52.6284 25.122 52.4364 25.7613 52.2117 26.3889C51.9722 27.0606 51.6913 27.7163 51.3709 28.3519C51.0308 29.0185 50.6431 29.6586 50.2112 30.2671C49.7539 30.9154 49.2424 31.522 48.6826 32.0801C48.517 32.2392 48.3514 32.3946 48.1857 32.5454C48.1306 32.0174 48.0461 31.4976 47.9336 30.9879C49.2182 28.9867 52.4277 23.2442 51.4303 17.1514C51.4112 17.0394 51.3511 16.9389 51.2625 16.8703C51.1737 16.8016 51.0628 16.7697 50.952 16.7811C47.1756 17.2845 43.6318 18.9249 40.7724 21.493C40.1644 21.1527 39.5294 20.8522 38.8711 20.595ZM46.9577 31.8713L47.7448 32.9356C47.8047 32.8843 47.8645 32.8322 47.9243 32.7795C47.6392 32.4376 47.3145 32.1327 46.9577 31.8713Z" fill="black"/>
</svg>
