<svg width="64" height="64" viewBox="0 0 64 64" fill="none" xmlns="http://www.w3.org/2000/svg">
<circle cx="32" cy="32" r="32" fill="url(#paint0_radial_230_241)"/>
<path d="M32.3391 22.9568H32.2944C30.581 22.9568 29.1919 21.5677 29.1919 19.8543V19.8096C29.1919 18.0962 30.581 16.707 32.2944 16.707H32.3391C34.0526 16.707 35.4417 18.0962 35.4417 19.8096V19.8543C35.4417 21.5677 34.0526 22.9568 32.3391 22.9568Z" fill="url(#paint1_linear_230_241)"/>
<path d="M32.3391 22.9568H32.2944C30.581 22.9568 29.1919 21.5677 29.1919 19.8543V19.8096C29.1919 18.0962 30.581 16.707 32.2944 16.707H32.3391C34.0526 16.707 35.4417 18.0962 35.4417 19.8096V19.8543C35.4417 21.5677 34.0526 22.9568 32.3391 22.9568Z" fill="white"/>
<path d="M32.3391 35.2542H32.2944C30.581 35.2542 29.1919 33.8651 29.1919 32.1516V32.1069C29.1919 30.3935 30.581 29.0044 32.2944 29.0044H32.3391C34.0526 29.0044 35.4417 30.3935 35.4417 32.1069V32.1516C35.4417 33.8651 34.0526 35.2542 32.3391 35.2542Z" fill="url(#paint2_linear_230_241)"/>
<path d="M32.3391 35.2542H32.2944C30.581 35.2542 29.1919 33.8651 29.1919 32.1516V32.1069C29.1919 30.3935 30.581 29.0044 32.2944 29.0044H32.3391C34.0526 29.0044 35.4417 30.3935 35.4417 32.1069V32.1516C35.4417 33.8651 34.0526 35.2542 32.3391 35.2542Z" fill="white"/>
<path d="M23.1443 32.1069V32.1516C23.1443 33.8651 21.7552 35.2542 20.0418 35.2542H19.9971C18.2837 35.2542 16.8945 33.8651 16.8945 32.1516V32.1069C16.8945 30.3935 18.2837 29.0044 19.9971 29.0044H20.0418C21.7552 29.0044 23.1443 30.3935 23.1443 32.1069Z" fill="url(#paint3_linear_230_241)"/>
<path d="M23.1443 32.1069V32.1516C23.1443 33.8651 21.7552 35.2542 20.0418 35.2542H19.9971C18.2837 35.2542 16.8945 33.8651 16.8945 32.1516V32.1069C16.8945 30.3935 18.2837 29.0044 19.9971 29.0044H20.0418C21.7552 29.0044 23.1443 30.3935 23.1443 32.1069Z" fill="white"/>
<path d="M32.294 40.7515H32.3387C34.0519 40.7515 35.4408 42.1404 35.4408 43.8536V43.8983C35.4408 45.6115 34.0519 47.0004 32.3387 47.0004H32.294C30.5808 47.0004 29.1919 45.6115 29.1919 43.8983V43.8536C29.1919 42.1404 30.5808 40.7515 32.294 40.7515Z" fill="url(#paint4_linear_230_241)"/>
<path d="M32.294 40.7515H32.3387C34.0519 40.7515 35.4408 42.1404 35.4408 43.8536V43.8983C35.4408 45.6115 34.0519 47.0004 32.3387 47.0004H32.294C30.5808 47.0004 29.1919 45.6115 29.1919 43.8983V43.8536C29.1919 42.1404 30.5808 40.7515 32.294 40.7515Z" fill="white"/>
<path d="M41.7847 32.1516V32.1069C41.7847 30.3935 43.1738 29.0044 44.8872 29.0044H44.9319C46.6453 29.0044 48.0344 30.3935 48.0344 32.1069V32.1516C48.0344 33.8651 46.6453 35.2542 44.9319 35.2542H44.8872C43.1738 35.2542 41.7847 33.8651 41.7847 32.1516Z" fill="url(#paint5_linear_230_241)"/>
<path d="M41.7847 32.1516V32.1069C41.7847 30.3935 43.1738 29.0044 44.8872 29.0044H44.9319C46.6453 29.0044 48.0344 30.3935 48.0344 32.1069V32.1516C48.0344 33.8651 46.6453 35.2542 44.9319 35.2542H44.8872C43.1738 35.2542 41.7847 33.8651 41.7847 32.1516Z" fill="white"/>
<path d="M23.9957 42.255C25.086 42.255 25.9699 41.3712 25.9699 40.2808C25.9699 39.1905 25.086 38.3066 23.9957 38.3066C22.9054 38.3066 22.0215 39.1905 22.0215 40.2808C22.0215 41.3712 22.9054 42.255 23.9957 42.255Z" fill="url(#paint6_linear_230_241)"/>
<path d="M23.9957 42.255C25.086 42.255 25.9699 41.3712 25.9699 40.2808C25.9699 39.1905 25.086 38.3066 23.9957 38.3066C22.9054 38.3066 22.0215 39.1905 22.0215 40.2808C22.0215 41.3712 22.9054 42.255 23.9957 42.255Z" fill="white"/>
<path d="M23.9957 24.6081C25.086 24.6081 25.9699 23.7242 25.9699 22.6339C25.9699 21.5435 25.086 20.6597 23.9957 20.6597C22.9054 20.6597 22.0215 21.5435 22.0215 22.6339C22.0215 23.7242 22.9054 24.6081 23.9957 24.6081Z" fill="url(#paint7_linear_230_241)"/>
<path d="M23.9957 24.6081C25.086 24.6081 25.9699 23.7242 25.9699 22.6339C25.9699 21.5435 25.086 20.6597 23.9957 20.6597C22.9054 20.6597 22.0215 21.5435 22.0215 22.6339C22.0215 23.7242 22.9054 24.6081 23.9957 24.6081Z" fill="white"/>
<path d="M40.3892 24.6081C41.4795 24.6081 42.3634 23.7242 42.3634 22.6339C42.3634 21.5435 41.4795 20.6597 40.3892 20.6597C39.2989 20.6597 38.415 21.5435 38.415 22.6339C38.415 23.7242 39.2989 24.6081 40.3892 24.6081Z" fill="url(#paint8_linear_230_241)"/>
<path d="M40.3892 24.6081C41.4795 24.6081 42.3634 23.7242 42.3634 22.6339C42.3634 21.5435 41.4795 20.6597 40.3892 20.6597C39.2989 20.6597 38.415 21.5435 38.415 22.6339C38.415 23.7242 39.2989 24.6081 40.3892 24.6081Z" fill="white"/>
<path d="M40.3936 42.256C41.484 42.256 42.3678 41.3721 42.3678 40.2818C42.3678 39.1915 41.484 38.3076 40.3936 38.3076C39.3033 38.3076 38.4194 39.1915 38.4194 40.2818C38.4194 41.3721 39.3033 42.256 40.3936 42.256Z" fill="url(#paint9_linear_230_241)"/>
<path d="M40.3936 42.256C41.484 42.256 42.3678 41.3721 42.3678 40.2818C42.3678 39.1915 41.484 38.3076 40.3936 38.3076C39.3033 38.3076 38.4194 39.1915 38.4194 40.2818C38.4194 41.3721 39.3033 42.256 40.3936 42.256Z" fill="white"/>
<defs>
<radialGradient id="paint0_radial_230_241" cx="0" cy="0" r="1" gradientUnits="userSpaceOnUse" gradientTransform="translate(32 32) rotate(90) scale(32)">
<stop stop-color="#001AFF"/>
<stop offset="1" stop-color="#305EFF"/>
</radialGradient>
<linearGradient id="paint1_linear_230_241" x1="27.7649" y1="23.7284" x2="29.4544" y2="16.2722" gradientUnits="userSpaceOnUse">
<stop stop-color="#B18045"/>
<stop offset="1" stop-color="#FAC579"/>
</linearGradient>
<linearGradient id="paint2_linear_230_241" x1="27.7649" y1="36.0258" x2="29.4544" y2="28.5696" gradientUnits="userSpaceOnUse">
<stop stop-color="#B18045"/>
<stop offset="1" stop-color="#FAC579"/>
</linearGradient>
<linearGradient id="paint3_linear_230_241" x1="15.4676" y1="36.0258" x2="17.157" y2="28.5696" gradientUnits="userSpaceOnUse">
<stop stop-color="#B18045"/>
<stop offset="1" stop-color="#FAC579"/>
</linearGradient>
<linearGradient id="paint4_linear_230_241" x1="27.7651" y1="47.7719" x2="29.4543" y2="40.3167" gradientUnits="userSpaceOnUse">
<stop stop-color="#B18045"/>
<stop offset="1" stop-color="#FAC579"/>
</linearGradient>
<linearGradient id="paint5_linear_230_241" x1="40.3577" y1="36.0258" x2="42.0471" y2="28.5696" gradientUnits="userSpaceOnUse">
<stop stop-color="#B18045"/>
<stop offset="1" stop-color="#FAC579"/>
</linearGradient>
<linearGradient id="paint6_linear_230_241" x1="21.12" y1="42.7425" x2="22.1873" y2="38.0319" gradientUnits="userSpaceOnUse">
<stop stop-color="#B18045"/>
<stop offset="1" stop-color="#FAC579"/>
</linearGradient>
<linearGradient id="paint7_linear_230_241" x1="21.12" y1="25.0955" x2="22.1873" y2="20.385" gradientUnits="userSpaceOnUse">
<stop stop-color="#B18045"/>
<stop offset="1" stop-color="#FAC579"/>
</linearGradient>
<linearGradient id="paint8_linear_230_241" x1="37.5135" y1="25.0955" x2="38.5809" y2="20.385" gradientUnits="userSpaceOnUse">
<stop stop-color="#B18045"/>
<stop offset="1" stop-color="#FAC579"/>
</linearGradient>
<linearGradient id="paint9_linear_230_241" x1="37.5179" y1="42.7435" x2="38.5852" y2="38.0329" gradientUnits="userSpaceOnUse">
<stop stop-color="#B18045"/>
<stop offset="1" stop-color="#FAC579"/>
</linearGradient>
</defs>
</svg>
