<svg width="88" height="88" viewBox="0 0 88 88" fill="none" xmlns="http://www.w3.org/2000/svg">
<circle cx="44" cy="44" r="44" fill="#F0B4FF"/>
<path d="M67.3034 27.6988C66.7803 25.6844 65.099 23.6701 62.0725 21.4277C59.6439 19.6414 57.0659 18.6152 55.011 18.6152C54.5999 18.6152 54.2263 18.6532 53.8527 18.7293C52.9186 18.9193 52.0966 19.6034 51.5736 20.6296C50.9383 21.8458 50.7889 23.48 51.2 24.4682C51.3494 24.7723 51.5362 25.1523 51.7604 25.4944C49.7801 26.7106 48.6592 27.0526 48.5098 27.0906C53.6659 28.8389 57.9626 32.4876 60.6528 37.2383L60.6902 36.7822C60.8022 35.528 61.1758 34.0838 61.6989 32.6016C62.222 32.7536 62.7451 32.8296 63.2682 32.8296C64.6506 32.8296 65.8462 32.2595 66.5935 31.2334C67.3407 30.2072 67.6396 28.8389 67.3034 27.6988Z" fill="#5E12A0"/>
<path d="M61.9243 31.4993C65.3244 32.4493 66.7067 29.7889 66.2584 28.0026C65.7727 26.2163 64.2035 24.392 61.4386 22.3397C58.6737 20.2873 55.8716 19.4512 54.0781 19.8313C52.2847 20.2113 51.7615 22.9858 52.21 24.05C52.3968 24.468 52.8078 25.0761 53.3682 25.7602C52.6583 26.2543 51.9857 26.6344 51.4253 26.9765C54.8627 28.5347 57.8518 30.9671 60.0935 34.0076C60.3551 32.9815 60.7287 32.0693 61.0649 31.2711C61.3265 31.3091 61.6255 31.3851 61.9243 31.4993Z" fill="url(#paint0_radial_46_1425)"/>
<path d="M42.4573 68.7454C53.9922 68.7454 63.3432 59.2335 63.3432 47.4999C63.3432 35.7664 53.9922 26.2544 42.4573 26.2544C30.9222 26.2544 21.5713 35.7664 21.5713 47.4999C21.5713 59.2335 30.9222 68.7454 42.4573 68.7454Z" fill="url(#paint1_radial_46_1425)"/>
<path opacity="0.6" d="M64.5411 26.2532C61.7015 23.2127 59.3103 22.4146 56.4333 21.7685C54.1916 21.2364 54.7893 19.9442 57.5169 20.2102C56.2092 19.7541 54.9761 19.6401 54.0795 19.8301C52.286 20.2102 51.7629 22.9847 52.2113 24.0488C52.3981 24.4669 52.8091 25.075 53.3695 25.7591C52.3608 26.4432 51.5014 26.9373 50.7915 27.3174C51.1278 27.4694 51.5387 27.6594 52.0245 27.9255C53.2948 28.6096 54.6772 29.7497 54.6772 29.7497C52.5849 27.9255 53.0333 27.0893 55.9103 25.037C56.8069 24.3909 58.4509 24.4669 59.9828 25.265C61.5147 26.0632 63.3081 28.0775 63.3081 28.0775L61.5894 31.4221C61.7015 31.4601 61.8136 31.4981 61.9257 31.5361C63.0093 31.8401 63.8686 31.7641 64.5411 31.4981C65.3257 31.004 67.3807 29.3317 64.5411 26.2532Z" fill="#A98698"/>
<path d="M56.3936 23.5928C57.141 23.8968 58.1123 24.4289 59.308 25.2271C60.7278 26.1772 61.9607 27.2414 62.7454 28.0775C61.4377 29.8258 60.5783 32.2202 60.0552 33.8925C60.3167 34.2726 60.6156 34.6526 60.8773 35.0326C61.1388 34.0826 61.5871 32.6763 62.1849 31.27C62.3343 31.3081 62.5211 31.3081 62.708 31.3081C63.1564 31.3081 63.6794 31.232 64.0904 30.89C64.3893 30.662 64.7256 30.2439 64.6883 29.4837C64.6883 28.7616 64.1278 27.8495 62.9696 26.7473C62.1475 25.9492 61.0267 25.075 59.9058 24.2769C56.6925 22.1105 54.4508 21.5024 53.442 22.5286C52.7694 23.2127 52.8441 24.0489 53.0683 24.657C51.8728 25.4551 50.8639 26.0252 50.1914 26.4052C50.6397 26.5573 51.0507 26.7473 51.4991 26.9373C52.6947 26.2912 54.4134 25.189 56.3936 23.5928ZM63.4553 29.0277C63.5673 29.2177 63.6047 29.4077 63.6047 29.5218C63.6047 29.8638 63.4926 29.9779 63.4179 30.0539C63.2685 30.1679 62.9696 30.2439 62.708 30.2439C62.9322 29.7878 63.1937 29.4077 63.4553 29.0277ZM54.2266 23.3647C54.3387 23.2507 54.6376 23.1747 55.1234 23.2507C54.7496 23.5548 54.376 23.8208 54.0024 24.0869C53.9651 23.8208 54.0024 23.5548 54.2266 23.3647Z" fill="#5E12A0"/>
<path d="M42.4568 25.0015C30.2391 25.0015 20.3379 35.0731 20.3379 47.5012C20.3379 59.9293 30.2391 70.001 42.4568 70.001C54.6746 70.001 64.5757 59.9293 64.5757 47.5012C64.5757 35.0731 54.6372 25.0015 42.4568 25.0015ZM42.4568 68.7468C30.9116 68.7468 21.5709 59.2451 21.5709 47.5012C21.5709 35.7573 30.9116 26.2557 42.4568 26.2557C54.002 26.2557 63.3427 35.7573 63.3427 47.5012C63.3427 59.2451 53.9646 68.7468 42.4568 68.7468Z" fill="#5E12A0"/>
<path opacity="0.6" d="M42.4573 68.7454C53.9922 68.7454 63.3432 59.2335 63.3432 47.5C63.3432 35.7664 53.9922 26.2544 42.4573 26.2544C30.9222 26.2544 21.5713 35.7664 21.5713 47.5C21.5713 59.2335 30.9222 68.7454 42.4573 68.7454Z" fill="url(#paint2_linear_46_1425)"/>
<path opacity="0.6" d="M42.3072 66.1607C30.9115 64.2984 23.1773 53.3907 25.0455 41.7987C25.8674 36.6679 28.4081 32.2971 31.995 29.1426C26.7641 32.2211 22.8784 37.58 21.8322 44.117C20.0014 55.709 27.7356 66.6168 39.094 68.4791C45.4456 69.5433 51.5732 67.529 56.0941 63.5763C52.0963 65.9327 47.2391 66.9589 42.3072 66.1607Z" fill="#A98698"/>
<path opacity="0.6" d="M45.7782 26.5583C40.51 25.6842 35.3913 26.9004 31.2066 29.5988C31.1318 29.6749 31.0571 29.7509 31.0571 29.7509C32.6637 28.7627 35.0176 27.8885 35.0176 27.8885C28.9648 31.4611 27.0967 35.5278 27.0967 35.5278C29.4506 30.8911 36.3627 27.6225 41.7803 27.3945C47.198 27.1664 50.7475 28.8007 55.0816 32.3353C59.4157 35.9079 62.0311 43.205 61.7696 48.9821C61.5454 54.759 58.5563 59.4338 58.5563 59.4338C60.6113 56.7353 61.8443 54.759 62.6289 52.7447C62.7783 52.1365 62.9279 51.5285 63.0026 50.8823C64.8707 39.3284 57.1739 28.4206 45.7782 26.5583Z" fill="url(#paint3_linear_46_1425)"/>
<path d="M62.2955 47.3105C62.2955 58.4464 53.4031 67.4919 42.4557 67.4919C31.5084 67.4919 22.5786 58.4464 22.5786 47.3105H62.2955Z" fill="url(#paint4_linear_46_1425)"/>
<g opacity="0.6">
<path opacity="0.6" d="M60.7299 47.3105C60.7299 58.1803 52.2859 67.0738 41.6748 67.4919C41.9363 67.4919 42.1979 67.4919 42.4594 67.4919C53.4068 67.4919 62.2992 58.4464 62.2992 47.3105H60.7299Z" fill="url(#paint5_linear_46_1425)"/>
</g>
<g opacity="0.7">
<path opacity="0.7" d="M25.3808 47.313H22.5786C22.5786 58.4489 31.471 67.4944 42.4184 67.4944C42.9041 67.4944 43.3524 67.4944 43.8008 67.4564C33.526 66.6962 25.3808 57.9547 25.3808 47.313Z" fill="url(#paint6_linear_46_1425)"/>
</g>
<path d="M62.2582 47.5017C62.2582 45.1834 58.2976 43.8532 53.0295 43.3971C49.2185 43.093 45.37 43.4731 40.9612 44.8413C37.1502 45.9815 33.7128 45.7915 31.2095 45.4874C25.6424 44.8413 22.5786 44.7653 22.5786 47.5017C22.5786 51.4544 30.4996 56.3952 42.381 54.685C48.3964 53.8108 51.4976 52.0245 55.0471 50.8083C58.8955 49.5161 62.2582 49.5541 62.2582 47.5017Z" fill="url(#paint7_linear_46_1425)"/>
<g opacity="0.6">
<path opacity="0.6" d="M59.534 31.7662C59.4966 31.7662 59.4593 31.7662 59.4593 31.7662C59.235 31.7282 59.0855 31.5002 59.1229 31.2341C59.4593 29.4858 60.879 27.8135 60.9537 27.7375C61.1032 27.5475 61.4021 27.5475 61.5516 27.6995C61.7384 27.8515 61.7384 28.1556 61.5889 28.3076C61.5516 28.3456 60.2438 29.9039 59.945 31.4241C59.9076 31.6522 59.7208 31.7662 59.534 31.7662Z" fill="url(#paint8_linear_46_1425)"/>
</g>
<defs>
<radialGradient id="paint0_radial_46_1425" cx="0" cy="0" r="1" gradientUnits="userSpaceOnUse" gradientTransform="translate(65.5769 25.6082) scale(16.6991 16.9867)">
<stop stop-color="#FFEAFF" stop-opacity="0.6"/>
<stop offset="0.6807" stop-color="#A087C9"/>
<stop offset="1" stop-color="#10002F"/>
</radialGradient>
<radialGradient id="paint1_radial_46_1425" cx="0" cy="0" r="1" gradientUnits="userSpaceOnUse" gradientTransform="translate(56.2855 32.8529) scale(40.8568 41.5604)">
<stop stop-color="#FFEAFF" stop-opacity="0.6"/>
<stop offset="0.6807" stop-color="#A087C9"/>
<stop offset="1" stop-color="#10002F"/>
</radialGradient>
<linearGradient id="paint2_linear_46_1425" x1="39.107" y1="68.4441" x2="46.0133" y2="26.5578" gradientUnits="userSpaceOnUse">
<stop stop-color="#81FFFF"/>
<stop offset="0.6202" stop-color="white" stop-opacity="0"/>
</linearGradient>
<linearGradient id="paint3_linear_46_1425" x1="57.1722" y1="33.0713" x2="39.6322" y2="48.8921" gradientUnits="userSpaceOnUse">
<stop offset="0.2888" stop-color="white"/>
<stop offset="0.7796" stop-color="white" stop-opacity="0"/>
</linearGradient>
<linearGradient id="paint4_linear_46_1425" x1="22.5954" y1="57.3894" x2="62.2859" y2="57.3894" gradientUnits="userSpaceOnUse">
<stop stop-color="#0002E9"/>
<stop offset="0.9952" stop-color="#FF00C7"/>
<stop offset="0.9953" stop-color="#FF00C7"/>
</linearGradient>
<linearGradient id="paint5_linear_46_1425" x1="64.1684" y1="49.0814" x2="42.2174" y2="69.4752" gradientUnits="userSpaceOnUse">
<stop offset="0.2888" stop-color="white"/>
<stop offset="0.7796" stop-color="white" stop-opacity="0"/>
</linearGradient>
<linearGradient id="paint6_linear_46_1425" x1="22.5954" y1="57.3919" x2="43.8296" y2="57.3919" gradientUnits="userSpaceOnUse">
<stop stop-color="#000292"/>
<stop offset="0.9952" stop-color="#7D00C7"/>
</linearGradient>
<linearGradient id="paint7_linear_46_1425" x1="22.6221" y1="49.1784" x2="62.2593" y2="49.1784" gradientUnits="userSpaceOnUse">
<stop stop-color="#000292"/>
<stop offset="0.9952" stop-color="#BE00C7"/>
</linearGradient>
<linearGradient id="paint8_linear_46_1425" x1="61.6122" y1="27.5524" x2="58.6923" y2="32.2169" gradientUnits="userSpaceOnUse">
<stop offset="0.2888" stop-color="white"/>
<stop offset="0.7796" stop-color="white" stop-opacity="0"/>
</linearGradient>
</defs>
</svg>
